<?xml version="1.0" encoding="utf-8" ?><svg xmlns="http://www.w3.org/2000/svg" xmlns:xlink="http://www.w3.org/1999/xlink" width="1024" height="1024" viewBox="0 0 1024 1024"><path d="M0 0L1024 0L1024 46.6697L1024 677.217L1024 690.653L1024 760.108L1024 1024L0 1024L0 732.242L0 680.737L0 666.732L0 38.4604L0 0Z"/><defs><linearGradient id="gradient_0" gradientUnits="userSpaceOnUse" x1="517.07904" y1="29.823215" x2="506.59076" y2="673.75134"><stop offset="0" stop-color="#95D5F0"/><stop offset="1" stop-color="#F4F4F7"/></linearGradient></defs><path fill="url(#gradient_0)" d="M0 0L1024 0L1024 46.6697L1024 677.217C1016.96 675.621 1009.66 674.669 1002.53 673.545C984.623 670.724 966.541 668.476 948.72 665.227C950.202 649.96 950.702 634.625 951.254 619.303C957.129 619.5 964.361 621.151 970.075 620.105C971.562 619.833 972.547 619.545 973.386 618.214C974.677 616.168 974.904 612.615 975.081 610.211C976.41 592.195 975.856 573.598 975.969 555.518C976.001 550.382 977.031 543.724 976.07 538.814C975.758 537.22 975.189 536.588 973.895 535.668C971.808 535.348 969.299 534.87 967.364 535.98C964.164 537.815 961.376 592.523 959.682 600.167C948.759 599.629 937.912 598.589 926.967 598.198C926.911 589.072 929.744 539.081 927.852 536.061C927.123 534.899 925.556 534.612 924.288 534.472C922.45 534.268 920.237 534.312 918.773 535.578C917.825 536.396 917.707 538.303 917.565 539.501C916.746 546.421 908.373 612.104 911.206 614.862C913.962 617.545 927.522 617.266 931.527 617.452C931.633 632.535 930.528 648.124 929.422 663.174L882.676 656.981C884.116 651.955 884.643 646.545 882.969 641.507C881.21 636.214 877.63 632.335 872.736 629.791C871.85 605.916 873.287 580.21 873.638 556.112C874.597 504.797 875.218 453.476 875.502 402.153C887.861 410.631 900.577 418.563 912.91 427.09C921.538 433.056 936.883 444.877 945.493 449.022C949.312 450.839 953.528 451.658 957.749 451.403C963.45 451.086 969.149 448.789 972.829 444.307C974.893 441.793 976.602 438.479 976.162 435.13C975.758 432.062 973.563 429.846 971.417 427.806C963.912 420.673 955 414.384 946.888 407.925C926.308 391.539 905.275 375.827 884.581 359.614C811.756 302.453 738.1 246.358 663.637 191.348L536.991 99.8811C529.283 82.3595 523.624 63.5176 512.262 47.8152C507.248 57.3788 502.223 66.9782 497.686 76.7789C495.005 82.5716 491.581 93.8046 488.066 98.388C484.869 102.557 477.863 106.222 473.573 109.363L429.325 141.44C387.12 172.15 345.86 204.311 302.821 233.869C302.594 227.751 302.608 221.625 302.863 215.507C305.495 215.565 309.297 216.105 311.534 214.449C312.76 213.54 313.173 212.043 313.217 210.59C313.365 205.767 312.008 200.183 311.46 195.336C310.415 186.103 310.048 176.144 308.088 167.08C307.726 165.406 307.387 163.954 306.225 162.643C304.579 162.02 303.064 161.775 301.309 161.685C287.533 160.978 273.266 161.881 259.441 161.917C241.192 161.964 222.621 161.276 204.407 162.143C202.195 162.248 200.017 162.428 197.946 163.26C196.687 166.285 196.28 169.756 195.538 172.953L190.42 195.365C189.391 199.779 187.623 204.571 187.227 209.064C187.07 210.848 187.297 212.43 188.599 213.776C191 216.259 195.602 215.559 198.72 215.493C197.675 247.833 198.491 280.459 198.498 312.827C188.979 321.928 175.981 331.109 165.532 339.49C136.421 362.835 106.683 385.38 77.6274 408.809C68.078 416.509 57.0896 423.526 48.416 432.151C48.3755 436.214 48.4983 439.531 50.6232 443.16C53.1312 447.445 57.3849 450.226 62.1635 451.376C66.7994 452.462 71.6547 452.132 76.1007 450.428C83.2907 447.613 89.9753 441.864 96.3894 437.594C113.674 426.088 130.699 413.972 148.362 403.073C149.279 426.579 148.325 450.404 148.395 473.942L148.371 637.266L82.7233 650.277C81.8538 643.868 80.352 624.698 78.6719 620.201C78.0849 619.762 77.5488 619.395 76.8144 619.244C73.3306 618.526 51.6891 622.538 48.8255 624.464C47.5692 629.491 52.6683 649.479 54.082 655.396C47.7789 657.244 41.1794 658.351 34.746 659.704C23.1892 662.17 11.6065 664.513 0 666.732L0 38.4604L0 0Z"/><path fill="#82CBEA" d="M0 0L1024 0L1024 46.6697C1023.33 47.5174 1022.92 48.3669 1022.44 49.3265C1021.86 48.7964 1020.92 47.6122 1020.27 47.278C1015.04 44.5848 1000.64 47.2742 995.894 45.0636C994.781 44.5457 993.992 43.6132 993.002 42.9407C991.553 41.9554 988.262 42.7992 986.565 43.0232C985.971 42.4467 985.409 41.9575 984.722 41.4952C975.878 43.0243 964.905 39.1705 955.891 38.0088C951.409 37.4311 919.291 36.7231 916.002 37.6416C913.88 38.2339 913.178 39.4738 912.114 41.2516C911.563 42.1745 911.148 41.2842 909.976 41.6936C906.867 40.1364 903.765 38.6438 900.488 37.4694C885.333 32.0388 871.667 34.4982 857.412 41.2682C856.336 41.2988 856.618 41.394 855.764 41.1153C851.917 39.8594 848.283 38.1336 844.234 37.5787C838.459 36.7871 831.891 38.4671 825.965 38.2632C814.111 37.8554 802.007 36.4295 790.166 36.7609C776.947 37.1309 763.846 39.0504 750.657 39.1712C730.47 39.3561 710.25 37.9447 690.088 37.238C672.466 36.6204 654.755 36.9266 637.119 36.3732C630.098 36.1529 623.053 35.092 616.062 35.0131L574.507 34.7365C564.706 34.588 554.924 34.069 545.112 34.0777C540.132 34.0821 535.017 34.1026 530.055 34.5781C526.32 34.9359 522.556 35.8154 518.814 35.9431C517.101 36.0015 506.692 36.1656 505.778 35.7198C505.029 35.3548 504.988 34.1094 503.974 33.9425C503.842 34.7615 503.688 35.3834 503.329 36.1328C500.647 36.6287 497.159 36.0121 494.378 35.9424C478.741 35.5501 463.097 34.4578 447.471 33.6979C444.978 33.5767 441.984 33.9996 439.605 33.5986C439.499 33.3253 439.527 32.9473 439.288 32.7788C439.053 32.614 432.253 33.0703 431.382 33.052L347.175 31.7619C344.153 31.6935 335.877 32.6281 333.686 31.423C332.865 30.9714 332.611 30.8079 331.652 30.8994C324.177 31.6132 316.743 30.7922 309.275 30.7299C301.692 30.6668 293.888 31.0904 286.293 31.2827L219.253 32.813C211.703 32.9677 204.205 33.7286 196.641 33.7775C180.241 33.8835 163.878 32.5226 147.479 32.8375C138.689 33.0062 130.619 34.9785 121.956 35.9695C112.113 37.0955 102.018 37.3815 92.1283 38.0281C89.7884 38.1811 87.515 38.8211 85.2348 38.9515C79.6283 39.272 73.8655 38.0222 68.2448 37.911C64.5972 37.8388 60.7504 38.5029 57.1218 38.912L55.6168 37.6945C48.1557 38.176 40.7011 37.703 33.244 38.013C26.2532 38.3036 19.2012 39.7076 12.1579 39.7905C7.23171 39.8484 7.92854 37.3932 1.32737 39.214L0 38.4604L0 0Z"/><path fill="#6798B1" d="M857.412 41.2682C871.667 34.4982 885.333 32.0388 900.488 37.4694C903.765 38.6438 906.867 40.1364 909.976 41.6936C912.456 43.3669 914.971 45.0849 917.276 46.9948C931.958 59.1575 935.775 75.4041 937.517 93.5908C938.349 93.5653 939.17 93.5531 940.003 93.5653C951.351 93.732 961.511 97.7894 969.388 106.066C977.299 114.378 982.928 130.068 982.312 141.442C982.183 143.815 981.588 145.367 979.783 146.907C971.54 147.909 962.663 147.238 954.336 147.224C938.954 147.157 923.571 147.192 908.189 147.33L729.033 147.752L666.9 147.772C658.98 147.78 646.963 148.723 639.564 147.535C638.706 146.842 638.307 146.407 638.147 145.214C637.873 143.169 639.55 140.807 640.73 139.311C651.817 125.245 670.292 121.829 687.023 120.063C691.302 114.405 695.505 109.608 701.627 105.868C716.381 96.854 730.819 97.0858 747.053 100.945C747.872 98.4207 748.811 95.8968 749.962 93.5031C756.175 80.5802 768.927 70.291 782.383 65.7232C800.464 59.5858 815.469 63.5327 832.02 71.6306C838.043 58.7405 845.309 49.0223 857.412 41.2682Z"/><path fill="#FCFCFC" d="M878.828 41.6929C878.86 41.6888 878.892 41.6829 878.924 41.6807C890.925 40.888 902.275 44.3923 911.744 51.8706C927.102 64.0003 928.013 75.8683 930.169 93.9001C930.448 96.241 930.814 97.9669 932.983 99.2404C938.619 102.549 949.29 97.396 961.28 106.964C971.959 115.486 974.596 127.58 976.039 140.467L733.25 140.517L647.946 141.058C660.217 129.556 675.693 127.786 691.709 126.631C695.125 120.762 699.108 115.73 704.758 111.855C718.032 102.751 730.506 104.444 745.295 107.223C746.872 107.52 749.082 108.016 750.545 107.082C753.343 105.295 756.636 95.3774 758.973 91.8641C762.657 86.3385 767.379 81.5807 772.877 77.8546C786.921 68.449 803.255 67.3048 818.852 73.2983C824.238 75.368 829.148 78.4996 834.865 79.6356C835.758 79.2401 835.978 79.0128 836.504 78.2047C837.816 76.1894 838.635 73.6172 839.636 71.4039C841.627 66.9414 844.159 62.7405 847.175 58.8957C855.324 48.6501 865.934 43.1878 878.828 41.6929Z"/><path fill="#6798B1" d="M101.469 56.6355C105.439 56.3678 109.365 56.3787 113.268 57.2375C126.067 60.0534 133.488 68.8887 140.22 79.4821C148.917 76.0121 156.921 74.6376 166.098 77.0768C178.045 80.2519 184.826 87.7716 190.849 98.1274C202.937 97.9543 213.993 100.644 224.981 105.667C230.518 108.198 248.038 117.434 250.185 123.15C250.092 124.459 250.021 124.962 249.089 125.996C247.394 127.879 198.83 127.342 193.625 127.376C165.769 127.126 137.912 127.057 110.055 127.168L67.4682 127.488C59.4468 127.52 49.8169 128.652 42.0955 126.64C41.1231 125.756 40.5838 124.965 40.352 123.662C39.4417 118.548 42.423 110.428 45.306 106.155C50.8085 97.9992 57.824 93.95 67.3764 92.0873C69.1615 85.6487 72.2342 79.2842 75.9256 73.7295C82.1078 64.4266 90.5359 58.7784 101.469 56.6355Z"/><path fill="#FCFCFC" d="M103.001 63.1484C113.508 62.0993 124.37 67.5246 130.186 76.2777C131.803 78.7109 134.042 84.5002 136.511 85.8526C139.507 87.4945 147.892 83.2783 151.57 82.6939C156.12 81.9709 160.978 82.1962 165.371 83.6173C176.173 87.112 181.047 95.3473 185.801 104.865C206.902 102.9 222.115 109.822 239.647 121.285C222.461 121.137 205.258 121.391 188.071 121.478C157.45 121.125 126.826 121.004 96.2028 121.116C79.5414 121.15 62.7773 121.637 46.132 121.042C47.3259 116.385 49.0634 111.69 51.9419 107.793C57.4985 100.268 61.7936 100.204 70.116 98.7314C71.1938 98.5407 72.182 98.3115 72.8455 97.3762C74.5609 94.9582 74.5893 91.2195 75.5776 88.4323C76.9759 84.4885 79.1526 80.6267 81.5862 77.2295C86.8993 69.8125 93.859 64.6123 103.001 63.1484Z"/><path fill="#93BD4D" d="M65.3988 712.004C69.3116 734.298 74.0136 756.531 78.4073 778.74C80.4373 789.001 82.7966 799.303 84.2836 809.652C73.5212 810.395 28.304 812.88 21.8571 820.25C19.0466 823.463 21.5763 846.633 21.6377 852.52C26.8223 854.674 31.9683 856.499 37.4489 857.739C40.9116 880.576 44.7071 903.361 48.8341 926.087C49.7845 930.918 50.5551 935.783 51.1442 940.672C72.2187 954.043 115.439 955.279 139.771 949.729C146.702 948.148 155.131 945.686 160.849 941.294C161.499 938.764 161.976 936.359 162.298 933.762C163.391 928.587 164.125 923.301 164.998 918.083C177.356 918.057 189.691 917.456 202.061 917.495C202.294 922.261 200.87 925.795 200.197 930.376C199.74 933.49 199.91 936.801 199.973 939.94C231.157 940.011 262.341 939.73 293.519 939.096L293.549 927.389C294.493 926.317 294.72 926.466 296.153 926.358C306.334 925.588 318.378 925.919 326.557 932.702C321.673 941.064 315.203 948.775 309.455 956.593C303.427 964.793 297.775 973.251 291.884 981.548C288.657 986.095 285.007 990.63 282.241 995.462C339.706 995.992 397.174 996.047 454.64 995.628L741.613 995.505C727.27 971.941 711.19 949.411 695.661 926.622C711.19 926.432 726.719 926.686 742.248 926.527C750.538 926.442 759.415 925.447 767.636 926.249C768.105 927.133 768.204 927.866 768.381 928.836C768.681 930.474 768.82 931.372 770.296 932.349C776.233 936.283 786.277 938.739 793.334 938.375L795.784 938.333C800.69 935.239 803.086 926.18 804.852 921.031C805.254 920.046 805.486 918.96 805.773 917.934C828.074 918.465 850.307 916.963 872.596 916.181C898.466 915.273 964.921 915.891 986.19 905.017C987.64 904.276 989.242 902.76 989.531 901.083C989.719 899.994 989.309 898.826 988.733 897.913C985.13 892.198 973.124 890.482 966.969 889.353C971.179 885.038 974.58 880.004 977.012 874.488C978.288 871.633 979.499 868.598 980.039 865.505C981.558 856.815 984.952 808.737 982.684 802.756C979.426 800.501 946.559 798.951 940.027 798.456C941.779 777.983 942.37 757.437 944.302 736.979L944.731 739.44C948.181 741.348 954.084 741.372 958.074 742.332C972.372 745.771 986.602 749.835 1000.81 753.647C1008.4 755.682 1016.76 757.12 1024 760.108L1024 1024L0 1024L0 732.242C18.6677 722.94 45.1658 717.143 65.3988 712.004Z"/><path fill="#659535" d="M48.8341 926.087C49.7845 930.918 50.5551 935.783 51.1442 940.672C72.2187 954.043 115.439 955.279 139.771 949.729C146.702 948.148 155.131 945.686 160.849 941.294C161.499 938.764 161.976 936.359 162.298 933.762C165.545 934.26 168.729 934.966 171.835 936.051C174.981 937.151 180.995 939.791 182.052 943.275C182.444 944.568 182.342 945.591 181.664 946.754C179.298 950.812 171.793 953.237 167.499 954.598C135.026 964.895 92.6666 963.993 59.4187 957.958C50.5233 956.343 41.178 954.68 33.1285 950.377C30.3311 948.882 27.0426 946.705 26.2342 943.418C23.6729 933.003 45.6886 931.108 48.8341 926.087Z"/><path fill="#659535" d="M804.852 921.031C814.31 920.994 837.183 920.186 844.122 927.667C844.778 928.374 845.201 929.333 845.069 930.3C844.864 931.814 843.94 932.757 842.741 933.597C835.223 938.865 805.008 940.17 795.784 938.333C800.69 935.239 803.086 926.18 804.852 921.031Z"/><path fill="#659535" d="M354.813 912.749C345.207 924.243 337.33 937.89 329.035 950.389C323.079 959.365 316.359 968.094 310.801 977.292C309.976 978.658 309.004 980.068 309.018 981.69C309.87 982.832 310.525 983.538 311.968 983.77C315.258 984.3 319.11 983.901 322.472 983.889L344.762 983.81L428.1 983.548L620.264 983.624C650.205 983.618 680.262 984.068 710.19 983.575C712.455 983.538 714.457 983.303 716.592 982.528C717.418 981.588 717.625 981.462 717.783 980.241C711.355 970.76 703.909 961.878 697.127 952.634C687.399 939.375 678.231 925.721 668.43 912.508C708.626 912.599 748.823 912.389 789.016 911.878C788.938 917.88 787.16 933.094 791.601 937.319C792.195 937.884 792.576 938.124 793.334 938.375C786.277 938.739 776.233 936.283 770.296 932.349C768.82 931.372 768.681 930.474 768.381 928.836C768.204 927.866 768.105 927.133 767.636 926.249C759.415 925.447 750.538 926.442 742.248 926.527C726.719 926.686 711.19 926.432 695.661 926.622C711.19 949.411 727.27 971.941 741.613 995.505L454.64 995.628C397.174 996.047 339.706 995.992 282.241 995.462C285.007 990.63 288.657 986.095 291.884 981.548C297.775 973.251 303.427 964.793 309.455 956.593C315.203 948.775 321.673 941.064 326.557 932.702C318.378 925.919 306.334 925.588 296.153 926.358C294.72 926.466 294.493 926.317 293.549 927.389C293.46 926.064 293.654 925.363 292.557 924.462C292.244 924.204 291.575 923.842 291.206 923.632C289.642 920.87 290.132 916.27 290.112 913.143C311.678 913.25 333.26 913.626 354.813 912.749Z"/><path fill="#C6C852" d="M948.074 678.214C973.32 682.674 998.873 685.569 1024 690.653L1024 760.108C1016.76 757.12 1008.4 755.682 1000.81 753.647C986.602 749.835 972.372 745.771 958.074 742.332C954.084 741.372 948.181 741.348 944.731 739.44L944.302 736.979C945.63 717.403 947.326 697.823 948.074 678.214Z"/><path fill="#93BD4D" d="M870.911 713.49C871.348 718.395 871.093 723.38 871.013 728.299C888.853 732.026 907.07 733.277 924.911 737.284L920.768 797.559L895.868 796.107C891.467 795.874 886.777 795.321 882.397 795.673C880.248 795.846 878.641 796.24 876.805 797.367C874.798 800.07 875.061 839.196 875.129 845.269C873.137 845.182 871.405 844.811 869.477 844.317C869.543 814.05 869.846 783.785 870.384 753.523C870.6 740.234 869.966 726.739 870.911 713.49Z"/><path fill="#C6C852" d="M878.372 667.828C895.047 670.174 911.735 672.731 928.444 674.804C927.531 695.648 926.035 716.453 924.911 737.284C907.07 733.277 888.853 732.026 871.013 728.299C871.093 723.38 871.348 718.395 870.911 713.49C870.695 700.132 871.538 686.763 871.55 673.401C874.083 671.712 876.22 669.993 878.372 667.828Z"/><path fill="#C6C852" d="M0 680.737C18.7582 676.501 37.7231 673.248 56.4142 668.699C59.1994 683.194 61.8338 697.672 65.3988 712.004C45.1658 717.143 18.6677 722.94 0 732.242L0 680.737Z"/><path fill="#659535" d="M869.477 844.317C871.405 844.811 873.137 845.182 875.129 845.269C875.724 862.508 878.638 878.873 891.932 891.15C902.711 901.104 917.41 905.28 931.895 904.532C946.364 903.786 956.153 898.449 966.969 889.353C973.124 890.482 985.13 892.198 988.733 897.913C989.309 898.826 989.719 899.994 989.531 901.083C989.242 902.76 987.64 904.276 986.19 905.017C964.921 915.891 898.466 915.273 872.596 916.181C850.307 916.963 828.074 918.465 805.773 917.934L807.347 911.975C820.876 912.05 834.405 912.025 847.934 911.898C854.834 911.779 862.067 911.959 868.883 910.822C869.724 902.108 869.45 893.195 869.459 884.449L869.477 844.317Z"/><path fill="#659535" d="M166.027 911.994C178.001 912.065 189.975 911.993 201.947 911.777L202.061 917.495C189.691 917.456 177.356 918.057 164.998 918.083L166.027 911.994Z"/><path fill="#9D713F" d="M155.425 398.685C159.049 396.65 162.473 393.927 165.885 391.54L191.61 373.393C196.209 370.185 200.82 366.627 205.746 363.964C206.197 373.125 206.375 382.903 205.578 392.048C205.52 395.783 205.527 399.53 205.382 403.262L165.636 403.513C165.551 407.36 165.517 411.207 165.535 415.054C165.718 415.11 165.899 415.172 166.084 415.222C166.733 415.401 167.21 415.433 167.874 415.423C169.377 416.746 169.075 420.008 169.458 422.037L170.152 424.128C171.595 429.143 172.455 433.353 176.86 436.593C178.674 471.134 178.536 505.874 179.096 540.46C177.217 540.438 170.905 539.75 169.684 541.244C166.866 544.692 168.682 558.641 169.085 563.262C169.519 564.772 169.773 565.683 170.994 566.776C177.159 568.797 200.701 567.623 208.558 567.603L208.561 574.027L208.648 663.946C200.571 668.884 174.587 686.19 172.339 694.398C171.939 695.861 172.077 696.128 172.701 697.42C173.867 698.28 174.891 698.504 176.289 698.715C186.872 700.314 197.7 699.539 208.398 701.371L208.565 787.561C206.713 788.467 204.572 789.192 203.751 791.245C202.24 795.022 202.285 886.901 202.115 898.503L202.094 905.501L166.407 905.561L167.682 897.139C170.493 883.71 172.365 869.944 174.71 856.416C179.632 855.278 184.567 853.99 189.199 851.95C189.616 847.135 189.432 842.197 189.603 837.361C189.76 832.906 190.44 827.938 189.946 823.519C189.759 821.851 189.256 820.198 188.176 818.885C183.809 813.574 162.387 811.802 155.22 810.872L155.416 408.145L155.425 398.685Z"/><path fill="#6F4625" d="M155.425 398.685C159.049 396.65 162.473 393.927 165.885 391.54L191.61 373.393C196.209 370.185 200.82 366.627 205.746 363.964C206.197 373.125 206.375 382.903 205.578 392.048C205.257 386.552 205.415 381.029 205.465 375.526C191.546 381.863 179.312 392.579 166.824 401.287C163.142 403.855 159.197 405.785 155.416 408.145L155.425 398.685Z"/><path fill="#6F4625" d="M167.682 897.139L168.125 898.25C173.686 899.603 195.045 898.54 202.115 898.503L202.094 905.501L166.407 905.561L167.682 897.139Z"/><path fill="#6F4625" d="M169.085 563.262C169.519 564.772 169.773 565.683 170.994 566.776C177.159 568.797 200.701 567.623 208.558 567.603L208.561 574.027C202.22 573.147 173.756 573.521 170.472 571.392C168.631 568.821 168.985 566.251 169.085 563.262Z"/><path fill="#6F4625" d="M170.152 424.128C171.595 429.143 172.455 433.353 176.86 436.593C176.134 436.628 175.403 436.669 174.676 436.664C173.395 436.657 172.68 436.407 171.826 435.471C169.311 432.715 169.992 427.631 170.152 424.128Z"/><path fill="#6F4625" d="M165.535 415.054C165.718 415.11 165.899 415.172 166.084 415.222C166.733 415.401 167.21 415.433 167.874 415.423C169.377 416.746 169.075 420.008 169.458 422.037C168.656 421.695 167.841 421.374 167.182 420.78C165.557 419.315 165.646 417.063 165.535 415.054Z"/><path fill="#9D713F" d="M697.36 568.937C714.598 569.925 734.189 568.992 751.596 568.708L751.573 575.921C752.025 632.21 752.082 688.501 751.746 744.79L751.674 787.386C751.678 794.528 752.036 801.873 751.585 808.993C752.436 820.056 751.832 831.565 751.82 842.669L751.756 905.442L697.478 905.434L697.478 893.066L697.404 660.06L697.208 598.007C697.154 589.83 696.109 576.65 697.36 568.937Z"/><path fill="#855A32" d="M751.585 808.993C752.436 820.056 751.832 831.565 751.82 842.669L751.756 905.442L697.478 905.434L697.478 893.066L751.324 892.978L751.294 835.916C751.29 827.227 750.461 817.564 751.585 808.993Z"/><path fill="#6F4625" d="M697.36 568.937C714.598 569.925 734.189 568.992 751.596 568.708L751.573 575.921C740.416 575.202 728.92 575.712 717.726 575.659C713.283 575.639 708.568 575.921 704.173 575.328C699.391 574.682 700.341 572.812 697.83 569.531C697.677 569.331 697.517 569.135 697.36 568.937Z"/><path fill="#BCBCBE" d="M484.205 110.639C482.621 120.336 483.358 129.643 485.857 139.11C487.253 144.339 489.157 149.423 490.958 154.523C481.616 162.904 470.274 169.7 460.116 177.113C428.725 200.022 396.34 221.566 364.628 244.042C301.749 288.764 238.351 332.752 174.447 375.997C152.853 390.792 131.162 405.444 109.375 419.953C99.1988 426.813 89.1808 434.662 78.5976 440.808C75.0718 442.855 71.8897 443.837 67.767 443.632C64.3233 443.462 59.7778 442.439 57.5126 439.581C56.9976 438.931 56.7782 438.2 56.5273 437.423C56.6235 436.96 56.6415 436.473 56.816 436.033C57.8669 433.383 82.6009 413.908 86.3919 411.166C155.431 355.347 225.643 300.994 296.981 248.143L423.088 155.241C443.431 140.327 464.113 125.897 484.205 110.639Z"/><path fill="#FCFCFC" d="M484.205 110.639C482.621 120.336 483.358 129.643 485.857 139.11C484.171 142.141 446.779 166.254 440.285 170.762L296.93 270.74L172.578 355.453C157.337 366.013 142.697 377.403 127.542 388.071C120.284 393.18 112.637 397.948 105.186 402.79C100.366 405.922 94.5726 410.715 89.2182 412.477C88.1266 412.837 87.8196 412.73 86.7772 412.383L86.3919 411.166C155.431 355.347 225.643 300.994 296.981 248.143L423.088 155.241C443.431 140.327 464.113 125.897 484.205 110.639Z"/><path fill="#BCBCBE" d="M540.394 113.052C574.371 135.541 607.095 159.895 639.94 183.984L674.489 208.834C695.171 224.091 715.748 239.492 736.217 255.034C773.64 282.95 810.729 311.31 847.477 340.108C880.622 365.401 913.443 391.114 945.933 417.243C952.039 421.572 963.546 429.734 967.363 436.021C967.501 437.32 967.584 437.765 966.879 438.945C965.297 441.595 960.922 442.629 958.121 442.939C952.791 443.529 948.547 441.684 944.027 439.109C931.543 431.997 920.158 422.853 908.223 414.868C874.258 392.143 840.907 368.566 807.135 345.567C746.913 304.835 687.168 263.404 627.911 221.282C609.318 208.479 590.834 195.519 572.459 182.405C559.27 173.153 545.861 164.002 533.17 154.08C534.838 149.182 536.377 144.242 537.788 139.263C540.276 130.428 540.845 122.185 540.394 113.052Z"/><path fill="#FCFCFC" d="M540.394 113.052C574.371 135.541 607.095 159.895 639.94 183.984L674.489 208.834C695.171 224.091 715.748 239.492 736.217 255.034C773.64 282.95 810.729 311.31 847.477 340.108C880.622 365.401 913.443 391.114 945.933 417.243L945.715 418.462L944.639 418.668C937.031 416.326 920.706 402.465 913.06 397.216L824.306 336.566L617.989 193.941C602.874 183.602 587.792 173.159 572.497 163.089C563.787 157.354 544.339 146.233 537.788 139.263C540.276 130.428 540.845 122.185 540.394 113.052Z"/><path fill="#DBA86C" d="M452.159 459.175L452.508 464.854C452.556 477.506 453.293 490.144 453.536 502.794C454.089 539.631 454.879 576.464 455.906 613.292C451.362 613.26 429.959 612.152 427.547 614.755C423.862 618.733 424.884 639.671 425.505 645.008C425.697 646.654 425.913 648.318 426.241 649.942C436.368 649.813 446.496 649.822 456.622 649.969C456.734 652.879 456.989 655.875 456.893 658.781L460.274 818.576C445.104 818.547 429.648 816.293 414.494 815.238L406.425 468.065L406.537 466.237C406.724 465.985 406.836 465.656 407.097 465.481C407.999 464.876 446.447 460.098 452.159 459.175Z"/><path fill="#9D713F" d="M452.159 459.175L452.508 464.854L451.751 463.123C447.811 462.439 434.457 465.273 429.737 465.87C421.999 466.918 414.222 467.651 406.425 468.065L406.537 466.237C406.724 465.985 406.836 465.656 407.097 465.481C407.999 464.876 446.447 460.098 452.159 459.175Z"/><path fill="#9D713F" d="M426.241 649.942C436.368 649.813 446.496 649.822 456.622 649.969C456.734 652.879 456.989 655.875 456.893 658.781C456.688 657.563 456.491 656.541 456.023 655.388C451.327 652.657 437.933 655.633 431.43 654.024C428.795 653.372 427.643 652.193 426.241 649.942Z"/><path fill="#9D713F" d="M272.616 568.108C290.47 568.22 308.323 568.238 326.177 568.162L326.148 574.435L325.524 898.56L325.488 905.899C313.54 905.867 301.591 905.899 289.643 905.996L289.408 898.908C288.129 886.324 287.704 873.586 286.875 860.958L281.806 787.272C279.059 785.969 276.3 784.692 273.529 783.442L273.467 695.575C278.588 701.073 282.739 711.95 288.777 715.498C290.221 715.508 290.446 715.379 291.703 714.643C292.238 713.032 292.32 711.229 292.38 709.537C292.646 701.964 292.938 629.943 292.454 628.483C292.01 627.148 291.625 626.763 290.397 626.146C287.419 627.598 276.665 642.166 272.747 646.025C272.249 637.459 272.537 628.698 272.532 620.111L272.532 574.644L272.616 568.108Z"/><path fill="#6F4625" d="M272.616 568.108C290.47 568.22 308.323 568.238 326.177 568.162L326.148 574.435C308.312 574.598 290.346 574.083 272.532 574.644L272.616 568.108Z"/><path fill="#6F4625" d="M289.408 898.908C301.445 898.653 313.484 898.537 325.524 898.56L325.488 905.899C313.54 905.867 301.591 905.899 289.643 905.996L289.408 898.908Z"/><path fill="#9D713F" d="M756.033 568.735C773.839 568.933 791.639 568.431 809.441 568.562C809.41 576.589 809.924 585.086 809.082 593.052C809.131 602.442 809.116 611.833 809.036 621.223C803.87 621.914 799.665 624.575 796.5 628.732C792.415 634.098 791.014 641.395 792 647.991C793.326 656.863 798.459 665.226 805.423 670.79C810.365 693.42 805.587 718.546 803.402 741.377L796.234 813.926L791.652 867.007C790.98 875.489 790.603 884.036 789.733 892.496L789.103 905.025C778.133 905.158 767.132 905.464 756.163 905.4C756.186 901.291 756.348 897.123 756.07 893.023C755.724 825.85 755.799 758.675 756.296 691.503L756.006 575.832L756.033 568.735Z"/><path fill="#855A32" d="M756.07 893.023L789.733 892.496L789.103 905.025C778.133 905.158 767.132 905.464 756.163 905.4C756.186 901.291 756.348 897.123 756.07 893.023Z"/><path fill="#855A32" d="M756.033 568.735C773.839 568.933 791.639 568.431 809.441 568.562C809.41 576.589 809.924 585.086 809.082 593.052C808.532 587.638 808.869 582 808.892 576.558C791.261 576.54 773.631 576.299 756.006 575.832L756.033 568.735Z"/><path fill="#DBA86C" d="M367.242 470.946L367.374 469.326C369.363 468.036 396.451 466.013 400.785 466.095C401.751 467.068 401.455 468.382 401.515 469.722C401.333 497.634 402.721 525.751 403.368 553.665L406.029 684.518C407.269 727.969 409.39 771.585 409.562 815.051C397.256 813.816 384.884 812.262 372.527 811.697C372.685 808.613 373.139 805.311 372.471 802.279C371.133 801.248 370.277 802.121 370.025 800.264C369.477 796.241 369.88 791.653 369.824 787.542C369.619 778.553 369.491 769.563 369.44 760.572L368.385 690.322C367.485 619.744 365.28 549.162 364.842 478.581C366.171 477.105 367.598 475.792 367.544 473.656C367.52 472.74 367.392 471.847 367.242 470.946Z"/><path fill="#BA8E63" d="M367.242 470.946L367.374 469.326C369.363 468.036 396.451 466.013 400.785 466.095C401.751 467.068 401.455 468.382 401.515 469.722C390.164 470.434 378.618 471.185 367.242 470.946Z"/><path fill="#9D713F" d="M636.954 236.958C655.369 250.288 674.39 262.958 692.539 276.614C692.609 280.001 692.608 283.407 692.758 286.791C694.034 318.683 692.724 350.884 692.724 382.824L692.755 561.183L692.963 892.945L692.898 905.165L673.625 905.229C673.8 899.268 673.769 893.22 674.433 887.291C674.135 872.235 675.037 857.125 675.35 842.072C676.065 813.028 676.566 783.98 676.85 754.929L683.167 358.062C683.201 354.637 682.136 350.855 679.597 348.421C677.618 346.523 674.943 345.416 672.287 344.877C665.249 343.45 645.552 344.464 637.403 344.487C637.507 312.303 637.391 280.118 637.053 247.936L636.954 236.958Z"/><path fill="#6F4625" d="M636.954 236.958C655.369 250.288 674.39 262.958 692.539 276.614C692.609 280.001 692.608 283.407 692.758 286.791C686.106 281.49 678.814 276.898 671.842 272.018C660.357 263.831 648.759 255.803 637.053 247.936L636.954 236.958Z"/><path fill="#855A32" d="M673.625 905.229C673.8 899.268 673.769 893.22 674.433 887.291C674.519 889.183 674.628 891.073 674.76 892.961L692.963 892.945L692.898 905.165L673.625 905.229Z"/><path fill="#9D713F" d="M331.008 277.51C349.365 264.333 369.035 252.472 386.772 238.506C386.475 245.486 386.94 252.451 386.979 259.433L387.006 303.583C386.98 310.994 387.373 318.819 386.569 326.167L386.471 344.619C378.676 344.603 357.125 343.549 350.921 345.047C347.978 345.753 345.293 347.27 343.17 349.426C341.326 351.315 339.949 353.469 339.41 356.071C337.682 364.414 339.076 378.087 339.193 386.967C339.376 400.933 339.048 415.014 339.623 428.96C343.359 543.419 345.79 657.917 346.915 772.432C346.987 780.421 347.161 788.66 346.596 796.626C346.261 801.35 345.35 806.007 345.2 810.748C344.782 823.915 345.312 837.235 345.547 850.407C345.591 852.794 345.217 855.922 347.085 857.712C347.417 858.031 347.804 858.287 348.162 858.578C349.253 859.466 349.186 863.296 349.27 864.716C350.067 878.2 349.616 891.955 349.674 905.467L331.052 905.68L330.966 898.456C329.718 885.17 330.481 871.211 330.458 857.865L330.407 782.341C330.404 711.744 329.504 641.051 330.464 570.468C330.488 568.682 330.47 567.124 331.145 565.439C333.895 558.57 330.505 535.787 330.391 526.843C329.954 447.094 330.011 367.342 330.563 287.594L331.008 277.51Z"/><path fill="#6F4625" d="M331.008 277.51C349.365 264.333 369.035 252.472 386.772 238.506C386.475 245.486 386.94 252.451 386.979 259.433L387.006 303.583C386.98 310.994 387.373 318.819 386.569 326.167C385.821 317.02 386.43 307.44 386.466 298.255L386.439 248.357C367.355 260.656 349.807 275.508 330.563 287.594L331.008 277.51Z"/><path fill="#855A32" d="M345.547 850.407C345.591 852.794 345.217 855.922 347.085 857.712C347.417 858.031 347.804 858.287 348.162 858.578C349.253 859.466 349.186 863.296 349.27 864.716C350.067 878.2 349.616 891.955 349.674 905.467L331.052 905.68L330.966 898.456L346.233 898.255C345.049 888.377 343.045 858.961 345.547 850.407Z"/><path fill="#DBA86C" d="M514.524 374.578C514.513 373.192 514.279 371.667 515.068 370.464C519.708 369.269 526.766 370.185 531.636 370.187L567.286 370.059C567.787 379.913 568.075 390.916 567.08 400.723C567.479 407.235 567.052 414.009 566.955 420.531C566.749 432.396 566.616 444.261 566.558 456.127L564.477 612.189C547.922 612.409 531.366 612.536 514.811 612.569L514.524 374.578Z"/><path fill="#BA8E63" d="M514.524 374.578C514.513 373.192 514.279 371.667 515.068 370.464C519.708 369.269 526.766 370.185 531.636 370.187L567.286 370.059C567.787 379.913 568.075 390.916 567.08 400.723C566.091 392.316 566.95 382.998 567.076 374.497C549.559 374.255 532.039 374.282 514.524 374.578Z"/><path fill="#DBA86C" d="M455.861 370.13C466.594 370.204 477.327 370.219 488.06 370.177C494.855 370.138 501.807 369.774 508.583 370.247C509.345 371.374 509.152 372.805 509.164 374.115C509.566 424.457 509.693 474.8 509.546 525.143C509.554 554.27 510.182 583.479 509.717 612.595L460.824 613.049L458.344 494.374C458.15 482.287 457.484 470.184 457.528 458.099C459.577 457.422 461.767 456.955 462.833 454.884C463.428 453.727 463.308 453.299 463.149 452.057C461.578 449.6 460.051 449.304 457.325 448.618C456.994 424.545 456.484 400.474 455.795 376.409C455.559 374.414 455.82 372.151 455.861 370.13Z"/><path fill="#BA8E63" d="M455.861 370.13C466.594 370.204 477.327 370.219 488.06 370.177C494.855 370.138 501.807 369.774 508.583 370.247C509.345 371.374 509.152 372.805 509.164 374.115C498.388 374.451 487.606 374.578 476.824 374.496C470.097 374.487 463.238 374.167 456.533 374.663C456.157 375.302 456.001 375.67 455.795 376.409C455.559 374.414 455.82 372.151 455.861 370.13Z"/><path fill="#DBA86C" d="M572.362 374.79C572.383 373.315 572.192 371.993 572.927 370.68C579.154 369.896 585.922 370.406 592.218 370.423L626.995 370.469C626.984 374.334 627.174 378.336 626.558 382.157C626.294 402.295 625.065 422.472 624.441 442.607C622.871 493.916 621.031 545.215 618.921 596.505C615.98 596.642 613.99 596.583 611.588 598.572C611.269 603.133 611.132 607.706 611.177 612.278C600.744 612.387 590.148 612.857 579.729 612.391L569.815 612.422L571.628 463.849C572.111 434.165 572.356 404.478 572.362 374.79Z"/><path fill="#BA8E63" d="M572.362 374.79C572.383 373.315 572.192 371.993 572.927 370.68C579.154 369.896 585.922 370.406 592.218 370.423L626.995 370.469C626.984 374.334 627.174 378.336 626.558 382.157C626.328 380.124 626.435 378.027 626.446 375.983C608.488 375.039 590.352 375.067 572.362 374.79Z"/><path fill="#9D713F" d="M579.729 612.391C586.786 610.78 596.144 612.347 603.576 611.955C605.076 611.875 607.029 611.866 608.099 610.664C607.8 609.368 607.608 608.103 607.596 606.768C607.568 603.786 609.232 600.995 611.253 598.907C611.363 598.794 611.476 598.684 611.588 598.572C611.269 603.133 611.132 607.706 611.177 612.278C600.744 612.387 590.148 612.857 579.729 612.391Z"/><path fill="#DBA86C" d="M461.462 655.952C461.417 654.248 461.143 652.26 461.87 650.694C467.572 649.573 474.66 650.415 480.554 650.454C490.329 650.519 500.254 650.258 510.007 650.757L509.968 657.062L511.021 806.788L511.341 853.938C511.454 864.634 511.895 875.539 511.398 886.22C511.467 890.963 511.44 895.706 511.317 900.448L467.436 900.438L467.337 893.523C467.348 869.604 466.25 845.552 465.703 821.631L461.462 655.952Z"/><path fill="#BA8E63" d="M510.925 893.519C510.911 891.028 510.896 888.677 511.398 886.22C511.467 890.963 511.44 895.706 511.317 900.448L467.436 900.438L467.337 893.523C481.859 893.35 496.401 893.51 510.925 893.519Z"/><path fill="#9D713F" d="M461.462 655.952C461.417 654.248 461.143 652.26 461.87 650.694C467.572 649.573 474.66 650.415 480.554 650.454C490.329 650.519 500.254 650.258 510.007 650.757L509.968 657.062C504.59 656.542 498.929 656.893 493.503 656.828C482.818 656.765 472.135 656.473 461.462 655.952Z"/><path fill="#DBA86C" d="M514.992 650.968C531.275 651.292 547.56 651.479 563.847 651.527C563.811 654.412 563.907 657.365 563.713 660.239C562.911 681.637 562.984 703.13 562.675 724.543C561.86 780.994 561.564 837.624 559.486 894.04L559.168 900.464L516.824 900.409L516.606 893.005C516.156 868.135 516.24 843.215 516.041 818.338L514.953 656.929L514.992 650.968Z"/><path fill="#BA8E63" d="M516.606 893.005C519.801 894.68 553.473 894.027 559.486 894.04L559.168 900.464L516.824 900.409L516.606 893.005Z"/><path fill="#9D713F" d="M514.992 650.968C531.275 651.292 547.56 651.479 563.847 651.527C563.811 654.412 563.907 657.365 563.713 660.239L563.163 657.264C560.127 655.821 522.055 656.955 514.953 656.929L514.992 650.968Z"/><path fill="#DBA86C" d="M231.562 728.48L252.094 728.083C253.147 739.401 253.654 750.786 254.224 762.138C254.497 767.574 254.157 773.895 255.396 779.152C255.719 780.521 256.27 781.296 257.345 782.164C261.449 785.477 267.336 787.301 272.017 789.763L275.882 792.077C278.873 835.864 282.654 879.717 284.125 923.578C258.922 923.372 233.687 924.408 208.478 924.518C208.422 881.101 208.952 837.685 210.068 794.282C215.163 790.241 221.025 786.726 226.463 783.131C227.646 782.121 228.907 781.299 230.211 780.453C229.499 766.619 230.507 752.127 231.271 738.286L231.562 728.48Z"/><path fill="#F2A748" d="M210.068 794.282C215.163 790.241 221.025 786.726 226.463 783.131C223.703 790.891 221.241 798.884 219.919 807.023C216.802 826.227 214.811 875.727 222.733 892.326C225.403 897.92 229.684 903.034 235.681 905.124C243.407 907.818 264.461 906.51 271.684 902.793C274.487 901.351 276.397 899.089 277.216 896.033C279.669 886.873 276.931 873.059 276.266 863.516C275.254 848.98 275.087 834.38 274.143 819.829C273.507 810.011 271.688 799.546 272.017 789.763L275.882 792.077C278.873 835.864 282.654 879.717 284.125 923.578C258.922 923.372 233.687 924.408 208.478 924.518C208.422 881.101 208.952 837.685 210.068 794.282Z"/><path fill="#F2A748" d="M231.271 738.286C233.995 742.195 233.108 770.954 232.177 776.848C231.906 778.569 231.511 779.306 230.211 780.453C229.499 766.619 230.507 752.127 231.271 738.286Z"/><path fill="#DBA86C" d="M568.986 656.968C568.981 655.307 568.758 653.436 569.592 651.949C574.386 650.734 581.317 651.636 586.325 651.659C594.163 651.675 602.002 651.634 609.839 651.535C609.889 655.87 608.933 664.889 611.997 668.171C613.307 669.573 615.246 670.024 615.965 671.935L615.706 674.361L607.342 893.569L606.949 900.496L564.731 900.613L564.858 894.059C565.463 872.653 565.433 851.241 565.851 829.831L568.986 656.968Z"/><path fill="#BA8E63" d="M564.858 894.059L607.342 893.569L606.949 900.496L564.731 900.613L564.858 894.059Z"/><path fill="#9D713F" d="M568.986 656.968C568.981 655.307 568.758 653.436 569.592 651.949C574.386 650.734 581.317 651.636 586.325 651.659C594.163 651.675 602.002 651.634 609.839 651.535C609.889 655.87 608.933 664.889 611.997 668.171C613.307 669.573 615.246 670.024 615.965 671.935L615.706 674.361C615.615 674.324 615.529 674.271 615.433 674.25C613.347 673.798 611.746 673.835 610.058 672.333C606.43 669.106 607.672 661.37 607.397 656.858C594.612 656.703 581.78 657.006 568.986 656.968Z"/><path fill="#BA8E63" d="M442.92 907.336L580.917 907.499C585.442 925.629 589.584 944.404 595.668 962.088L599.809 976.42L423.8 976.596L427.348 962.233C432.183 943.845 436.561 925.271 442.92 907.336Z"/><path fill="#9D713F" d="M427.348 962.233C435.234 962.982 443.422 962.568 451.351 962.566L493.952 962.548L557.959 962.495C570.491 962.463 583.152 962.77 595.668 962.088L599.809 976.42L423.8 976.596L427.348 962.233Z"/><path fill="#FCFCFC" d="M352.307 351.185C415.687 350.277 479.166 350.918 542.554 350.88L622.763 350.876C636.867 350.892 651.138 350.488 665.225 351.062C667.567 351.157 671.861 351.048 673.571 352.707C675.377 354.461 675.818 356.981 675.886 359.38C676.049 365.063 675.678 370.828 675.626 376.521C675.479 393.261 675.188 410 674.751 426.734L672.559 565.092L669.548 768.009L668.155 853.227C667.864 868.596 667.825 884.018 667.078 899.37C663.413 899.577 659.713 899.483 656.042 899.48C655.642 891.193 656.024 882.791 656.194 874.501L656.981 836.065L662.283 529.474C663.205 473.988 663.213 418.498 665.397 363.039L356.093 363.05C355.506 384.815 356.088 406.699 356.471 428.469L346.963 428.439C346.906 419.76 345.256 358.465 346.348 355.553C347.275 353.08 350.032 351.992 352.307 351.185Z"/><path fill="#E86F22" d="M166.853 857.647L167.531 857.644C168.155 858.754 167.998 859.408 167.852 860.661C166.443 872.738 163.517 884.914 161.508 896.94C159.314 910.079 158.074 923.957 154.541 936.793C150.487 939.595 146.226 941.21 141.488 942.482C121.295 947.905 76.4898 948.109 58.7699 937.257C56.7107 935.996 56.6011 934.963 56.0279 932.75C51.6625 908.301 47.1272 883.505 44.0342 858.861C80.5364 865.475 130.218 864.045 166.853 857.647Z"/><path fill="#EE8D39" d="M159.397 867.138C160.24 867.01 160.556 867.063 161.362 867.247C162.131 869.027 160.727 873.768 160.421 875.853C158.18 891.168 156.69 906.672 154.286 921.936C153.717 925.554 152.802 931.248 149.607 933.396C147.307 934.943 144.373 935.68 141.749 936.513C129.862 940.283 119.542 940.047 107.324 937.539C94.3075 934.866 81.3539 929.83 73.7826 918.359C64.0321 904.977 59.0775 886.775 53.6658 871.208C78.7597 877.805 111.015 876.649 136.46 872.366C144.212 871.061 151.786 869.08 159.397 867.138Z"/><path fill="#93BD4D" d="M84.2708 662.745C92.8616 660.554 101.814 659.324 110.536 657.727L148.317 650.661L148.49 705.479L148.513 810.51C140.102 809.814 131.666 809.469 123.227 809.475C116.624 809.44 109.836 809.765 103.265 809.208C98.7298 775.92 95.0018 742.412 89.9743 709.209C87.8005 693.756 85.8991 678.265 84.2708 662.745Z"/><path fill="#C6C852" d="M84.2708 662.745C92.8616 660.554 101.814 659.324 110.536 657.727L148.317 650.661L148.49 705.479C135.061 705.517 121.772 705.644 108.381 706.847C102.199 707.402 96.1267 708.524 89.9743 709.209C87.8005 693.756 85.8991 678.265 84.2708 662.745Z"/><path fill="#DBA86C" d="M641.45 651.501L652.814 651.506L652.623 658.052L650.634 788.907C649.932 823.787 648.556 858.778 648.482 893.655L647.96 900.484L612.521 900.515L612.841 893.347L620.968 673.57C620.964 673.163 620.941 672.344 621.009 671.963C621.668 668.263 634.765 671.709 638.662 669.528C641.025 666.684 641.006 662.666 641.398 659.138L641.45 651.501Z"/><path fill="#BA8E63" d="M612.841 893.347C624.708 893.558 636.629 893.243 648.482 893.655L647.96 900.484L612.521 900.515L612.841 893.347Z"/><path fill="#9D713F" d="M641.398 659.138C642.008 662.649 642.935 667.608 640.919 670.786C639.957 672.304 638.414 673.064 636.694 673.409C631.778 674.395 626.025 673.429 620.968 673.57C620.964 673.163 620.941 672.344 621.009 671.963C621.668 668.263 634.765 671.709 638.662 669.528C641.025 666.684 641.006 662.666 641.398 659.138Z"/><path fill="#BA8E63" d="M641.45 651.501L652.814 651.506L652.623 658.052C649.5 657.985 643.95 657.11 641.398 659.138L641.45 651.501Z"/><path fill="#908A87" d="M882.152 802.457C888.464 802.547 921.421 802.466 924.516 804.096L924.75 805.368C923.98 816.262 923.082 828.791 925.157 839.536L925.953 839.891C929.627 835.988 931.496 813.383 931.543 807.479C931.676 806.177 931.72 805.426 932.465 804.306C939.217 804.094 954.932 805.346 961.737 806.493C967.08 806.654 972.424 806.787 977.768 806.891L975.915 839.214C975.541 855.547 975.289 871.5 963.193 883.906C953.99 893.346 941.977 898.027 928.868 898.04C916.331 898.052 903.889 893.919 894.963 884.868C879.975 869.67 881.114 846.942 881.676 827.195C881.925 818.951 882.084 810.705 882.152 802.457Z"/><path fill="#615D61" d="M882.152 802.457C888.464 802.547 921.421 802.466 924.516 804.096L924.75 805.368C911.78 805.534 898.862 805.965 885.886 805.86C886.239 830.459 879.225 859.564 898.975 878.76C907.447 886.994 917.671 890.779 929.432 890.522C940.99 890.27 953.049 886.333 961.105 877.724C970.419 867.771 973.86 852.287 975.915 839.214C975.541 855.547 975.289 871.5 963.193 883.906C953.99 893.346 941.977 898.027 928.868 898.04C916.331 898.052 903.889 893.919 894.963 884.868C879.975 869.67 881.114 846.942 881.676 827.195C881.925 818.951 882.084 810.705 882.152 802.457Z"/><path fill="#615D61" d="M931.543 807.479C931.676 806.177 931.72 805.426 932.465 804.306C939.217 804.094 954.932 805.346 961.737 806.493C956.331 806.908 933.893 805.966 931.543 807.479Z"/><path fill="#BACFD3" d="M478.708 202.609C489.615 202.01 500.795 202.482 511.729 202.468C521.455 202.456 531.546 201.883 541.223 202.588C543.699 202.768 546.272 203.193 548.631 203.969C552.169 205.133 554.273 207.8 555.791 211.099C561.002 222.43 561.755 264.036 557.203 275.726C554.991 281.407 550.402 284.469 545.029 286.702C535.093 288.5 523.633 287.479 513.506 287.48C503.532 287.481 493.145 288.049 483.221 287.18C480.731 286.961 477.789 286.584 475.561 285.438C471.495 283.346 467.701 278.87 466.252 274.548C462.094 262.151 463.299 220.781 469.169 209.422C471.289 205.32 474.592 204.005 478.708 202.609Z"/><path fill="#9D713F" d="M576.024 194.571L632.432 234.07C632.466 237.422 632.422 240.795 632.542 244.144C633.065 256.215 632.715 268.447 632.735 280.539L632.981 344.516L576.272 344.625C576.007 326.805 576.409 308.929 576.51 291.105C576.638 266.463 576.606 241.82 576.415 217.178C575.725 209.734 576.198 202.06 576.024 194.571Z"/><path fill="#6F4625" d="M576.024 194.571L632.432 234.07C632.466 237.422 632.422 240.795 632.542 244.144C626.914 241.203 620.089 235.457 614.708 231.606C602.13 222.441 589.41 213.474 576.551 204.706C576.59 208.871 576.61 213.015 576.415 217.178C575.725 209.734 576.198 202.06 576.024 194.571Z"/><path fill="#9D713F" d="M447.509 196.209L447.55 206.101C447.668 252.255 448.431 298.554 447.73 344.701C428.873 344.694 410 345.052 391.146 344.926C391.397 323.181 391.518 301.434 391.511 279.686C391.455 269.534 390.331 255.298 391.416 245.63L391.642 234.876C409.719 221.347 428.744 208.757 447.509 196.209Z"/><path fill="#6F4625" d="M447.509 196.209L447.55 206.101C434.637 213.954 422.638 223.096 410.366 231.884C404.09 236.378 397.196 240.501 391.416 245.63L391.642 234.876C409.719 221.347 428.744 208.757 447.509 196.209Z"/><path fill="#9D713F" d="M815.984 361.874C833.689 373.259 850.949 384.892 868.106 397.092L868.065 404.762C867.473 425.074 867.627 445.389 867.484 465.706L866.637 539.94C866.594 569.192 866.353 598.444 865.912 627.693C855.755 626.062 845.468 625.029 835.257 623.793C828.242 622.944 821.04 621.709 813.992 621.348C813.981 606.511 814.196 591.638 813.954 576.805L813.945 568.727C828.214 568.772 842.483 568.744 856.752 568.644L857.393 567.999C858.189 562.496 858.682 547.08 856.332 542.308C853.198 539.99 849.586 540.518 845.867 540.534C845.617 503.538 845.782 466.54 846.36 429.547L846.482 424.338C850.662 424.391 854.843 424.331 859.02 424.158C859.106 420.146 859.235 416.121 859.209 412.108C859.198 410.289 859.199 406.769 857.707 405.505C853.169 401.659 823.032 403.221 816.02 403.234L816.078 392.756C815.807 382.463 816.255 372.168 815.984 361.874Z"/><path fill="#6F4625" d="M815.984 361.874C833.689 373.259 850.949 384.892 868.106 397.092L868.065 404.762C861.967 399.307 854.521 395.245 847.62 390.891C837.158 384.398 826.802 377.734 816.558 370.902C816.583 378.152 816.742 385.533 816.078 392.756C815.807 382.463 816.255 372.168 815.984 361.874Z"/><path fill="#6F4625" d="M813.945 568.727C828.214 568.772 842.483 568.744 856.752 568.644C855.01 568.982 854.261 568.818 853.116 570.227C852.65 572.314 853.111 574.411 853.153 576.525C840.096 576.686 827.009 577.016 813.954 576.805L813.945 568.727Z"/><path fill="#855A32" d="M846.482 424.338C850.662 424.391 854.843 424.331 859.02 424.158C858.867 426.018 858.752 427.875 858.387 429.708L846.36 429.547L846.482 424.338Z"/><path fill="#DBA86C" d="M632.472 370.489C640.668 370.5 649.462 369.665 657.573 370.627C658.274 371.903 658.014 373.177 658.004 374.614L654.549 562.26C654.216 578.803 654.196 595.373 653.667 611.91C651.076 611.938 648.435 612.081 645.85 611.934C645.445 611.952 644.583 612.003 644.201 611.961C641.472 611.659 642.238 600.867 639.613 598.24C636.476 595.1 628.201 596.463 624.103 596.541C627.276 523.192 629.876 449.818 631.902 376.428C631.964 374.444 632.248 372.46 632.472 370.489Z"/><path fill="#9D713F" d="M655.587 385.79C656.844 381.745 655.457 378.488 658.004 374.614L654.549 562.26C654.216 578.803 654.196 595.373 653.667 611.91C651.076 611.938 648.435 612.081 645.85 611.934C647.187 611.868 648.346 611.835 649.611 611.336C650.599 609.612 651.205 469.081 651.635 453.751C652.272 431.012 654.595 408.47 655.587 385.79Z"/><path fill="#BA8E63" d="M632.472 370.489C640.668 370.5 649.462 369.665 657.573 370.627C658.274 371.903 658.014 373.177 658.004 374.614C655.457 378.488 656.844 381.745 655.587 385.79C655.621 382.87 655.509 379.951 655.422 377.032C647.688 376.087 639.69 376.431 631.902 376.428C631.964 374.444 632.248 372.46 632.472 370.489Z"/><path fill="#9D713F" d="M858.563 678.406C860.592 677.9 862.574 677.074 864.54 676.36L862.628 892.928L862.577 905.355C850.707 905.371 838.799 905.564 826.933 905.295C826.932 901.233 827.094 897.094 826.741 893.047C826.094 878.925 826.601 864.608 826.618 850.465C826.629 841.163 825.886 831.415 826.807 822.187C827.576 814.481 829.649 806.685 831.217 799.091C834.141 784.876 837.154 770.679 840.255 756.502C845.893 730.434 849.68 703.59 858.563 678.406Z"/><path fill="#855A32" d="M862.628 892.928L862.577 905.355C850.707 905.371 838.799 905.564 826.933 905.295C826.932 901.233 827.094 897.094 826.741 893.047C838.702 892.907 850.665 892.867 862.628 892.928Z"/><path fill="#9D713F" d="M697.215 279.619L752.581 317.578C752.607 321.744 752.791 325.882 753.027 330.041C752.146 354.436 752.657 379.053 752.619 403.475C734.647 403.46 716.409 402.852 698.472 403.76L698.567 416.426L698.452 416.519C697.081 414.698 698.532 407.865 697.633 405.168L697.423 402.56C696.114 394.677 697.109 375.19 697.123 366.141L697.215 279.619Z"/><path fill="#6F4625" d="M697.215 279.619L752.581 317.578C752.607 321.744 752.791 325.882 753.027 330.041C752.829 329.396 752.665 328.36 752.341 327.798C750.907 325.321 703.673 293.817 697.57 289.74L697.603 365.048C697.601 377.401 698.299 390.258 697.423 402.56C696.114 394.677 697.109 375.19 697.123 366.141L697.215 279.619Z"/><path fill="#BA8E63" d="M587.147 907.4C610.122 907.041 633.129 907.322 656.111 907.119C661.061 913.43 665.509 920.098 670.199 926.6C678.367 937.775 686.41 949.041 694.326 960.396C698.339 965.725 702.567 970.993 706.325 976.5C673.278 976.471 640.203 976.233 607.159 976.638C605.868 972.18 604.519 967.731 603.3 963.253C600.498 956.726 598.929 949.156 597.026 942.303C593.818 930.645 590.525 919.01 587.147 907.4Z"/><path fill="#9D713F" d="M694.326 960.396C698.339 965.725 702.567 970.993 706.325 976.5C673.278 976.471 640.203 976.233 607.159 976.638C605.868 972.18 604.519 967.731 603.3 963.253C622.741 962.389 642.297 962.219 661.757 961.846C672.385 961.643 683.836 962.173 694.326 960.396Z"/><path fill="#BA8E63" d="M366.758 906.92C389.74 907.938 412.844 907.095 435.847 907.177C431.678 918.94 428.574 930.937 425.384 942.992C423.667 949.484 421.643 956.018 420.21 962.568C418.791 967.127 417.758 971.872 416.566 976.499L320.396 976.569C323.865 971.429 327.28 966.252 330.641 961.041C335.822 952.043 342.089 943.536 347.831 934.883C354.018 925.559 359.91 915.771 366.758 906.92Z"/><path fill="#9D713F" d="M330.641 961.041C334.122 962.457 411.347 962.562 420.21 962.568C418.791 967.127 417.758 971.872 416.566 976.499L320.396 976.569C323.865 971.429 327.28 966.252 330.641 961.041Z"/><path fill="#9D713F" d="M272.11 318.556C289.768 305.734 308.6 294.274 325.584 280.549L325.621 291.248L326.133 402.859L271.21 403.037C271.333 378.906 270.787 354.655 271.538 330.54C271.623 326.549 271.911 322.544 272.11 318.556Z"/><path fill="#6F4625" d="M272.11 318.556C289.768 305.734 308.6 294.274 325.584 280.549L325.621 291.248C307.587 304.145 288.052 315.716 271.538 330.54C271.623 326.549 271.911 322.544 272.11 318.556Z"/><path fill="#8A6E59" d="M433.822 619.69C452.427 620.315 471.164 619.783 489.784 619.746L584.324 619.419C607.328 619.287 630.299 618.917 653.304 619.346L652.812 644.082C646.395 645.081 639.068 644.577 632.545 644.566L596.198 644.46L433.06 642.603C432.639 638.336 432.303 634.071 432.933 629.81C433.137 626.429 433.434 623.054 433.822 619.69Z"/><path fill="#604D40" d="M433.06 642.603C432.639 638.336 432.303 634.071 432.933 629.81C432.993 631.699 432.626 634.031 433.67 635.595C435.697 636.248 462.612 635.654 466.934 635.692L580.486 636.553C587.124 636.609 622.614 638.243 627.254 636.576C629.659 638.931 631.787 640.532 635.044 641.6C635.63 641.792 635.397 641.665 635.845 642.048L635.017 642.54C631.485 641.637 628.968 639.838 626.165 637.581L625.563 637.634C622.344 637.892 615.809 636.462 613.766 639.155C612.622 640.662 612.112 641.913 610.616 643.225C613.992 643.82 617.431 643.514 620.845 643.566C623.647 643.609 626.415 644.068 629.225 644.029C636.861 643.923 645.248 643.019 652.812 644.082C646.395 645.081 639.068 644.577 632.545 644.566L596.198 644.46L433.06 642.603Z"/><path d="M627.254 636.576C626.144 633.568 625.396 630.688 626.798 627.623C628.066 624.853 630.598 623.064 633.449 622.167C637.127 621.01 641.579 621.165 645.012 623.01C647.292 624.236 648.996 626.264 649.58 628.807C650.19 631.461 649.607 635.135 648.093 637.408C646.421 639.917 643.195 641.3 640.319 641.818C638.855 642.082 637.328 642.051 635.845 642.048C635.397 641.665 635.63 641.792 635.044 641.6C631.787 640.532 629.659 638.931 627.254 636.576Z"/><path fill="#9D713F" d="M452.573 192.043C457.748 188.844 462.653 184.928 467.616 181.389L494.525 162.367C496.411 165.648 498.3 169.086 500.567 172.115C503.174 175.6 505.897 178.574 510.355 179.172C510.585 179.203 510.816 179.226 511.046 179.253C512.106 180.446 511.768 182.623 512.028 184.233L513.207 184.664L513.266 185.455L512.032 185.996C511.074 187.513 511.274 190.802 511.066 192.666C511 194.003 511.236 194.692 510.315 195.733C496.485 197.956 474.855 190.188 465.108 203.47C455.08 217.135 455.99 255.396 458.948 272.242C460.297 279.925 463.449 284.413 468.976 289.679C480.557 297.157 496.506 293.666 509.678 294.179L509.921 299.495L510.003 344.555C490.664 344.513 471.324 344.58 451.986 344.757L451.561 247.35L451.713 219.395C451.768 213.924 451.472 208.055 452.32 202.654C452.687 199.187 452.526 195.535 452.573 192.043Z"/><path fill="#6F4625" d="M452.573 192.043C457.748 188.844 462.653 184.928 467.616 181.389L494.525 162.367C496.411 165.648 498.3 169.086 500.567 172.115C503.174 175.6 505.897 178.574 510.355 179.172C510.585 179.203 510.816 179.226 511.046 179.253C512.106 180.446 511.768 182.623 512.028 184.233L513.207 184.664L513.266 185.455L512.032 185.996C511.074 187.513 511.274 190.802 511.066 192.666C511.092 191.016 511.45 188.41 510.252 187.174C508.17 185.026 504.24 184.775 501.764 182.668C498.839 180.18 497.031 173.68 493.345 172.788C483.736 176.788 461.851 195.223 452.32 202.654C452.687 199.187 452.526 195.535 452.573 192.043Z"/><path fill="#855A32" d="M468.976 289.679C480.557 297.157 496.506 293.666 509.678 294.179L509.921 299.495C505.071 296.617 484.29 300.44 474.304 295.117C471.923 293.848 469.778 292.335 468.976 289.679Z"/><path fill="#9D713F" d="M515.419 179.158C522.786 174.991 525.643 168.679 529.215 161.413C543.695 170.819 557.43 181.279 571.292 191.555C571.372 194.618 571.497 197.688 571.509 200.751C572.581 248.677 571.972 296.579 571.823 344.512L514.603 344.631C514.584 329.699 514.404 314.748 514.616 299.819L514.929 293.982C525.728 293.957 541.639 296.033 551.442 291.634C553.83 290.562 555.91 288.722 557.937 287.089C559.886 284.337 562.056 281.984 563.526 278.892C566.347 272.956 566.276 263.641 566.466 257.142C566.889 242.646 568.216 212.586 557.587 201.847C548.812 192.981 527.153 195.591 515.441 195.724L515.345 186.372L515.419 179.158Z"/><path fill="#6F4625" d="M515.419 179.158C522.786 174.991 525.643 168.679 529.215 161.413C543.695 170.819 557.43 181.279 571.292 191.555C571.372 194.618 571.497 197.688 571.509 200.751C566.923 197.766 562.578 193.711 558.198 190.376C548.852 183.26 539.318 176.588 529.18 170.646C528.869 172.352 528.591 174.247 527.872 175.831C525.581 180.874 520.306 184.312 515.345 186.372L515.419 179.158Z"/><path fill="#855A32" d="M514.929 293.982C525.728 293.957 541.639 296.033 551.442 291.634C553.83 290.562 555.91 288.722 557.937 287.089C557.193 290.34 554.028 292.879 551.267 294.543C542.438 299.863 531.685 299.441 521.768 299.501C519.566 299.514 516.721 299.174 514.616 299.819L514.929 293.982Z"/><path fill="#9D713F" d="M213.478 567.894C231.607 568.019 249.738 567.996 267.867 567.825C268.014 583.998 268.025 600.173 267.901 616.347C267.874 624.306 268.496 632.798 267.581 640.682L267.377 650.772C257.297 658.369 244.336 656.803 232.525 658.07C226.035 658.767 219.808 660.283 213.525 661.974L213.508 574.223L213.478 567.894Z"/><path fill="#6F4625" d="M213.478 567.894C231.607 568.019 249.738 567.996 267.867 567.825C268.014 583.998 268.025 600.173 267.901 616.347C267.874 624.306 268.496 632.798 267.581 640.682C267.039 633.305 267.39 625.726 267.391 618.32C267.387 603.886 267.456 589.452 267.598 575.019C249.571 574.548 231.535 574.691 213.508 574.223L213.478 567.894Z"/><path fill="#E86F22" d="M203.846 169.515L294.58 169.297L300.754 169.506C301.862 178.052 303.262 186.597 304.259 195.15C304.993 199.36 305.437 203.752 305.733 208.018C269.229 207.32 232.755 208.835 196.273 208.477C196.649 205.173 197.093 201.909 197.659 198.632L200.101 186.077C201.197 180.538 202.593 175.022 203.846 169.515Z"/><path fill="#EE8D39" d="M203.846 169.515L294.58 169.297C295.136 174.83 296.077 183.591 292.391 188.147C289.434 189.385 284.823 189.057 281.648 189.073C268.143 189.14 254.585 188.049 241.086 187.616C233.353 187.368 205.289 188.04 200.101 186.077C201.197 180.538 202.593 175.022 203.846 169.515Z"/><path fill="#DA4D16" d="M304.259 195.15C304.993 199.36 305.437 203.752 305.733 208.018C269.229 207.32 232.755 208.835 196.273 208.477C196.649 205.173 197.093 201.909 197.659 198.632C197.728 198.793 197.773 198.967 197.867 199.115C198.611 200.283 199.637 200.595 200.946 200.747C212.854 202.133 229.798 200.252 242.176 200.043L277.966 199.643C284.158 199.555 290.823 199.886 296.935 198.922C299.805 198.469 302.043 196.939 304.259 195.15Z"/><path fill="#9D713F" d="M757.75 320.905C766.288 327.615 775.527 333.517 784.534 339.572C793.771 345.781 802.859 352.166 811.988 358.529L812.054 368.673C812.686 379.605 811.803 391.894 811.851 403.018C793.543 402.934 775.235 402.998 756.928 403.208L757.573 336.656C757.476 331.401 757.852 326.158 757.75 320.905Z"/><path fill="#6F4625" d="M757.75 320.905C766.288 327.615 775.527 333.517 784.534 339.572C793.771 345.781 802.859 352.166 811.988 358.529L812.054 368.673C800.737 360.507 788.961 352.938 777.508 344.959C772.454 341.438 763.568 333.992 758.372 331.67C757.751 333.083 757.747 335.1 757.573 336.656C757.476 331.401 757.852 326.158 757.75 320.905Z"/><path fill="#DBA86C" d="M403.737 369.873C419.23 370.047 434.725 370.092 450.219 370.007C450.374 372.25 450.431 374.503 450.523 376.749C450.707 400.348 451.92 423.934 451.908 447.538C437.518 444.773 420.605 442.509 406.015 441.291C403.87 420.054 404.998 398.261 403.8 376.915C403.606 374.545 403.652 372.243 403.737 369.873Z"/><path fill="#BA8E63" d="M403.737 369.873C419.23 370.047 434.725 370.092 450.219 370.007C450.374 372.25 450.431 374.503 450.523 376.749C450.211 375.63 450.24 374.7 449.247 374.037C439.131 373.983 429.015 374.019 418.899 374.144C414.384 374.159 408.869 373.475 404.536 374.368C404.074 375.257 403.922 375.923 403.8 376.915C403.606 374.545 403.652 372.243 403.737 369.873Z"/><path fill="#9D713F" d="M211.498 360.363C229.387 347.093 248.589 335.214 266.978 322.615L267.005 335.186L266.603 403.061C248.181 402.997 229.759 403.032 211.338 403.164C211.324 392.826 210.548 381.954 211.326 371.698L211.498 360.363Z"/><path fill="#6F4625" d="M211.498 360.363C229.387 347.093 248.589 335.214 266.978 322.615L267.005 335.186C253.418 342.122 238.478 353.173 225.692 361.978C221.106 365.135 216.232 369.142 211.326 371.698L211.498 360.363Z"/><path fill="#EE8D39" d="M26.5066 827.967C56.3993 837.989 135.388 836.162 167.694 830.692C173.072 829.781 178.175 828.363 183.334 826.612C183.499 831.264 183.548 835.919 183.479 840.574L183.373 847.404C141.149 860.016 71.0713 860.918 28.5579 849.202L27.6409 840.524C27.231 836.341 26.8529 832.156 26.5066 827.967Z"/><path fill="#E86F22" d="M27.6409 840.524C40.8647 849.515 114.565 851.272 133.074 850.526C141.614 850.15 150.117 849.171 158.52 847.599C167.225 845.968 175.048 843.01 183.479 840.574L183.373 847.404C141.149 860.016 71.0713 860.918 28.5579 849.202L27.6409 840.524Z"/><path fill="#93BD4D" d="M285.809 641.373C286.619 647.403 285.735 654.344 285.715 660.492L285.739 701.426C281.182 695.171 276.626 690.409 270.081 686.234C267.993 686.941 266.117 687.83 264.303 689.098C257.057 694.163 253.456 702.931 251.941 711.335C244.703 711.539 237.45 711.561 230.209 711.667C226.722 704.14 221.238 700.255 213.875 696.953C203.662 693.262 193.069 692.765 182.321 692.489C194.358 678.016 214.233 666.798 232.888 664.214C240.067 663.22 247.388 663.533 254.553 662.413C267.4 660.405 278.372 651.699 285.809 641.373Z"/><path fill="#82CBEA" d="M812.685 723.829C821.3 725.755 829.985 727.127 838.694 728.542C833.151 748.719 829.744 770.066 825.77 790.628C822.008 810.095 817.687 829.459 813.77 848.898C810.043 867.399 806.75 885.911 802.311 904.267L796.171 926.134C795.375 912.123 796.325 897.888 797.22 883.896C798.889 857.804 801.716 831.686 804.412 805.678C807.231 778.467 808.979 750.918 812.685 723.829Z"/><path fill="#FCFCFC" d="M497.161 95.8834C498.312 88.9228 508.705 69.7928 512.363 63.0311C518.215 71.1307 522.108 82.3854 526 91.5396C532.124 106.743 535.361 116.219 531.975 132.737C530.714 139.053 528.814 145.224 526.304 151.156C524.169 156.179 518.783 169.919 513.128 171.58C511.765 171.98 510.498 171.587 509.369 170.806C500.542 164.698 492.424 136.956 490.849 126.308C489.436 116.758 492.921 104.401 497.161 95.8834Z"/><path fill="#BCBCBE" d="M526 91.5396C532.124 106.743 535.361 116.219 531.975 132.737C530.714 139.053 528.814 145.224 526.304 151.156C524.169 156.179 518.783 169.919 513.128 171.58C511.765 171.98 510.498 171.587 509.369 170.806C500.542 164.698 492.424 136.956 490.849 126.308C489.436 116.758 492.921 104.401 497.161 95.8834C497.78 97.9388 497.416 100.179 497.29 102.297C496.768 111.14 495.023 122.004 501.042 129.466C503.779 132.86 508.551 136.038 512.973 136.459C517.05 136.847 520.386 135.659 523.407 132.934C535.225 122.277 525.189 104.902 525.921 92.5583C525.941 92.2183 525.974 91.8791 526 91.5396Z"/><path fill="#FCFCFC" d="M348.58 478.924L357.224 479.516C357.69 506.209 359.045 532.895 359.654 559.59L361.516 681.849L363.226 802.491L354.264 802.542C354.87 771.44 353.199 740.239 352.652 709.141L350.351 578.428C349.594 545.263 349.004 512.095 348.58 478.924Z"/><path fill="#DBA86C" d="M415.575 839.163C430.336 836.307 445.662 835.312 460.574 833.258C461.536 853.53 462.063 873.82 462.157 894.115L462.097 900.447L417.552 900.205L417.269 894.011C416.426 875.807 415.734 857.388 415.575 839.163Z"/><path fill="#BA8E63" d="M417.269 894.011L462.157 894.115L462.097 900.447L417.552 900.205L417.269 894.011Z"/><path fill="#FBC457" d="M807.898 629.071C815.455 628.544 823.569 629.973 831.074 630.906L860.861 634.702C865.777 635.348 871.554 636.005 874.672 640.345C877.114 643.743 877.215 648.267 876.526 652.248C875.269 659.519 871.113 664.45 865.224 668.531C862.154 670.088 858.975 670.941 855.555 671.251C846.361 672.083 823.896 669.251 814.874 666.378C808.991 664.504 804.174 660.695 801.472 655.084C798.884 649.712 798.321 642.354 800.403 636.703C801.802 632.905 804.336 630.763 807.898 629.071Z"/><path d="M809.422 635.497C817.444 635.438 826.077 637.475 834.082 638.499C844.796 639.87 855.797 640.657 866.425 642.484C867.544 642.677 869.01 642.777 869.826 643.607C870.846 644.643 871.188 645.799 871.189 647.225C871.194 652.53 867.623 657.854 863.998 661.406C861.743 663.014 859.64 664.117 856.876 664.515C849.104 665.633 818.051 661.927 811.997 657.228C808.468 654.489 806.467 649.168 806.19 644.833C805.951 641.107 807.031 638.298 809.422 635.497Z"/><path fill="#9D713F" d="M814.124 643.786C823.532 644.52 833.059 646.225 842.466 647.286C848.59 647.978 855.107 647.974 861.122 649.076C861.84 651.392 860.667 653.317 859.612 655.36C858.757 656.071 857.832 656.795 856.744 657.109C852.122 658.447 822.02 654.709 818.268 652.222C815.287 650.245 814.668 647.096 814.124 643.786Z"/><path fill="#C6C852" d="M71.3728 624.644C72.1785 624.508 72.7591 624.594 73.5632 624.691C74.2312 625.82 74.3501 626.904 74.5275 628.196C75.3564 634.228 75.6772 640.339 76.4503 646.38L83.1848 701.088C87.7772 737.129 92.5906 773.142 97.6249 809.124C95.0163 809.315 92.3954 809.396 89.7824 809.516L88.7513 801.618C77.8956 743.682 65.1944 686.099 54.1377 628.195C59.8551 626.832 65.5962 625.721 71.3728 624.644Z"/><path fill="#DBA86C" d="M362.508 369.854C374.036 369.771 386.248 368.841 397.705 369.875C398.655 371.101 398.437 372.012 398.505 373.536L400.759 440.676C389.474 439.491 377.887 437.691 366.55 437.401C366.505 434.671 366.621 432.318 365.206 429.884C364.554 428.762 363.977 427.65 363.775 426.352C362.836 420.343 363.326 413.568 363.239 407.462C363.143 400.748 362.702 393.932 362.923 387.233C362.309 381.521 362.546 375.597 362.508 369.854Z"/><path fill="#BA8E63" d="M362.508 369.854C374.036 369.771 386.248 368.841 397.705 369.875C398.655 371.101 398.437 372.012 398.505 373.536C386.674 373.189 374.839 372.99 363.004 372.939C363.077 377.676 363.354 382.513 362.923 387.233C362.309 381.521 362.546 375.597 362.508 369.854Z"/><path fill="#DBA86C" d="M373.248 844.058C385.802 842.94 398.153 841.366 410.609 839.434C411.077 854.738 411.399 870.047 411.575 885.357C412.161 890.267 411.953 895.263 411.915 900.201L371.486 900.483L371.503 893.438C371.515 885.835 371.469 878.232 371.366 870.63C371.314 866.49 370.835 861.817 371.376 857.735C372.131 857.431 372.806 857.088 373.51 856.678C374.264 852.934 373.356 847.925 373.248 844.058Z"/><path fill="#BA8E63" d="M411.575 885.357C412.161 890.267 411.953 895.263 411.915 900.201L371.486 900.483L371.503 893.438C384.717 894.182 398.297 893.606 411.55 893.637C411.415 890.85 411.423 888.143 411.575 885.357Z"/><path fill="#82CBEA" d="M279.15 437.43C284.671 437.397 290.214 437.269 295.732 437.361L295.363 485.447L261.357 485.319L250.264 485.392C250.051 479.951 249.796 474.513 249.5 469.076C249.293 459.446 248.594 449.53 247.67 439.939L247.789 438.2C249.959 436.379 274.432 437.417 279.15 437.43Z"/><path fill="#BACFD3" d="M247.67 439.939L247.789 438.2C249.959 436.379 274.432 437.417 279.15 437.43L276.497 438.48C278.153 438.84 278.447 438.737 279.565 440.091C282.867 441.167 285.846 442.765 287.472 445.999C288.816 448.671 288.726 451.816 287.882 454.621C278.756 464.955 263.453 468.112 250.25 469.035C250 469.053 249.75 469.063 249.5 469.076C249.293 459.446 248.594 449.53 247.67 439.939Z"/><path fill="#82CBEA" d="M247.67 439.939L247.789 438.2C249.959 436.379 274.432 437.417 279.15 437.43L276.497 438.48C278.153 438.84 278.447 438.737 279.565 440.091C268.925 439.744 258.311 439.952 247.67 439.939Z"/><defs><linearGradient id="gradient_1" gradientUnits="userSpaceOnUse" x1="300.81815" y1="464.52853" x2="270.5545" y2="453.6521"><stop offset="0" stop-color="#3291B7"/><stop offset="1" stop-color="#56B9CD"/></linearGradient></defs><path fill="url(#gradient_1)" d="M279.15 437.43C284.671 437.397 290.214 437.269 295.732 437.361L295.363 485.447L261.357 485.319C268.542 483.884 279.857 484.891 287.484 484.914C287.517 474.815 287.892 464.724 287.882 454.621C288.726 451.816 288.816 448.671 287.472 445.999C285.846 442.765 282.867 441.167 279.565 440.091C278.447 438.737 278.153 438.84 276.497 438.48L279.15 437.43Z"/><defs><linearGradient id="gradient_2" gradientUnits="userSpaceOnUse" x1="727.4057" y1="478.68839" x2="775.5365" y2="442.73425"><stop offset="0" stop-color="#339BB9"/><stop offset="1" stop-color="#BEE2F6"/></linearGradient></defs><path fill="url(#gradient_2)" d="M729.013 437.517C743.887 437.212 758.809 437.411 773.688 437.434C773.372 453.411 773.552 469.427 773.5 485.407C759.147 485.331 744.793 485.329 730.44 485.403C729.895 469.457 728.95 453.475 729.013 437.517Z"/><defs><linearGradient id="gradient_3" gradientUnits="userSpaceOnUse" x1="795.85815" y1="537.57281" x2="806.98883" y2="494.39948"><stop offset="0" stop-color="#1D97B2"/><stop offset="1" stop-color="#88CAE1"/></linearGradient></defs><path fill="url(#gradient_3)" d="M808.249 492.663C813.566 492.586 818.884 492.54 824.203 492.523L824.149 503.143L823.989 535.398L823.969 541.042L780.854 541.008L780.782 535.019C780.345 520.959 780.514 506.858 780.507 492.791C789.754 492.795 799.002 492.752 808.249 492.663Z"/><path fill="#217B98" d="M780.782 535.019C787.856 535.278 794.913 536.051 801.987 536.223C809.278 536.401 816.708 535.819 823.989 535.398L823.969 541.042L780.854 541.008L780.782 535.019Z"/><path fill="#82CBEA" d="M808.249 492.663C813.566 492.586 818.884 492.54 824.203 492.523L824.149 503.143C822.271 501.71 815.848 500.543 813.154 499.439C810.647 498.412 805.567 496.586 804.485 494.01L805.253 493.234C806.578 493.35 807.015 493.102 808.249 492.663Z"/><defs><linearGradient id="gradient_4" gradientUnits="userSpaceOnUse" x1="783.78888" y1="485.71005" x2="820.53198" y2="436.52969"><stop offset="0" stop-color="#7FC1DD"/><stop offset="1" stop-color="#BDEBF3"/></linearGradient></defs><path fill="url(#gradient_4)" d="M819.133 437.248L824.314 437.271C824.17 453.348 824.194 469.426 824.384 485.502L787.26 485.465L780.697 485.478L780.549 437.461L819.133 437.248Z"/><path fill="#6F4625" d="M174.89 546.998C195.269 546.866 215.653 547.418 236.037 547.213L290.859 546.833C302.269 546.723 313.708 546.293 325.116 546.52C325.965 548.067 325.622 550.312 325.586 552.041L325.565 561.035L175.831 560.9C175.671 558.784 175.471 556.664 175.4 554.544C175.154 552.038 175.047 549.511 174.89 546.998Z"/><path fill="#9D713F" d="M174.89 546.998C195.269 546.866 215.653 547.418 236.037 547.213L290.859 546.833C302.269 546.723 313.708 546.293 325.116 546.52C325.965 548.067 325.622 550.312 325.586 552.041C291.958 551.91 258.33 552.141 224.707 552.734C208.272 553.095 191.825 554.468 175.4 554.544C175.154 552.038 175.047 549.511 174.89 546.998Z"/><path fill="#604D40" d="M701.001 552.558C700.983 551.027 700.623 549.609 701.526 548.339C705.689 547.626 710.402 548.043 714.655 548.043L740.335 548.063L810.651 548.078C823.822 548.043 837.122 548.367 850.27 547.643L850.147 553.026L850.013 561.805C800.548 560.828 750.896 561.62 701.425 562.235C701.437 558.97 701.399 555.803 701.001 552.558Z"/><path fill="#8A6E59" d="M701.001 552.558C700.983 551.027 700.623 549.609 701.526 548.339C705.689 547.626 710.402 548.043 714.655 548.043L740.335 548.063L810.651 548.078C823.822 548.043 837.122 548.367 850.27 547.643L850.147 553.026L739.447 552.754C727.37 552.741 715.257 553.208 703.191 553.083C702.243 553.073 701.819 553.018 701.001 552.558Z"/><path fill="#82CBEA" d="M200.456 492.489L243.86 492.412C244.063 505.803 244.503 519.19 245.179 532.566C245.572 534.595 245.455 536.926 245.546 539.003C230.852 538.999 216.159 539.093 201.467 539.284C201.467 527.52 201.108 515.748 201.013 503.983C200.746 500.16 200.396 496.322 200.456 492.489Z"/><path fill="#217B98" d="M201.013 503.983C204.065 513.013 206.866 524.895 216.145 529.512C221.285 532.07 239.461 533.733 245.179 532.566C245.572 534.595 245.455 536.926 245.546 539.003C230.852 538.999 216.159 539.093 201.467 539.284C201.467 527.52 201.108 515.748 201.013 503.983Z"/><defs><linearGradient id="gradient_5" gradientUnits="userSpaceOnUse" x1="745.77985" y1="527.93298" x2="761.88849" y2="489.66461"><stop offset="0" stop-color="#2798B4"/><stop offset="1" stop-color="#75C1DF"/></linearGradient></defs><path fill="url(#gradient_5)" d="M730.546 492.749L773.291 492.828C773.917 498.609 773.569 504.648 773.549 510.47L773.388 540.854C759.596 540.617 745.709 540.186 731.921 540.475C731.677 534.702 731.542 528.925 731.515 523.146C731.097 513.017 730.774 502.884 730.546 492.749Z"/><path fill="#217B98" d="M773.291 492.828C773.917 498.609 773.569 504.648 773.549 510.47L773.388 540.854C759.596 540.617 745.709 540.186 731.921 540.475C731.677 534.702 731.542 528.925 731.515 523.146C736.459 524.376 741.503 526.933 746.363 528.613C755.007 531.601 763.873 533.653 772.862 535.272C773.131 521.208 772.258 506.829 773.291 492.828Z"/><path fill="#82CBEA" d="M262.366 492.578C273.245 492.309 284.148 492.487 295.03 492.522C294.765 508.04 294.604 523.559 294.549 539.078C280.679 538.982 266.809 538.959 252.939 539.007L252.47 529.25C252.951 517.144 250.734 504.648 250.43 492.489L262.366 492.578Z"/><path fill="#217B98" d="M262.366 492.578C273.245 492.309 284.148 492.487 295.03 492.522C294.765 508.04 294.604 523.559 294.549 539.078C280.679 538.982 266.809 538.959 252.939 539.007L252.47 529.25L253.273 531.869C254.067 532.156 254.718 532.261 255.563 532.301C263.463 532.684 275.983 531.628 282.019 526.014C288.221 520.245 287.556 501.007 287.66 492.996C279.258 493.011 270.746 493.197 262.366 492.578Z"/><path fill="#82CBEA" d="M200.597 437.475C212.609 437.48 228.613 436.432 240.106 437.53C240.931 438.501 240.81 439.279 240.96 440.51C241.76 449.901 242.453 459.484 242.624 468.908C242.994 474.434 243.197 479.983 243.472 485.516L200.871 485.572C200.907 469.537 200.36 453.512 200.597 437.475Z"/><path fill="#BACFD3" d="M242.624 468.908C232.444 469.478 215.604 466.419 207.877 459.244C206.138 457.629 204.682 455.516 204.673 453.057C204.665 451.017 205.622 449.301 207.066 447.915C212.732 442.48 233.052 440.307 240.96 440.51C241.76 449.901 242.453 459.484 242.624 468.908Z"/><path fill="#9D713F" d="M697.633 405.168C698.532 407.865 697.081 414.698 698.452 416.519L698.567 416.426C698.966 419.666 698.434 422.933 701.21 425.105C703.946 425.57 706.752 425.233 709.51 425.068C709.642 435.303 712.211 538.889 711.335 540.725C710.134 541.213 709.307 541.191 708.036 541.174L697.944 541.182L697.511 433.124C697.497 423.866 697.011 414.391 697.633 405.168Z"/><path fill="#6F4625" d="M697.633 405.168C698.532 407.865 697.081 414.698 698.452 416.519L698.567 416.426C698.966 419.666 698.434 422.933 701.21 425.105C703.946 425.57 706.752 425.233 709.51 425.068C709.642 435.303 712.211 538.889 711.335 540.725C710.134 541.213 709.307 541.191 708.036 541.174C708.02 520.878 706.898 500.577 706.698 480.272L706.538 453.107C706.507 446.522 706.732 439.822 705.858 433.285C703.077 433.025 700.301 433.097 697.511 433.124C697.497 423.866 697.011 414.391 697.633 405.168Z"/><path fill="#E86F22" d="M80.5111 815.713C89.0818 814.943 98.1588 815.288 106.772 815.301C131.95 815.34 156.768 815.797 181.245 822.318C164.923 825.732 148.527 827.121 131.875 827.708C108.013 829.27 52.2261 830.12 31.2149 822.521C47.4396 818.198 63.8106 816.815 80.5111 815.713Z"/><path fill="#DBA86C" d="M937.512 618.202L945.52 618.741C943.859 651.671 941.913 684.587 939.682 717.483C938.076 741.122 936.208 764.933 935.457 788.609C932.144 788.816 930.205 787.702 927.439 786.069C929.03 753.584 932.296 721.152 934.031 688.659L936.184 643.116C936.54 634.896 936.431 626.333 937.512 618.202Z"/><path fill="#393637" d="M813.594 674.07C816.727 674.778 819.917 675.316 823.073 675.923C828.95 677.11 835.572 677.894 841.568 677.991C844.949 678.356 848.365 678.453 851.762 678.613C846.392 692.556 842.998 706.706 839.507 721.196C831.034 719.539 822.457 717.79 813.878 716.828C814.939 702.51 815.992 688.336 813.594 674.07Z"/><path fill="#604D40" d="M823.073 675.923C828.95 677.11 835.572 677.894 841.568 677.991C842.491 678.318 842.711 678.38 843.392 679.135C843.374 680.901 843.117 682.497 842.659 684.197C840.983 690.426 837.176 699.69 831.228 702.89C829.449 703.847 827.064 704.542 825.117 703.649C822.356 702.383 821.167 698.492 820.515 695.804C818.69 688.268 819.039 682.61 823.073 675.923Z"/><path fill="#6F4625" d="M177.298 422.484C201.047 422.708 224.798 422.764 248.548 422.65C271.532 422.53 294.608 422.119 317.584 422.764C317.339 425.31 317.274 427.887 317.145 430.443C301.735 431.144 285.92 430.425 270.466 430.444L177.566 430.469L177.298 422.484Z"/><path fill="#FCFCFC" d="M173.971 409.898L322.469 410.03L322.45 417.063L173.975 416.799L173.971 409.898Z"/><path fill="#FCFCFC" d="M704.518 410.634C730.234 410.09 756.088 410.823 781.82 410.791C802.897 410.764 824.164 409.862 845.212 410.501C847.113 410.558 848.872 410.364 850.479 411.427C851.35 413.2 851.071 415.206 851.02 417.13C833.199 416.368 815.151 416.917 797.31 416.937C766.374 416.875 735.439 416.994 704.505 417.292C704.427 415.077 704.498 412.85 704.518 410.634Z"/><path fill="#9D713F" d="M325.24 425.923C325.295 425.977 325.364 426.021 325.405 426.086C326.165 427.283 326.154 529.195 326.206 539.498L318.875 539.485C317.772 539.423 318.305 539.608 317.338 538.779C317.025 528.549 317.179 439.885 317.619 438.77C317.727 438.496 317.946 438.281 318.11 438.036C319.3 437.634 321.387 437.13 322.332 436.296C324.848 434.077 324.979 429.044 325.24 425.923Z"/><path fill="#604D40" d="M716.199 424.218C756.852 423.992 797.742 422.746 838.378 423.688C838.413 425.923 838.359 428.196 838.499 430.425C835.808 431.941 819.543 430.988 815.697 430.929C804.703 431.55 793.394 431.038 782.37 431.034L716.084 430.887C715.987 428.639 716.045 426.462 716.199 424.218Z"/><path fill="#393637" d="M716.084 430.887C715.987 428.639 716.045 426.462 716.199 424.218C716.333 425.578 716.174 427.323 717.047 428.378C728.226 428.916 832.061 426.319 835.096 428.378L834.776 429.126C836.648 429.286 837.012 429.173 838.499 430.425C835.808 431.941 819.543 430.988 815.697 430.929C804.703 431.55 793.394 431.038 782.37 431.034L716.084 430.887Z"/><path fill="#615D61" d="M834.776 429.126C836.648 429.286 837.012 429.173 838.499 430.425C835.808 431.941 819.543 430.988 815.697 430.929C803.375 429.549 790.381 430.409 777.965 430.364C774.012 430.349 769.396 430.8 765.522 430.109C772.07 428.355 782.112 429.325 789.033 429.292L834.776 429.126Z"/><path fill="#6F4625" d="M302.287 437.252C304.999 437.135 307.728 437.13 310.442 437.072C309.309 471.124 310.121 505.435 309.996 539.515L301.261 539.496C302.153 505.453 301.67 471.317 302.287 437.252Z"/><path fill="#855A32" d="M183.871 437.463L193.469 437.484L193.613 539.964L185.952 539.972C185.891 505.792 185.197 471.617 183.871 437.463Z"/><path fill="#F2A748" d="M226.826 215.078C235.304 215.153 250.775 213.948 258.324 215.308C259.213 216.664 258.961 218.391 258.958 219.954L259.794 220.738L260.159 220.403C260.438 218.688 260.47 216.602 261.506 215.193C267.349 214.934 274.982 214.202 280.65 215.365C281.068 216.818 281.05 218.01 280.989 219.495L280.986 230.488C262.71 230.406 244.434 230.452 226.159 230.628L226.509 220.371L226.826 215.078Z"/><path fill="#DA4D16" d="M226.826 215.078C235.304 215.153 250.775 213.948 258.324 215.308C259.213 216.664 258.961 218.391 258.958 219.954C253.652 218.64 233.749 220.465 226.509 220.371L226.826 215.078Z"/><path fill="#E86F22" d="M260.159 220.403C260.438 218.688 260.47 216.602 261.506 215.193C267.349 214.934 274.982 214.202 280.65 215.365C281.068 216.818 281.05 218.01 280.989 219.495C274.676 219.001 266.356 219.227 260.159 220.403Z"/><path fill="#BA8E63" d="M213.57 703.774C216.794 705.417 221.083 707.862 223.04 710.978C223.693 712.019 224.188 713.206 223.844 714.439C222.598 718.913 225.123 725.204 225.258 730.039C225.443 736.725 224.975 743.529 224.797 750.221C224.615 757.014 224.719 763.836 224.384 770.621C224.227 773.81 224.496 775.884 222.05 778.12L213.838 783.62C212.986 757.095 213.435 730.32 213.57 703.774Z"/><path fill="#8A6E59" d="M366.975 444.504C377.647 445.338 388.297 446.588 398.955 447.604C415.908 449.221 432.909 450.757 449.726 453.503L441.034 454.362C431.814 454.959 422.499 456.656 413.282 457.604C397.922 459.183 382.507 460.169 367.172 462.018L366.975 444.504Z"/><path fill="#EE8D39" d="M230.71 261.112L256.636 261.011L257.581 267.91C253.12 271.545 248.573 275.239 243.556 278.083C230.983 277.709 218.404 277.584 205.826 277.708L205.633 261.197L212.465 261.1C212.452 264.214 211.413 272.225 213.559 274.518C214.317 274.55 215.094 274.624 215.851 274.577C215.966 270.059 215.686 265.542 215.476 261.03C220.554 261.005 225.632 261.032 230.71 261.112Z"/><path fill="#F2A748" d="M215.476 261.03C220.554 261.005 225.632 261.032 230.71 261.112C236.636 262.512 243.655 261.39 249.76 261.661C241.983 266.691 225.639 276.062 216.242 274.666C216.11 274.647 215.982 274.606 215.851 274.577C215.966 270.059 215.686 265.542 215.476 261.03Z"/><path fill="#F2A748" d="M205.846 236.868C219.222 236.952 232.598 236.829 245.971 236.501L245.965 243.081L245.982 254.942L205.738 255.013L205.856 247.937L205.846 236.868Z"/><path fill="#EE8D39" d="M245.965 243.081L245.982 254.942L205.738 255.013L205.856 247.937C218.368 249.238 232.418 248.399 244.836 246.195C245.885 245.197 245.739 244.459 245.965 243.081Z"/><path fill="#908A87" d="M372.613 819.007C392.33 820.24 412.027 821.77 431.698 823.597C440.629 824.356 450.341 824.189 459.1 825.956C451.74 826.713 444.274 827.067 436.96 828.158C428.487 829.626 419.568 829.987 411.001 830.943C398.372 832.353 385.788 834.304 373.104 835.184L372.993 828.225C372.839 825.161 372.602 822.074 372.613 819.007Z"/><path fill="#615D61" d="M372.993 828.225C393.235 827.517 417.145 824.481 436.96 828.158C428.487 829.626 419.568 829.987 411.001 830.943C398.372 832.353 385.788 834.304 373.104 835.184L372.993 828.225Z"/><path fill="#BA8E63" d="M267.193 693.866C267.55 694.257 267.741 694.683 267.842 695.214C268.704 699.747 268.045 713.052 268.088 718.693L268.516 781.112L261.656 777.753C260.556 774.257 260.86 762.711 260.64 758.29C260.194 750.448 259.675 742.611 259.084 734.779C258.799 730.522 259.182 726.342 259.06 722.098C258.669 708.474 257.496 704.951 267.193 693.866Z"/><path fill="#FBC457" d="M252.717 236.562C265.173 236.744 277.631 236.822 290.089 236.798C291.838 236.653 293.517 236.275 295.099 237.205C295.373 237.977 295.579 238.01 295.198 238.812C293.521 242.348 278.574 251.809 274.354 254.824C270.362 254.641 255.001 255.612 252.636 254.221C252.434 253.193 252.36 252.31 252.385 251.263C252.681 246.385 252.628 241.45 252.717 236.562Z"/><path fill="#EE8D39" d="M290.089 236.798C291.838 236.653 293.517 236.275 295.099 237.205C295.373 237.977 295.579 238.01 295.198 238.812C293.521 242.348 278.574 251.809 274.354 254.824C270.362 254.641 255.001 255.612 252.636 254.221C252.434 253.193 252.36 252.31 252.385 251.263C265.227 248.997 280.52 246.441 290.089 236.798Z"/><path fill="#604D40" d="M716.928 437.481C718.557 437.383 719.875 437.31 721.453 437.768C722.889 440.217 724.664 527.952 725.072 540.884L718.516 540.981C717.762 506.485 717.804 471.975 716.928 437.481Z"/><path fill="#604D40" d="M831.658 437.458L838.513 437.302C838.446 458.304 839.117 479.3 839.069 500.296C838.667 505.002 838.827 509.82 839.238 514.524C836.426 514.453 833.784 514.265 831.009 513.786L831.658 437.458Z"/><defs><linearGradient id="gradient_6" gradientUnits="userSpaceOnUse" x1="936.9151" y1="616.11084" x2="946.80157" y2="590.50751"><stop offset="0" stop-color="#7D7A7D"/><stop offset="1" stop-color="#9A9998"/></linearGradient></defs><path fill="url(#gradient_6)" d="M922.759 549.875C922.77 559.068 917.661 597.806 922.031 603.321C923.311 604.936 926.627 605.24 928.574 605.397C934.218 605.853 961.57 608.492 964.743 605.076C966.199 603.507 966.644 600.302 966.941 598.281C967.694 593.14 967.548 587.712 967.854 582.52C968.358 573.959 969.161 565.407 969.765 556.851C970.225 559.496 969.95 562.438 969.923 565.125C969.437 581.024 969.095 597.163 967.838 613.008C957.322 612.32 946.8 611.718 936.273 611.204C930.386 610.905 923.594 611.201 917.893 609.796C916.27 604.734 921.034 556.641 922.759 549.875Z"/><path fill="#FCFCFC" d="M355.434 857.489L364.513 857.376C364.502 870.906 364.954 884.461 365.042 897.997C363.683 898.965 362.371 900.014 361.042 901.024C359.552 903.034 358.309 905.387 356.943 907.505C355.837 901.37 356.072 894.675 355.947 888.437L355.434 857.489Z"/><path fill="#E86F22" d="M283.015 929.235C285.016 929.227 285.71 928.981 287.386 930.151C287.912 931.466 287.913 931.441 287.446 932.777C286.139 933.541 284.637 933.621 283.15 933.684C278.35 933.889 273.505 933.553 268.697 933.618L211.375 933.952C209.61 933.976 207.966 934.374 206.577 933.23C206.518 932.081 206.48 931.848 207.014 930.846C213.971 929.986 221.253 930.637 228.27 930.438C246.515 929.871 264.763 929.47 283.015 929.235Z"/><path fill="#F2A748" d="M216.142 284.5C218.6 284.283 221.074 283.993 223.54 283.91L223.605 294.298C221.654 295.625 219.646 297.261 217.559 298.335C213.896 301.422 210.089 304.303 206.273 307.195C206.176 305.484 205.995 303.736 206.025 302.024L205.981 291.45L205.902 284.61C209.311 284.515 212.731 284.534 216.142 284.5Z"/><path fill="#FBC457" d="M205.902 284.61C209.311 284.515 212.731 284.534 216.142 284.5C214.296 287.454 208.844 289.231 205.981 291.45L205.902 284.61Z"/><path fill="#E86F22" d="M206.025 302.024C209.929 300.956 213.463 298.756 217.559 298.335C213.896 301.422 210.089 304.303 206.273 307.195C206.176 305.484 205.995 303.736 206.025 302.024Z"/><path fill="#6F4625" d="M839.069 500.296C840.342 513.569 839.68 527.489 839.829 540.85L830.816 540.954L831.009 513.786C833.784 514.265 836.426 514.453 839.238 514.524C838.827 509.82 838.667 505.002 839.069 500.296Z"/><path fill="#BA8E63" d="M822.229 846.629C822.066 862.091 821.995 877.555 822.018 893.019L812.209 893.051C816.391 877.77 818.219 861.926 822.229 846.629Z"/><path fill="#615D61" d="M616.171 651.984C622.315 651.98 628.46 651.939 634.605 651.859C634.493 655.855 634.343 659.85 634.154 663.844L616.258 663.929C616.054 659.964 616.17 655.955 616.171 651.984Z"/><path fill="#FBC457" d="M205.826 215.489C210.243 215.444 214.659 215.367 219.074 215.256L219.055 220.92L219.085 225.932C219.032 227.538 219.271 228.259 218.226 229.521C214.188 230.79 210.008 229.888 205.833 229.956C205.129 225.298 205.652 220.194 205.826 215.489Z"/><path fill="#DA4D16" d="M205.826 215.489C210.243 215.444 214.659 215.367 219.074 215.256L219.055 220.92C215.576 220.916 209.055 219.812 206.298 222.126C205.779 223.448 205.954 224.648 206.055 226.026C205.988 227.33 205.974 228.659 205.833 229.956C205.129 225.298 205.652 220.194 205.826 215.489Z"/><path fill="#F2A748" d="M206.055 226.026C210.369 226.423 214.761 226.093 219.085 225.932C219.032 227.538 219.271 228.259 218.226 229.521C214.188 230.79 210.008 229.888 205.833 229.956C205.974 228.659 205.988 227.33 206.055 226.026Z"/><path fill="#FCFCFC" d="M353.327 824.02L364.952 823.896L365.403 836.026C361.389 836.262 357.372 836.418 353.352 836.495L353.327 824.02Z"/><path fill="#BCBCBE" d="M617.549 603.505L635.072 603.568C635.106 606.293 635.317 609.11 634.816 611.797C629.059 611.652 623.285 611.855 617.528 611.961L617.549 603.505Z"/><path fill="#855A32" d="M812.209 893.051L822.018 893.019C822.01 896.978 822.26 901.121 821.894 905.055L809.313 904.972C810.054 902.582 810.63 900.199 811.164 897.759L812.209 893.051Z"/><path fill="#855A32" d="M812.209 893.051L822.018 893.019C822.01 896.978 822.26 901.121 821.894 905.055C821.543 902.257 821.699 899.318 821.683 896.498C818.112 896.668 814.658 896.981 811.164 897.759L812.209 893.051Z"/><path fill="#FBC457" d="M286.501 215.316L295.441 215.258L295.477 220.78L295.41 229.953L286.775 230.082C285.952 225.478 286.497 220.009 286.501 215.316Z"/><path fill="#E86F22" d="M286.501 215.316L295.441 215.258L295.477 220.78C292.668 220.782 289.859 220.799 287.051 220.831C287.024 223.848 287.216 227.109 286.775 230.082C285.952 225.478 286.497 220.009 286.501 215.316Z"/><path fill="#FCFCFC" d="M354.816 447.75C356.569 447.585 357.457 447.353 358.931 448.375C360.419 451.267 359.739 455.132 359.613 458.309C356.887 458.523 354.11 458.506 351.375 458.575C349.911 458.562 349.259 458.779 348.067 457.882C347.516 456.505 347.329 455.616 347.374 454.138L347.525 447.998L354.816 447.75Z"/><path fill="#FCFCFC" d="M353.455 841.946L365.534 841.859C365.684 844.897 365.612 847.948 365.601 850.99C361.557 851.091 357.5 851.053 353.455 851.08L353.455 841.946Z"/><path fill="#FCFCFC" d="M348.24 463.487L360.286 463.523C360.424 466.575 360.278 469.622 360.179 472.674C356.256 472.728 352.32 472.632 348.397 472.609L348.24 463.487Z"/><path fill="#FCFCFC" d="M361.826 809.24C362.974 809.228 362.815 809.069 363.831 809.838C364.68 812.571 364.518 815.487 364.564 818.327C361.681 818.499 358.763 818.488 355.875 818.554C355.155 818.553 354.587 818.424 353.888 818.268C352.481 815.86 353.121 812.16 353.231 809.441L361.826 809.24Z"/><path fill="#BACFD3" d="M243.458 717.75C246.137 717.641 249.845 717.067 252.288 718.108C252.544 719.325 252.526 720.025 252.241 721.235C249.113 722.47 243.532 721.784 240.125 721.793C237.239 721.835 232.43 722.845 230.008 721.11C229.718 719.997 229.806 719.52 230.179 718.439C234.078 717.229 239.389 717.79 243.458 717.75Z"/><path fill="#F2A748" d="M927.439 786.069C930.205 787.702 932.144 788.816 935.457 788.609L934.384 798.709L926.812 797.856C926.888 793.919 927.175 789.996 927.439 786.069Z"/><path fill="#FCFCFC" d="M347.86 436.048L358.983 435.863L359.251 443.404C355.49 442.947 351.626 443.055 347.839 443.016L347.86 436.048Z"/><path fill="#F2A748" d="M231.816 283.764C233.228 283.613 234.527 283.37 235.908 283.82C235.533 285.25 233.383 286.618 232.219 287.613C231.525 288.336 231.471 288.38 230.436 288.653L229.874 287.656C229.907 286.261 229.994 285.435 230.559 284.123L231.816 283.764Z"/></svg>