<?xml version="1.0" encoding="utf-8" ?><svg xmlns="http://www.w3.org/2000/svg" xmlns:xlink="http://www.w3.org/1999/xlink" width="1024" height="1024" viewBox="0 0 1024 1024"><path d="M0 0L1024 0L1024 481.601L1024 923.525L1024 933.528L1024 1024L0 1024L0 933.494L0 923.831L0 472.954L0 0Z"/><path fill="#67BAE2" d="M0 0L1024 0L1024 481.601C1009.15 468.769 986.803 452.706 966.94 451.312C973.045 444.239 978.823 436.889 984.255 429.287C985.664 427.294 989.109 422.337 988.339 419.888C987.722 417.929 984.92 415.92 983.302 414.732C972.177 406.563 959.754 399.648 948.211 392.028C918.415 372.186 888.357 352.74 858.044 333.697L857.484 147.035L889.175 146.994C894.724 146.982 900.535 147.307 906.052 146.761C908.181 146.55 909.953 146.187 911.771 145.046C912.354 144.114 912.748 143.585 912.862 142.461C912.972 141.383 912.368 140.617 911.691 139.827C907.568 135.018 902.215 130.858 897.484 126.622C887.756 117.849 877.915 109.203 867.964 100.686C852.735 87.5811 838.059 73.8652 822.947 60.633C819.668 57.7616 809.987 46.7256 806.596 46.6595C804.877 46.6259 801.888 49.353 800.528 50.469C788.94 59.9743 777.981 70.4954 766.796 80.4891C751.606 94.0021 736.31 107.395 720.909 120.668C716.515 124.516 700.758 136.697 700.951 142.078C701.001 143.486 701.43 144.372 702.441 145.349C705.091 147.911 746.292 146.975 752.883 146.988C753.809 162.689 753.51 178.727 753.538 194.459L753.547 267.216C738.165 257.973 723.387 247.592 708.299 237.866L641.478 194.959C611.82 175.665 582.359 156.163 552.009 137.957C547.888 126.359 520.169 51.2419 514.169 45.8967C513.275 45.772 512.662 45.7123 511.799 46.0896C510.495 46.6599 509.592 47.6592 508.838 48.8356C505.012 54.8043 502.456 62.8167 499.578 69.3482C489.483 92.1638 480.133 115.302 471.543 138.726C465.444 141.864 459.667 146.062 453.892 149.766L419.676 171.861L312.09 241.028L116.744 366.492C91.4997 382.947 65.0485 398.138 40.614 415.78C38.7737 417.109 35.9164 418.522 35.6335 420.929C34.9685 426.586 43.5793 435.713 46.9617 440.03C31.2849 450.976 15.8713 462.263 0 472.954L0 0Z"/><path fill="#97CA6A" d="M137.033 932.039L163.057 932.007C163.397 943.146 164.221 954.285 164.434 965.42C162.877 961.57 161.163 959.103 158.07 956.326C157.06 959.672 156.392 963.193 155.591 966.6C154.209 961.85 151.775 954.793 147.701 951.774C146.483 950.871 145.516 950.673 144.049 950.894L143.285 951.989C142.999 955.177 144.427 957.135 146.168 959.656C148.495 963.373 154.357 974.909 157.784 976.194C158.818 975.732 159.075 975.51 159.567 974.392C159.89 973.662 160.023 972.707 160.195 971.923C161.541 970.487 163.153 969.796 164.726 968.674C166.764 971.299 168.144 974.324 170.446 976.725C185.932 977.588 201.761 976.998 217.28 977.011L302.227 977.08L566.702 977.128L764.687 977.245L827.771 977.228C838.603 977.209 849.941 977.825 860.704 976.916C861.741 975.453 862.804 974.003 863.781 972.502C868.15 973.714 874.34 976.295 878.824 975.322C879.969 974.436 880.263 974.269 880.601 972.788C881.424 969.179 879.141 960.394 878.54 956.484C881.49 961.414 884.358 966.546 887.603 971.283C889.052 968.884 890.411 966.581 891.48 963.982L891.899 963.946L891.917 964.623C891.964 966.008 891.855 967.201 892.668 968.388L893.456 968.494C895.317 964.536 895.641 959.874 897.037 955.714C897.581 959.004 897.161 966.723 899.275 968.969C900.654 969.273 900.866 969.171 902.209 968.688C902.711 967.762 902.927 967.062 903.094 966.023L904.208 966.016C903.788 969.437 903.87 972.596 904.102 976.026C927.861 976.564 951.691 975.36 975.427 976.529C973.227 968.125 971.077 961.858 971.11 953.069C971.91 954.678 972.757 956.299 973.754 957.796C976.229 961.511 982.016 970.557 986.265 971.452C990.833 970.221 992.554 957.886 995.353 953.157L995.711 952.563C995.588 958.01 992.695 968.566 995.73 973.103C996.386 973.35 996.682 973.648 997.384 973.362C999.977 972.304 1002.24 968.442 1003.45 965.984C1004.24 964.388 1004.95 962.795 1004.39 961.054C1004.24 961.058 1004.09 961.04 1003.94 961.066C1001.66 961.479 999.307 965.257 997.944 967.027C998.474 961.666 1001.16 951.402 1000.71 946.69C1000.61 945.659 1000.57 945.581 999.769 944.874C999.232 944.891 999.177 944.858 998.589 945.074C992.463 947.323 988.062 959.861 985.946 965.408L985.541 965.294C983.586 960.455 984.96 940.43 985.026 933.572L1024 933.528L1024 1024L0 1024L0 933.494C12.7282 933.479 25.4719 933.333 38.1984 933.483C39.6043 940.476 41.5708 966.458 46.5846 970.016C47.3344 970.548 47.5522 970.5 48.4104 970.62C52.6665 967.263 55.4681 961.712 59.3875 957.792C58.1385 962.907 54.9252 969.826 55.5721 975.016C56.1049 975.513 56.1865 975.847 56.9835 975.802C62.6705 975.481 70.1463 963.965 75.2323 965.117C74.5173 968.586 72.1538 972.18 70.8506 975.518C79.1284 975.681 143.41 976.47 145.776 975.442C147.128 970.843 144.775 964.768 144.548 960L143.759 958.875C140.82 960.363 141.991 965.966 140.269 968.72C139.835 969.414 139.498 969.311 138.77 969.493L137.604 968.757C138.931 958.83 137.272 942.645 137.033 932.039Z"/><path d="M25.2425 943.102C27.7282 943.637 29.6512 946.462 31.0389 948.445C34.1062 952.826 39.5217 962.049 38.5686 967.511L37.8513 967.835C36.5848 967.139 35.6776 965.978 34.9392 964.752C33.6689 962.642 32.8725 959.988 31.7838 957.746C29.7904 953.64 27.361 949.747 24.7753 945.993C27.3327 952.209 29.6688 958.529 32.0752 964.804C32.5181 966.31 32.9848 967.836 33.2492 969.385C33.5652 971.237 33.7158 973.043 32.5145 974.626C31.8622 975.486 31.0503 975.942 29.9537 976.06C26.1992 976.463 17.1039 972.832 14.3885 970.174C13.8145 969.612 14.0197 969.748 14.0709 968.811C14.2 968.724 14.3192 968.62 14.4582 968.551C17.7733 966.888 26.5822 971.328 30.0272 972.699C28.358 965.548 24.6565 958.724 23.4199 951.6C22.7927 947.988 23.1294 946.07 25.2425 943.102Z"/><path fill="#B0D8E9" d="M886.542 425.332C901.121 435.074 915.938 444.184 930.95 453.23C936.36 456.49 941.754 460.415 947.368 463.251C948.835 463.992 951.383 465.237 953.077 464.961C957.708 464.208 963.683 454.722 966.94 451.312C986.803 452.706 1009.15 468.769 1024 481.601L1024 923.525C1010.99 923.534 997.978 923.637 984.968 923.834C984.646 906.102 984.839 888.364 985.546 870.644C986.29 870.098 987.028 869.541 987.722 868.932C991.627 865.509 994.107 860.767 994.292 855.53C994.536 848.645 990.192 837.734 985.298 832.884C978.596 826.243 960.268 828.138 951.379 828.113C950.965 810.861 951.29 793.571 951.142 776.311C954.771 776.256 960.648 777.213 963.825 775.202C964.801 774.584 965.178 773.601 965.414 772.502C967.122 764.559 966.487 753.505 966.541 745.321C966.854 697.691 961.64 649.371 948.015 603.614C946.48 598.458 945.192 591.233 942.364 586.809C941.265 586.196 941.243 586.164 940.007 586.367C936.377 589.599 934.786 597.579 933.276 602.209C918.107 648.705 913.05 707.385 914.849 756.168C915.017 760.727 914.052 771.122 915.989 774.931C918.746 777.267 922.347 776.58 925.734 776.479C925.294 793.675 925.542 810.878 925.253 828.077C917.666 828.248 909.041 827.69 901.656 829.361C896.234 830.588 892.01 833.122 889.091 837.944C885.431 843.989 883.135 852.849 885.029 859.749C886.48 865.036 889.748 868.986 894.506 871.605C894.529 889.117 894.048 906.655 893.856 924.168C884.428 923.914 874.966 924.166 865.534 924.231C865.697 916.408 866.403 908.561 866.743 900.738L869.826 828.608L886.542 425.332Z"/><path fill="#B0D8E9" d="M46.9617 440.03C50.9654 445.476 65.6138 465.455 71.172 466.922C81.3221 465.246 124.214 433.041 137.597 425.627C139.039 443.766 139.291 462.035 140.129 480.213C141.938 513.702 143.46 547.206 144.698 580.722C145.71 602.395 146.889 624.061 148.234 645.717L153.311 748.135C153.573 753.23 157.23 810.482 156.16 811.541C155.559 812.135 154.831 812.3 154.056 812.57C152.034 815.538 153.029 833.998 153.666 837.925C154.985 839.392 156.598 839.316 158.485 839.463C159.622 866.817 161.79 894.147 162.802 921.487C154.077 921.511 145.327 921.65 136.61 921.255C136.269 905.846 135.775 890.442 135.127 875.043C134.711 864.008 134.497 852.938 133.573 841.932C138.285 839.189 141.198 836.411 142.616 830.895C144.343 824.179 143.882 812.651 140.053 806.726C137.938 803.471 134.598 801.209 130.791 800.452C123.895 799.105 103.432 802.472 95.0779 803.155C93.212 784.005 90.3226 765.064 87.7255 746.008L75.5161 654.427C73.5236 638.846 70.1381 622.83 69.3174 607.181C78.998 602.375 87.3724 595.332 90.9409 584.792C94.0276 575.676 92.8057 565.663 88.5717 557.129C84.7314 549.388 76.3681 540.059 68.0905 537.113C66.288 536.471 64.1207 536.11 62.3472 537.051C61.0064 537.763 60.3232 539.062 60.0189 540.498C59.7882 541.586 59.8656 542.584 60.1569 543.652C61.2581 547.686 63.3017 551.633 64.7569 555.567C66.739 560.925 68.3543 566.473 69.8205 571.991C67.1123 576.928 63.274 579.559 57.9082 581.167C52.622 582.751 45.1724 583.559 40.2564 580.716C37.2035 578.951 35.3942 576.135 34.5327 572.764C32.9547 566.591 34.4365 547.013 29.9538 544.012C28.5112 543.046 26.5353 543.105 24.9299 543.599C21.2459 544.734 18.8416 549.337 17.2888 552.612C12.307 563.119 10.1442 575.364 14.2632 586.524C17.7073 595.855 24.7545 602.724 33.7602 606.735C38.2727 608.745 43.0322 609.856 47.8875 610.678C49.7123 623.366 50.6999 636.186 52.2615 648.912L62.0815 726.795L68.1107 776.208C69.2492 785.771 70.6794 795.399 71.1572 805.018C56.7412 806.861 41.8537 807.456 27.5695 809.928C22.3819 814.687 18.8047 819.657 18.4724 826.966C18.2263 832.381 19.1425 838.064 22.927 842.189C24.7938 844.224 26.9639 845.152 29.4432 846.201C30.0898 863.213 32.3495 880.362 33.9723 897.316C34.5702 903.561 35.6089 910.106 35.6512 916.367C35.6663 918.613 35.6432 921.119 34.5913 923.152C28.7465 924.573 7.27196 923.781 0 923.831L0 472.954C15.8713 462.263 31.2849 450.976 46.9617 440.03Z"/><path fill="#F6A436" d="M902.541 875.028C905.463 874.238 948.199 874.871 953.691 875.218C955.787 875.351 958.856 875.477 960.696 876.469C961.641 876.977 962.131 879.171 962.307 880.168C964.722 893.847 960.63 929.938 952.626 940.812C946.246 949.479 935.153 952.908 924.93 954.338C917.686 955.352 910.252 955.208 902.955 955.667C901.04 950.773 902.499 886.027 902.541 875.028Z"/><path fill="#E47D29" d="M902.541 875.028C902.538 873.426 902.302 871.697 903.154 870.279C907.035 869.047 968.122 869.401 977.13 869.708C977.649 880.369 977.186 891.08 977.076 901.75L976.661 953.184C975.061 951.305 973.025 948.156 970.797 947.124C969.514 947.615 969.127 948.003 968.577 949.293C966.453 954.271 966.783 961.678 967.05 967.018C947.582 966.973 928.095 966.739 908.629 966.92C908.746 964.959 908.99 963.235 908.173 961.393L907.29 960.613C906.38 960.869 906.08 960.931 905.549 961.798C904.83 962.973 904.528 964.677 904.208 966.016L903.094 966.023C902.793 962.752 904.297 958.685 902.955 955.667C910.252 955.208 917.686 955.352 924.93 954.338C935.153 952.908 946.246 949.479 952.626 940.812C960.63 929.938 964.722 893.847 962.307 880.168C962.131 879.171 961.641 876.977 960.696 876.469C958.856 875.477 955.787 875.351 953.691 875.218C948.199 874.871 905.463 874.238 902.541 875.028Z"/><path fill="#BD8047" d="M373.506 273.301L373.5 302.161L373.516 400.225C371.9 400.562 370.493 400.74 369.179 401.823C367.44 404.922 368.098 466.489 368.083 475.67C366.911 476.625 365.685 477.555 364.562 478.564L364.572 512.723C364.577 517.077 363.942 522.688 364.766 526.891C364.94 527.775 365.472 528.269 366.098 528.869C366.287 529.049 366.489 529.216 366.685 529.389C369.191 541.162 368.263 562.888 368.391 575.704L368.421 684.75L368.146 866.981L367.995 912.476C367.98 920.194 368.26 928.033 367.912 935.738C368.11 946.07 367.561 956.45 367.546 966.79L304.813 967.049C304.797 958.261 304.483 949.372 304.778 940.596L304.307 825.546C303.674 763.748 303.377 701.947 303.418 640.146C302.67 632.711 303.135 624.789 303.092 617.298C314.601 617.145 326.139 617.366 337.652 617.402C343.182 617.419 349.107 617.864 354.572 617.098C355.953 616.904 357.034 616.39 358.192 615.639C358.535 614.871 358.556 614.892 358.797 614.062C359.854 610.43 359.674 581.279 357.871 578.938C355.812 576.265 348.207 577.048 345.075 577.069C346.054 552.854 345.479 528.452 345.458 504.219C345.443 487.316 346.279 469.893 345.173 453.042C331.656 452.116 317.478 453.091 303.895 453.203L304.02 382.229C304.016 370.44 303.053 357.922 304.212 346.226C304.989 337.144 304.355 327.628 304.253 318.504C313.428 311.627 323.511 305.712 333.179 299.536C346.691 290.899 360.134 282.154 373.506 273.301Z"/><path fill="#99572B" d="M373.506 273.301L373.5 302.161C366.99 305.795 360.796 310.09 354.481 314.058C343.809 320.764 333.117 327.399 322.547 334.27C316.52 338.187 310.479 342.76 304.212 346.226C304.989 337.144 304.355 327.628 304.253 318.504C313.428 311.627 323.511 305.712 333.179 299.536C346.691 290.899 360.134 282.154 373.506 273.301Z"/><path fill="#99572B" d="M304.778 940.596C318.083 940.704 331.389 940.731 344.694 940.677C351.99 940.675 359.86 941.332 367.063 940.344C367.767 938.94 367.758 937.293 367.912 935.738C368.11 946.07 367.561 956.45 367.546 966.79L304.813 967.049C304.797 958.261 304.483 949.372 304.778 940.596Z"/><path fill="#99572B" d="M358.192 615.639C359.476 620.326 360.4 628.462 358.958 633.118C357.816 634.69 356.026 635.089 354.181 635.338C347.867 636.192 305.662 634.245 303.803 636.014L303.418 640.146C302.67 632.711 303.135 624.789 303.092 617.298C314.601 617.145 326.139 617.366 337.652 617.402C343.182 617.419 349.107 617.864 354.572 617.098C355.953 616.904 357.034 616.39 358.192 615.639Z"/><path fill="#BD8047" d="M797.561 368.263C807.375 373.701 816.792 380.204 826.241 386.265C843.149 397.057 859.875 408.131 876.413 419.483C876.25 425.444 876.142 431.408 875.695 437.356L860.749 800.238C858.821 846.799 857.952 893.487 855.236 940.004C854.334 948.993 854.279 958.189 853.993 967.217L801.498 967.393L801.505 940.049L801.607 710.768C801.022 700.037 801.552 689.032 801.567 678.265L801.752 618.512C809.036 618.495 816.319 618.576 823.6 618.754C827.361 618.839 831.798 619.409 835.47 618.846C836.716 618.654 837.701 617.905 838.683 617.163C839.08 611.115 840.481 582.425 838.26 578.525C834.262 576.272 827.849 577.114 823.371 577.35C822.475 577.289 821.727 577.125 820.866 576.872C820.041 574.708 821.34 485.104 821.578 475.939C821.479 471.184 821.67 466.419 821.586 461.663C821.54 459.091 821.319 455.971 819.237 454.156C815.382 450.797 803.013 452.579 797.83 452.735C796.624 446.624 797.513 433.902 797.521 427.16L797.561 368.263Z"/><path fill="#99572B" d="M797.561 368.263C807.375 373.701 816.792 380.204 826.241 386.265C843.149 397.057 859.875 408.131 876.413 419.483C876.25 425.444 876.142 431.408 875.695 437.356C875.432 436.76 875.197 436.393 874.632 436.043C868.654 432.343 862.357 429.079 856.31 425.472C836.829 413.736 817.414 401.891 798.067 389.936L798.042 431.27C798.039 438.285 798.574 445.785 797.83 452.735C796.624 446.624 797.513 433.902 797.521 427.16L797.561 368.263Z"/><path fill="#99572B" d="M801.505 940.049L855.236 940.004C854.334 948.993 854.279 958.189 853.993 967.217L801.498 967.393L801.505 940.049Z"/><path fill="#99572B" d="M801.752 618.512C809.036 618.495 816.319 618.576 823.6 618.754C827.361 618.839 831.798 619.409 835.47 618.846C836.716 618.654 837.701 617.905 838.683 617.163C839.437 623.087 839.039 629.492 838.991 635.462C826.683 635.471 814.375 635.406 802.068 635.266L802.067 685.682C802.063 693.688 802.907 702.902 801.607 710.768C801.022 700.037 801.552 689.032 801.567 678.265L801.752 618.512Z"/><path fill="#9B4611" d="M821.578 475.939C822.57 487.852 821.856 500.07 821.954 512.024C822.032 521.506 822.525 530.954 822.701 540.427C822.929 552.735 822.91 565.047 823.371 577.35C822.475 577.289 821.727 577.125 820.866 576.872C820.041 574.708 821.34 485.104 821.578 475.939Z"/><path fill="#BD8047" d="M647.412 272.155L692.892 301.182C700.451 306.077 707.757 311.431 715.38 316.211L715.084 338.239L715.036 453.534C709.713 453.503 683.813 452.415 680.661 454.132L680.22 455.23C680.916 466.921 680.335 478.799 680.469 490.526L681.173 577.395C678.05 577.381 674.694 577.587 671.61 577.178C669.987 577.909 668.613 578.544 667.263 579.717C667.023 587.747 666.946 595.78 667.031 603.813C667.053 607.44 667.573 611.852 667.011 615.41C667.76 616.762 667.871 617.413 669.477 617.926C671.676 618.629 675.028 618.028 677.358 618.071C689.433 618.077 701.607 617.776 713.671 618.167L713.691 635.391L713.635 940.066C713.676 944.092 714.769 965.151 713.006 967.21C711.222 967.482 709.629 967.498 707.828 967.409C692.32 968.081 676.564 967.541 661.029 967.429C661.139 958.255 661.102 949.079 660.916 939.905C660.356 932.846 660.569 925.614 660.548 918.53L660.48 885.318L660.342 779.045L658.845 463.69L658.587 426.693C658.54 419.532 658.219 412.254 658.658 405.108C658.659 403.88 658.885 401.675 657.961 400.784C655.963 398.856 650.21 399.929 647.498 399.991L647.471 295.621L647.412 272.155Z"/><path fill="#BD8047" d="M647.412 272.155L692.892 301.182C700.451 306.077 707.757 311.431 715.38 316.211L715.084 338.239L715.036 453.534C709.713 453.503 683.813 452.415 680.661 454.132L680.22 455.23C680.916 466.921 680.335 478.799 680.469 490.526L681.173 577.395C678.05 577.381 674.694 577.587 671.61 577.178C669.987 577.909 668.613 578.544 667.263 579.717C665.445 570.852 666.428 559.842 666.394 550.783C666.508 529.857 666.447 508.931 666.212 488.007C666.098 479.613 666.608 470.683 665.726 462.358L664.499 461.906C662.615 458.856 664.518 429.536 664.053 423.449C663.957 422.196 663.605 421.743 662.678 420.964C661.509 420.972 660.528 421.003 659.392 420.683C657.818 415.973 660.335 409.832 658.658 405.108C658.659 403.88 658.885 401.675 657.961 400.784C655.963 398.856 650.21 399.929 647.498 399.991L647.471 295.621L647.412 272.155Z"/><path fill="#99572B" d="M647.412 272.155L692.892 301.182C700.451 306.077 707.757 311.431 715.38 316.211L715.084 338.239C708.693 332.055 699.023 327.603 691.414 322.938C676.678 313.976 662.029 304.869 647.471 295.621L647.412 272.155Z"/><path fill="#99572B" d="M671.61 577.178C673.077 577.056 674.477 576.934 675.913 576.581C676.628 575.396 676.521 574.573 676.545 573.186C677.097 541.78 675.248 510.188 678.014 478.843C678.32 475.373 677.875 471.072 679.218 467.86C680.032 470.561 678.887 473.571 679.551 476.3C680.773 469.417 679.208 462.193 680.22 455.23C680.916 466.921 680.335 478.799 680.469 490.526L681.173 577.395C678.05 577.381 674.694 577.587 671.61 577.178Z"/><path fill="#99572B" d="M658.658 405.108C660.335 409.832 657.818 415.973 659.392 420.683C660.528 421.003 661.509 420.972 662.678 420.964C663.605 421.743 663.957 422.196 664.053 423.449C664.518 429.536 662.615 458.856 664.499 461.906L665.726 462.358C666.608 470.683 666.098 479.613 666.212 488.007C666.447 508.931 666.508 529.857 666.394 550.783C666.428 559.842 665.445 570.852 667.263 579.717C667.023 587.747 666.946 595.78 667.031 603.813C667.053 607.44 667.573 611.852 667.011 615.41C662.686 623.866 664.938 771.839 664.991 793.799L664.72 879.807C664.717 899.875 665.196 919.919 664.565 939.984L713.635 940.066C713.676 944.092 714.769 965.151 713.006 967.21C711.222 967.482 709.629 967.498 707.828 967.409C692.32 968.081 676.564 967.541 661.029 967.429C661.139 958.255 661.102 949.079 660.916 939.905C660.356 932.846 660.569 925.614 660.548 918.53L660.48 885.318L660.342 779.045L658.845 463.69L658.587 426.693C658.54 419.532 658.219 412.254 658.658 405.108Z"/><path fill="#9B4611" d="M660.916 939.905C662.194 939.998 663.389 939.803 664.392 940.635C665.252 949.351 664.336 958.43 664.53 967.208C671.406 967.182 703.817 966.292 707.828 967.409C692.32 968.081 676.564 967.541 661.029 967.429C661.139 958.255 661.102 949.079 660.916 939.905Z"/><path fill="#99572B" d="M677.358 618.071C689.433 618.077 701.607 617.776 713.671 618.167L713.691 635.391C701.581 634.877 689.222 635.406 677.086 635.439C677.315 629.653 677.405 623.862 677.358 618.071Z"/><path fill="#E6BA83" d="M568.474 411.828L568.611 409.752C568.846 409.547 569.026 409.25 569.317 409.136C570.833 408.543 616.255 408.975 620.903 409.396C621.718 409.469 622.014 409.513 622.645 410.011C622.867 411.015 622.996 411.936 623.048 412.964C622.436 421.612 622.69 430.406 622.652 439.076L622.512 482.318C622.406 534.63 622.723 586.943 623.461 639.25L622.6 968.018C604.697 968.36 586.731 968.035 568.822 968.023L568.655 690.215C576.698 689.52 585.009 689.943 593.085 690.01L593.041 713.25C593.007 717.061 592.41 721.566 593.001 725.305C593.298 727.181 594.088 729.138 595.394 730.54C597.161 732.44 599.661 733.341 602.218 733.411C605.237 733.494 609.249 732.429 611.43 730.232C613.514 728.133 613.414 725.094 613.438 722.337L613.464 672.916C613.459 664.958 614.383 655.798 613.063 648.022C612.812 646.54 611.973 645.204 610.882 644.185C608.593 642.045 605.299 641.207 602.23 641.267C599.469 641.321 596.698 642.093 594.772 644.18C591.255 647.991 592.694 670.39 592.692 675.926C584.801 675.945 576.889 676.076 569.003 675.751C568.4 653.439 568.82 630.982 568.789 608.66L568.736 483.165C568.759 459.46 569.428 435.501 568.474 411.828Z"/><path fill="#F3F5F6" d="M568.474 411.828L568.611 409.752C568.846 409.547 569.026 409.25 569.317 409.136C570.833 408.543 616.255 408.975 620.903 409.396C621.718 409.469 622.014 409.513 622.645 410.011C622.867 411.015 622.996 411.936 623.048 412.964L622.416 414.512C620.975 415.375 575.193 414.856 569.832 414.825C568.829 413.972 568.821 413.064 568.474 411.828Z"/><path fill="#E6BA83" d="M506.383 414.88C506.354 413.067 506.099 410.992 506.864 409.323C514.782 408.497 523.232 409.061 531.205 409.054C542.267 409.045 553.471 408.667 564.516 409.22C565.444 410.561 565.105 413.09 565.032 414.666C564.653 424.14 564.923 433.72 564.909 443.206L564.858 496.07C564.887 555.957 565.365 615.917 564.614 675.795C559.964 676.108 551.127 674.393 547.457 677.554C545.844 678.944 545.354 680.998 545.282 683.047C545.202 685.311 545.668 687.326 547.372 688.905C550.659 691.95 560.518 690.264 564.792 690.2L564.938 890.613C557.019 890.379 548.825 888.717 540.934 887.756C529.467 886.361 517.951 885.362 506.493 883.903L506.294 510.603C511.949 509.391 517.751 508.616 523.502 508.013C529.887 507.344 540.818 507.607 546.448 505.066C547.589 504.551 547.671 504.445 548.07 503.327C548.013 503.231 547.973 503.122 547.899 503.037C544.165 498.711 514.172 495.471 506.514 493.679L506.383 414.88Z"/><path fill="#F3F5F6" d="M506.383 414.88C506.354 413.067 506.099 410.992 506.864 409.323C514.782 408.497 523.232 409.061 531.205 409.054C542.267 409.045 553.471 408.667 564.516 409.22C565.444 410.561 565.105 413.09 565.032 414.666C545.489 414.963 525.932 414.579 506.383 414.88Z"/><path fill="#BD8047" d="M719.311 618.519L795.959 618.463C795.954 624.118 795.797 629.824 795.984 635.474C797.027 690.309 796.068 745.282 795.991 800.132C795.926 846.718 796.915 893.415 795.947 939.989C795.704 949.121 795.875 958.294 795.872 967.43C770.319 967.186 744.766 967.145 719.213 967.306C719.323 958.126 719.302 948.945 719.149 939.766C718.583 925.976 718.913 912.046 718.902 898.242L718.932 825.843L719.285 635.444L719.311 618.519Z"/><path fill="#99572B" d="M719.149 939.766C726.874 940.884 735.841 940.003 743.707 939.988L795.947 939.989C795.704 949.121 795.875 958.294 795.872 967.43C770.319 967.186 744.766 967.145 719.213 967.306C719.323 958.126 719.302 948.945 719.149 939.766Z"/><path fill="#99572B" d="M719.311 618.519L795.959 618.463C795.954 624.118 795.797 629.824 795.984 635.474C787.34 635.118 778.576 635.435 769.921 635.458C753.043 635.558 736.163 635.553 719.285 635.444L719.311 618.519Z"/><path fill="#BD8047" d="M146.087 420.6C155.323 413.597 165.564 407.529 175.298 401.212C191.889 390.344 208.632 379.709 225.522 369.311L225.589 395.153C225.673 414.593 225.964 434.072 225.707 453.509C221.367 453.442 210.771 452.346 207.166 454.246C205.401 461.973 206.472 483.046 206.479 492.154L206.624 576.953C201.63 576.685 194.152 575.324 189.806 577.938C186.609 582.575 186.771 605.639 187.822 611.729C188.1 613.339 188.943 614.702 190.272 615.655C191.423 616.481 192.618 616.783 193.974 617.113C204.564 616.652 215.263 616.832 225.863 616.897C225.853 623.015 225.822 629.129 226.042 635.245C226.699 652.131 226.354 669.192 226.469 686.096L227.118 769.841C222.339 772.43 217.534 774.79 213.638 778.663C210.59 778.489 207.524 778.373 204.475 778.575C195.236 779.185 188.345 782.817 182.221 789.786C174.749 790.925 170.381 792.908 165.527 798.811C163.496 785.472 163.382 767.224 162.65 753.396C161.07 724.879 159.634 696.355 158.34 667.824L146.746 442.548C146.48 435.234 146.26 427.917 146.087 420.6Z"/><path fill="#99572B" d="M146.087 420.6C155.323 413.597 165.564 407.529 175.298 401.212C191.889 390.344 208.632 379.709 225.522 369.311L225.589 395.153C211.172 403.511 196.952 412.239 182.59 420.697C170.733 427.678 157.973 434.621 146.746 442.548C146.48 435.234 146.26 427.917 146.087 420.6Z"/><path fill="#99572B" d="M193.974 617.113C204.564 616.652 215.263 616.832 225.863 616.897C225.853 623.015 225.822 629.129 226.042 635.245C219.025 635.128 199.478 636.842 194.396 633.181C192.301 628.904 193.459 621.761 193.974 617.113Z"/><path fill="#E6BA83" d="M501.254 511.194L502.182 511.221C503.238 513.52 502.465 850.575 502.337 883.615C485.272 881.073 467.881 880.284 450.75 878.003L442.923 877.027L443.444 519.732C462.749 517.224 481.956 513.828 501.254 511.194Z"/><path fill="#E6BA83" d="M555.733 153.859C568.545 160.048 580.184 167.952 592.21 175.509L633.063 201.033L771.323 289.819L844.533 337.24C854.376 343.497 864.615 349.107 874.48 355.33C893.071 367.058 911.24 379.364 929.555 391.511C939.675 398.239 949.833 404.911 960.028 411.526C965.576 415.08 971.653 418.292 976.914 422.219C975.168 424.19 973.45 426.197 971.648 428.117C964.581 436.384 957.516 444.715 949.881 452.466C932.185 442.695 915.295 431.244 898.409 420.152L841.21 382.714C819.457 368.468 797.312 354.896 775.383 340.932L698.372 291.296L581.778 217.236L545.897 194.531C535.527 187.949 524.991 181.413 515.294 173.862C523.931 172.928 548.838 173.992 555.225 169.25C557.504 167.558 557.813 164.45 558.135 161.858C557.371 159.182 556.646 156.49 555.733 153.859Z"/><path fill="#F3F5F6" d="M555.733 153.859C568.545 160.048 580.184 167.952 592.21 175.509L633.063 201.033L771.323 289.819L844.533 337.24C854.376 343.497 864.615 349.107 874.48 355.33C893.071 367.058 911.24 379.364 929.555 391.511C939.675 398.239 949.833 404.911 960.028 411.526C965.576 415.08 971.653 418.292 976.914 422.219C975.168 424.19 973.45 426.197 971.648 428.117C961.517 418.634 948.106 411.399 936.496 403.766C910.453 386.683 884.222 369.889 857.808 353.384L669.745 233.714C642.829 216.749 616.116 199.463 589.611 181.862C579.272 175.123 568.031 169.185 558.135 161.858C557.371 159.182 556.646 156.49 555.733 153.859Z"/><path fill="#E6BA83" d="M46.4124 423.222C158.995 349.974 272.054 277.459 385.58 205.682C392.8 201.124 399.736 196.124 406.878 191.444C427.188 178.208 447.582 165.101 468.059 152.124C467.077 156.308 466.288 160.223 466.089 164.525C466.949 166.602 467.81 167.67 469.916 168.58C478.487 172.287 498.615 171.726 508.656 173.093C501.799 178.745 489.387 185.629 481.385 190.848L407.946 238.003L174.673 388.903L106.132 433.673C95.7825 440.492 83.7646 446.761 74.5251 454.991C69.6108 449.312 64.5948 443.722 59.4794 438.223C56.8532 435.373 53.7256 432.487 51.4454 429.375C49.5807 427.463 48.0173 425.349 46.4124 423.222Z"/><path fill="#F3F5F6" d="M46.4124 423.222C158.995 349.974 272.054 277.459 385.58 205.682C392.8 201.124 399.736 196.124 406.878 191.444C427.188 178.208 447.582 165.101 468.059 152.124C467.077 156.308 466.288 160.223 466.089 164.525C452.816 172.085 440.09 180.804 427.292 189.136L368.746 226.921L143.885 370.366L81.6503 409.965C71.6931 416.329 61.7565 423.643 51.4454 429.375C49.5807 427.463 48.0173 425.349 46.4124 423.222Z"/><path fill="#BD8047" d="M230.767 617.193L298.095 617.165L298.495 635.024L299.516 811.018L299.497 841.338C300.449 852.311 299.762 863.704 299.812 874.734L300.019 940.361C300.105 949.235 300.109 958.11 300.03 966.984L264.706 967.093C265.385 958.158 266.225 949.236 267.226 940.331C269.13 926.609 270.418 912.79 271.955 899.024C274.357 879.184 276.572 859.321 278.601 839.439C284.299 839.27 291.838 840.585 297.209 838.799C298.725 835.891 298.606 818.126 297.936 814.537C296.95 809.245 290.459 813.053 289.323 810.791C288.172 808.499 288.205 805.049 287.125 802.54C286.539 801.179 285.368 799.771 284.246 798.812C282.302 797.149 279.895 796.056 277.863 794.497C275.145 792.414 272.702 789.897 269.803 788.059C264.674 784.808 259.155 784.928 253.437 786.115C250.572 782.975 251.39 778.277 248.389 774.993C244.424 770.652 237.774 770.144 232.286 769.727C231.527 724.887 231.092 680.042 230.98 635.196L230.767 617.193Z"/><path fill="#99572B" d="M230.767 617.193L298.095 617.165L298.495 635.024C291.067 634.604 283.372 635.051 275.922 635.087L230.98 635.196L230.767 617.193Z"/><path fill="#99572B" d="M267.226 940.331C278.067 940.667 289.186 940.829 300.019 940.361C300.105 949.235 300.109 958.11 300.03 966.984L264.706 967.093C265.385 958.158 266.225 949.236 267.226 940.331Z"/><path fill="#E47D29" d="M299.497 841.338C299.461 841.239 299.429 841.139 299.391 841.04C298.889 839.731 298.642 838.557 298.563 837.154C298.415 834.537 298.332 810.577 298.671 809.482L299.516 811.018L299.497 841.338Z"/><path fill="#E6BA83" d="M436.28 520.671C437.155 520.496 437.851 520.529 438.738 520.565C439.519 521.628 439.365 523.309 439.401 524.632C439.708 535.957 439.29 547.42 439.305 558.766L439.149 646.005L438.998 876.792C433.463 876.444 427.927 875.71 422.413 875.117C422.084 873.433 421.804 871.265 420.984 869.745C420.19 868.275 419.344 867.944 417.883 867.381C413.545 866.87 409.092 867.028 404.727 867.006L404.482 525.574C414.79 523.295 425.817 522.256 436.28 520.671Z"/><path fill="#AF612C" d="M641.896 409.49L652.025 409.342L652.357 967.188L630.297 967.126C630.293 965.608 630.031 963.593 630.354 962.138C631.217 890.174 630.052 818.124 631.566 746.174C631.118 735.727 631.478 725.137 631.46 714.671L631.182 655.754L630.931 594.587C630.902 583.695 630.362 572.511 631.021 561.651C630.404 546.675 630.748 531.484 630.686 516.491C630.654 482.229 630.429 447.967 630.012 413.708L630.921 413.773C632.887 413.905 635.05 413.442 636.876 414.253C638.647 414.358 640.439 414.523 642.212 414.496C642.465 412.692 642.235 411.27 641.896 409.49Z"/><defs><linearGradient id="gradient_0" gradientUnits="userSpaceOnUse" x1="657.76855" y1="574.92645" x2="615.10504" y2="579.5332"><stop offset="0" stop-color="#D48A40"/><stop offset="1" stop-color="#F7CD9A"/></linearGradient></defs><path fill="url(#gradient_0)" d="M630.012 413.708L630.921 413.773C632.887 413.905 635.05 413.442 636.876 414.253C638.647 414.358 640.439 414.523 642.212 414.496C641.079 422.916 641.607 431.911 641.522 440.408L640.815 483.986L637.589 678.249L636.612 733.908C636.447 741.512 636.953 749.529 636.069 757.06C635.144 751.446 636.567 745.336 635.307 739.761C634.783 737.441 634.467 739.362 633.53 738.813C633.131 738.58 633.014 737.465 632.301 736.993C632.204 739.91 632.328 742.879 631.673 745.738C631.639 745.883 631.602 746.028 631.566 746.174C631.118 735.727 631.478 725.137 631.46 714.671L631.182 655.754L630.931 594.587C630.902 583.695 630.362 572.511 631.021 561.651C630.404 546.675 630.748 531.484 630.686 516.491C630.654 482.229 630.429 447.967 630.012 413.708Z"/><path fill="#FDEFD4" d="M630.012 413.708L630.921 413.773C632.887 413.905 635.05 413.442 636.876 414.253C636.658 414.506 636.376 414.717 636.222 415.014C635.574 416.272 636.01 435.374 635.963 438.246C635.728 452.708 633.913 568.361 632.665 570.808C632.547 571.04 632.219 571.076 631.995 571.21C630.829 568.633 632.541 563.633 631.021 561.651C630.404 546.675 630.748 531.484 630.686 516.491C630.654 482.229 630.429 447.967 630.012 413.708Z"/><path fill="#FBD48D" d="M631.566 746.174C631.602 746.028 631.639 745.883 631.673 745.738C632.328 742.879 632.204 739.91 632.301 736.993C633.014 737.465 633.131 738.58 633.53 738.813C634.467 739.362 634.783 737.441 635.307 739.761C636.567 745.336 635.144 751.446 636.069 757.06C636.457 770.649 635.82 784.363 635.651 797.964C635.454 818.323 635.446 838.683 635.625 859.042C635.876 881.122 635.997 903.203 635.988 925.284C636.024 935.253 636.867 946.431 636.025 956.25C635.877 957.971 634.861 959.991 633.713 961.258C632.889 962.168 632.205 962.617 630.994 962.914L630.354 962.138C631.217 890.174 630.052 818.124 631.566 746.174Z"/><path fill="#E47D29" d="M35.3507 845.585C47.8416 845.317 60.3145 844.534 72.8061 844.197C91.2346 843.7 109.697 843.601 128.115 842.797L130.393 927.711C130.745 940.538 131.369 953.422 131.325 966.252C120.639 967.563 109.42 966.969 98.6594 966.993C92.6872 967.007 85.7767 967.697 79.924 966.63C80.0697 964.881 81.4257 963.362 81.0529 961.663C79.2592 960.246 77.2916 960.413 75.0804 960.629C70.1128 961.114 65.8727 963.566 62.0088 966.576L62.182 965.881C63.116 962.198 67.7634 953.663 65.7019 950.441C65.335 949.867 64.957 949.88 64.3527 949.666C58.4941 950.679 52.6937 957.598 49.3913 962.232C48.9919 962.792 48.6341 963.353 48.2739 963.938C47.616 956.028 46.8679 948.125 46.0298 940.232C42.5162 912.862 39.4196 885.439 36.7411 857.975C36.173 853.857 35.7094 849.726 35.3507 845.585Z"/><path fill="#F6A436" d="M36.7411 857.975C48.3657 856.501 95.2643 852.847 103.645 858.867C106.201 860.702 107.207 864.002 107.58 866.982C109.635 883.401 100.368 913.076 89.9422 925.932C81.621 936.193 66.6681 938.606 54.2175 939.756C51.4984 940.007 48.7582 940.124 46.0298 940.232C42.5162 912.862 39.4196 885.439 36.7411 857.975Z"/><path fill="#BD8047" d="M377.787 270.626C399.983 255.633 423.102 242 445.279 226.98L445.509 330.146C445.512 346.881 446.291 364.062 445.413 380.76C445.681 387.252 445.483 393.84 445.515 400.343C422.958 399.889 400.296 400.388 377.729 400.423L377.817 299.109C377.937 289.649 378.319 280.073 377.787 270.626Z"/><path fill="#99572B" d="M377.787 270.626C399.983 255.633 423.102 242 445.279 226.98L445.509 330.146C445.512 346.881 446.291 364.062 445.413 380.76C444.676 376.163 445.046 370.987 445.045 366.32L445.055 341.89L444.953 256.387C434.474 263.501 423.641 270.041 412.97 276.857C401.291 284.319 389.729 292.02 377.817 299.109C377.937 289.649 378.319 280.073 377.787 270.626Z"/><path fill="#BD8047" d="M582.482 231.076C602.514 244.031 622.664 256.803 642.929 269.391C642.969 277.341 642.855 285.323 643.072 293.268L643.115 400.088L582.454 399.981L582.37 255.958L582.482 231.076Z"/><path fill="#99572B" d="M582.482 231.076C602.514 244.031 622.664 256.803 642.929 269.391C642.969 277.341 642.855 285.323 643.072 293.268C636.328 288.505 628.937 284.353 621.925 279.979C608.916 271.687 595.727 263.678 582.37 255.958L582.482 231.076Z"/><path fill="#BD8047" d="M449.558 224.258C457.156 219.55 507.05 185.273 510.794 185.948C511.425 187.442 511.557 188.794 511.657 190.409C512.019 196.235 511.719 202.252 511.716 208.096L511.932 233.883C511.984 245.455 512.978 259.158 511.736 270.417C497.497 271.834 484.262 277.403 474.984 288.675C467.113 298.305 463.33 310.636 464.446 323.022C466.084 339.932 472.97 347.091 484.466 358.177C489.853 360.917 495.378 363.902 501.249 365.442C504.404 366.269 508.384 365.949 511.293 367.288C511.53 368.784 511.574 370.129 511.522 371.641L511.519 400.32L449.811 400.272C449.004 395.288 449.576 389.548 449.578 384.454L449.551 351.914L449.558 224.258Z"/><path fill="#99572B" d="M449.558 224.258C457.156 219.55 507.05 185.273 510.794 185.948C511.425 187.442 511.557 188.794 511.657 190.409C512.019 196.235 511.719 202.252 511.716 208.096L511.932 233.883C511.984 245.455 512.978 259.158 511.736 270.417C511.117 263.816 511.418 256.965 511.411 250.328L511.427 215.841C505.104 218.47 499.102 222.729 493.257 226.305C478.583 235.283 464.244 244.804 449.754 254.077C450.845 285.68 449.902 317.519 450.036 349.16L450.143 383.305C450.152 388.727 450.707 394.946 449.811 400.272C449.004 395.288 449.576 389.548 449.578 384.454L449.551 351.914L449.558 224.258Z"/><path fill="#9B4611" d="M484.466 358.177C489.853 360.917 495.378 363.902 501.249 365.442C504.404 366.269 508.384 365.949 511.293 367.288C511.53 368.784 511.574 370.129 511.522 371.641C507.61 371.259 503.654 370.198 499.99 368.79C495.486 367.06 486.503 362.756 484.466 358.177Z"/><path fill="#BD8047" d="M515.648 188.304C526.039 194.369 536.025 201.128 546.116 207.675L577.948 228.183C577.896 236.811 577.888 245.439 577.925 254.066L577.83 400.188L515.775 400.195L515.799 372.541L515.851 366.79C527.508 364.698 538.258 360.616 546.923 352.266C558.32 341.283 561.406 326.566 561.649 311.331C559.324 303.5 557.284 296.287 552.31 289.642C543.395 277.732 530.295 272.39 515.949 270.373C515.853 257.212 515.838 244.049 515.905 230.887C515.342 225.479 515.648 219.808 515.644 214.365L515.648 188.304Z"/><path fill="#99572B" d="M515.648 188.304C526.039 194.369 536.025 201.128 546.116 207.675L577.948 228.183C577.896 236.811 577.888 245.439 577.925 254.066C569.703 248.243 560.509 243.556 551.854 238.387C540.079 231.354 528.366 223.663 516.097 217.527C516.131 221.932 516.428 226.513 515.905 230.887C515.342 225.479 515.648 219.808 515.644 214.365L515.648 188.304Z"/><path fill="#99572B" d="M561.649 311.331C564.883 325.699 564.976 340.071 556.825 352.838C550.502 362.742 541.381 368.472 529.97 370.923C525.387 371.907 520.488 372.519 515.799 372.541L515.851 366.79C527.508 364.698 538.258 360.616 546.923 352.266C558.32 341.283 561.406 326.566 561.649 311.331Z"/><path fill="#BD8047" d="M719.481 318.802C744.198 333.938 769.035 349.439 793.038 365.674L793.161 386.529C793.767 408.667 793.339 430.928 793.339 453.078L719.513 453.463L719.546 341.061C719.486 333.642 719.464 326.222 719.481 318.802Z"/><path fill="#99572B" d="M719.481 318.802C744.198 333.938 769.035 349.439 793.038 365.674L793.161 386.529C786.144 381.863 778.505 378.011 771.336 373.544C760.478 366.703 749.66 359.799 738.883 352.831C734.024 349.705 724.68 342.49 719.546 341.061C719.486 333.642 719.464 326.222 719.481 318.802Z"/><path fill="#BD8047" d="M230.038 366.089C252.999 350.941 276.488 336.477 299.282 321.104L299.453 412.836L299.346 439.477C299.322 444.043 299.616 448.851 299.103 453.378C276.176 453.03 253.205 453.342 230.274 453.44C230.325 433.154 229.969 412.85 230.191 392.569L230.038 366.089Z"/><path fill="#99572B" d="M230.038 366.089C252.999 350.941 276.488 336.477 299.282 321.104L299.453 412.836L299.346 439.477C299.322 444.043 299.616 448.851 299.103 453.378C298.03 441.977 298.893 429.85 298.923 418.346L299.034 348.329C275.994 362.754 252.661 377.295 230.191 392.569L230.038 366.089Z"/><path fill="#AF612C" d="M375.983 529.517L396.018 526.754L395.861 866.814L380.036 866.556C378.528 866.531 376.907 866.713 375.626 865.897C374.446 855.732 375.453 842.594 375.449 832.083L375.465 759.694L375.493 617.87C375.491 590.964 375.232 564.03 375.587 537.127C375.736 534.593 375.919 532.056 375.983 529.517Z"/><path fill="#FDEFD4" d="M375.587 537.127C377.442 537.16 379.146 537.023 380.824 537.898C382.507 542.114 380.536 623.76 380.506 633.8L380.106 803.305C380.029 824.376 380.4 845.492 380.036 866.556C378.528 866.531 376.907 866.713 375.626 865.897C374.446 855.732 375.453 842.594 375.449 832.083L375.465 759.694L375.493 617.87C375.491 590.964 375.232 564.03 375.587 537.127Z"/><path fill="#F3F5F6" d="M805.534 59.3818C812.796 63.6312 823.923 75.285 830.813 81.4241C851.651 99.9911 872.309 119.106 894.084 136.557C865.307 136.265 836.528 136.203 807.75 136.373C777.892 136.422 748.051 135.919 718.19 136.339C746.356 109.704 777.359 86.0724 805.534 59.3818Z"/><path fill="#BD8047" d="M192.777 839.508C214.732 839.577 236.688 839.212 258.644 839.395C258.272 849.946 256.311 860.737 255.181 871.265C252.828 894.362 250.273 917.439 247.515 940.491C246.582 949.469 245.53 958.433 244.359 967.382C231.922 967.081 219.481 966.998 207.042 967.135L203.933 940.502C199.969 906.879 197.186 873.067 192.777 839.508Z"/><path fill="#99572B" d="M247.515 940.491C246.582 949.469 245.53 958.433 244.359 967.382C231.922 967.081 219.481 966.998 207.042 967.135L203.933 940.502L247.515 940.491Z"/><path fill="#67BAE2" d="M784.451 146.987C798.083 146.964 812.069 146.336 825.654 147.31C825.163 165.523 825.522 183.818 825.567 202.039L825.836 312.904C817.251 310.147 793.841 292.848 784.42 287.078C783.956 240.403 784.442 193.669 784.451 146.987Z"/><path fill="#E6BA83" d="M443.463 409.02L502.653 408.986L502.637 415.017C502.156 440.942 503.126 466.911 502.444 492.835C491.028 491.374 479.636 489.639 468.238 488.037C459.997 486.88 451.64 486.019 443.487 484.353L443.488 415.042L443.463 409.02Z"/><path fill="#FDEFD4" d="M443.463 409.02L502.653 408.986L502.637 415.017L443.488 415.042L443.463 409.02Z"/><path fill="#E6BA83" d="M559.364 892.704C561.12 892.39 563.137 892.487 564.931 892.404C564.837 917.569 565.272 942.789 564.618 967.942C547.704 967.606 530.729 967.969 513.81 968.036L506.518 968.051L506.484 900.036C523.897 896.705 541.735 894.551 559.364 892.704Z"/><path fill="#B0D8E9" d="M750.314 467.359C768.197 467.213 786.082 467.213 803.965 467.358L803.984 474.68C803.962 477.923 804.045 481.206 803.859 484.441C803.804 504.266 803.87 524.09 804.058 543.914C790.527 543.95 776.877 543.644 763.365 544.279C758.898 544.749 754.258 544.486 749.765 544.462C749.524 521.633 749.933 498.751 750.06 475.917L750.314 467.359Z"/><path fill="#67BAE2" d="M763.365 544.279C769.661 535.753 775.084 526.352 780.984 517.517C788.436 506.358 796.378 495.567 803.859 484.441C803.804 504.266 803.87 524.09 804.058 543.914C790.527 543.95 776.877 543.644 763.365 544.279Z"/><path fill="#95B7C3" d="M750.314 467.359C768.197 467.213 786.082 467.213 803.965 467.358L803.984 474.68C792.576 474.17 781.065 474.835 769.659 475.221C763.225 475.44 756.435 475.217 750.06 475.917L750.314 467.359Z"/><path fill="#808F97" d="M509.72 68.951C510.892 66.6146 512.051 64.2803 513.353 62.0122C520.466 76.1956 525.433 91.7418 530.877 106.637C536.631 122.379 546.107 146.43 548.913 162.365C527.024 166.05 498.747 162.867 476.489 161.387L476.022 160.886C476.938 148.947 484.861 128.436 489.061 116.891C493.389 106.012 497.945 95.2246 502.726 84.5369C504.136 79.3332 507.408 73.8481 509.72 68.951Z"/><path fill="#647784" d="M509.72 68.951C510.892 66.6146 512.051 64.2803 513.353 62.0122C520.466 76.1956 525.433 91.7418 530.877 106.637C536.631 122.379 546.107 146.43 548.913 162.365C527.024 166.05 498.747 162.867 476.489 161.387L476.022 160.886L476.954 160.732C478.507 158.48 479.246 155.245 480.142 152.655C490.49 153.741 526.394 155.583 535.045 153.287C536.302 152.953 536.833 152.72 537.461 151.589C537.364 149.939 511.715 73.1027 509.72 68.951Z"/><path fill="#F3F5F6" d="M476.022 160.886C476.938 148.947 484.861 128.436 489.061 116.891C490.135 117.754 490.838 117.95 490.821 119.44C490.814 120.032 490.585 120.609 490.589 121.202C490.59 121.409 490.676 121.608 490.719 121.811C487.609 132.211 483.592 142.36 480.142 152.655C479.246 155.245 478.507 158.48 476.954 160.732L476.022 160.886Z"/><defs><linearGradient id="gradient_1" gradientUnits="userSpaceOnUse" x1="503.51733" y1="101.52449" x2="489.49988" y2="101.99159"><stop offset="0" stop-color="#B4C5D9"/><stop offset="1" stop-color="#D8F1FF"/></linearGradient></defs><path fill="url(#gradient_1)" d="M502.726 84.5369C502.889 85.0221 503.152 85.4846 503.216 85.9925C503.515 88.3755 492.89 117.484 491.055 121.155L490.719 121.811C490.676 121.608 490.59 121.409 490.589 121.202C490.585 120.609 490.814 120.032 490.821 119.44C490.838 117.95 490.135 117.754 489.061 116.891C493.389 106.012 497.945 95.2246 502.726 84.5369Z"/><path fill="#9B9690" d="M940.267 610.509L940.563 608.906L941.036 608.705C954.219 660.448 959.691 713.854 957.276 767.196C946.328 767.178 934.982 766.519 924.077 767.188C923.984 767.073 923.872 766.97 923.796 766.843C922.547 764.724 923.388 753.163 923.353 749.948C922.835 702.579 926.328 656.052 940.267 610.509Z"/><path fill="#F3F5F6" d="M940.267 610.509C941.166 612.168 940.766 614.083 940.532 615.88C939.106 626.81 936.577 637.593 935.036 648.518C932.276 668.08 925.334 735.613 929.5 751.756C929.799 753.575 930.108 755.272 930.709 757.018C926.888 759.873 926.412 763.384 924.077 767.188C923.984 767.073 923.872 766.97 923.796 766.843C922.547 764.724 923.388 753.163 923.353 749.948C922.835 702.579 926.328 656.052 940.267 610.509Z"/><path d="M929.5 751.756C930.38 749.053 931.229 746.589 933.911 745.204C935.752 744.253 937.789 744.59 939.657 745.269C941.819 746.053 943.825 747.377 944.733 749.575C945.553 751.562 945.251 753.894 944.367 755.805C943.278 758.158 941.15 760.21 938.643 760.971C936.884 761.504 935.098 761.254 933.545 760.261C932.303 759.48 931.318 758.352 930.709 757.018C930.108 755.272 929.799 753.575 929.5 751.756Z"/><path fill="#B0D8E9" d="M936.733 750.426C937.737 750.007 938.895 750.429 939.393 751.397C939.891 752.364 939.563 753.552 938.638 754.126C937.97 754.54 937.127 754.545 936.455 754.137C935.783 753.73 935.397 752.98 935.456 752.196C935.514 751.413 936.008 750.729 936.733 750.426Z"/><path fill="#B0D8E9" d="M222.675 469.024L276.077 468.948L276.063 474.594C275.813 498.063 275.704 521.532 275.736 545.001L222.624 545.06C222.723 525.807 222.168 506.255 222.913 487.032C222.356 481.115 222.663 474.965 222.675 469.024Z"/><path fill="#808F97" d="M222.675 469.024L276.077 468.948L276.063 474.594C258.417 474.431 240.729 474.14 223.083 474.295C223.098 478.499 223.349 482.853 222.913 487.032C222.356 481.115 222.663 474.965 222.675 469.024Z"/><path fill="#B0D8E9" d="M705.745 467.322L745.368 467.204C745.335 471.411 745.587 475.82 745.249 480C744.832 501.496 744.604 522.995 744.567 544.495C731.903 544.543 719.205 544.798 706.544 544.618L694.494 544.542C694.3 518.813 694.292 493.083 694.469 467.353L705.745 467.322Z"/><path fill="#67BAE2" d="M694.469 467.353L705.745 467.322C706.177 476.942 706.455 486.477 706.443 496.108C706.433 502.871 705.925 510.038 706.599 516.75C706.758 526.043 706.558 535.326 706.544 544.618L694.494 544.542C694.3 518.813 694.292 493.083 694.469 467.353Z"/><path fill="#95B7C3" d="M705.745 467.322L745.368 467.204C745.335 471.411 745.587 475.82 745.249 480L744.619 478.433C738.404 476.912 712.99 481.235 706.806 483.836C706.943 494.768 707.315 505.84 706.599 516.75C705.925 510.038 706.433 502.871 706.443 496.108C706.455 486.477 706.177 476.942 705.745 467.322Z"/><path fill="#F6A436" d="M676.516 584.863C681.653 584.246 687.197 584.612 692.384 584.597L723.363 584.524C754.403 584.462 785.573 583.906 816.599 584.558L817.153 585.381L819.483 585.669L819.671 586.465C818.552 586.448 817.894 586.416 816.805 586.712L817.314 587.478C819.884 587.486 822.398 587.412 824.963 587.23C827.424 587.154 829.885 587.063 832.345 586.958C830.943 594.148 831.748 602.629 831.831 609.952L728.332 609.474C712.103 609.438 695.712 609.994 679.503 609.5C678.825 609.48 678.409 609.322 677.836 608.971C677.355 607.779 677.452 606.64 677.476 605.382L676.987 601.538L677.067 601.118C676.352 595.792 676.538 590.231 676.516 584.863Z"/><path fill="#9B4611" d="M824.963 587.23C827.424 587.154 829.885 587.063 832.345 586.958C830.943 594.148 831.748 602.629 831.831 609.952L728.332 609.474C712.103 609.438 695.712 609.994 679.503 609.5C678.825 609.48 678.409 609.322 677.836 608.971C677.355 607.779 677.452 606.64 677.476 605.382L676.987 601.538C685.087 603.277 705.88 602.307 715.295 602.372C751.62 602.809 787.951 602.673 824.272 601.965C825.69 597.528 825.05 591.876 824.963 587.23Z"/><defs><linearGradient id="gradient_2" gradientUnits="userSpaceOnUse" x1="750.57556" y1="610.12164" x2="749.37378" y2="596.29584"><stop offset="0" stop-color="#C35F19"/><stop offset="1" stop-color="#DF7F21"/></linearGradient></defs><path fill="url(#gradient_2)" d="M676.987 601.538C685.087 603.277 705.88 602.307 715.295 602.372C751.62 602.809 787.951 602.673 824.272 601.965C823.691 603.023 823.23 604.536 821.953 604.895C818.25 605.935 812.691 605.358 808.749 605.42C792.855 605.669 777.02 605.331 761.132 605.258C733.258 605.129 705.348 606.084 677.476 605.382L676.987 601.538Z"/><path fill="#FBD48D" d="M676.516 584.863C681.653 584.246 687.197 584.612 692.384 584.597L723.363 584.524C754.403 584.462 785.573 583.906 816.599 584.558L817.153 585.381L819.483 585.669L819.671 586.465C818.552 586.448 817.894 586.416 816.805 586.712L817.314 587.478C809.512 587.929 801.508 587.621 793.676 587.647C772.962 587.715 752.287 587.241 731.579 586.951C715.479 586.725 698.389 588.068 682.436 586.459C682.345 585.803 682.444 586.208 681.952 585.305C680.126 585 678.366 584.914 676.516 584.863Z"/><path fill="#F3F5F6" d="M676.516 584.863C678.366 584.914 680.126 585 681.952 585.305C682.444 586.208 682.345 585.803 682.436 586.459C680.692 587.491 679.928 588.647 679.441 590.627C678.704 593.626 679.438 598.979 677.067 601.118C676.352 595.792 676.538 590.231 676.516 584.863Z"/><path fill="#B0D8E9" d="M281.242 469L330.664 469.43C330.576 472.354 330.612 475.358 330.329 478.265C331.424 500.37 330.561 522.824 330.733 544.979L303.332 545.041L280.663 545.093L281.029 474.855L281.242 469Z"/><path fill="#808F97" d="M329.814 477.202L330.329 478.265C331.424 500.37 330.561 522.824 330.733 544.979L303.332 545.041C308.006 535.531 311.58 525.013 315.563 515.173C320.673 502.549 326.662 490.536 329.814 477.202Z"/><defs><linearGradient id="gradient_3" gradientUnits="userSpaceOnUse" x1="318.34842" y1="459.37274" x2="293.15213" y2="484.62668"><stop offset="0" stop-color="#909395"/><stop offset="1" stop-color="#7D97AA"/></linearGradient></defs><path fill="url(#gradient_3)" d="M281.242 469L330.664 469.43C330.576 472.354 330.612 475.358 330.329 478.265L329.814 477.202C329.921 476.359 329.899 476.153 329.675 475.378C324.765 474.349 318.646 475.054 313.588 475.053C302.735 475.109 291.881 475.043 281.029 474.855L281.242 469Z"/><path fill="#E6BA83" d="M500.782 901.211C501.186 901.121 501.618 901.25 502.023 901.311C502.991 903.596 502.443 961.064 502.461 968.004L445.375 968.012L443.987 967.897C442.593 965.62 443.3 915.932 443.28 909.169C462.427 906.373 481.595 903.72 500.782 901.211Z"/><path fill="#F6A436" d="M195.271 584.678C246.663 585.151 298.059 585.224 349.452 584.898L349.411 592.037L349.497 601.946L349.588 607.491L256.165 607.615C235.901 607.678 215.574 607.312 195.32 607.915L195.338 602.047L195.343 592.038L195.271 584.678Z"/><path fill="#FBD48D" d="M195.271 584.678C246.663 585.151 298.059 585.224 349.452 584.898L349.411 592.037C340.045 592.422 330.573 592.002 321.196 591.902C303.123 591.641 285.047 591.539 266.973 591.594L218.894 592.116C211.2 592.2 202.968 592.966 195.343 592.038L195.271 584.678Z"/><path fill="#9B4611" d="M195.338 602.047L296.611 601.831C314.239 601.993 331.868 602.031 349.497 601.946L349.588 607.491L256.165 607.615C235.901 607.678 215.574 607.312 195.32 607.915L195.338 602.047Z"/><path fill="#B0D8E9" d="M471.246 328.125C470.494 324.393 469.984 320.773 470.1 316.953C470.44 305.745 475.825 295.187 484.041 287.663C492.501 279.914 504.439 275.777 515.884 276.433C528.789 277.172 539.741 284.039 548.148 293.49L544.272 297.011C525.114 315.834 503.032 333.222 478.056 343.514C474.899 338.677 472.376 333.849 471.246 328.125Z"/><path fill="#FDEFD4" d="M471.246 328.125C470.494 324.393 469.984 320.773 470.1 316.953C470.44 305.745 475.825 295.187 484.041 287.663C492.501 279.914 504.439 275.777 515.884 276.433C528.789 277.172 539.741 284.039 548.148 293.49L544.272 297.011C531.183 288.801 522.669 282.437 506.424 286.165C497.185 288.38 489.21 294.187 484.265 302.3C480.768 307.947 479.468 313.114 478.696 319.634C478.525 321.076 478.478 325.569 477.556 326.537C477.435 326.665 475.784 326.979 475.572 327.031C474.117 327.387 472.667 327.645 471.246 328.125Z"/><path fill="#808F97" d="M371.843 487.436C371.816 485.584 371.513 484.338 372.468 482.723C376.231 481.443 500.866 499.679 519.427 502.068C513.818 503.032 508.156 503.659 502.472 503.947C495.02 505.556 487.137 505.93 479.587 507.135C465.56 509.814 451.16 511.456 437.019 513.529C415.27 516.718 393.576 520.081 371.752 522.727L371.868 504.244C371.917 498.644 371.855 493.037 371.843 487.436Z"/><path fill="#576065" d="M371.868 504.244C400.148 503.469 428.207 503.158 456.471 504.863C463.255 505.272 470.819 505.017 477.329 506.944C478.139 507.183 478.754 507.187 479.587 507.135C465.56 509.814 451.16 511.456 437.019 513.529C415.27 516.718 393.576 520.081 371.752 522.727L371.868 504.244Z"/><path fill="#B0D8E9" d="M371.843 487.436C371.816 485.584 371.513 484.338 372.468 482.723C376.231 481.443 500.866 499.679 519.427 502.068C513.818 503.032 508.156 503.659 502.472 503.947C500.041 502.466 477.685 500.76 473.418 500.215C454.382 497.787 435.247 496.045 416.237 493.507C401.445 491.533 386.75 488.447 371.843 487.436Z"/><path fill="#E47D29" d="M25.9467 827.018C26.4107 824.255 27.0913 821.42 29.2241 819.433C30.5382 818.208 31.977 817.765 33.7033 817.448C40.389 816.223 47.3186 815.849 54.0858 815.182L85.6907 811.921C98.8491 810.535 117.582 807.314 130.157 807.422C132.298 808.925 133.907 810.499 135.294 812.73C136.732 818.579 138.086 826.978 134.622 832.337C132.951 834.921 131.147 835.211 128.294 835.721C122.463 836.763 116.357 836.612 110.446 836.803C100.016 837.173 89.5819 837.45 79.1464 837.632C64.702 837.979 50.1487 839.438 35.7149 839.324C33.7523 839.308 30.8595 839.561 29.2173 838.368C26.6111 836.475 26.2899 832.65 26.0591 829.711C25.9879 828.805 25.9444 827.926 25.9467 827.018Z"/><path fill="#F3F5F6" d="M25.9467 827.018C26.4107 824.255 27.0913 821.42 29.2241 819.433C30.5382 818.208 31.977 817.765 33.7033 817.448C40.389 816.223 47.3186 815.849 54.0858 815.182L85.6907 811.921C98.8491 810.535 117.582 807.314 130.157 807.422C132.298 808.925 133.907 810.499 135.294 812.73C111.791 814.636 88.2974 816.662 64.8149 818.809C54.7879 819.819 43.6187 820.205 33.8881 822.753C30.6392 823.604 28.4591 824.821 25.9467 827.018Z"/><path fill="#E6BA83" d="M404.024 408.79C408.163 408.703 437.256 407.875 439.394 409.49L439.411 411.345C439.561 435.166 440.127 460.148 439.292 483.894C427.612 482.601 415.536 481.58 403.983 479.469L404.015 416.635L404.024 408.79Z"/><path fill="#F3F5F6" d="M404.024 408.79C408.163 408.703 437.256 407.875 439.394 409.49L439.411 411.345C439.212 412.734 439.292 414.313 438.389 415.399C432.635 416.092 426.628 415.844 420.827 415.939C415.214 416.031 409.622 416.398 404.015 416.635L404.024 408.79Z"/><path fill="#F6A436" d="M894.667 862.003C892.491 859.227 891.653 856.535 892.172 852.988C892.758 848.989 894.73 840.829 898.308 838.562C900.423 837.222 903.722 837.038 906.199 836.829C916.195 835.984 969.715 835.277 977.119 837.144C979.557 837.759 980.809 839.432 982.036 841.491C984.38 846.567 988.467 853.305 986.5 858.988C985.806 860.992 984.203 862.615 982.306 863.526C979.293 864.972 911.904 865.03 903.419 864.595C901.119 864.477 898.675 864.198 896.579 863.196C895.877 862.86 895.259 862.508 894.667 862.003Z"/><path fill="#F3F5F6" d="M894.667 862.003C892.491 859.227 891.653 856.535 892.172 852.988C892.758 848.989 894.73 840.829 898.308 838.562C900.423 837.222 903.722 837.038 906.199 836.829C916.195 835.984 969.715 835.277 977.119 837.144C979.557 837.759 980.809 839.432 982.036 841.491C968.573 839.585 954.286 840.436 940.674 840.44C929.616 840.444 917.933 839.798 906.962 841.13C905.107 841.355 903.089 841.669 901.551 842.803C896.027 846.877 895.501 854.566 894.796 860.812L894.667 862.003Z"/><path fill="#B0D8E9" d="M479.847 345.463C506.409 335.233 528.761 314.074 549.625 295.36C552.815 300.019 554.411 305.08 555.881 310.477C557.046 322.953 554.432 334.636 546.289 344.454C538.523 353.752 527.326 359.514 515.246 360.43C506.869 361.123 499.003 359.221 491.719 355.038C486.983 352.591 483.348 349.433 479.847 345.463Z"/><path fill="#95B7C3" d="M555.881 310.477C557.046 322.953 554.432 334.636 546.289 344.454C538.523 353.752 527.326 359.514 515.246 360.43C506.869 361.123 499.003 359.221 491.719 355.038C520.199 348.098 536.244 330.175 555.881 310.477Z"/><path fill="#F3F5F6" d="M834.457 147.267L847.43 147.522C847.928 163.845 847.752 180.267 847.99 196.606C848.619 240.203 848.823 283.805 848.602 327.405C843.898 325.146 839.44 322.088 835.056 319.262C835.535 298.001 835.031 276.684 835.012 255.415C835.227 219.365 835.042 183.314 834.457 147.267Z"/><path fill="#808F97" d="M54.5443 610.962C57.5153 610.072 60.4739 609.39 63.5098 608.763C66.4132 623.372 67.7879 638.497 69.8269 653.262L83.7119 757.297C85.8065 772.645 87.4632 788.271 90.1863 803.509C85.6344 803.875 81.0747 804.321 76.5173 804.595L70.9581 754.833C70.3131 748.826 68.7008 741.505 69.0986 735.526L67.7453 725.456L59.6952 660.551C57.851 646.53 54.1306 624.485 54.5443 610.962Z"/><path fill="#F3F5F6" d="M54.5443 610.962C56.4131 612.04 56.8199 613.93 57.3518 615.945C59.9555 625.805 60.4157 636.547 61.6902 646.656C64.906 672.16 68.0337 697.909 69.228 723.603C68.7484 724.527 68.6215 724.841 67.7453 725.456L59.6952 660.551C57.851 646.53 54.1306 624.485 54.5443 610.962Z"/><path fill="#F3F5F6" d="M69.228 723.603C69.7613 727.614 69.5939 731.526 69.0986 735.526L67.7453 725.456C68.6215 724.841 68.7484 724.527 69.228 723.603Z"/><defs><linearGradient id="gradient_4" gradientUnits="userSpaceOnUse" x1="221.27585" y1="808.6452" x2="231.01984" y2="847.53015"><stop offset="0" stop-color="#6EA2B7"/><stop offset="1" stop-color="#95BFD6"/></linearGradient></defs><path fill="url(#gradient_4)" d="M162.569 817.274C194.304 816.2 226.256 817.099 258.017 817.126L282.101 817.037C285.107 817.021 289.11 816.5 292.027 817.023C292.473 817.103 292.665 817.279 293 817.514C293.048 818.353 293.105 819.19 293.127 820.03C292.298 824.434 292.681 829.236 292.679 833.714L159.432 833.49L159.505 820.507C159.495 819.65 159.589 818.844 159.682 817.993C160.754 817.108 161.243 817.324 162.569 817.274Z"/><path fill="#B0D8E9" d="M162.569 817.274C194.304 816.2 226.256 817.099 258.017 817.126L282.101 817.037C285.107 817.021 289.11 816.5 292.027 817.023C292.473 817.103 292.665 817.279 293 817.514C293.048 818.353 293.105 819.19 293.127 820.03C274.673 820.889 256.224 820.935 237.774 821.843C212.744 823.075 187.515 825.135 162.465 825.004C160.69 823.506 160.141 822.733 159.505 820.507C159.495 819.65 159.589 818.844 159.682 817.993C160.754 817.108 161.243 817.324 162.569 817.274Z"/><path fill="#F3F5F6" d="M159.505 820.507C159.495 819.65 159.589 818.844 159.682 817.993C160.754 817.108 161.243 817.324 162.569 817.274C162.543 819.838 162.604 822.445 162.465 825.004C160.69 823.506 160.141 822.733 159.505 820.507Z"/><path fill="#F6A436" d="M331.052 458.252L340.101 458.192L340.341 541.689L340.368 565.136C340.377 568.209 340.81 571.559 340.563 574.588C340.455 575.914 340.173 576.388 339.174 577.214C337.96 577.335 337.479 577.236 336.404 576.659C335.738 575.743 335.4 574.986 335.324 573.838C335.178 571.628 335.597 569.34 335.608 567.115L335.58 549.918L335.8 494.31C335.813 484.285 336.037 474.191 335.538 464.177C320.829 463.782 306.045 464.031 291.327 464.007L220.93 464.05C220.026 464.177 219.201 464.422 218.319 464.662C217.462 465.699 217.424 466.692 217.304 467.986C216.359 478.172 217.056 489.035 217.038 499.304L216.8 554.48C216.804 561.426 217.79 569.873 216.595 576.659C216.149 576.895 215.976 577.022 215.417 577.112C214.183 577.309 212.495 577.299 211.546 576.517C210.931 562.947 211.502 549.115 211.503 535.515L211.651 458.393C251.417 457.759 291.266 458.604 331.052 458.252Z"/><path fill="#E6BA83" d="M436.993 909.718C438.02 909.625 437.827 909.476 438.765 910.151C439.021 929.351 438.786 948.582 438.774 967.786C428.308 967.623 417.841 967.602 407.375 967.723C406.472 967.774 405.97 967.676 405.131 967.34C404.121 962.744 404.83 956.562 404.828 951.8L404.817 917.521C409.05 917.42 414.596 918.386 418.509 916.641C420.855 915.595 421.33 914.034 422.175 911.761C427.081 910.779 432.025 910.265 436.993 909.718Z"/><path fill="#F3F5F6" d="M762.576 147.243L775.241 147.273C775.48 175.813 775.57 204.353 775.514 232.893L775.535 261.48C775.535 267.588 775.77 273.801 775.132 279.881C772.164 280.131 765.301 274.993 762.537 273.273L762.471 190.992C762.437 176.554 761.504 161.625 762.576 147.243Z"/><path fill="#67BAE2" d="M754.324 549.907C770.773 548.961 787.766 549.36 804.26 549.644C804.243 558.927 804.282 568.21 804.374 577.493L749.943 577.5C749.93 573.607 749.682 569.567 749.942 565.691C749.969 560.812 748.791 555.256 750.445 550.63C751.804 549.613 752.658 549.9 754.324 549.907Z"/><path fill="#CFDBE6" d="M749.942 565.691C749.969 560.812 748.791 555.256 750.445 550.63C751.804 549.613 752.658 549.9 754.324 549.907C756.508 550.026 758.674 550.145 760.862 550.118C757.329 555.06 753.963 561.277 749.942 565.691Z"/><path fill="#576065" d="M66.1996 543.764C66.8414 544.045 66.8153 544.015 67.5319 544.442C75.0486 548.915 82.793 557.722 85.1226 566.199C87.037 573.165 86.2009 581.156 82.4656 587.385C77.7577 595.236 68.6061 600.561 59.8807 602.696C50.4657 605.001 40.6018 603.743 32.32 598.608C24.6594 593.858 20.5069 587.399 18.5274 578.672C18.1282 567.139 20.2843 560.094 26.4416 550.359C27.9782 558.998 26.9139 568.437 29.5852 576.824C30.9408 581.081 34.0715 584.13 38.0277 586.068C45.2123 589.59 54.325 588.831 61.7184 586.231C66.6988 584.48 71.3595 581.259 73.5769 576.316C77.8053 566.89 69.5197 552.768 66.1996 543.764Z"/><path fill="#B0D8E9" d="M222.166 550.048C239.95 549.762 257.774 550.008 275.563 550.005L275.586 577.637L222.13 577.489C222.075 568.342 222.087 559.195 222.166 550.048Z"/><path fill="#808F97" d="M374.638 874.546L415.45 874.587C415.583 877.078 415.702 879.559 415.723 882.054C415.477 888.219 415.505 894.381 415.512 900.55L415.503 909.815C401.963 909.286 388.369 909.497 374.819 909.506C374.79 906.668 374.887 903.749 374.648 900.925C374.291 892.166 374.59 883.315 374.638 874.546Z"/><path fill="#576065" d="M375.989 900.961C386.698 902.06 404.084 900.782 415.512 900.55L415.503 909.815C401.963 909.286 388.369 909.497 374.819 909.506C374.79 906.668 374.887 903.749 374.648 900.925L375.989 900.961Z"/><defs><linearGradient id="gradient_5" gradientUnits="userSpaceOnUse" x1="412.86716" y1="872.67346" x2="370.80444" y2="889.53174"><stop offset="0" stop-color="#C0CFD6"/><stop offset="1" stop-color="#F5F2F1"/></linearGradient></defs><path fill="url(#gradient_5)" d="M374.638 874.546L415.45 874.587C415.583 877.078 415.702 879.559 415.723 882.054C414.543 881.139 413.282 880.065 411.849 879.586C405.387 877.424 386.565 877.243 379.353 877.472C377.764 885.234 377.36 893.162 375.989 900.961L374.648 900.925C374.291 892.166 374.59 883.315 374.638 874.546Z"/><path fill="#CFDBE6" d="M694.312 549.814C704.699 549.702 715.247 549.285 725.619 549.91C728.639 549.851 742.565 549.047 744.435 550.567L744.569 550.964C745.345 559.697 744.961 568.725 745.039 577.499L732.666 577.499L705.397 577.552L694.294 577.521L694.312 549.814Z"/><path fill="#67BAE2" d="M694.312 549.814C704.699 549.702 715.247 549.285 725.619 549.91C718.832 550.502 711.824 550.177 705.006 550.161C705.53 559.295 705.215 568.413 705.397 577.552L694.294 577.521L694.312 549.814Z"/><path fill="#95B7C3" d="M744.569 550.964C745.345 559.697 744.961 568.725 745.039 577.499L732.666 577.499C735.885 571.376 739.492 566.601 744.395 561.711C744.342 558.112 744.317 554.555 744.569 550.964Z"/><path fill="#808F97" d="M301.505 549.927L330.68 549.955C330.72 559.13 330.952 568.347 330.77 577.518C317.47 577.525 304.131 577.754 290.835 577.522L280.902 577.512C280.957 568.316 280.91 559.12 280.764 549.926L301.505 549.927Z"/><path fill="#B0D8E9" d="M280.764 549.926L301.505 549.927C297.547 558.324 292.401 568.412 290.835 577.522L280.902 577.512C280.957 568.316 280.91 559.12 280.764 549.926Z"/><path fill="#E47D29" d="M375.452 409.899C381.687 409.888 388.815 409.232 394.942 410.185C395.727 411.484 395.468 413.731 395.481 415.252C395.515 436.229 395.761 457.232 395.57 478.206C389.694 477.12 383.016 475.162 377.036 475.39C376.567 475.199 376.217 474.941 375.803 474.654C374.671 468.209 375.477 460.442 375.477 453.837L375.452 409.899Z"/><defs><linearGradient id="gradient_6" gradientUnits="userSpaceOnUse" x1="402.29129" y1="433.00165" x2="366.07056" y2="446.65137"><stop offset="0" stop-color="#FFF3C1"/><stop offset="1" stop-color="#FFF4E5"/></linearGradient></defs><path fill="url(#gradient_6)" d="M375.452 409.899C381.687 409.888 388.815 409.232 394.942 410.185C395.727 411.484 395.468 413.731 395.481 415.252C390.643 415.3 385.805 415.221 380.971 415.014C380.972 428.564 380.898 442.114 380.748 455.663C380.677 461.198 381.119 467.221 380.472 472.686C380.338 473.826 380.249 474.128 379.496 474.934L377.036 475.39C376.567 475.199 376.217 474.941 375.803 474.654C374.671 468.209 375.477 460.442 375.477 453.837L375.452 409.899Z"/><defs><linearGradient id="gradient_7" gradientUnits="userSpaceOnUse" x1="195.95444" y1="902.42969" x2="182.90985" y2="904.43732"><stop offset="0" stop-color="#C5CEDC"/><stop offset="1" stop-color="#F0EEF3"/></linearGradient></defs><path fill="url(#gradient_7)" d="M176.903 839.552L187.453 839.536L201.778 967.528C198.555 967.651 195.333 967.572 192.108 967.519C191.012 962.478 190.737 957.037 190.154 951.904L186.729 921.399C183.693 894.088 180.417 866.805 176.903 839.552Z"/><path fill="#FBD48D" d="M685.566 458.676C727.859 458.252 770.206 458.872 812.504 458.99L812.601 540.158C812.585 551.686 813.274 563.67 812.628 575.152C812.577 576.042 812.479 576.546 811.907 577.265C810.633 577.333 810.63 577.598 809.606 576.712C808.451 565.83 809.43 553.423 809.402 542.383L809.461 463.875L809.356 463.116C806.504 461.227 701.36 462.415 689.405 462.586C689.112 473.746 689.404 575.451 688.972 576.504C688.832 576.846 688.475 577.051 688.227 577.325C686.963 577.436 686.843 577.48 685.759 576.844C684.5 567.866 685.448 551.551 685.412 541.755L685.566 458.676Z"/><path fill="#B0D8E9" d="M422.292 881.839C454.925 884.257 487.379 889.214 519.971 892.066C513.17 892.745 506.385 893.578 499.622 894.563C475.664 899.329 447.054 902.151 422.553 904.251L422.314 894.539C422.016 890.361 421.669 885.993 422.292 881.839Z"/><path fill="#576065" d="M446.289 892.466C458.303 892.64 470.313 893.009 482.314 893.574C487.925 893.807 494.094 893.61 499.622 894.563C475.664 899.329 447.054 902.151 422.553 904.251L422.314 894.539C428.899 894.147 440.457 894.816 446.289 892.466Z"/><path fill="#808F97" d="M422.314 894.539C422.016 890.361 421.669 885.993 422.292 881.839C422.554 884.902 422.561 887.923 422.541 890.993C430.017 891.175 439.048 890.809 446.289 892.466C440.457 894.816 428.899 894.147 422.314 894.539Z"/><path fill="#CFDBE6" d="M264.016 839.494L273.217 839.492C270.682 852.94 269.963 867.119 268.434 880.73L259.069 967.507L249.814 967.475C254.686 924.878 260.139 882.19 264.016 839.494Z"/><path fill="#99572B" d="M375.428 917.744C381.847 916.867 388.979 917.526 395.478 917.561L395.476 966.536L375.784 966.583L375.494 952.081C375.285 940.648 375.44 929.181 375.428 917.744Z"/><path fill="#FDEFD4" d="M375.428 917.744C376.839 917.837 378.6 917.669 379.701 918.658C380.65 928.139 379.786 938.409 379.722 947.966C378.343 949.361 376.992 950.813 375.494 952.081C375.285 940.648 375.44 929.181 375.428 917.744Z"/><path fill="#BD8047" d="M172.454 940.498C171.371 931.265 166.054 841.98 167.523 839.836C168.867 839.73 169.91 839.542 171.139 840.235C172.805 845.468 173.188 856.309 173.978 862.435C177.216 888.389 180.308 914.361 183.255 940.35C179.656 940.458 176.055 940.507 172.454 940.498Z"/><path fill="#97CA6A" d="M864.985 934.448C874.602 934.571 884.233 934.473 893.852 934.479C893.174 948.883 895.194 949.927 887.498 963.039C885.368 959.224 882.969 955.812 880.362 952.303C879.685 951.363 879.179 950.853 878.191 950.245C877.315 950.507 877.19 950.36 876.667 951.194C873.623 956.055 875.745 965.917 876.801 971.073C872.3 969.85 868.336 968.928 863.641 969.001C863.986 957.479 864.434 945.961 864.985 934.448Z"/><path fill="#FEEA2D" d="M206.22 785.486C211.595 785.666 216.378 786.78 220.168 790.916C225.121 796.32 225.539 803.595 225.564 810.53C215.09 810.518 204.604 810.605 194.131 810.484C195.603 806.685 197.53 802.355 195.855 798.296C194.873 795.914 192.694 794.176 190.505 792.936L190.053 792.435C190.221 791.528 190.132 791.486 190.809 790.731C194.304 786.836 201.266 785.652 206.22 785.486Z"/><path fill="#F3F5F6" d="M190.505 792.936L190.053 792.435C190.221 791.528 190.132 791.486 190.809 790.731C194.304 786.836 201.266 785.652 206.22 785.486C204.215 788.879 197.076 792.07 193.229 792.883C192.343 793.07 191.72 793.006 190.826 792.944C190.719 792.937 190.612 792.939 190.505 792.936Z"/><path fill="#44170D" d="M600.689 648.205C602.529 648.266 604.169 648.325 605.942 648.844C606.8 650.186 606.207 720.902 605.377 724.983C605.34 725.167 605.28 725.346 605.232 725.528C603.447 726.302 601.863 725.899 600.035 726.176C599.209 724.948 599.077 724.197 598.999 722.739C598.106 705.944 599.033 688.627 599.07 671.779C599.081 666.686 598.248 654.88 599.02 650.454C599.269 649.028 599.558 648.959 600.689 648.205Z"/><path fill="#AF612C" d="M600.035 726.176C599.209 724.948 599.077 724.197 598.999 722.739C598.106 705.944 599.033 688.627 599.07 671.779C599.081 666.686 598.248 654.88 599.02 650.454C599.269 649.028 599.558 648.959 600.689 648.205C602.047 651.835 601.58 723.021 600.5 725.367C600.37 725.65 600.19 725.907 600.035 726.176Z"/><path fill="#BD8047" d="M932.536 776.637L943.096 776.521L942.97 828.085L932.542 828.093C932.449 810.941 932.447 793.789 932.536 776.637Z"/><path fill="#FEEA2D" d="M243.927 793.601C245.657 793.637 247.666 793.706 249.3 794.304C251.393 795.07 253.119 796.615 253.906 798.721C255.482 802.938 253.405 807.07 251.652 810.821L242.125 810.75L231.556 810.646C231.517 806.785 231.274 803.187 233.302 799.721C235.561 795.86 239.831 794.528 243.927 793.601Z"/><path fill="#FEEA2D" d="M256.809 791.684C259.627 791.411 265.053 792.108 267.198 794.038C268.115 794.862 268.531 795.838 268.513 797.051C268.482 799.183 278.073 801.788 280.525 805.429C281.419 806.757 282.606 809.225 282.304 810.836L281.125 811.128C272.971 811.074 264.818 810.97 256.666 810.819C258.67 806.034 260.928 802.301 258.829 797.158C258.178 795.561 257.304 793.937 256.911 792.261C256.866 792.071 256.843 791.876 256.809 791.684Z"/><path fill="#99572B" d="M183.255 940.35C184.304 949.111 185.248 957.885 186.086 966.668L173.463 966.671C173.478 957.911 172.546 949.227 172.454 940.498C176.055 940.507 179.656 940.458 183.255 940.35Z"/><path fill="#FEEA2D" d="M219.141 782.455C223.966 778.607 228.773 776.318 235.027 776.473C238.569 776.793 241.465 777.37 243.779 780.3C245.334 782.271 246.068 784.677 246.659 787.076C239.763 789.01 234.996 790.92 230.021 796.243C227.864 792.188 225.764 788.753 222.582 785.392L219.141 782.455Z"/><path fill="#F3F5F6" d="M219.141 782.455C223.966 778.607 228.773 776.318 235.027 776.473L222.582 785.392L219.141 782.455Z"/><path fill="#FEEA2D" d="M181.306 796.095C183.684 795.774 186.23 795.758 188.359 797.032C189.773 797.877 190.643 799.138 190.955 800.76C191.654 804.388 189.698 807.428 187.807 810.324L178.433 810.61C175.507 810.673 171.378 811.264 168.556 810.666C167.421 810.425 167.314 809.619 166.895 808.688C166.929 808.017 167.001 807.428 167.287 806.809C169.714 801.567 176.1 797.861 181.306 796.095Z"/><path fill="#F3F5F6" d="M630.012 413.708C629.983 413.236 629.926 412.443 629.942 411.994C629.968 411.258 629.92 410.595 630.543 410.137C631.78 409.229 633.363 409.152 634.839 409.272C637.19 409.462 639.539 409.462 641.896 409.49C642.235 411.27 642.465 412.692 642.212 414.496C640.439 414.523 638.647 414.358 636.876 414.253C635.05 413.442 632.887 413.905 630.921 413.773L630.012 413.708Z"/><path fill="#783629" d="M552.648 682.186C558.011 682.086 589.851 681.588 592.201 683.154L591.542 683.452C586.885 683.488 553.871 684.288 551.929 682.805L552.648 682.186Z"/><path fill="#F3F5F6" d="M816.599 584.558C821.352 584.379 827.304 583.571 831.881 584.81C832.645 585.742 832.406 585.815 832.345 586.958C829.885 587.063 827.424 587.154 824.963 587.23C822.398 587.412 819.884 587.486 817.314 587.478L816.805 586.712C817.894 586.416 818.552 586.448 819.671 586.465L819.483 585.669L817.153 585.381L816.599 584.558Z"/></svg>