<?xml version="1.0" encoding="utf-8" ?><svg xmlns="http://www.w3.org/2000/svg" xmlns:xlink="http://www.w3.org/1999/xlink" width="1024" height="1024" viewBox="0 0 1024 1024"><path d="M0 0L1024 0L1024 869.942L1024 882.985L1024 1024L0 1024L0 886.097L0 869.422L0 0Z"/><path fill="#7ECAF1" d="M0 0L1024 0L1024 869.942C1010.25 869.652 996.443 869.927 982.687 869.954C978.896 855.583 976.434 840.658 973.373 826.102C969.043 805.507 964.306 785.002 960.159 764.369C962.228 763.769 964.28 763.199 966.128 762.056C970.565 759.311 973.4 754.961 974.593 749.924C977.89 736.001 962.786 702.208 955.289 690.12C951.505 704.892 953.191 722.558 954.649 737.602L943.906 738.69C941.13 697.878 940.323 656.927 937.147 616.117C936.588 608.934 935.108 602.353 929.212 597.554C925.843 594.812 921.408 592.989 917.006 593.465C912.468 593.955 908.742 596.727 906.019 600.264C903.617 603.385 901.513 607.658 901.083 611.609C900.383 618.025 903.023 636.456 903.737 643.76L914.186 741.525C910.589 742.053 906.905 742.291 903.284 742.649C901.545 733.833 897.627 709.674 894.715 702.749C894.322 701.815 894.312 701.504 893.334 701.127C892.838 701.612 892.506 702.058 892.26 702.715C888.584 712.509 884.595 751.34 888.722 760.682C890.87 765.546 894.803 769.076 899.767 770.891C896.46 788.82 894.656 807.086 892.386 825.166C890.426 840.14 888.222 855.081 885.776 869.983L873.291 870.041C872.788 853.248 873.056 836.391 873.065 819.59L873.218 726.836L872.54 483.266C886.386 483.392 993.823 484.646 997.62 482.946C999.203 482.238 1000.44 480.914 1000.92 479.237C1001.79 476.266 1000.48 474.096 998.37 472.13C994.272 468.316 989.351 465.092 984.874 461.729L957.56 441.309L880.41 382.922L644.15 201.707L586.294 157.227C578.985 151.684 567.669 145.143 561.781 138.558C556.885 133.082 553.135 123.396 549.572 116.77L513.91 49.1033C501.537 69.6716 490.492 91.2087 479.11 112.342C475.283 119.449 468.802 133.63 463.87 139.407C458.838 145.302 444.846 154.772 438.165 159.968L382.816 203.283L267.503 293.212L225.302 325.976C212.513 335.929 199.863 346.037 186.468 355.175L186.627 263.196C195.444 259.137 215.177 246.959 220.599 238.906C216.46 225.476 209.852 212.233 204.286 199.337C192.841 172.825 181.122 146.204 168.685 120.147C166.045 126.021 163.791 132.095 161.212 138.006L137.741 191.181C131.25 205.888 122.183 223.551 117.51 238.664C125.794 249.17 139.452 256.931 150.907 263.675C150.603 303.67 150.554 343.666 150.76 383.661C144.881 388.706 138.44 393.274 132.284 397.985C121.286 406.547 110.203 414.999 99.0369 423.339C82.9269 435.518 67.3033 448.339 51.389 460.77C45.3786 465.465 29.5875 475.332 26.5009 480.998C26.7233 482.452 26.977 483.424 27.9937 484.552C28.7168 485.354 30.3629 485.321 31.3577 485.391C42.8631 486.197 56.7905 485.45 68.5219 485.482C96.1458 485.594 123.77 485.564 151.394 485.392L151.266 762.709C146.084 761.238 141.079 760.146 135.677 759.966C117.583 759.365 101.314 766.449 88.3239 778.822C75.2745 791.252 68.6439 807.256 68.1255 825.128L40.5982 825.014C35.6935 824.997 30.0388 824.43 25.2564 825.406C24.349 825.592 24.0204 825.628 23.5667 826.508C21.5505 830.421 24.6423 854.765 26.5374 858.97C29.0712 861.066 37.6934 860.001 40.9986 859.966C41.4544 863.075 41.5357 866.29 41.7394 869.427L0 869.422L0 0Z"/><path d="M861.392 161.672C869.946 160.763 878.57 162.553 886.056 166.792C899.544 174.393 905.975 185.92 909.931 200.404C916.104 201.027 922.145 202.729 927.344 206.199C936.192 212.105 939.621 220.987 941.691 230.976C946.77 231.476 952.117 231.755 957.03 233.185C960.199 234.107 968.331 235.771 969.801 238.483C968.87 239.398 967.588 239.38 966.31 239.488C948.367 241.008 929.938 240.168 911.928 240.269L796.75 240.159L744.848 240.032C726.034 239.988 706.752 240.887 688.366 236.279C703.582 230.004 720.102 230.681 736.211 230.764C737.763 229.057 739.444 227.378 741.379 226.106C747.9 221.819 757.019 220.312 764.563 222.031C766.568 218.469 768.647 215.529 772.059 213.122C777.735 209.119 783.912 208.554 790.559 209.649C792.848 202.855 796.466 197.721 802.949 194.261C810.697 190.125 818.279 190.432 826.451 192.943C828.121 187.433 830.92 181.858 834.299 177.203C840.862 168.16 850.523 163.326 861.392 161.672Z"/><defs><linearGradient id="gradient_0" gradientUnits="userSpaceOnUse" x1="854.41815" y1="184.28546" x2="830.24188" y2="251.52106"><stop offset="0" stop-color="#C5DBDB"/><stop offset="1" stop-color="#9DE4FE"/></linearGradient></defs><path fill="url(#gradient_0)" d="M843.019 177.961C850.64 171.671 859.535 168.358 869.478 169.369C879.558 170.417 888.797 175.466 895.124 183.384C901.16 190.872 903.545 199.446 903.483 208.951C910.705 207.646 917.502 207.863 923.74 212.281C928.772 215.845 932.703 222.09 933.594 228.239C933.703 229.037 933.787 229.838 933.847 230.642C928.796 231.531 922.863 230.905 917.715 230.903L889.617 231.081C848.87 231.33 808.121 231.247 767.375 230.83C768.581 228.209 769.842 225.613 771.156 223.045C773.636 219.63 776.794 217.401 780.821 216.095C783.251 215.307 786.413 214.803 788.759 216.116C789.849 216.725 789.866 218.171 790.181 219.343C790.896 219.871 791.09 220.146 792.017 220.267C793.321 220.436 794.389 220.316 795.394 219.409C796.024 218.841 795.847 218.528 795.895 217.743C796.002 214.64 796.298 211.221 797.579 208.375C799.235 205.421 801.984 202.896 804.946 201.284C813.415 196.676 820.505 198.907 828.922 201.583C831.166 201.049 833.895 191.153 835.065 188.67C836.097 186.478 837.47 184.48 838.875 182.514C840.132 180.881 841.587 179.44 843.019 177.961Z"/><path fill="#F5F9FB" d="M843.019 177.961C850.64 171.671 859.535 168.358 869.478 169.369C879.558 170.417 888.797 175.466 895.124 183.384C901.16 190.872 903.545 199.446 903.483 208.951C910.705 207.646 917.502 207.863 923.74 212.281C928.772 215.845 932.703 222.09 933.594 228.239C933.703 229.037 933.787 229.838 933.847 230.642C926.258 229.661 917.893 230.307 910.219 230.318C896.352 219.245 888.032 214.589 871.49 208.625C865.183 206.351 858.08 204.5 852.424 200.86C840.312 193.067 845.62 189.1 843.171 178.58C843.123 178.373 843.07 178.167 843.019 177.961Z"/><path fill="#F5F9FB" d="M838.875 182.514C839.613 186.996 841.01 191.615 841.438 196.099C842.314 205.256 840.439 216.23 839.093 225.387L838.549 225.858C836.39 225.21 835.46 223.632 834.326 221.786L833.614 221.568C828.676 220.074 823.197 219.762 818.42 217.918C811.197 215.131 805.598 209.207 797.579 208.375C799.235 205.421 801.984 202.896 804.946 201.284C813.415 196.676 820.505 198.907 828.922 201.583C831.166 201.049 833.895 191.153 835.065 188.67C836.097 186.478 837.47 184.48 838.875 182.514Z"/><path fill="#F5F9FB" d="M795.895 217.743L796.588 215.696C798.933 215.456 802.384 218.697 804.601 219.717C799.501 219.923 794.684 221.268 789.687 222.148C783.785 223.188 777.133 223.552 771.156 223.045C773.636 219.63 776.794 217.401 780.821 216.095C783.251 215.307 786.413 214.803 788.759 216.116C789.849 216.725 789.866 218.171 790.181 219.343C790.896 219.871 791.09 220.146 792.017 220.267C793.321 220.436 794.389 220.316 795.394 219.409C796.024 218.841 795.847 218.528 795.895 217.743Z"/><path fill="#AFEAF6" d="M756.099 228.105C756.736 228.063 757.374 228.029 758.012 228.003C760.142 227.918 762.11 227.93 763.775 229.462L763.372 230.162C761.258 231.091 758.733 230.719 756.464 230.65C752.927 230.632 749.382 230.81 745.846 230.934C749.249 229.848 752.602 228.842 756.099 228.105Z"/><path fill="#A0B955" d="M984.595 883.139L1024 882.985L1024 1024L0 1024L0 886.097L44.4102 885.857C48.7386 913.159 53.3805 940.411 58.335 967.607C58.6569 970.17 58.6474 976.295 60.9098 977.819C62.0814 978.608 64.1712 978.518 65.5463 978.544L239.486 978.547C241.47 978.527 243.907 978.784 245.604 977.596C247.422 976.323 247.467 972.91 247.746 970.885L248.846 964.128L660.759 964.448C669.87 964.441 763.234 963.487 765.282 964.398L765.008 965.232C763.987 966.681 763.362 967.745 762.944 969.475C763.347 970.386 763.165 970.451 764.175 970.878C769.419 973.093 783.145 972.634 789.325 972.865C801.381 973.315 813.44 973.699 825.5 974.017C832.643 974.233 839.858 974.688 847 974.494C872.329 973.806 898.572 971.03 923.695 970.918C928.485 970.313 945.968 970.46 948.676 967.815C948.422 965.846 947.163 964.198 946.144 962.538C952.947 960.756 960.695 961.613 967.65 960.151C970.064 959.643 971.223 959.311 972.602 957.189L973.974 955.85L973.859 954.877C970.057 951.081 957.109 950.608 951.725 950.465C948.422 947.76 937.271 946.531 932.638 945.649L925.059 936.627C928.7 935.208 937.913 935.742 942.155 935.45C949.458 936.293 956.832 936.653 964.15 937.41C969.805 937.996 1001.72 942.912 1005.55 941.217C1006.38 940.848 1006.09 941.019 1006.52 940.067L1005.87 938.914C1004.85 938.217 1004.1 937.713 1002.86 937.457L996.859 936.171C992.565 918.541 988.866 900.775 984.595 883.139Z"/><path fill="#738E34" d="M923.695 970.918C922.933 971.843 922.433 972.182 921.262 972.508C912.733 974.88 902.593 975.391 893.751 976.176C852.203 979.862 807.24 979.697 765.641 976.36C756.569 975.633 743.554 975.805 735.529 971.29L735.387 970.649C739.858 967.293 758.18 966.561 764.491 965.336L765.008 965.232C763.987 966.681 763.362 967.745 762.944 969.475C763.347 970.386 763.165 970.451 764.175 970.878C769.419 973.093 783.145 972.634 789.325 972.865C801.381 973.315 813.44 973.699 825.5 974.017C832.643 974.233 839.858 974.688 847 974.494C872.329 973.806 898.572 971.03 923.695 970.918Z"/><path fill="#738E34" d="M58.335 967.607C58.6569 970.17 58.6474 976.295 60.9098 977.819C62.0814 978.608 64.1712 978.518 65.5463 978.544C64.1385 978.927 63.1198 979.853 61.6971 980.179C51.3227 982.561 26.9275 980.308 15.7664 978.864C12.8434 978.485 8.46094 977.932 6.60667 975.518C6.58397 974.858 6.37992 974.261 6.82076 973.714C9.81072 970.001 37.3102 968.575 43.2527 968.385C47.5722 968.247 53.6714 968.973 57.7499 967.824C57.9502 967.768 58.14 967.679 58.335 967.607Z"/><path fill="#738E34" d="M247.746 970.885C253.454 971.616 277.273 973.598 280.463 977.177C280.559 977.284 280.624 977.415 280.705 977.534C278.757 979.666 271.852 979.346 268.916 979.479C259.179 979.921 249.098 980.39 239.486 978.547C241.47 978.527 243.907 978.784 245.604 977.596C247.422 976.323 247.467 972.91 247.746 970.885Z"/><path fill="#A0B955" d="M907.651 884.64C925.659 884.757 944.085 885.434 962.05 884.048C965.727 900.002 969.139 916.016 972.282 932.084C965.931 931.611 959.561 931.419 953.193 931.507L952.665 931.606C949.671 932.145 944.146 931.638 942.032 933.766L942.155 935.45C937.913 935.742 928.7 935.208 925.059 936.627C923.018 934.822 921.183 931.923 919.447 929.77C916.344 925.987 909.13 915.469 905.074 914.337C904.265 914.111 904.59 914.217 903.755 913.554C903.291 906.117 906.763 892.921 907.651 884.64Z"/><path fill="#738E34" d="M919.447 929.77C926.81 930.186 947.648 929.053 953.193 931.507L952.665 931.606C949.671 932.145 944.146 931.638 942.032 933.766L942.155 935.45C937.913 935.742 928.7 935.208 925.059 936.627C923.018 934.822 921.183 931.923 919.447 929.77Z"/><path fill="#738E34" d="M938.528 953.06C949.933 953.647 961.305 955.572 972.602 957.189C971.223 959.311 970.064 959.643 967.65 960.151C960.695 961.613 952.947 960.756 946.144 962.538C943.536 959.439 941.051 956.229 938.528 953.06Z"/><path fill="#738E34" d="M932.638 945.649C937.271 946.531 948.422 947.76 951.725 950.465C947.001 950.89 942.269 951.232 937.533 951.491C935.831 949.613 934.255 947.6 932.638 945.649Z"/><path fill="#A9815C" d="M363.499 287.488C363.262 302.123 364.384 317.201 363.076 331.756L363.486 786.597L363.47 908.42L363.528 940.739C363.558 945.068 364.267 950.339 363.588 954.578C362.151 955.335 360.641 955.215 359.059 955.245C338.079 955.068 317.098 955.003 296.117 955.05L295.928 637.457L296.063 626.512L341.805 626.827C343.934 626.922 347.329 627.434 349.244 626.508C351.127 625.598 351.5 623.511 352.002 621.686C350.565 610.188 351.71 593.433 351.683 581.468L351.706 500.675C351.746 484.915 352.499 468.709 351.33 453.001C350.492 452.303 350.088 452.035 348.988 451.817C343.944 450.817 337.415 451.678 332.218 451.729L295.72 451.979L295.757 374.621C295.683 363.025 295.691 351.429 295.779 339.833C317.705 321.595 341.287 305.364 363.499 287.488Z"/><path fill="#A9815C" d="M363.499 287.488C363.262 302.123 364.384 317.201 363.076 331.756C362.996 328.83 362.914 325.913 362.98 322.986C358.901 326.433 354.878 330.003 350.6 333.201C350.164 362.543 351.405 391.983 351.558 421.335C351.604 430.171 352.596 445.015 351.33 453.001C350.492 452.303 350.088 452.035 348.988 451.817C343.944 450.817 337.415 451.678 332.218 451.729L295.72 451.979L295.757 374.621C295.683 363.025 295.691 351.429 295.779 339.833C317.705 321.595 341.287 305.364 363.499 287.488Z"/><path fill="#764B2F" d="M363.499 287.488C363.262 302.123 364.384 317.201 363.076 331.756C362.996 328.83 362.914 325.913 362.98 322.986C358.901 326.433 354.878 330.003 350.6 333.201C331.706 346.001 314.203 361.17 295.757 374.621C295.683 363.025 295.691 351.429 295.779 339.833C317.705 321.595 341.287 305.364 363.499 287.488Z"/><path fill="#DEB76B" d="M362.98 322.986C362.914 325.913 362.996 328.83 363.076 331.756L363.486 786.597L363.47 908.42L363.528 940.739C363.558 945.068 364.267 950.339 363.588 954.578C362.151 955.335 360.641 955.215 359.059 955.245C354.95 944.049 355.292 908.387 354.886 894.839C352.756 835.841 351.921 776.804 352.381 717.769L352.297 654.592C352.301 643.784 353.244 632.39 352.002 621.686C350.565 610.188 351.71 593.433 351.683 581.468L351.706 500.675C351.746 484.915 352.499 468.709 351.33 453.001C352.596 445.015 351.604 430.171 351.558 421.335C351.405 391.983 350.164 362.543 350.6 333.201C354.878 330.003 358.901 326.433 362.98 322.986Z"/><path fill="#764B2F" d="M296.063 626.512L341.805 626.827C342.122 629.737 342.811 632.839 341.803 635.653C340.637 636.746 339.282 636.948 337.747 637.154C332.437 637.867 326.727 637.431 321.355 637.411L295.928 637.457L296.063 626.512Z"/><path fill="#DEB76B" d="M498.615 433.529L561.891 433.449L562.051 440.484C562.524 466.695 562.064 492.985 562.025 519.205L561.899 667.615L546.483 667.695C541.679 668.101 537.862 668.927 534.551 672.807C531.996 675.801 530.774 679.907 531.17 683.813C531.514 687.203 533.132 690.241 535.819 692.351C538.499 694.456 542.108 695.434 545.477 695.548C551.163 695.42 556.851 695.396 562.539 695.476C562.501 722.753 562.344 951.984 560.564 955.261C539.942 954.128 518.818 955.011 498.144 955.031C497.557 934.627 498.048 914.052 498.124 893.634L498.32 790.215L498.081 448.032C497.615 443.169 498.568 438.405 498.615 433.529Z"/><path fill="#EDCD99" d="M561.433 440.391L562.051 440.484C562.524 466.695 562.064 492.985 562.025 519.205L561.899 667.615L546.483 667.695C546.219 623.339 544.478 578.889 543.396 534.539C542.634 503.317 542.941 471.811 540.996 440.658C547.777 440.635 554.675 440.906 561.433 440.391Z"/><path fill="#EDCD99" d="M545.477 695.548C551.163 695.42 556.851 695.396 562.539 695.476C562.501 722.753 562.344 951.984 560.564 955.261C559.955 954.616 558.703 953.396 558.368 952.604C557.289 950.053 557.217 932.553 556.955 928.573C552.314 850.94 548.488 773.261 545.477 695.548Z"/><path fill="#764B2F" d="M498.615 433.529L561.891 433.449L562.051 440.484L561.433 440.391C554.757 439.01 541.899 440.245 534.592 440.326C522.526 440.461 510.426 440.14 498.366 440.426C498.293 442.946 498.335 445.526 498.081 448.032C497.615 443.169 498.568 438.405 498.615 433.529Z"/><path fill="#A9815C" d="M738.938 343.008C747.738 349.993 756.932 356.456 765.905 363.212L814.5 400.439C814.458 412.605 815.551 425.029 814.918 437.148L814.988 770.084L807.542 770.023L801.545 770.051L765.756 770.258C759.444 770.277 752.748 770.741 746.491 770.081C744.543 769.875 743.002 769.533 741.306 768.553C739.397 762.79 740.404 745.364 740.369 738.484L740.144 691.994L739.998 541.987C740.008 514.851 739.17 487.404 740.239 460.309L740.491 443.686C754.05 438.988 767.183 433.155 780.994 429.169C785.213 427.808 791.094 426.411 793.971 422.902C794.146 422.189 794.43 421.794 794.071 421.097C790.916 414.973 746.287 399.774 738.843 397.229C738.162 391.295 738.579 384.924 738.613 378.933L738.938 343.008Z"/><path fill="#A9815C" d="M805.228 419.559C808.59 421.739 811.626 424.349 814.707 426.9C814.71 430.275 814.512 433.802 814.918 437.148L814.988 770.084L807.542 770.023C805.471 731.371 806.469 692.849 806.358 654.181L805.209 503.555C805.135 475.58 806.887 447.48 805.228 419.559Z"/><path fill="#764B2F" d="M738.938 343.008C747.738 349.993 756.932 356.456 765.905 363.212L814.5 400.439C814.458 412.605 815.551 425.029 814.918 437.148C814.512 433.802 814.71 430.275 814.707 426.9C811.626 424.349 808.59 421.739 805.228 419.559L800.562 416.15C795.499 411.16 788.263 406.98 782.428 402.872C767.923 392.662 752.877 382.727 739.058 371.62C739.083 380.089 739.525 388.795 738.843 397.229C738.162 391.295 738.579 384.924 738.613 378.933L738.938 343.008Z"/><path fill="#DEB76B" d="M800.562 416.15L805.228 419.559C806.887 447.48 805.135 475.58 805.209 503.555L806.358 654.181C806.469 692.849 805.471 731.371 807.542 770.023L801.545 770.051L800.562 416.15Z"/><path fill="#764B2F" d="M740.491 443.686C754.05 438.988 767.183 433.155 780.994 429.169C784.43 430.443 789.413 431.701 791.794 434.645L791.772 435.546C785.968 440.96 750.268 455.317 740.239 460.309L740.491 443.686Z"/><path fill="#DEB76B" d="M567.188 433.581L622.437 433.84L622.47 439.89L622.885 955.163L567.461 955.142L566.934 695.496L583.265 695.512C583.211 702.795 581.884 712.905 587.46 718.47C590.793 721.798 596.266 722.825 600.813 722.6C604.764 722.404 608.529 720.989 611.23 718.024C613.494 715.539 614.736 712.439 615.289 709.153C616.581 701.483 615.523 692.609 615.473 684.817C615.434 678.819 615.855 672.715 615.474 666.738C615.137 661.454 613.622 657.018 609.472 653.497C606.034 650.581 601.748 649.064 597.23 649.464C592.98 649.846 589.072 651.954 586.42 655.297C583.341 659.145 582.884 662.776 583.14 667.526L567.059 667.494L567.043 440.391L567.188 433.581Z"/><path fill="#764B2F" d="M567.188 433.581L622.437 433.84L622.47 439.89C604.006 440.004 585.5 439.9 567.043 440.391L567.188 433.581Z"/><path fill="#DEB76B" d="M439.531 433.5L492.751 433.557C492.797 435.757 492.719 438.04 492.986 440.223C493.538 462.596 493.112 485.076 493.097 507.46L492.827 633.672L493.064 955.024L442.425 954.852L442.254 837.229C442.161 815.086 441.676 792.891 441.909 770.753C440.763 757.526 441.613 740.085 441.581 726.414C447.874 726.456 454.168 726.463 460.462 726.433C462.462 726.404 464.552 726.457 466.534 726.19C468.723 725.895 469.919 724.969 471.185 723.208C472.342 718.017 471.996 660.422 470.493 657.322C464.111 655.935 449.254 656.945 441.93 656.972C440.579 630.475 441.46 603.671 441.225 577.123C440.922 531.413 440.323 485.707 439.428 440.006L439.531 433.5Z"/><path fill="#764B2F" d="M439.531 433.5L492.751 433.557C492.797 435.757 492.719 438.04 492.986 440.223C475.186 439.673 457.243 440.094 439.428 440.006L439.531 433.5Z"/><path fill="#AF5F1F" d="M441.581 726.414C447.874 726.456 454.168 726.463 460.462 726.433C460.561 729.334 461.219 733.037 459.216 735.42C458.043 736.815 456.395 737.249 454.644 737.317C450.472 737.479 446.233 736.978 442.019 737.091C442.063 748.205 442.708 759.678 441.909 770.753C440.763 757.526 441.613 740.085 441.581 726.414Z"/><path fill="#A9815C" d="M661.732 456.109C688.209 456.25 709.863 452.535 735.298 445.155L735.412 617.492L735.535 696.953C735.551 711.958 735.941 727.079 735.43 742.07L735.521 764.32C731.977 762.167 728.048 760.15 724.748 757.659C719.287 754.552 713.885 751.96 707.416 753.608C700.667 755.327 694.311 760.718 688.477 764.385C684.006 767.135 679.482 769.798 674.908 772.373C671.015 775.302 665.856 777.648 661.671 780.245L661.732 456.109Z"/><path fill="#764B2F" d="M661.732 456.109C688.209 456.25 709.863 452.535 735.298 445.155L735.412 617.492L735.535 696.953C735.551 711.958 735.941 727.079 735.43 742.07L735.521 764.32C731.977 762.167 728.048 760.15 724.748 757.659C725.875 717.61 724.523 677.841 723.515 637.813C721.949 581.084 720.794 524.345 720.051 467.6C704.967 471.862 690.147 475.051 674.508 476.363L674.505 676.377L674.589 739.687C674.618 750.407 673.949 761.733 674.908 772.373C671.015 775.302 665.856 777.648 661.671 780.245L661.732 456.109Z"/><path fill="#C9A67B" d="M720.051 467.6C725.113 465.962 730.084 464.055 734.942 461.887L735.024 657.832L734.893 714.334C734.9 723.323 734.11 733.211 735.43 742.07L735.521 764.32C731.977 762.167 728.048 760.15 724.748 757.659C725.875 717.61 724.523 677.841 723.515 637.813C721.949 581.084 720.794 524.345 720.051 467.6Z"/><path fill="#A9815C" d="M819.21 403.765C834.219 415.092 849.405 427.422 865.466 437.203L865.406 468.283C865.39 473.796 865.784 479.78 865.084 485.234L865.061 913.454L819.529 913.423L819.609 852.202C819.622 842.483 818.886 832.11 819.729 822.477L819.801 803.869C826.26 803.873 832.692 803.878 839.143 803.505C839.997 803.517 840.895 803.562 841.744 803.462C843.086 803.304 843.54 802.961 844.394 801.96C845.43 795.848 846.017 776.644 844.099 771.061C840.636 768.865 824.268 770.121 819.49 770.147L819.388 430.58C819.467 421.642 819.408 412.702 819.21 403.765Z"/><path fill="#764B2F" d="M819.21 403.765C834.219 415.092 849.405 427.422 865.466 437.203L865.406 468.283C865.39 473.796 865.784 479.78 865.084 485.234C864.669 478.325 864.934 471.3 864.972 464.375C860.281 460.579 855.022 457.275 850.148 453.687L819.388 430.58C819.467 421.642 819.408 412.702 819.21 403.765Z"/><path fill="#764B2F" d="M819.801 803.869C826.26 803.873 832.692 803.878 839.143 803.505C833.044 810.352 826.179 816.029 819.729 822.477L819.801 803.869Z"/><path fill="#A9815C" d="M463.203 152.178L469.314 156.842C477.271 162.878 485.359 169.214 492.386 176.327C489.251 179.623 485.478 182.324 481.766 184.937L146.262 444.503C142.087 447.713 106.431 475.528 103.742 476.048C97.7118 477.158 90.351 476.453 84.1826 476.461L45.4267 476.579L300.145 279.105C324.413 260.467 347.988 241.04 372.533 222.74C383.302 213.651 394.857 205.308 406.026 196.707L463.203 152.178Z"/><path fill="#EDCD99" d="M463.203 152.178L469.314 156.842C466.052 159.984 462.235 163.018 458.495 165.576L460.343 166.821C452.348 175.806 441.745 183.181 432.322 190.632L384.883 227.975C312.833 285.737 240.042 342.571 166.529 398.461C143.072 416.361 120.255 434.614 95.955 451.42C84.8216 459.121 73.2469 467.547 60.6162 472.621C59.2499 473.36 58.5477 474.049 57.5242 475.222L57.6571 475.829C67.1998 475.096 76.5568 475.661 86.1015 475.754C91.8397 475.81 98.0906 475.302 103.742 476.048C97.7118 477.158 90.351 476.453 84.1826 476.461L45.4267 476.579L300.145 279.105C324.413 260.467 347.988 241.04 372.533 222.74C383.302 213.651 394.857 205.308 406.026 196.707L463.203 152.178Z"/><path fill="#9F744C" d="M45.4267 476.579L300.145 279.105C324.413 260.467 347.988 241.04 372.533 222.74C373.378 224.615 374.658 225.654 375.786 227.284C335.879 259.127 294.929 289.59 254.514 320.775L166.465 390.025C131.096 417.298 93.6515 442.449 60.6162 472.621C59.2499 473.36 58.5477 474.049 57.5242 475.222L57.6571 475.829C67.1998 475.096 76.5568 475.661 86.1015 475.754C91.8397 475.81 98.0906 475.302 103.742 476.048C97.7118 477.158 90.351 476.453 84.1826 476.461L45.4267 476.579Z"/><path fill="#A9815C" d="M463.203 152.178L469.314 156.842C466.052 159.984 462.235 163.018 458.495 165.576C457.816 165.207 456.422 164.15 455.7 164.384C451.347 165.797 425.679 187.826 420.222 192.221C411.735 199.055 403.063 205.661 394.532 212.441C388.306 217.387 382.224 222.62 375.786 227.284C374.658 225.654 373.378 224.615 372.533 222.74C383.302 213.651 394.857 205.308 406.026 196.707L463.203 152.178Z"/><path fill="#9F744C" d="M469.314 156.842C477.271 162.878 485.359 169.214 492.386 176.327C489.251 179.623 485.478 182.324 481.766 184.937C476.525 180.407 465.962 169.266 460.343 166.821L458.495 165.576C462.235 163.018 466.052 159.984 469.314 156.842Z"/><path fill="#A9815C" d="M215.473 604.109L217.979 605.19C217.869 611.029 216.776 619.937 219.018 625.284C220.278 626.272 221.511 626.354 223.094 626.51C228.937 627.083 235.117 626.535 240.995 626.553C256.051 626.601 271.259 626.261 286.296 626.656C287.826 626.667 288.478 626.384 289.643 627.431C290.654 630.679 289.961 634.311 290.026 637.699C290.152 667.617 291.576 952.202 290.404 954.751L289.688 954.972C276.595 955.214 263.459 955.009 250.361 955.024C253.02 943.58 254.146 931.498 256.009 919.882L265.884 860.277C269.446 860.436 273.174 860.869 276.563 859.589C276.701 859.372 276.843 859.157 276.976 858.937C279.36 854.996 280.936 832.509 279.516 828.247C278.915 826.444 277.966 826.134 276.443 825.371C255.642 825.546 234.84 825.6 214.038 825.534L214.47 705.78C214.557 683.192 214.342 660.554 214.822 637.975C215.364 626.739 215.225 615.365 215.473 604.109Z"/><path fill="#C9A67B" d="M276.845 637.397L280.113 637.457L290.026 637.699C290.152 667.617 291.576 952.202 290.404 954.751L289.688 954.972C276.595 955.214 263.459 955.009 250.361 955.024C253.02 943.58 254.146 931.498 256.009 919.882L265.884 860.277C269.446 860.436 273.174 860.869 276.563 859.589C276.701 859.372 276.843 859.157 276.976 858.937C279.36 854.996 280.936 832.509 279.516 828.247C278.915 826.444 277.966 826.134 276.443 825.371C276.486 816.283 275.43 807.182 275.6 798.138C273.641 767.549 275.308 736.656 275.871 706.045C276.178 693.826 276.378 681.604 276.47 669.381C276.507 658.756 276.214 647.998 276.845 637.397Z"/><path fill="#A9815C" d="M265.884 860.277C269.446 860.436 273.174 860.869 276.563 859.589C280.14 885.187 281.345 911.188 284.286 936.894C284.823 941.587 284.826 950.045 286.379 954.174C287.519 954.627 288.485 954.802 289.688 954.972C276.595 955.214 263.459 955.009 250.361 955.024C253.02 943.58 254.146 931.498 256.009 919.882L265.884 860.277Z"/><path fill="#DEB76B" d="M276.845 637.397L280.113 637.457C281.182 644.894 280.927 652.8 281.165 660.33C282.243 695.154 281.586 730.01 279.198 764.768C278.446 775.528 278.192 787.653 275.6 798.138C273.641 767.549 275.308 736.656 275.871 706.045C276.178 693.826 276.378 681.604 276.47 669.381C276.507 658.756 276.214 647.998 276.845 637.397Z"/><path fill="#764B2F" d="M215.473 604.109L217.979 605.19C217.869 611.029 216.776 619.937 219.018 625.284C220.278 626.272 221.511 626.354 223.094 626.51C228.937 627.083 235.117 626.535 240.995 626.553C256.051 626.601 271.259 626.261 286.296 626.656C287.826 626.667 288.478 626.384 289.643 627.431C290.654 630.679 289.961 634.311 290.026 637.699L280.113 637.457L276.845 637.397L276.832 637.079C256.255 636.923 235.353 636.523 214.822 637.975C215.364 626.739 215.225 615.365 215.473 604.109Z"/><path fill="#9F744C" d="M286.296 626.656C287.826 626.667 288.478 626.384 289.643 627.431C290.654 630.679 289.961 634.311 290.026 637.699L280.113 637.457C279.656 633.987 279.686 630.341 279.491 626.836C281.781 627.433 284.029 627.189 286.296 626.656Z"/><path fill="#A9815C" d="M276.832 637.079C277.116 634.451 275.982 629.543 277.426 627.424C277.818 626.849 278.85 626.934 279.491 626.836C279.686 630.341 279.656 633.987 280.113 637.457L276.845 637.397L276.832 637.079Z"/><path fill="#A9815C" d="M561.435 150.852C577.337 162.529 593.15 174.327 608.873 186.244L809.856 341.18L915.045 420.834C927.488 430.228 939.858 439.719 952.155 449.304C957.262 453.279 962.687 457.072 967.592 461.27C971.025 462.551 980.862 470.985 984.631 473.723C966.734 473.526 948.835 473.976 930.936 473.981C910.309 459.929 890.772 444.341 870.648 429.591C798.157 376.458 726.847 321.802 654.825 268.055C626.408 246.848 598.111 225.634 569.242 205.035C560.106 198.516 551.169 191.665 541.838 185.43C538.077 182.827 534.561 179.969 531.02 177.081C538.349 170.262 546.521 162.038 554.991 156.784C557.158 154.836 559.396 152.934 561.435 150.852Z"/><path fill="#EDCD99" d="M561.435 150.852C577.337 162.529 593.15 174.327 608.873 186.244L809.856 341.18L915.045 420.834C927.488 430.228 939.858 439.719 952.155 449.304C957.262 453.279 962.687 457.072 967.592 461.27C964.19 461.433 960.56 458.53 957.545 456.954C943.761 449.747 931.75 442.738 918.918 433.891C883.193 409.262 848.783 382.256 814.23 356.018L654.503 234.1L604.181 195.505C588.819 183.642 573.687 171.657 557.787 160.499C556.755 159.335 555.895 158.049 554.991 156.784C557.158 154.836 559.396 152.934 561.435 150.852Z"/><path fill="#9F744C" d="M531.02 177.081C538.349 170.262 546.521 162.038 554.991 156.784C555.895 158.049 556.755 159.335 557.787 160.499C553.114 168.821 544.996 176.455 541.838 185.43C538.077 182.827 534.561 179.969 531.02 177.081Z"/><path fill="#A9815C" d="M160.608 444.48C169.168 436.801 178.765 429.972 187.861 422.936C195.146 417.3 202.393 411.016 210.093 406.02L210.016 437.81L209.072 655.792L209.038 756.976C208.98 779.808 209.064 802.722 208.172 825.541L199.855 825.546C197.94 805.415 191.717 788.118 175.762 774.848C171.394 771.214 166.418 767.994 161.118 765.906L160.918 485.152C160.251 480.345 160.566 475.152 160.566 470.296L160.608 444.48Z"/><path fill="#DEB76B" d="M206.403 441.147C205.549 455.102 206.49 469.553 206.51 483.554L206.099 561.625L205.372 620.369C205.252 631.239 205.445 642.103 205.176 652.973C204.554 678.077 203.175 703.159 202.943 728.272C202.502 732.075 203.149 745.591 201.656 747.909C199.581 727.17 199.001 706.46 198.408 685.636C197.426 655.128 197.284 624.598 197.981 594.082L201.683 487.853C202.185 473.211 202.903 458.625 203.028 443.97L206.403 441.147Z"/><path fill="#764B2F" d="M160.608 444.48C169.168 436.801 178.765 429.972 187.861 422.936C195.146 417.3 202.393 411.016 210.093 406.02L210.016 437.81C208.927 438.798 207.224 439.973 206.403 441.147L203.028 443.97C188.841 454.529 174.381 464.968 161.033 476.595C161.035 479.421 161.192 482.341 160.918 485.152C160.251 480.345 160.566 475.152 160.566 470.296L160.608 444.48Z"/><path fill="#C9A67B" d="M201.656 747.909C203.149 745.591 202.502 732.075 202.943 728.272C203.365 737.885 203.597 748.39 202.664 757.963C202.26 754.727 201.536 751.171 201.656 747.909Z"/><path fill="#DE8D32" d="M371.426 438.916C371.364 437.203 371.074 435.437 371.902 433.876C378.622 432.587 394.031 433.632 401.76 433.553L401.664 439.513L401.561 586.294C401.583 609.221 402.225 632.215 401.947 655.131C401.939 655.792 401.854 656.13 401.521 656.695C400.432 657.058 399.532 657.1 398.388 657.119C394.88 656.923 391.772 657.094 388.311 657.836L388.43 698.401C388.442 706.297 387.901 714.886 389.181 722.672C389.355 723.734 389.637 724.41 390.44 725.188C390.955 725.687 391.515 726.035 392.145 726.356C395.312 726.151 398.449 726.112 401.622 726.125L401.519 737.031L401.541 737.452C402.099 765.975 401.874 794.551 401.926 823.08L402.175 955.343C394.668 955.74 387.064 955.483 379.545 955.452L371.486 955.417L371.426 438.916Z"/><path fill="#8A5127" d="M371.426 438.916C371.364 437.203 371.074 435.437 371.902 433.876C378.622 432.587 394.031 433.632 401.76 433.553L401.664 439.513L396.035 439.388C391.81 439.558 387.607 439.508 383.381 439.436C383.53 448.952 383.457 458.47 383.163 467.983C382.966 473.971 382.355 479.994 382.43 485.978C384.757 593.693 385.439 701.438 384.475 809.174C384.109 843.219 381.226 877.197 380.419 911.232C380.25 918.379 378.6 927.654 379.772 934.546C379.684 936.349 379.671 937.717 380.211 939.449C378.346 942.896 379.447 951.277 379.545 955.452L371.486 955.417L371.426 438.916Z"/><path fill="#764B2F" d="M371.426 438.916C371.364 437.203 371.074 435.437 371.902 433.876C378.622 432.587 394.031 433.632 401.76 433.553L401.664 439.513L396.035 439.388C391.304 437.981 377.194 438.898 371.426 438.916Z"/><path fill="#F7AC3A" d="M397.523 933.906C399.174 924.11 398.119 906.337 398.119 895.528C398.365 865.374 398.324 835.218 397.997 805.065C397.82 793.391 397.035 781.721 396.831 770.033C396.733 764.454 395.419 740.509 396.772 737.787C398.172 736.929 399.968 737.339 401.541 737.452C402.099 765.975 401.874 794.551 401.926 823.08L402.175 955.343C394.668 955.74 387.064 955.483 379.545 955.452C379.447 951.277 378.346 942.896 380.211 939.449C379.671 937.717 379.684 936.349 379.772 934.546C381.094 931.582 382.642 929.227 385.732 927.894C387.828 926.99 390.138 926.922 392.257 927.798C395.12 928.982 396.306 931.213 397.523 933.906Z"/><path d="M379.772 934.546C381.094 931.582 382.642 929.227 385.732 927.894C387.828 926.99 390.138 926.922 392.257 927.798C395.12 928.982 396.306 931.213 397.523 933.906L397.569 938.379C397.599 938.52 397.633 938.659 397.66 938.801C398.634 943.782 397.82 949.651 397.539 954.731C399.093 955.192 400.562 955.261 402.175 955.343C394.668 955.74 387.064 955.483 379.545 955.452C379.447 951.277 378.346 942.896 380.211 939.449C379.671 937.717 379.684 936.349 379.772 934.546Z"/><path fill="#E87F21" d="M397.569 938.379C397.599 938.52 397.633 938.659 397.66 938.801C398.634 943.782 397.82 949.651 397.539 954.731C399.093 955.192 400.562 955.261 402.175 955.343C394.668 955.74 387.064 955.483 379.545 955.452C379.447 951.277 378.346 942.896 380.211 939.449C381.533 942.294 383.029 944.712 386.054 945.969C388.065 946.804 390.2 946.73 392.161 945.796C395.347 944.279 396.443 941.499 397.569 938.379Z"/><path fill="#F7AC3A" d="M396.035 439.388L401.664 439.513L401.561 586.294C401.583 609.221 402.225 632.215 401.947 655.131C401.939 655.792 401.854 656.13 401.521 656.695C400.432 657.058 399.532 657.1 398.388 657.119L396.996 656.48C396.546 655.831 396.396 655.431 396.384 654.633C395.539 599.909 397.477 545.111 395.985 490.381C398.092 488.324 399.554 485.614 399.582 482.62C399.613 479.316 398.091 477.004 395.931 474.658C396.205 462.903 396.24 451.144 396.035 439.388Z"/><path d="M395.985 490.381C393.559 491.471 390.829 492.034 388.267 491.015C386.383 490.265 385.036 488.674 384.293 486.819C383.215 484.129 383.361 480.952 384.521 478.312C385.442 476.218 387.036 474.435 389.259 473.729C391.67 472.964 393.734 473.625 395.931 474.658C398.091 477.004 399.613 479.316 399.582 482.62C399.554 485.614 398.092 488.324 395.985 490.381Z"/><path fill="#C67529" d="M389.997 477.245C391.732 477.255 392.741 477.371 394.081 478.557C395.17 479.52 395.665 480.921 395.669 482.347C395.675 484.591 394.864 485.761 393.335 487.316C392.041 487.271 390.59 487.275 389.416 486.652C388.353 486.087 387.517 485.029 387.296 483.837C386.805 481.193 388.393 479.123 389.997 477.245Z"/><path fill="#AF5F1F" d="M392.145 726.356C395.312 726.151 398.449 726.112 401.622 726.125L401.519 737.031C398.186 736.886 394.781 737.822 391.985 735.535C390.338 732.564 391.481 729.469 392.145 726.356Z"/><path fill="#C67529" d="M627.976 439.462C627.994 437.915 627.662 435.538 628.595 434.259C634.067 433.48 640.433 434.068 645.952 434.394C648.298 434.395 651.615 433.899 653.632 435.052C654.42 436.211 654.306 437.409 654.335 438.754C655.068 516.888 655.31 595.025 655.06 673.162L655.008 754.687C654.981 767.998 655.264 781.409 654.882 794.71C655.408 829.615 654.839 864.597 654.909 899.514C654.934 911.871 654.631 924.337 655.062 936.679L655.062 955.58L647.778 955.475L630.25 955.371L630.329 578.333C630.14 548.535 629.499 518.688 628.844 488.895C628.481 472.4 627.866 455.965 627.976 439.462Z"/><defs><linearGradient id="gradient_1" gradientUnits="userSpaceOnUse" x1="656.80615" y1="684.29077" x2="643.29669" y2="684.13586"><stop offset="0" stop-color="#E38928"/><stop offset="1" stop-color="#F8BC51"/></linearGradient></defs><path fill="url(#gradient_1)" d="M645.952 434.394C648.298 434.395 651.615 433.899 653.632 435.052C654.42 436.211 654.306 437.409 654.335 438.754C655.068 516.888 655.31 595.025 655.06 673.162L655.008 754.687C654.981 767.998 655.264 781.409 654.882 794.71C655.408 829.615 654.839 864.597 654.909 899.514C654.934 911.871 654.631 924.337 655.062 936.679L653.886 936.929C654.066 934.805 654.137 932.663 654.254 930.534L652.106 927.305L651.014 926.372L648.646 924.804C646.184 914.832 646.784 903.933 646.688 893.71L646.569 852.869C646.346 805.912 646.373 758.953 646.651 711.996C646.771 700.998 646.996 690.002 647.326 679.009C647.719 669.028 648.47 659.069 648.539 649.076C648.588 609.996 647.976 570.918 646.705 531.859C646.339 518.409 645.06 504.896 645.06 491.457C646.328 490.361 647.346 489.133 647.932 487.535C648.903 484.893 648.047 482.687 647.01 480.222C647.084 466.532 646.172 452.778 645.957 439.077L645.952 434.394Z"/><path fill="#AF5F1F" d="M654.254 930.534C655.429 923.417 654.388 906.168 654.369 897.733L654.362 822.971C654.347 814.888 653.171 802.176 654.882 794.71C655.408 829.615 654.839 864.597 654.909 899.514C654.934 911.871 654.631 924.337 655.062 936.679L653.886 936.929C654.066 934.805 654.137 932.663 654.254 930.534Z"/><path fill="#C67529" d="M650.988 884.648C653.488 896.812 652.053 914.479 652.106 927.305L651.014 926.372L650.988 884.648Z"/><path fill="#9F744C" d="M645.952 434.394C648.298 434.395 651.615 433.899 653.632 435.052C654.42 436.211 654.306 437.409 654.335 438.754C651.55 438.355 648.741 438.802 645.957 439.077L645.952 434.394Z"/><path d="M647.972 942.864C646.281 942.675 644.676 942.417 643.195 941.52C641.195 940.308 639.844 938.227 639.419 935.942C638.944 933.38 639.672 930.775 641.234 928.717C643.175 926.159 645.553 925.182 648.646 924.804L651.014 926.372L652.106 927.305L654.254 930.534C654.137 932.663 654.066 934.805 653.886 936.929C652.522 940.207 651.182 941.399 647.972 942.864Z"/><path fill="#638EAF" d="M646.001 930.883C646.956 930.504 648.041 930.678 648.829 931.335C649.618 931.992 649.985 933.027 649.785 934.035C649.586 935.042 648.851 935.859 647.871 936.165C646.432 936.615 644.895 935.846 644.392 934.425C643.889 933.003 644.6 931.439 646.001 930.883Z"/><path d="M645.06 491.457C642.34 491.96 639.457 492.071 637.098 490.39C635.515 489.262 634.594 487.514 634.426 485.59C634.23 483.34 634.989 481.012 636.541 479.36C637.712 478.115 639.248 477.322 640.972 477.295C643.642 477.253 645.148 478.466 647.01 480.222C648.047 482.687 648.903 484.893 647.932 487.535C647.346 489.133 646.328 490.361 645.06 491.457Z"/><path fill="#DE8D32" d="M653.886 936.929L655.062 936.679L655.062 955.58L647.778 955.475L647.972 942.864C651.182 941.399 652.522 940.207 653.886 936.929Z"/><path fill="#412A20" d="M627.976 439.462C627.994 437.915 627.662 435.538 628.595 434.259C634.067 433.48 640.433 434.068 645.952 434.394L645.957 439.077C639.982 439.547 633.966 439.44 627.976 439.462Z"/><path fill="#A9815C" d="M661.581 789.894C672.869 796.651 697.907 816.97 707.839 820.294C709.269 820.772 710.902 821.17 712.411 820.897C719.591 819.599 728.707 812.084 735.447 808.571C734.932 829.422 735.494 850.381 735.42 871.252C735.391 879.225 735.587 887.299 735.084 895.254L735.017 933.928C735.016 940.7 735.529 947.95 734.781 954.665C733.431 955.453 732.05 955.223 730.55 955.158L723.505 955.134L681.754 955.091C675.39 955.838 668.447 955.321 662.015 955.319L661.581 789.894Z"/><path fill="#764B2F" d="M661.581 789.894C672.869 796.651 697.907 816.97 707.839 820.294C709.269 820.772 710.902 821.17 712.411 820.897C719.591 819.599 728.707 812.084 735.447 808.571C734.932 829.422 735.494 850.381 735.42 871.252C735.391 879.225 735.587 887.299 735.084 895.254C734.524 887.949 734.9 880.353 734.916 873.021L735.039 833.446C732.976 833.564 731.009 833.773 729.018 833.082C728.856 833.026 728.696 832.96 728.535 832.902C728.095 832.742 727.654 832.586 727.226 832.399L726.354 832.011L725.651 833.893L675.41 838.422L675.555 917.158C675.574 927.896 674.671 944.149 675.891 954.42C677.627 955.213 679.867 955.032 681.754 955.091C675.39 955.838 668.447 955.321 662.015 955.319L661.581 789.894Z"/><path fill="#DEB76B" d="M725.651 833.893L726.354 832.011L727.226 832.399C727.654 832.586 728.095 832.742 728.535 832.902C728.696 832.96 728.856 833.026 729.018 833.082C731.009 833.773 732.976 833.564 735.039 833.446L734.916 873.021C734.9 880.353 734.524 887.949 735.084 895.254L735.017 933.928C735.016 940.7 735.529 947.95 734.781 954.665C733.431 955.453 732.05 955.223 730.55 955.158L723.505 955.134C722.88 926.351 723.807 897.753 724.762 868.991C725.149 857.34 724.64 845.492 725.651 833.893Z"/><path fill="#A9815C" d="M725.651 833.893L726.354 832.011L727.226 832.399C727.654 832.586 728.095 832.742 728.535 832.902C728.696 832.96 728.856 833.026 729.018 833.082C731.009 833.773 732.976 833.564 735.039 833.446L734.916 873.021C734.9 880.353 734.524 887.949 735.084 895.254L735.017 933.928C735.016 940.7 735.529 947.95 734.781 954.665C733.431 955.453 732.05 955.223 730.55 955.158C730.488 947.843 729.928 940.558 729.675 933.25C729.338 920.619 729.196 907.984 729.247 895.348L729.749 858.677C729.869 850.882 730.568 842.229 729.38 834.571C728.206 833.724 727.069 833.952 725.651 833.893Z"/><path fill="#A9815C" d="M743.949 803.897C767.548 804.112 791.149 804.039 814.746 803.678L814.969 856.251C814.998 865.361 815.417 874.672 814.902 883.764L814.998 913.489L805.592 913.475C804.008 914.637 802.949 916.027 801.746 917.567C799.314 921.951 795.141 926.292 792.028 930.266C785.521 938.549 779.067 946.873 772.665 955.238C761.729 955.545 750.73 955.381 739.788 955.398L739.915 833.081L739.991 807.105C741.273 805.997 742.531 804.831 743.949 803.897Z"/><path fill="#764B2F" d="M743.949 803.897C767.548 804.112 791.149 804.039 814.746 803.678L814.969 856.251C814.998 865.361 815.417 874.672 814.902 883.764C813.875 876.906 814.462 869.252 814.454 862.293L814.451 822.384L806.067 824.215C803.887 824.701 801.716 825.195 799.512 825.563C779.828 828.997 759.764 830.808 739.915 833.081L739.991 807.105C741.273 805.997 742.531 804.831 743.949 803.897Z"/><path fill="#A9815C" d="M806.067 824.215L814.451 822.384L814.454 862.293C814.462 869.252 813.875 876.906 814.902 883.764L814.998 913.489L805.592 913.475C806.382 913.073 805.961 913.356 806.771 912.515C807.576 907.1 807.05 901.105 806.968 895.608L806.194 860.011C805.974 848.16 806.864 836.013 806.067 824.215Z"/><path fill="#DEB76B" d="M799.512 825.563C801.716 825.195 803.887 824.701 806.067 824.215C806.864 836.013 805.974 848.16 806.194 860.011L806.968 895.608C807.05 901.105 807.576 907.1 806.771 912.515C805.961 913.356 806.382 913.073 805.592 913.475C804.008 914.637 802.949 916.027 801.746 917.567C800.744 911.151 801.517 903.706 801.526 897.164C801.634 880.849 801.488 864.534 801.089 848.224C800.868 840.854 801.052 832.79 799.512 825.563Z"/><path d="M340.371 461.416L345.305 461.018C344.305 477.682 345.116 494.809 345.122 511.526L345.07 598.73C345.103 600.286 345.392 602.037 344.557 603.413C334.87 604.287 324.568 603.592 314.819 603.559C302.986 603.519 290.949 603.989 279.147 603.411C262.219 602.414 244.942 603.059 227.987 603.11C227.256 558.025 225.098 512.912 224.458 467.827L224.423 461.703C226.146 463.398 227.686 465.288 229.267 467.114C230.679 468.689 232.08 470.273 233.47 471.867C234.29 489.678 235.532 507.931 235.113 525.739C235.265 527.715 235.397 529.693 235.507 531.672C239.236 531.557 242.979 531.373 246.708 531.543C259.362 531.495 272.293 532.041 284.909 531.338L285.644 530.478C286.807 530.775 287.87 530.921 288.72 531.837L289.034 531.612C304.515 531.047 320.605 531.143 336.09 531.818C337.133 529.869 336.757 474.558 336.806 466.511C329.633 466.602 322.458 466.572 315.286 466.421C320.241 465.806 334.593 467.308 338.059 465.076C339.226 464.325 339.579 464.274 340.989 464.296L340.371 461.416Z"/><defs><linearGradient id="gradient_2" gradientUnits="userSpaceOnUse" x1="269.61121" y1="533.07141" x2="221.7769" y2="538.23645"><stop offset="0" stop-color="#E16E1B"/><stop offset="1" stop-color="#A65A27"/></linearGradient></defs><path fill="url(#gradient_2)" d="M224.423 461.703C226.146 463.398 227.686 465.288 229.267 467.114C230.679 468.689 232.08 470.273 233.47 471.867C234.29 489.678 235.532 507.931 235.113 525.739C235.265 527.715 235.397 529.693 235.507 531.672C239.236 531.557 242.979 531.373 246.708 531.543C259.362 531.495 272.293 532.041 284.909 531.338L285.644 530.478C286.807 530.775 287.87 530.921 288.72 531.837L288.311 533.514C288.011 534.39 287.687 535.255 287.469 536.156L286.948 537.393L285.922 537.765L283.427 538.105C279.203 538.219 274.977 538.222 270.752 538.114C263.168 538.561 241.024 537.521 235.753 538.795C235.455 540.185 235.376 541.348 235.382 542.772C236.157 555.033 236.652 567.609 236.563 579.903C237.299 585.633 237.034 591.673 237.041 597.453L261.762 597.354C265.615 597.345 269.868 597.001 273.677 597.461L276.058 598.108C276.106 598.219 276.138 598.338 276.2 598.441C276.323 598.644 276.479 598.825 276.61 599.022C277.58 600.478 278.024 602.024 279.147 603.411C262.219 602.414 244.942 603.059 227.987 603.11C227.256 558.025 225.098 512.912 224.458 467.827L224.423 461.703Z"/><path fill="#E87F21" d="M232.036 524.396C232.079 524.586 232.123 524.775 232.164 524.966C232.895 528.381 232.637 531.796 233.336 535.204C233.544 534.732 233.741 534.255 233.941 533.78C234.041 533.541 234.164 533.312 234.245 533.067C234.996 530.806 234.618 528.116 235.113 525.739C235.265 527.715 235.397 529.693 235.507 531.672C239.236 531.557 242.979 531.373 246.708 531.543C259.362 531.495 272.293 532.041 284.909 531.338L285.644 530.478C286.807 530.775 287.87 530.921 288.72 531.837L288.311 533.514C288.011 534.39 287.687 535.255 287.469 536.156L286.948 537.393L285.922 537.765L283.427 538.105C279.203 538.219 274.977 538.222 270.752 538.114C264.513 537.422 257.84 537.95 251.541 537.883C246.368 537.828 241.063 537.229 235.907 537.571L232.829 537.754L233.5 536.403L232.775 536.031C231.401 533.794 231.97 527.236 232.036 524.396Z"/><path fill="#F7AC3A" d="M246.708 531.543C259.362 531.495 272.293 532.041 284.909 531.338L284.811 532.703C284.468 534.159 284.653 534.491 283.402 535.274C276.017 535.415 255.907 535.467 249.645 533.594L246.708 531.543Z"/><path fill="#DE8D32" d="M232.036 524.396C232.079 524.586 232.123 524.775 232.164 524.966C232.895 528.381 232.637 531.796 233.336 535.204C233.544 534.732 233.741 534.255 233.941 533.78C234.041 533.541 234.164 533.312 234.245 533.067C234.996 530.806 234.618 528.116 235.113 525.739C235.265 527.715 235.397 529.693 235.507 531.672C239.236 531.557 242.979 531.373 246.708 531.543L249.645 533.594C249.802 533.859 249.908 534.162 250.117 534.388C250.277 534.563 251.126 535.012 251.355 535.139L251.346 535.861C245.815 536.414 238.682 534.774 233.5 536.403L232.775 536.031C231.401 533.794 231.97 527.236 232.036 524.396Z"/><path fill="#8A5127" d="M285.644 530.478C286.807 530.775 287.87 530.921 288.72 531.837L288.311 533.514C288.011 534.39 287.687 535.255 287.469 536.156C287.114 536.033 286.515 535.839 286.2 535.663C284.919 534.951 285.063 534.014 284.811 532.703L284.909 531.338L285.644 530.478Z"/><path fill="#F7AC3A" d="M229.267 467.114C230.679 468.689 232.08 470.273 233.47 471.867C234.29 489.678 235.532 507.931 235.113 525.739C234.618 528.116 234.996 530.806 234.245 533.067C234.164 533.312 234.041 533.541 233.941 533.78C233.741 534.255 233.544 534.732 233.336 535.204C232.637 531.796 232.895 528.381 232.164 524.966C232.123 524.775 232.079 524.586 232.036 524.396C231.768 514.333 230.981 504.261 230.531 494.2C230.153 485.76 230.424 476.607 228.832 468.325L229.267 467.114Z"/><path fill="#F7AC3A" d="M236.563 579.903C236.152 585.422 236.797 590.926 236.123 596.446L235.742 596.61C234.76 591.459 234.62 585.969 234.299 580.738C233.642 570.002 233.314 559.258 232.549 548.529C232.339 545.582 231.596 540.828 233.609 538.506L234.627 538.648C235.07 540 235.207 541.367 235.382 542.772C236.157 555.033 236.652 567.609 236.563 579.903Z"/><path fill="#DE8D32" d="M224.423 461.703C226.146 463.398 227.686 465.288 229.267 467.114L228.832 468.325C227.26 467.428 226.215 467.617 224.458 467.827L224.423 461.703Z"/><path fill="#AF5F1F" d="M340.371 461.416L345.305 461.018C344.305 477.682 345.116 494.809 345.122 511.526L345.07 598.73C344.075 598.596 343.062 598.604 342.059 598.571C341.031 598.699 340.072 598.758 339.036 598.737C338.724 596.694 337.569 595.067 336.534 593.317C336.442 575.042 336.725 556.719 336.194 538.454C318.81 538.705 300.749 539.235 283.427 538.105L285.922 537.765L286.948 537.393L287.469 536.156C287.687 535.255 288.011 534.39 288.311 533.514L288.72 531.837L289.034 531.612C304.515 531.047 320.605 531.143 336.09 531.818C337.133 529.869 336.757 474.558 336.806 466.511C329.633 466.602 322.458 466.572 315.286 466.421C320.241 465.806 334.593 467.308 338.059 465.076C339.226 464.325 339.579 464.274 340.989 464.296L340.371 461.416Z"/><path fill="#DE8D32" d="M340.371 461.416L345.305 461.018C344.305 477.682 345.116 494.809 345.122 511.526L345.07 598.73C344.075 598.596 343.062 598.604 342.059 598.571C342.008 571.965 341.14 545.368 341.279 518.756L341.461 483.013C341.474 476.946 342.036 470.262 340.989 464.296L340.371 461.416Z"/><path fill="#DE8D32" d="M289.034 531.612C304.515 531.047 320.605 531.143 336.09 531.818L335.913 534.653L335.816 537.224C334.183 538.65 291.049 538.11 285.922 537.765L286.948 537.393L287.469 536.156C287.687 535.255 288.011 534.39 288.311 533.514L288.72 531.837L289.034 531.612Z"/><path fill="#F3E46D" d="M289.034 531.612C304.515 531.047 320.605 531.143 336.09 531.818L335.913 534.653C322.154 534.182 302.658 532.73 289.426 534.352C289.22 534.377 289.013 534.407 288.807 534.435L288.311 533.514L288.72 531.837L289.034 531.612Z"/><path fill="#C67529" d="M283.715 596.509C283.864 596.684 283.986 596.888 284.163 597.036C285.207 597.905 286.33 598.07 287.565 597.812C290.533 594.256 288.224 585.632 289.14 581.16C289.205 580.844 289.28 580.531 289.351 580.216C289.411 586.027 289.397 591.839 289.309 597.65C302.853 597.559 316.616 597.004 330.141 597.591C333.184 597.723 336.056 598.55 339.036 598.737C340.072 598.758 341.031 598.699 342.059 598.571C343.062 598.604 344.075 598.596 345.07 598.73C345.103 600.286 345.392 602.037 344.557 603.413C334.87 604.287 324.568 603.592 314.819 603.559C302.986 603.519 290.949 603.989 279.147 603.411C278.024 602.024 277.58 600.478 276.61 599.022C276.479 598.825 276.323 598.644 276.2 598.441C276.138 598.338 276.106 598.219 276.058 598.108L273.677 597.461C276.308 597.459 281.59 598.012 283.715 596.509Z"/><path fill="#F7AC3A" d="M283.715 596.509C285.854 585.971 284.666 568.359 284.55 557.149C284.516 553.886 284.039 550.02 284.485 546.828C284.673 545.483 285.287 545.047 286.308 544.273C287.603 544.161 287.796 544.114 288.93 544.718C290.512 553.948 289.4 570.348 289.351 580.216C289.28 580.531 289.205 580.844 289.14 581.16C288.224 585.632 290.533 594.256 287.565 597.812C286.33 598.07 285.207 597.905 284.163 597.036C283.986 596.888 283.864 596.684 283.715 596.509Z"/><path fill="#8DDBEE" d="M241.01 544.121L278.504 544.137L278.536 570.365L278.479 591.758C266.478 591.658 254.476 591.676 242.475 591.812C241.94 581.353 241.505 570.889 241.169 560.421C241.002 554.989 240.949 549.555 241.01 544.121Z"/><path fill="#AFEAF6" d="M241.01 544.121L278.504 544.137L278.536 570.365C266.308 568.213 252.702 565.028 241.169 560.421C241.002 554.989 240.949 549.555 241.01 544.121Z"/><path fill="#8DDBEE" d="M294.517 544.086C306.548 544.037 318.579 544.074 330.609 544.199L330.743 591.856L294.559 591.681L294.517 544.086Z"/><path fill="#A9815C" d="M589.412 231.443C598.893 237.782 607.869 244.911 617.029 251.701L658.393 282.295C658.398 292.221 658.07 302.271 658.595 312.18C659.09 324.02 658.561 336.034 658.529 347.894C658.492 361.606 658.876 375.46 658.261 389.154L645.065 389.097L589.983 389.117C589.24 371.159 589.524 353.111 589.443 335.139L589.077 268.176C588.652 256.025 589.441 243.64 589.412 231.443Z"/><path fill="#764B2F" d="M589.412 231.443C598.893 237.782 607.869 244.911 617.029 251.701L658.393 282.295C658.398 292.221 658.07 302.271 658.595 312.18C654.446 308.158 649.622 304.699 645.089 301.117C627.324 286.188 607.363 273.74 589.461 258.929C589.442 262.031 589.329 265.083 589.077 268.176C588.652 256.025 589.441 243.64 589.412 231.443Z"/><path fill="#DEB76B" d="M645.089 301.117C649.622 304.699 654.446 308.158 658.595 312.18C659.09 324.02 658.561 336.034 658.529 347.894C658.492 361.606 658.876 375.46 658.261 389.154L645.065 389.097C645.572 359.772 645.58 330.442 645.089 301.117Z"/><path fill="#AF5F1F" d="M372.487 396.492L657.895 396.318L657.747 402.458L657.663 420.064L657.597 426.868C562.046 426.285 466.492 426.326 370.941 426.993L370.914 416.334C370.832 411.456 369.774 401.149 371.333 396.913L372.487 396.492Z"/><path fill="#F7AC3A" d="M372.487 396.492L657.895 396.318L657.747 402.458C650.466 402.579 596.23 401.036 592.886 403.206C591.618 402.841 590.279 402.801 588.992 403.088C584.478 401.693 438.228 401.047 431.981 402.818C431.171 402.674 430.344 402.658 429.529 402.771C426.837 403.144 424.53 404.883 423.43 407.368C422.33 409.853 422.595 412.73 424.129 414.973C421.653 416.313 378.032 416.051 370.914 416.334C370.832 411.456 369.774 401.149 371.333 396.913L372.487 396.492Z"/><path fill="#DE8D32" d="M370.914 416.334C370.832 411.456 369.774 401.149 371.333 396.913L372.487 396.492C372.838 398.334 373.16 400.187 373.618 402.005C382.792 402.023 424.328 401.08 429.529 402.771C426.837 403.144 424.53 404.883 423.43 407.368C422.33 409.853 422.595 412.73 424.129 414.973C421.653 416.313 378.032 416.051 370.914 416.334Z"/><path fill="#DE8D32" d="M431.981 402.818C438.228 401.047 584.478 401.693 588.992 403.088C586.415 403.662 584.296 405.488 583.346 407.951C582.397 410.415 582.742 413.19 584.267 415.346C579.903 417.167 502.041 414.96 488.927 414.945C471.562 414.927 454.148 415.524 436.8 415.36C435.262 417.338 432.871 418.463 430.366 418.386C427.861 418.31 425.544 417.041 424.129 414.973C422.595 412.73 422.33 409.853 423.43 407.368C424.53 404.883 426.837 403.144 429.529 402.771C430.344 402.658 431.171 402.674 431.981 402.818Z"/><path d="M431.981 402.818C434.688 403.3 436.944 405.163 437.93 407.729C438.916 410.295 438.487 413.19 436.8 415.36C435.262 417.338 432.871 418.463 430.366 418.386C427.861 418.31 425.544 417.041 424.129 414.973C422.595 412.73 422.33 409.853 423.43 407.368C424.53 404.883 426.837 403.144 429.529 402.771C430.344 402.658 431.171 402.674 431.981 402.818Z"/><path fill="#8A5127" d="M429.413 406.592C431.805 405.799 434.388 407.095 435.181 409.487C435.974 411.879 434.677 414.461 432.285 415.254C429.893 416.046 427.312 414.75 426.519 412.359C425.726 409.967 427.022 407.386 429.413 406.592Z"/><path fill="#DE8D32" d="M592.886 403.206C596.23 401.036 650.466 402.579 657.747 402.458L657.663 420.064C647.276 418.942 636.846 418.263 626.401 418.028C616.378 417.787 605.973 418.216 596.069 416.578C594.402 418.122 592.15 418.872 589.889 418.636C587.629 418.4 585.58 417.201 584.267 415.346C582.742 413.19 582.397 410.415 583.346 407.951C584.296 405.488 586.415 403.662 588.992 403.088C590.279 402.801 591.618 402.841 592.886 403.206Z"/><path d="M588.992 403.088C590.279 402.801 591.618 402.841 592.886 403.206C595.623 403.992 597.724 406.192 598.384 408.962C599.043 411.732 598.159 414.643 596.069 416.578C594.402 418.122 592.15 418.872 589.889 418.636C587.629 418.4 585.58 417.201 584.267 415.346C582.742 413.19 582.397 410.415 583.346 407.951C584.296 405.488 586.415 403.662 588.992 403.088Z"/><path fill="#AF5F1F" d="M590.016 407.075C591.881 406.485 593.876 407.493 594.508 409.344C595.14 411.196 594.178 413.213 592.341 413.887C591.115 414.336 589.742 414.087 588.753 413.235C587.764 412.383 587.313 411.063 587.575 409.784C587.837 408.505 588.771 407.469 590.016 407.075Z"/><path fill="#A9815C" d="M368.537 283.937C378.333 276.981 387.506 269.083 397.007 261.724C409.222 252.265 421.885 243.134 433.773 233.282C433.388 270.301 434.048 307.393 433.997 344.426L433.935 372.588C433.935 377.828 434.352 383.355 433.69 388.546L421 388.537C403.626 388.548 385.738 387.715 368.443 389.111C368.559 365.519 368.218 341.913 368.581 318.325C368.507 306.863 368.492 295.4 368.537 283.937Z"/><path fill="#764B2F" d="M368.537 283.937C378.333 276.981 387.506 269.083 397.007 261.724C409.222 252.265 421.885 243.134 433.773 233.282C433.388 270.301 434.048 307.393 433.997 344.426L433.935 372.588C433.935 377.828 434.352 383.355 433.69 388.546L421 388.537C421.173 352.195 421.024 315.852 420.555 279.513C409.545 287.414 398.587 295.389 387.684 303.438C381.369 308.071 373.99 312.676 368.581 318.325C368.507 306.863 368.492 295.4 368.537 283.937Z"/><path fill="#DEB76B" d="M420.555 279.513C424.904 276.107 429.279 272.735 433.679 269.396L433.499 350.255L433.438 373.991C433.426 378.768 433.137 383.811 433.69 388.546L421 388.537C421.173 352.195 421.024 315.852 420.555 279.513Z"/><defs><linearGradient id="gradient_3" gradientUnits="userSpaceOnUse" x1="281.88449" y1="575.79871" x2="211.61629" y2="418.82001"><stop offset="0" stop-color="#8E5F3C"/><stop offset="1" stop-color="#AC8C66"/></linearGradient></defs><path fill="url(#gradient_3)" d="M215.258 402.188C231.413 390.924 246.181 378.163 261.511 365.862C271.065 358.196 281.154 351.085 290.885 343.629C290.47 355.167 291.367 366.83 290.626 378.325L290.473 452.02L276.934 452.009C268.106 451.995 223.443 450.901 218.518 452.813C216.119 459.804 218.204 481.823 218.49 490.218L221.22 574.402C221.432 583.019 222.291 591.843 222.19 600.433C222.173 601.91 222.198 602.885 221.428 604.134C220.269 604.563 219.191 604.927 217.979 605.19L215.473 604.109L215.624 492.776C215.538 473.694 214.613 454.36 215.236 435.301C215.583 424.305 215.239 413.196 215.258 402.188Z"/><path fill="#764B2F" d="M215.258 402.188C231.413 390.924 246.181 378.163 261.511 365.862C271.065 358.196 281.154 351.085 290.885 343.629C290.47 355.167 291.367 366.83 290.626 378.325C286.216 381.53 281.923 384.788 277.728 388.273C255.892 402.623 235.778 419.238 215.236 435.301C215.583 424.305 215.239 413.196 215.258 402.188Z"/><path fill="#DEB76B" d="M277.728 388.273C281.923 384.788 286.216 381.53 290.626 378.325L290.473 452.02L276.934 452.009C277.61 430.76 277.037 409.503 277.728 388.273Z"/><path fill="#DEB76B" d="M407.778 726.349L436.634 726.276L436.567 737.428L436.626 954.867L409.258 954.934C408.355 919.098 408.588 883.147 408.512 847.295C408.46 822.492 407.847 797.54 408.409 772.753C407.933 767.273 408.2 761.593 408.168 756.089C408.137 746.174 408.007 736.26 407.778 726.349Z"/><path fill="#AF5F1F" d="M407.778 726.349L436.634 726.276L436.567 737.428C427.183 737.452 417.8 737.531 408.418 737.663C408.649 749.264 409.072 761.171 408.409 772.753C407.933 767.273 408.2 761.593 408.168 756.089C408.137 746.174 408.007 736.26 407.778 726.349Z"/><path fill="#DEB76B" d="M408.012 433.429L433.935 433.483C434.099 435.645 434.189 437.84 434.436 439.992C435.462 465.588 434.947 491.453 435.188 517.09L436.215 656.975L408.496 657.011L407.898 439.918L408.012 433.429Z"/><path fill="#764B2F" d="M408.012 433.429L433.935 433.483C434.099 435.645 434.189 437.84 434.436 439.992C425.629 439.661 416.717 439.93 407.898 439.918L408.012 433.429Z"/><path fill="#A9815C" d="M663.148 286.692C687.083 303.813 710.682 321.398 733.933 339.437C733.435 348.945 733.738 358.578 733.736 368.101C734.156 377.427 733.968 386.804 734.004 396.14C728.549 394.921 723.114 393.714 717.597 392.799C708.612 391.475 699.566 390.092 690.491 389.606C681.411 389.119 672.313 389.497 663.228 389.231C662.013 381.816 662.987 367.934 662.994 359.902C663.015 335.497 663.367 311.094 663.148 286.692Z"/><path fill="#764B2F" d="M663.148 286.692C687.083 303.813 710.682 321.398 733.933 339.437C733.435 348.945 733.738 358.578 733.736 368.101C728.617 363.666 722.743 359.889 717.12 356.119C706.739 348.214 696.107 340.637 685.69 332.779C678.308 327.21 671.115 321.183 663.537 315.907C663.425 331.441 663.397 346.974 663.451 362.508C663.474 371.303 664.055 380.495 663.228 389.231C662.013 381.816 662.987 367.934 662.994 359.902C663.015 335.497 663.367 311.094 663.148 286.692Z"/><path fill="#DEB76B" d="M717.12 356.119C722.743 359.889 728.617 363.666 733.736 368.101C734.156 377.427 733.968 386.804 734.004 396.14C728.549 394.921 723.114 393.714 717.597 392.799C717.59 384.427 717.527 376.055 717.409 367.684C717.347 363.833 716.989 359.966 717.12 356.119Z"/><path fill="#A9815C" d="M438.883 246.653C442.261 243.806 445.839 240.298 449.836 238.39C450.233 254.45 451.706 270.501 453.23 286.489C453.806 292.53 457.004 313.835 456.213 317.846C455.436 318.206 454.655 318.558 453.871 318.901C452.637 323.492 453.521 330.549 453.595 335.448C461.757 335.598 505.255 334.553 509.208 335.807C509.395 336.923 509.484 337.908 509.449 339.04L509.494 388.578L496.985 388.526L439.245 388.487C439.549 347.876 439.543 307.263 439.227 266.652C438.816 260.025 438.954 253.295 438.883 246.653Z"/><path fill="#764B2F" d="M438.883 246.653C442.261 243.806 445.839 240.298 449.836 238.39C450.233 254.45 451.706 270.501 453.23 286.489C453.806 292.53 457.004 313.835 456.213 317.846C455.436 318.206 454.655 318.558 453.871 318.901C452.637 323.492 453.521 330.549 453.595 335.448C461.757 335.598 505.255 334.553 509.208 335.807C509.395 336.923 509.484 337.908 509.449 339.04C505.34 338.705 501.074 338.961 496.947 338.987C489.242 339.135 453.424 340.938 449.181 338.867C445.947 332.207 446.025 270.966 446.075 261.141C443.86 263.138 441.71 264.985 439.227 266.652C438.816 260.025 438.954 253.295 438.883 246.653Z"/><path fill="#DEB76B" d="M496.947 338.987C501.074 338.961 505.34 338.705 509.449 339.04L509.494 388.578L496.985 388.526L496.947 338.987Z"/><path fill="#8DDBEE" d="M467.401 249.571C498.002 249.184 528.656 249.343 559.261 249.387C558.863 256.018 558.03 262.594 557.236 269.186C555.839 281.882 554.511 294.584 553.252 307.294C526.523 307.022 499.792 306.888 473.061 306.892C471.769 295.543 469.893 283.943 469.429 272.536C468.383 265.019 467.849 257.147 467.401 249.571Z"/><path fill="#AFEAF6" d="M467.401 249.571C498.002 249.184 528.656 249.343 559.261 249.387C558.863 256.018 558.03 262.594 557.236 269.186C537.173 268.611 516.661 269.778 496.615 270.942C487.581 271.466 478.476 272.596 469.429 272.536C468.383 265.019 467.849 257.147 467.401 249.571Z"/><path fill="#6A8786" d="M169.244 140.694C170.573 143.624 171.829 146.456 172.712 149.558C180.283 169.289 188.27 188.858 196.667 208.252C200.562 217.495 205.008 226.829 208.273 236.303C200.068 243.489 190.068 250.195 180.187 254.937C177.939 256.59 173.03 257.788 170.283 258.161C157.437 259.905 139.251 244.418 129.365 236.764C139.086 215.557 147.635 193.432 156.333 171.768C160.51 161.366 164.511 150.858 169.244 140.694Z"/><path fill="#8DB291" d="M172.712 149.558C180.283 169.289 188.27 188.858 196.667 208.252C200.562 217.495 205.008 226.829 208.273 236.303C200.068 243.489 190.068 250.195 180.187 254.937C179.27 247.876 180.22 240.083 180.04 232.925C179.547 213.382 178.86 192.903 176.161 173.533C175.484 168.681 171.035 152.972 172.712 149.558Z"/><path fill="#A0B955" d="M470.664 145.547C479.388 129.925 487.979 114.229 496.436 98.4619C501.933 88.2405 507.245 77.9049 513.417 68.0691C514.75 70.3783 515.961 72.7772 517.217 75.1302C529.939 98.0906 541.255 121.818 553.97 144.806C542.002 155.941 529.796 167.052 517.143 177.404L511.836 181.551C498.036 169.717 483.843 158.069 470.664 145.547Z"/><path fill="#E6F8BA" d="M517.217 75.1302C529.939 98.0906 541.255 121.818 553.97 144.806C542.002 155.941 529.796 167.052 517.143 177.404C515.795 172.323 516.645 164.947 516.644 159.603L516.755 121.679C516.809 106.944 516.117 91.9754 516.698 77.2749C516.731 76.4467 516.905 75.8866 517.217 75.1302Z"/><path fill="#DE8D32" d="M234.627 893.256C240.636 893.206 246.645 893.19 252.653 893.21C250.163 904.617 248.624 916.32 246.769 927.846L175.25 927.879C161.956 927.885 148.569 928.192 135.295 927.525L124.263 927.339C121.244 916.379 119.469 904.706 117.071 893.569L234.627 893.256Z"/><path fill="#7ECAF1" d="M809.555 919.055C841.024 918.936 872.616 918.695 904.075 919.621C914.134 931.288 923.516 944.01 932.8 956.313C934.975 958.159 936.883 960.962 938.714 963.184C909.243 965.337 879.622 966.375 850.115 968.07C838.685 955.529 827.347 942.07 817.066 928.587C814.515 925.443 811.968 922.307 809.555 919.055Z"/><path fill="#F5F9FB" d="M809.555 919.055C841.024 918.936 872.616 918.695 904.075 919.621C914.134 931.288 923.516 944.01 932.8 956.313L931.991 956.62C922.491 949.293 914.556 937.358 904.509 929.389L817.066 928.587C814.515 925.443 811.968 922.307 809.555 919.055Z"/><path fill="#AF5F1F" d="M156.521 933.03C186.264 932.812 216.008 932.758 245.752 932.87C244.807 940.468 243.436 948.016 242.161 955.565C241.188 960.137 240.522 964.772 239.793 969.388C204.115 969.029 168.434 968.912 132.754 969.034C130.362 957.089 127.417 945.274 125.294 933.27C135.692 933.046 146.119 933.048 156.521 933.03Z"/><path fill="#F7AC3A" d="M156.521 933.03C186.264 932.812 216.008 932.758 245.752 932.87C244.807 940.468 243.436 948.016 242.161 955.565C235.403 952.181 225.628 951.164 218.184 949.483C205.008 946.508 191.893 943.215 178.739 940.134C170.45 938.193 161.635 936.681 153.578 933.97L153.653 933.593L156.521 933.03Z"/><path fill="#DE8D32" d="M180.943 861.74L257.858 861.491C255.997 870.485 254.121 879.449 253.246 888.603L187.25 888.527L115.76 888.524C113.986 879.63 111.678 870.81 109.82 861.923C133.528 862.019 157.236 861.958 180.943 861.74Z"/><path fill="#5D7783" d="M408.71 670.331C408.236 669.839 407.747 669.361 407.244 668.898C404.928 666.798 402.941 665.987 399.826 666.19C398.547 666.274 397.58 666.338 396.329 666.081C396.083 664.891 396.067 664.663 396.442 663.512C397.557 662.879 458.829 663.723 465.536 663.758L465.492 669.992C465.125 684.977 464.962 699.967 465.003 714.956C465.012 716.117 464.954 717.04 464.651 718.162C459.003 719.546 433.473 718.534 425.771 718.685C418.496 718.828 404.229 720.168 398.108 719.353C401.779 719.263 403.787 716.952 406.701 714.985C407.321 713.305 407.763 711.796 407.538 709.985C407.266 707.835 406.108 705.898 404.345 704.639C401.626 702.693 399.101 702.436 395.904 703.026L395.829 684.21C397.706 684.214 399.838 684.348 401.643 683.791C404.382 682.947 407.272 680.993 408.501 678.332C409.77 675.58 409.647 673.139 408.71 670.331Z"/><path fill="#7ECAF1" d="M408.71 670.331C408.236 669.839 407.747 669.361 407.244 668.898C404.928 666.798 402.941 665.987 399.826 666.19C398.547 666.274 397.58 666.338 396.329 666.081C396.083 664.891 396.067 664.663 396.442 663.512C397.557 662.879 458.829 663.723 465.536 663.758L465.492 669.992C451.94 669.662 438.382 669.641 424.829 669.929C419.531 670.029 413.967 669.814 408.71 670.331Z"/><path fill="#28353C" d="M465.003 714.956C465.012 716.117 464.954 717.04 464.651 718.162C459.003 719.546 433.473 718.534 425.771 718.685C418.496 718.828 404.229 720.168 398.108 719.353C401.779 719.263 403.787 716.952 406.701 714.985C412.543 716.073 431.959 714.72 439.266 714.627C447.842 714.516 456.44 715.119 465.003 714.956Z"/><path fill="#7ECAF1" d="M934.291 768.211C935.381 768.028 936.056 767.874 937.106 768.279C938.944 771.66 943.94 799.62 945.177 805.517C949.593 827.107 954.437 848.608 959.705 870.006L935.537 869.957C926.797 869.902 918.056 869.922 909.316 870.017C912.311 851.355 914.384 832.573 917.095 813.875C919.392 798.848 921.952 783.863 924.775 768.926C927.905 768.507 931.139 768.421 934.291 768.211Z"/><path fill="#A9815C" d="M515.603 339.134C515.702 337.827 515.886 336.754 516.247 335.494C520.332 334.409 529.954 335.31 534.564 335.339L572.63 335.494L573.223 335.489C572.02 353.186 572.989 371.38 572.984 389.128L515.756 388.975C515.482 372.374 515.654 355.739 515.603 339.134Z"/><path fill="#764B2F" d="M515.603 339.134C515.702 337.827 515.886 336.754 516.247 335.494C520.332 334.409 529.954 335.31 534.564 335.339L572.63 335.494C572.555 336.929 572.838 338.106 571.829 339.181C565.211 339.719 558.436 339.424 551.799 339.409C539.733 339.381 527.668 339.289 515.603 339.134Z"/><path fill="#DE8D32" d="M102.711 833.154L272.532 832.997C271.625 838.544 271.224 844.286 270.612 849.88L270.452 851.016C269.269 851.968 268.206 851.795 266.706 851.838C262.157 851.969 257.561 851.574 253.007 851.522L222.039 851.47L107.339 851.516C105.681 845.416 104.034 839.337 102.711 833.154Z"/><path fill="#F7AC3A" d="M105.483 776.276C119.639 768.576 133.784 765.206 149.602 769.824C163.832 773.978 177.656 783.979 184.776 797.206C187.468 802.206 193.44 818.423 192.38 823.847C192.277 824.374 192.188 824.455 191.943 824.853C190.463 825.13 189.222 825.188 187.715 825.149C184.417 825.089 181.119 825.002 177.821 825.074C176.329 812.749 172.171 803.252 162.16 795.493C152.371 787.959 139.956 784.691 127.726 786.428C116.279 788.009 106.513 793.909 99.6539 803.211C96.45 807.556 93.617 812.865 92.3497 818.132C91.8527 820.197 91.6799 822.786 90.7568 824.683C90.4141 825.387 89.7534 825.435 89.0077 825.532C88.3058 825.623 87.4482 825.484 86.7391 825.425C83.8055 825.397 80.5252 825.838 77.7257 824.908C77.0029 824.029 76.6586 823.361 76.5772 822.203C75.8751 812.209 83.802 796.104 90.3397 788.597C94.6383 783.244 99.4669 779.499 105.483 776.276Z"/><path fill="#F3E46D" d="M105.483 776.276C119.639 768.576 133.784 765.206 149.602 769.824C163.832 773.978 177.656 783.979 184.776 797.206C187.468 802.206 193.44 818.423 192.38 823.847C192.277 824.374 192.188 824.455 191.943 824.853C190.463 825.13 189.222 825.188 187.715 825.149C186.855 814.921 182.17 803.485 175.83 795.434C163.497 779.775 144.117 773.85 124.701 775.05C118.861 775.411 111.586 777.133 105.893 776.343C105.755 776.324 105.619 776.299 105.483 776.276Z"/><path fill="#C67529" d="M90.3397 788.597C90.3091 788.732 90.2808 788.867 90.2479 789.001C89.6156 791.58 88.3646 793.882 87.3945 796.337C84.3002 804.168 80.7875 815.691 85.4809 823.502C85.8806 824.155 86.3002 824.797 86.7391 825.425C83.8055 825.397 80.5252 825.838 77.7257 824.908C77.0029 824.029 76.6586 823.361 76.5772 822.203C75.8751 812.209 83.802 796.104 90.3397 788.597Z"/><path fill="#AAA796" d="M921.833 740.79L912.241 649.312L909.861 625.205C909.445 620.909 908.689 616.296 908.944 611.975C909.097 609.396 910.178 606.429 911.774 604.396C913.223 602.55 915.218 601.329 917.586 601.17C920.954 600.943 923.299 602.782 925.727 604.849C927.405 606.901 928.503 608.599 928.923 611.26C929.851 617.14 929.905 623.389 930.269 629.333L932.264 663.243C933.762 688.624 936.096 713.996 937.089 739.4L929.552 740.1L921.833 740.79Z"/><defs><linearGradient id="gradient_4" gradientUnits="userSpaceOnUse" x1="917.78204" y1="675.20496" x2="939.81055" y2="670.77875"><stop offset="0" stop-color="#C9C2B4"/><stop offset="1" stop-color="#C2CBC8"/></linearGradient></defs><path fill="url(#gradient_4)" d="M925.727 604.849C927.405 606.901 928.503 608.599 928.923 611.26C929.851 617.14 929.905 623.389 930.269 629.333L932.264 663.243C933.762 688.624 936.096 713.996 937.089 739.4L929.552 740.1C929.499 721.483 927.116 703.137 925.606 684.617C924.512 671.214 924.181 657.689 923.429 644.258C922.926 635.268 921.049 622.608 922.245 613.993C922.669 610.933 924.424 607.64 925.727 604.849Z"/><path fill="#AF5F1F" d="M60.9855 932.943L122.577 932.863C124.688 944.965 127.562 956.874 129.818 968.937C108.601 968.845 87.3831 968.881 66.1661 969.044C64.2852 957.033 62.5581 944.998 60.9855 932.943Z"/><defs><linearGradient id="gradient_5" gradientUnits="userSpaceOnUse" x1="676.74207" y1="770.61877" x2="736.13202" y2="787.53656"><stop offset="0" stop-color="#4C5E6E"/><stop offset="1" stop-color="#5E7074"/></linearGradient></defs><path fill="url(#gradient_5)" d="M710.694 759.215C720.253 761.16 728.419 768.641 736.817 773.355C737.512 778.563 737.074 784.156 737.04 789.413L737.093 799.75C729.022 804.451 719.963 809.995 711.212 813.229C705.837 809.918 672.7 787.2 670.525 783.978L670.982 783.311C673.627 781.599 676.251 779.91 679.027 778.414C687.771 772.852 701.396 762.424 710.694 759.215Z"/><path fill="#28353C" d="M711.212 813.229C705.837 809.918 672.7 787.2 670.525 783.978L670.982 783.311C682.715 784.263 693.375 788.295 704.844 790.165C715.517 791.905 726.368 790.478 737.04 789.413L737.093 799.75C729.022 804.451 719.963 809.995 711.212 813.229Z"/><defs><linearGradient id="gradient_6" gradientUnits="userSpaceOnUse" x1="687.77032" y1="763.95435" x2="730.26135" y2="786.76044"><stop offset="0" stop-color="#859BB1"/><stop offset="1" stop-color="#AAC4CE"/></linearGradient></defs><path fill="url(#gradient_6)" d="M710.694 759.215C720.253 761.16 728.419 768.641 736.817 773.355C736.778 775.125 736.683 776.87 736.525 778.633C735.813 778.967 735.511 778.468 734.846 778.068C728.397 774.195 720.807 769.478 713.395 767.984C711.41 767.584 709.471 767.895 707.495 768.195C705.826 767.493 703.92 767.639 702.378 768.588C700.836 769.537 699.847 771.172 699.722 772.978C694.806 773.747 682.34 778.788 679.027 778.414C687.771 772.852 701.396 762.424 710.694 759.215Z"/><path d="M699.722 772.978C699.847 771.172 700.836 769.537 702.378 768.588C703.92 767.639 705.826 767.493 707.495 768.195C710.131 769.305 711.51 772.221 710.696 774.962C709.881 777.704 707.135 779.395 704.32 778.886C701.505 778.377 699.524 775.832 699.722 772.978Z"/><path fill="#8DDBEE" d="M238.824 472.873L278.495 472.861C278.495 490.694 278.188 508.487 278.433 526.327C274.633 527.006 270.022 526.557 266.136 526.562L240.54 526.571C240.549 508.695 239.403 490.743 238.824 472.873Z"/><path fill="#9F744C" d="M440.38 228.26C459.011 212.775 480.629 198.779 498.408 182.902C501.419 185.23 504.263 187.704 507.104 190.236C508.336 191.226 508.986 191.592 509.216 193.202C510.469 201.991 509.389 219.733 509.435 229.51L474.001 229.619C468.737 229.661 461.913 228.974 456.887 230.278C455.873 230.541 455.41 230.843 454.668 231.545C453.894 233.285 454.7 237.468 453.048 238.227C452.079 238.672 450.873 238.457 449.836 238.39C445.839 240.298 442.261 243.806 438.883 246.653C438.856 241.546 438.32 236.284 438.688 231.193C438.805 229.565 439.152 229.337 440.38 228.26Z"/><path fill="#764B2F" d="M440.38 228.26C459.011 212.775 480.629 198.779 498.408 182.902C501.419 185.23 504.263 187.704 507.104 190.236C504.161 192.959 500.199 196.895 496.697 198.834C494.6 199.995 492.999 199.072 490.178 201.096C479.209 208.965 463.956 224.99 452.235 229.568C448.201 228.753 444.505 228.088 440.38 228.26Z"/><path fill="#AF5F1F" d="M108.566 893.736L113.524 893.736C117.098 903.055 118.913 917.03 121.074 927.17C103.124 927.008 85.1732 926.975 67.2227 927.07L60.1961 927.114C57.7482 916.156 55.932 905.09 54.103 894.016C72.2578 894.016 90.4125 893.923 108.566 893.736Z"/><defs><linearGradient id="gradient_7" gradientUnits="userSpaceOnUse" x1="682.73834" y1="399.84167" x2="732.38715" y2="454.84219"><stop offset="0" stop-color="#5B6C7E"/><stop offset="1" stop-color="#64859B"/></linearGradient></defs><path fill="url(#gradient_7)" d="M665.468 410.259C665.668 411.014 665.952 413.155 666.608 413.493C669.996 415.241 707.402 416.387 714.596 417.362C714.566 418.089 714.553 418.808 714.621 419.535C714.811 421.572 715.558 423.192 717.176 424.488C718.236 425.337 719.437 426.061 720.823 426.142C725.553 426.419 730.699 424.88 735.456 424.584C746.969 423.87 758.546 424.426 770.056 423.427C742.885 433.65 714.807 443.694 685.657 446.096C677.64 446.757 669.589 446.57 661.552 446.507L661.521 433.878C663.007 433.035 664.36 431.944 665.73 430.925C666.31 424.135 665.805 417.059 665.468 410.259Z"/><path fill="#8DDBEE" d="M294.561 472.879L331.05 472.953L330.934 526.597C318.791 526.696 306.612 526.38 294.465 526.287L294.561 472.879Z"/><path fill="#638EAF" d="M743.787 776.719C752.368 776.554 836.516 776.051 838.783 777.405L839.096 778.244C838.815 781.968 838.464 785.698 838.545 789.435L838.49 795.816C807.055 795.277 775.384 795.057 743.947 795.638L743.761 789.486C743.641 785.324 743.183 780.838 743.787 776.719Z"/><path fill="#28353C" d="M838.545 789.435L838.49 795.816C807.055 795.277 775.384 795.057 743.947 795.638L743.761 789.486L838.545 789.435Z"/><path fill="#7ECAF1" d="M743.787 776.719C752.368 776.554 836.516 776.051 838.783 777.405L839.096 778.244L838.362 780.743C838.125 780.952 837.947 781.261 837.65 781.369C837.281 781.503 752.571 781.533 744.57 781.401C743.86 780.218 743.919 778.124 743.787 776.719Z"/><path fill="#3A725E" d="M159.934 268.427C166.265 268.772 171.45 268.52 177.677 267.164L177.584 276.799C177.366 305.258 177.348 333.718 177.529 362.177L169.611 367.944C166.627 370.623 163.287 372.968 160.092 375.393C159.704 363.111 159.974 350.72 159.962 338.427L159.934 268.427Z"/><path fill="#8DB291" d="M169.579 284.244C171.971 281.472 174.81 279.173 177.584 276.799C177.366 305.258 177.348 333.718 177.529 362.177L169.611 367.944C168.411 365.69 169.554 294.338 169.579 284.244Z"/><path fill="#9F744C" d="M520.172 186.257L523.573 183.15C539.903 195.905 557.398 207.202 573.64 220.011C572.512 222.556 574.892 228.118 573.608 229.813L573.444 229.838C572.667 230.187 571.752 230.737 570.927 230.906C565.807 228.055 524.172 229.493 515.455 229.52L515.434 190.32L520.172 186.257Z"/><path fill="#764B2F" d="M520.172 186.257L523.573 183.15C539.903 195.905 557.398 207.202 573.64 220.011C572.512 222.556 574.892 228.118 573.608 229.813L573.444 229.838C569.893 227.317 566.589 224.32 563.186 221.594C556.708 216.406 550.058 211.409 543.716 206.053C535.864 199.422 528.39 192.452 520.172 186.257Z"/><path fill="#638EAF" d="M806.031 921.948C816.703 937.395 830.202 950.839 841.368 965.929C842.071 966.547 842.411 967.001 842.815 967.846C842.565 968.016 842.356 968.277 842.064 968.356C840.052 968.895 833.078 967.905 830.508 967.836L771.512 965.869C773.577 963.829 775.426 961.615 777.304 959.405C786.914 946.993 797.126 934.873 806.031 921.948Z"/><path fill="#48627D" d="M777.304 959.405C798.628 962.093 820.118 962.792 841.368 965.929C842.071 966.547 842.411 967.001 842.815 967.846C842.565 968.016 842.356 968.277 842.064 968.356C840.052 968.895 833.078 967.905 830.508 967.836L771.512 965.869C773.577 963.829 775.426 961.615 777.304 959.405Z"/><path fill="#AF5F1F" d="M48.7447 861.572L106.862 861.818C108.854 870.788 110.453 879.681 112.882 888.566C92.9865 888.559 73.0916 888.704 53.1987 889.003C51.8532 879.836 50.0673 870.741 48.7447 861.572Z"/><path fill="#8DB291" d="M916.388 769.711L917.091 769.708C917.803 770.885 917.533 771.851 917.38 773.207C916.487 781.086 915.008 789.003 913.91 796.87C911.522 815.229 908.967 833.567 906.246 851.88C903.282 872.596 900.981 893.393 897.967 914.112L886.449 914.006L885.773 913.831C884.681 911.488 889.172 892.587 889.934 888.42C894.333 864.361 897.822 839.976 901.094 815.737C903.12 800.727 904.642 785.444 907.688 770.6L916.388 769.711Z"/><path fill="#8DB291" d="M952.758 766.224L953.507 766.168C954.538 767.156 954.745 768.729 955.063 770.078C957.388 779.925 959.17 789.981 961.296 799.882L977.914 878.244C981.836 897.111 986.731 915.778 990.537 934.67C988.266 934.298 985.972 934.076 983.685 933.82C982.964 933.683 982.28 933.464 981.577 933.256C980.71 932.295 980.414 931.479 980.106 930.255C977.048 918.082 975.209 905.485 972.519 893.207C963.674 851.073 954.305 809.05 944.414 767.148C947.188 766.79 949.978 766.524 952.758 766.224Z"/><path fill="#7ECAF1" d="M665.778 395.568C700.568 394.607 733.252 401.188 765.222 415.139C768.549 415.904 771.721 417.218 774.909 418.418C768.237 418.368 735.961 419.537 732.413 417.765C730.308 414.966 728.37 411.888 724.601 411.375C722.248 411.055 719.974 411.69 718.115 413.168C716.651 414.331 715.574 415.788 714.596 417.362C707.402 416.387 669.996 415.241 666.608 413.493C665.952 413.155 665.668 411.014 665.468 410.259C665.931 405.395 665.15 400.459 665.778 395.568Z"/><path fill="#F5F9FB" d="M665.778 395.568C700.568 394.607 733.252 401.188 765.222 415.139C760.748 416.255 729.466 406.833 722.513 405.363C715.451 403.862 708.302 402.806 701.108 402.202C695.212 401.716 669.761 401.588 665.947 399.817L665.778 395.568Z"/><path fill="#DEB76B" d="M577.615 251.131C580.253 251.822 582.322 254.121 584.596 255.563C584.292 300.085 584.273 344.608 584.537 389.13L572.984 389.128C572.989 371.38 572.02 353.186 573.223 335.489C573.904 335.187 574.179 335.281 574.425 334.501C575.663 330.578 575.155 323.084 573.441 319.317C572.688 317.662 572.016 316.487 572.117 314.63C572.513 307.347 573.851 300.128 574.557 292.869C575.854 278.978 576.874 265.063 577.615 251.131Z"/><path fill="#7ECAF1" d="M129.8 794.107C137.853 793.435 143.666 794.744 150.943 798.034L151.336 825.195L122.25 825.158L99.1903 825.168C100.646 819.425 102.207 813.939 105.569 808.983C111.319 800.509 119.922 795.974 129.8 794.107Z"/><path fill="#AF5F1F" d="M31.312 832.96L100.244 833.174C101.38 839.42 102.526 845.601 104.173 851.737C80.3921 852.104 56.5814 851.95 32.7973 852.003C32.3903 845.65 31.7426 839.313 31.312 832.96Z"/><path fill="#5D7783" d="M594.371 662.484C595.833 661.962 597.009 660.528 598.577 660.12C600.54 659.608 601.727 660.447 603.293 661.464L605.752 662.217C606.935 662.578 607.693 662.614 608.908 662.427C609.24 664.737 609.557 666.894 609.428 669.238L609.343 669.88C608.975 672.802 610.008 677.289 607.777 679.393L605.853 679.736C605.337 680.982 604.913 682.243 604.123 683.343C602.64 685.215 601.189 687.259 599.044 688.419C595.971 690.082 545.833 690.375 542.358 688.865C539.659 687.692 538.694 684.382 537.668 681.858C537.788 679.893 538.204 678.078 539.581 676.605C540.921 675.173 542.863 674.633 544.734 674.321C549.967 673.449 555.765 673.93 561.083 673.922C570.364 673.939 579.645 673.873 588.925 673.724C588.892 670.048 588.667 666.126 589.596 662.548L590.33 663.38C591.916 663.457 592.938 663.059 594.371 662.484Z"/><path fill="#7ECAF1" d="M594.371 662.484C595.833 661.962 597.009 660.528 598.577 660.12C600.54 659.608 601.727 660.447 603.293 661.464L605.752 662.217C606.935 662.578 607.693 662.614 608.908 662.427C609.24 664.737 609.557 666.894 609.428 669.238L609.343 669.88C608.975 672.802 610.008 677.289 607.777 679.393L605.853 679.736C602.745 680.11 599.634 680.042 596.526 679.722C582.594 679.451 554.905 676.659 542.808 679.316C540.86 679.744 539.216 680.615 537.668 681.858C537.788 679.893 538.204 678.078 539.581 676.605C540.921 675.173 542.863 674.633 544.734 674.321C549.967 673.449 555.765 673.93 561.083 673.922C570.364 673.939 579.645 673.873 588.925 673.724C588.892 670.048 588.667 666.126 589.596 662.548L590.33 663.38C591.916 663.457 592.938 663.059 594.371 662.484Z"/><path d="M594.371 662.484C595.833 661.962 597.009 660.528 598.577 660.12C600.54 659.608 601.727 660.447 603.293 661.464L605.752 662.217C606.935 662.578 607.693 662.614 608.908 662.427C609.24 664.737 609.557 666.894 609.428 669.238L609.343 669.88C608.975 672.802 610.008 677.289 607.777 679.393L605.853 679.736C602.745 680.11 599.634 680.042 596.526 679.722C598.082 677.963 599.828 676.564 601.645 675.092C599.529 675.09 597.487 675.128 595.576 674.082C594.108 673.278 592.971 672.007 592.54 670.368C591.796 667.54 592.973 664.873 594.371 662.484Z"/><path fill="#638EAF" d="M603.293 661.464L605.752 662.217C606.935 662.578 607.693 662.614 608.908 662.427C609.24 664.737 609.557 666.894 609.428 669.238L609.343 669.88C608.975 672.802 610.008 677.289 607.777 679.393L605.853 679.736C602.745 680.11 599.634 680.042 596.526 679.722C598.082 677.963 599.828 676.564 601.645 675.092C602.05 674.967 602.323 674.904 602.707 674.681C603.887 673.996 604.696 672.596 605.08 671.313C606.114 667.862 604.907 664.484 603.293 661.464Z"/><path fill="#8DB291" d="M959.378 708.758C963.281 713.944 968.876 737.261 968.833 744.116C968.796 750.129 965.922 753.375 961.857 757.382C951.373 759.208 940.452 759.927 929.862 761.102C922.044 761.969 913.667 763.565 905.855 763.483C903.645 763.46 900.062 763.226 898.292 761.698C892.666 756.84 893.52 745.088 893.505 738.278C893.525 730.695 893.812 723.115 894.366 715.553C895.496 723.438 896.271 731.377 897.394 739.267C897.697 741.397 898.42 747.896 900.277 748.941C901.829 749.815 904.539 749.573 906.283 749.489C915.023 749.063 923.871 747.514 932.589 746.607C942.417 745.586 952.492 745.141 962.214 743.401C961.15 731.735 959.481 720.518 959.378 708.758Z"/><path fill="#F7AC3A" d="M224.894 614.582C224.778 613.088 224.597 611.774 225.09 610.322C228.675 609.03 332.651 609.765 345.656 609.73C346.049 612.86 345.871 615.959 345.752 619.101L259.929 618.849C252.61 618.819 245.29 618.826 237.971 618.87C233.927 618.894 229.379 619.33 225.41 618.666C224.809 617.277 224.877 616.058 224.894 614.582Z"/><path fill="#C67529" d="M345.656 609.73C346.049 612.86 345.871 615.959 345.752 619.101L259.929 618.849C252.61 618.819 245.29 618.826 237.971 618.87C233.927 618.894 229.379 619.33 225.41 618.666C224.809 617.277 224.877 616.058 224.894 614.582L302.277 615.118C316.343 615.221 330.91 616.342 344.924 615.328C345.718 613.724 345.553 611.515 345.656 609.73Z"/><path fill="#C67529" d="M229.342 458.07C257.565 458.241 285.815 457.429 314.047 457.335C322.341 457.307 337.391 456.302 344.856 457.374C345.796 458.566 345.389 459.551 345.305 461.018L340.371 461.416L340.989 464.296C339.579 464.274 339.226 464.325 338.059 465.076C334.593 467.308 320.241 465.806 315.286 466.421C289.321 466.832 263.328 466.463 237.357 466.655C235.612 465.128 234.03 463.375 232.41 461.714L229.342 458.07Z"/><path fill="#F7AC3A" d="M229.342 458.07C257.565 458.241 285.815 457.429 314.047 457.335C322.341 457.307 337.391 456.302 344.856 457.374C345.796 458.566 345.389 459.551 345.305 461.018L340.371 461.416C304.398 461.898 268.373 460.822 232.41 461.714L229.342 458.07Z"/><path fill="#F7AC3A" d="M460.898 240.003C460.121 238.27 459.357 236.856 459.444 234.923L460.073 234.207C481.099 233.721 502.254 234.324 523.297 234.307C529.871 234.302 564.196 233.393 567.968 234.601C568.786 235.413 569.109 235.61 568.982 236.871C568.871 237.967 567.987 239.463 567.409 240.366C566.49 241.608 566.118 242.706 564.502 242.986C559.246 243.898 550.549 242.973 544.992 242.93C534.888 242.852 465.736 241.762 462.703 243.595L462.267 245.697L461.535 242.968C461.209 242.031 461.087 240.979 460.898 240.003Z"/><path fill="#AF5F1F" d="M460.898 240.003L534.138 239.973C545.137 240.018 556.464 240.814 567.409 240.366C566.49 241.608 566.118 242.706 564.502 242.986C559.246 243.898 550.549 242.973 544.992 242.93C534.888 242.852 465.736 241.762 462.703 243.595L462.267 245.697L461.535 242.968C461.209 242.031 461.087 240.979 460.898 240.003Z"/><path fill="#764B2F" d="M873.036 443.188C877.894 445.481 909.07 469.618 912.34 473.697C899.317 474.265 886.002 473.643 872.952 473.585L873.036 443.188Z"/><path fill="#E87F21" d="M460.422 323.541C496.75 324.092 533.085 324.078 569.412 323.498C569.476 325.338 569.787 327.451 569.085 329.183L567.929 329.671C558.377 329.121 526.934 330.912 521.211 328.931C513.709 329.657 505.711 329.094 498.15 329.111L460.396 329.453L460.422 323.541Z"/><path fill="#C67529" d="M521.211 328.931C525.107 327.731 564.058 327.089 566.281 328.358C566.855 328.686 567.438 329.249 567.929 329.671C558.377 329.121 526.934 330.912 521.211 328.931Z"/><path fill="#DE8D32" d="M569.069 242.346C569.987 242.828 571.654 243.52 572.241 244.383C574.883 248.268 567.388 307.46 565.954 316.434C565.013 317.541 564.051 317.291 562.656 317.438C560.893 316.326 559.794 314.503 558.572 312.849C560.977 298.946 562.052 285.009 563.307 270.964C563.959 263.661 564.087 255.58 565.975 248.493C566.606 246.127 567.71 244.347 569.069 242.346Z"/><defs><linearGradient id="gradient_8" gradientUnits="userSpaceOnUse" x1="611.00885" y1="703.12006" x2="591.95154" y2="692.21558"><stop offset="0" stop-color="#5B7174"/><stop offset="1" stop-color="#769097"/></linearGradient></defs><path fill="url(#gradient_8)" d="M605.853 679.736L607.777 679.393C610.008 677.289 608.975 672.802 609.343 669.88L609.428 669.238C609.486 678.39 610.666 698.868 609.093 706.936C608.56 709.67 607.467 712.459 605.431 714.43C603.546 716.255 601.358 716.767 598.789 716.669C595.778 716.555 592.933 715.373 590.961 713.033C590.258 712.199 589.655 711.264 589.056 710.354C588.911 705.405 588.872 700.454 588.939 695.503C592.744 695.498 597.671 696.086 600.63 693.163C603.104 690.719 603.45 686.594 604.123 683.343C604.913 682.243 605.337 680.982 605.853 679.736Z"/><path d="M598.535 700.133C601.58 699.046 604.934 700.614 606.052 703.649C607.17 706.684 605.635 710.053 602.611 711.201C600.628 711.954 598.394 711.584 596.759 710.233C595.125 708.881 594.342 706.756 594.709 704.667C595.076 702.577 596.537 700.846 598.535 700.133Z"/><path fill="#DE8D32" d="M493.135 312.259C503.053 312.085 547.557 310.596 554.212 312.799C556.239 313.47 558.631 315.637 559.549 317.564C559.032 317.979 534.801 317.119 531.375 317.113C521.29 316.761 510.47 317.51 500.227 317.43C488.595 317.34 476.566 316.002 465.013 317.355C466.693 315.571 468.537 313.952 470.344 312.3L493.135 312.259Z"/><path fill="#AF5F1F" d="M455.344 242.947C457.237 242.753 458.958 242.491 460.828 242.931L461.535 242.968L462.267 245.697C463.174 258.561 463.869 271.488 465.207 284.315C466.096 292.841 468.274 302.479 467.878 310.992C467.811 312.432 467.219 313.148 466.344 314.197C465.311 315.344 464.833 316.148 463.356 316.655C462.052 314.342 456.684 252.741 455.344 242.947Z"/><path fill="#F7AC3A" d="M460.828 242.931L461.535 242.968L462.267 245.697C463.174 258.561 463.869 271.488 465.207 284.315C466.096 292.841 468.274 302.479 467.878 310.992C467.811 312.432 467.219 313.148 466.344 314.197C466.27 314.041 466.184 313.889 466.122 313.727C464.414 309.247 458.488 245.542 459.427 243.426L460.828 242.931Z"/><path fill="#3A725E" d="M150.47 452.47C151.709 453.823 150.941 472.624 150.913 475.848C141.068 475.641 131.219 475.688 121.375 475.989C120.91 475.917 121.184 476.004 120.631 475.557C123.198 472.646 127.39 470.326 130.504 467.957L150.47 452.47Z"/><path fill="#9F744C" d="M573.64 220.011C577.377 222.476 581.045 225.041 584.641 227.706C584.684 236.987 584.845 246.285 584.596 255.563C582.322 254.121 580.253 251.822 577.615 251.131C577.955 247.892 578.255 244.649 578.513 241.402C577.266 240.265 575.84 239.359 574.451 238.406C573.389 235.813 572.289 233.361 570.927 230.906C571.752 230.737 572.667 230.187 573.444 229.838L573.608 229.813C574.892 228.118 572.512 222.556 573.64 220.011Z"/><path fill="#F7AC3A" d="M285.644 530.478C283.915 525.031 284.28 479.559 285.008 473.125C285.869 472.57 287.168 472.532 288.193 472.744C288.741 472.857 288.867 472.965 289.294 473.212C290.326 484.344 289.446 496.268 289.404 507.504C289.378 514.539 290.268 524.912 289.034 531.612L288.72 531.837C287.87 530.921 286.807 530.775 285.644 530.478Z"/><path fill="#A0B955" d="M873.067 883.182C876.429 882.931 879.867 883.013 883.241 882.966C881.971 892.265 880.759 901.572 879.607 910.886C879.484 911.813 879.318 912.312 878.96 913.153C877.275 914.144 874.917 913.672 873.026 913.56C872.98 903.434 872.994 893.308 873.067 883.182Z"/><path fill="#A9815C" d="M161.435 806.215C167.311 810.516 169.342 818.392 170.659 825.133C167.546 825.211 164.417 825.153 161.303 825.159L161.435 806.215Z"/><path fill="#7ECAF1" d="M589.596 662.548C590.743 659.552 592.021 657.458 595.101 656.193C597.891 655.046 600.887 655.253 603.593 656.546C606.32 657.849 607.723 659.732 608.908 662.427C607.693 662.614 606.935 662.578 605.752 662.217L603.293 661.464C601.727 660.447 600.54 659.608 598.577 660.12C597.009 660.528 595.833 661.962 594.371 662.484C592.938 663.059 591.916 663.457 590.33 663.38L589.596 662.548Z"/><path fill="#48627D" d="M399.488 672.042C400.15 672.11 400.62 672.139 401.285 672.307C402.472 672.607 403.031 673.18 403.671 674.156C403.349 675.563 403.03 675.731 401.975 676.752C400.027 676.75 398.247 676.983 396.809 675.425C396.155 674.716 396.365 674.991 396.45 673.886C397.317 672.725 398.179 672.488 399.488 672.042Z"/><path fill="#5D7783" d="M722.401 415.347C723.91 415.463 725.179 415.569 726.436 416.489C727.614 417.35 728.148 418.078 728.401 419.504C728.085 420.206 727.814 420.912 727.155 421.374C725.763 422.352 723.961 421.982 722.457 421.591L722.65 421.123L725.327 420.741C726.306 419.693 725.979 419.154 725.946 417.789C725.504 417.027 725.271 416.687 724.499 416.206C723.709 415.713 724.04 415.826 723.08 416.098C722.306 416.876 722.107 417.525 721.799 418.552C721.537 419.425 721.524 419.752 720.891 420.425L720.316 419.08C720.777 417.346 721.178 416.661 722.401 415.347Z"/><path fill="#638EAF" d="M397.944 709.185C399.35 709.493 400.013 709.562 400.863 710.739C400.75 712.113 399.93 712.858 399.073 713.852C398.772 713.832 398.466 713.844 398.169 713.791C396.844 713.555 396.613 713.294 395.92 712.252C396.318 710.54 396.701 710.357 397.944 709.185Z"/></svg>