<?xml version="1.0" encoding="utf-8" ?><svg xmlns="http://www.w3.org/2000/svg" xmlns:xlink="http://www.w3.org/1999/xlink" width="1024" height="1024" viewBox="0 0 1024 1024"><path fill="#010100" d="M0 0L1024 0L1024 677.929L1024 688.309L1024 742.013L1024 1024L0 1024L0 744.666L0 692.879L0 682.167L0 0Z"/><defs><linearGradient id="gradient_0" gradientUnits="userSpaceOnUse" x1="522.78522" y1="-15.61471" x2="500.59018" y2="696.11084"><stop offset="0" stop-color="#92D4EE"/><stop offset="1" stop-color="#E0EBF1"/></linearGradient></defs><path fill="url(#gradient_0)" d="M0 0L1024 0L1024 677.929C1005.49 672.672 986.321 668.663 967.426 664.994C967.548 658.597 970.441 634.899 967.473 630.176C966.656 628.876 964.193 628.275 962.785 627.989C954.223 626.254 916.844 626.177 910.423 630.296C908.669 634.879 911.046 650.465 911.52 656.109C898.09 654.62 884.848 651.925 871.437 650.376C871.562 638.584 872.366 626.724 872.795 614.933L875.989 531.46C877.439 492.684 877.731 453.877 880.056 415.136C888.616 420.04 896.853 425.964 905.202 431.247L967.376 471.18C977.24 477.607 986.999 484.859 997.285 490.551C1002.75 476.511 1004.58 461.646 1008.54 447.21C1000.4 441.851 992.801 435.404 984.929 429.625L928.319 388.156L796.539 294.127C796.474 272.434 796.948 250.756 796.478 229.062C801.549 228.638 806.73 229.272 811.683 228.771C813.332 228.604 814.677 228.072 815.668 226.669C816.34 225.718 816.53 224.26 816.61 223.134C816.835 219.954 816.07 216.681 816.029 213.479C815.947 207.16 816.623 200.801 816.772 194.481C816.809 192.911 816.801 191.226 816.326 189.718C815.986 188.636 815.738 188.285 814.656 187.865C811.904 186.796 722.748 187.121 712.467 187.512C710.174 187.599 707.976 187.849 705.81 188.643C703.81 192.558 705.24 214.141 705.048 220.224C704.227 221.081 704.292 221.019 704.321 222.221C704.367 224.068 704.918 225.922 704.739 227.746C702.414 227.495 698.73 223.267 697.2 224.241C681.824 214.691 667.047 202.866 652.072 192.58C633.415 179.888 614.87 167.031 596.441 154.009C585.654 146.525 574.64 139.271 564.086 131.465C563.906 130.202 563.742 128.833 563.208 127.664C560.763 122.305 556.657 117.019 553.66 111.862C546.004 98.6681 538.477 85.3993 531.081 72.0576C528.797 67.9536 521.909 53.6192 518.733 51.415C517.674 50.6803 517.218 50.7507 516.121 51.1078C511.806 55.7782 508.921 62.5282 505.75 68.0451C497.964 81.5565 490.057 94.998 482.03 108.368C478.241 114.694 473.561 124.56 468.294 129.551C459.22 138.15 445.075 145.967 434.571 153.334L352.739 210.676L119.195 376.077C96.991 391.634 75.0723 407.66 53.0972 423.544C43.9782 430.136 29.6182 439.099 21.9798 446.801C25.0921 460.728 27.5923 475.417 32.0679 488.944C40.2995 482.749 49.3745 477.561 58.0682 472.043C71.9048 463.262 85.6476 454.428 99.6211 445.853C115.99 435.808 132 424.805 148.723 415.378C152.993 492.446 154.055 569.697 158.153 646.772C138.498 650.786 118.931 655.448 99.1552 658.83C99.3801 638.562 99.3605 618.293 99.0964 598.025C99.0345 588.867 100.053 578.339 98.3908 569.398C97.7895 566.163 96.0151 563.045 93.7147 560.714C91.0698 558.034 88.0856 556.74 84.3205 556.8C80.7439 556.824 77.3307 558.3 74.8645 560.891C72.3801 563.536 71.4927 566.946 71.0503 570.463C69.8761 579.795 70.8855 590.354 70.9926 599.781C71.2341 621.045 71.3388 642.52 72.421 663.752C58.6934 667.35 44.9426 670.859 31.1696 674.28C20.7609 676.813 10.2581 679.057 0 682.167L0 0Z"/><path fill="#F3F3EF" d="M127.776 124.77C133.321 116.935 140.12 111.005 149.797 109.177C156.505 107.91 164.094 108.81 169.839 112.683C179.15 117.296 184.852 125.393 188.143 135.075C190.153 140.992 190.917 146.824 191.06 153.047C199.069 151.116 206.678 150.029 214.199 154.507C220.735 158.398 224.602 165.254 226.279 172.495C227.61 178.242 227.455 184.138 228.165 189.964C230.068 192.047 231.895 193.279 234.381 194.577C239.797 194.836 244.771 195.694 249.587 198.269C249.817 198.434 250.048 198.595 250.275 198.764C253.644 201.304 255.869 205.078 256.462 209.256C256.963 212.951 256.007 216.638 253.615 219.52C250.004 223.872 244.795 224.877 239.468 225.308C228.561 226.191 217.464 225.818 206.523 225.83L154.451 225.892L108.01 225.886C99.8962 225.873 91.4162 226.322 83.3461 225.579C79.0157 225.181 74.3439 224.643 70.976 221.672C63.8307 215.367 61.917 202.389 61.2961 193.408C60.0285 175.075 63.6323 154.879 75.9716 140.668C78.0266 138.385 80.2857 136.295 82.7208 134.423C96.3119 124.091 111.37 122.55 127.776 124.77Z"/><path fill="#D3D9DB" d="M78.8438 141.038C81.4629 139.535 83.7375 136.804 86.4224 135.112C86.3915 135.249 86.3631 135.387 86.3296 135.523C85.1582 140.297 82.2893 144.846 80.5932 149.495C76.2388 161.428 77.4966 177.246 83.896 188.257C89.2502 197.47 98.5449 203.555 108.734 206.149C123.09 209.803 131.823 209.185 145.176 203.324C149.451 201.448 153.621 199.434 158.101 198.082C158.396 197.993 158.685 197.888 158.98 197.801C162.447 196.779 166.455 197.755 169.92 198.462C180.817 200.684 191.401 204.987 202.302 207.519C212.178 209.812 222.277 211.359 232.257 213.131C238.881 214.307 245.949 215.025 252.131 217.773C253.231 215.907 253.936 214.162 254.021 211.969C254.199 207.4 251.58 203.446 248.59 200.249L249.587 198.269C249.817 198.434 250.048 198.595 250.275 198.764C253.644 201.304 255.869 205.078 256.462 209.256C256.963 212.951 256.007 216.638 253.615 219.52C250.004 223.872 244.795 224.877 239.468 225.308C228.561 226.191 217.464 225.818 206.523 225.83L154.451 225.892L108.01 225.886C99.8962 225.873 91.4162 226.322 83.3461 225.579C79.0157 225.181 74.3439 224.643 70.976 221.672C63.8307 215.367 61.917 202.389 61.2961 193.408C60.0285 175.075 63.6323 154.879 75.9716 140.668L76.3057 142.111C77.151 141.727 77.9636 141.333 78.8438 141.038Z"/><path fill="#096289" d="M75.9716 140.668L76.3057 142.111C77.151 141.727 77.9636 141.333 78.8438 141.038C66.5482 155 62.6054 173.535 63.8051 191.887C64.3564 200.319 65.7373 213.282 72.4092 219.315C74.8184 221.493 77.8518 222.398 81.024 222.729C89.5322 223.616 98.5032 223.114 107.062 223.109L151.035 223.07L205.05 223.004C216.499 222.99 228.121 223.372 239.537 222.458C244.519 222.059 248.296 221.164 252.131 217.773C253.231 215.907 253.936 214.162 254.021 211.969C254.199 207.4 251.58 203.446 248.59 200.249L249.587 198.269C249.817 198.434 250.048 198.595 250.275 198.764C253.644 201.304 255.869 205.078 256.462 209.256C256.963 212.951 256.007 216.638 253.615 219.52C250.004 223.872 244.795 224.877 239.468 225.308C228.561 226.191 217.464 225.818 206.523 225.83L154.451 225.892L108.01 225.886C99.8962 225.873 91.4162 226.322 83.3461 225.579C79.0157 225.181 74.3439 224.643 70.976 221.672C63.8307 215.367 61.917 202.389 61.2961 193.408C60.0285 175.075 63.6323 154.879 75.9716 140.668Z"/><path fill="#096289" d="M127.776 124.77C133.321 116.935 140.12 111.005 149.797 109.177C156.505 107.91 164.094 108.81 169.839 112.683C179.15 117.296 184.852 125.393 188.143 135.075C190.153 140.992 190.917 146.824 191.06 153.047C199.069 151.116 206.678 150.029 214.199 154.507C220.735 158.398 224.602 165.254 226.279 172.495C227.61 178.242 227.455 184.138 228.165 189.964C230.068 192.047 231.895 193.279 234.381 194.577C232.577 194.652 231.356 194.268 229.659 193.658C228.748 193.33 229.241 193.331 228.248 193.733C228.07 193.606 227.881 193.493 227.713 193.352C224.461 190.612 225.158 181.774 224.715 177.667C223.942 170.492 221.359 162.976 215.486 158.394C207.386 152.074 198.66 154.057 189.403 155.206C188.675 151.509 188.396 147.698 187.76 143.975C185.583 131.245 179.865 122.214 169.403 114.825C161.184 111.322 152.897 109.711 144.341 113.298C137.951 115.976 133.288 120.843 129.767 126.676L128.377 128.946C119.741 124.507 108.167 125.758 99.1523 128.636C94.7382 130.045 90.0323 132.17 86.4224 135.112C83.7375 136.804 81.4629 139.535 78.8438 141.038C77.9636 141.333 77.151 141.727 76.3057 142.111L75.9716 140.668C78.0266 138.385 80.2857 136.295 82.7208 134.423C96.3119 124.091 111.37 122.55 127.776 124.77Z"/><path fill="#0A557A" d="M228.248 193.733C229.241 193.331 228.748 193.33 229.659 193.658C231.356 194.268 232.577 194.652 234.381 194.577C239.797 194.836 244.771 195.694 249.587 198.269L248.59 200.249C242.044 196.869 234.038 198.679 228.248 193.733Z"/><path fill="#F3F3EF" d="M886.177 107.425C887.055 103.367 887.913 99.2938 889.286 95.3676C892.428 86.377 898.095 77.8974 907.006 73.8459C913.882 70.7196 922.47 70.3087 929.505 73.0929C935.355 74.6021 939.871 78.8121 943.942 83.0706C952.152 83.0617 964.811 83.9215 971.109 90.153C978.476 95.098 983.715 102.051 986.648 110.406C991.885 120.84 991.123 135.059 987.572 145.871C986.368 149.537 984.792 153.221 982.852 156.561C969.189 158.814 846.402 159.618 838.07 157.197C836.924 157.03 835.689 156.724 834.677 156.139C833.019 155.181 831.188 153.549 830.797 151.589C830.28 148.997 831.925 145.829 833.323 143.763C837.473 137.627 844.717 134.559 851.748 133.207C853.191 130.054 854.349 126.784 855.829 123.642C858.149 117.412 861.642 111.616 867.637 108.281C873.87 104.815 879.66 105.427 886.177 107.425Z"/><path fill="#D3D9DB" d="M886.177 107.425C887.055 103.367 887.913 99.2938 889.286 95.3676C892.428 86.377 898.095 77.8974 907.006 73.8459C913.882 70.7196 922.47 70.3087 929.505 73.0929L928.665 73.092C927.399 73.0836 926.151 72.9418 924.894 72.8046L924.403 73.3515C924.85 73.5589 925.29 73.6507 925.767 73.7685L925.892 74.3503C917.352 73.3296 909.35 73.9187 902.348 79.6318C890.569 89.2418 891.544 104.807 888.154 108.65C887.315 109.601 885.54 109.296 884.374 109.212C878.206 108.768 872.109 107.139 866.826 111.41C864.073 113.637 862.63 117.19 860.165 119.271C858.304 125.014 856.695 133.058 850.832 136.029C843.352 139.82 837.334 139.722 834.179 149.092C834.129 149.24 834.09 149.391 834.046 149.541C840.442 153.056 852.568 141.195 859.562 140.594C866.48 140 873.468 143.701 880.489 143.839C887.588 143.978 893.904 140.786 900.714 139.373C913.04 136.815 924.215 144.738 935.8 147.545C947.288 150.328 956.646 143.963 966.795 139.78C970.988 138.052 975.577 136.85 979.438 134.444C984.419 131.341 985.93 126.131 987.233 120.75L985.75 114.241C985.811 114.134 985.895 114.037 985.935 113.921C986.229 113.061 985.82 112.109 985.558 111.301C985.237 110.31 985.087 110.123 985.296 109.076L985.918 110.386L986.648 110.406C991.885 120.84 991.123 135.059 987.572 145.871C986.368 149.537 984.792 153.221 982.852 156.561C969.189 158.814 846.402 159.618 838.07 157.197C836.924 157.03 835.689 156.724 834.677 156.139C833.019 155.181 831.188 153.549 830.797 151.589C830.28 148.997 831.925 145.829 833.323 143.763C837.473 137.627 844.717 134.559 851.748 133.207C853.191 130.054 854.349 126.784 855.829 123.642C858.149 117.412 861.642 111.616 867.637 108.281C873.87 104.815 879.66 105.427 886.177 107.425Z"/><path fill="#096289" d="M886.177 107.425C887.055 103.367 887.913 99.2938 889.286 95.3676C892.428 86.377 898.095 77.8974 907.006 73.8459C913.882 70.7196 922.47 70.3087 929.505 73.0929L928.665 73.092C927.399 73.0836 926.151 72.9418 924.894 72.8046L924.403 73.3515C924.85 73.5589 925.29 73.6507 925.767 73.7685L925.892 74.3503C917.352 73.3296 909.35 73.9187 902.348 79.6318C890.569 89.2418 891.544 104.807 888.154 108.65C887.315 109.601 885.54 109.296 884.374 109.212C878.206 108.768 872.109 107.139 866.826 111.41C864.073 113.637 862.63 117.19 860.165 119.271C858.304 125.014 856.695 133.058 850.832 136.029C843.352 139.82 837.334 139.722 834.179 149.092C834.129 149.24 834.09 149.391 834.046 149.541C834.02 150.974 833.879 152.113 834.958 153.232C835.591 153.888 836.507 154.438 837.26 154.956C840.384 154.746 844.099 155.428 847.314 155.476L880.665 155.817C913.999 155.898 947.417 155.501 980.747 154.966C987.299 144.065 988.674 133.177 987.233 120.75L985.75 114.241C985.811 114.134 985.895 114.037 985.935 113.921C986.229 113.061 985.82 112.109 985.558 111.301C985.237 110.31 985.087 110.123 985.296 109.076L985.918 110.386L986.648 110.406C991.885 120.84 991.123 135.059 987.572 145.871C986.368 149.537 984.792 153.221 982.852 156.561C969.189 158.814 846.402 159.618 838.07 157.197C836.924 157.03 835.689 156.724 834.677 156.139C833.019 155.181 831.188 153.549 830.797 151.589C830.28 148.997 831.925 145.829 833.323 143.763C837.473 137.627 844.717 134.559 851.748 133.207C853.191 130.054 854.349 126.784 855.829 123.642C858.149 117.412 861.642 111.616 867.637 108.281C873.87 104.815 879.66 105.427 886.177 107.425Z"/><path fill="#0A557A" d="M925.892 74.3503L925.767 73.7685C925.29 73.6507 924.85 73.5589 924.403 73.3515L924.894 72.8046C926.151 72.9418 927.399 73.0836 928.665 73.092L929.505 73.0929C935.355 74.6021 939.871 78.8121 943.942 83.0706C952.152 83.0617 964.811 83.9215 971.109 90.153C978.476 95.098 983.715 102.051 986.648 110.406L985.918 110.386L985.296 109.076C985.087 110.123 985.237 110.31 985.558 111.301C985.82 112.109 986.229 113.061 985.935 113.921C985.895 114.037 985.811 114.134 985.75 114.241C982.193 104.176 977.171 97.5137 968.631 91.1512C959.889 86.471 952.489 85.4871 942.694 85.2682C937.337 80.2217 932.888 76.8128 925.892 74.3503Z"/><path fill="#8BB348" d="M160.647 716.086L165.408 835.181L167.148 879.008C167.418 885.968 168.071 893.138 167.94 900.088C168.144 902.338 168.181 904.447 169.253 906.483C172.927 909.106 193.811 906.387 200.557 908.365C201.463 908.631 202.141 908.683 203.077 908.688C204.192 908.176 204.954 908.047 206.178 908C207.218 908.838 207.491 909.385 207.615 910.746C207.894 913.822 206.65 918.971 208.854 921.423C211.915 922.777 215.268 923.228 218.579 923.552C230.328 924.7 284.311 925.694 293.3 922.421C294.883 921.845 295.989 920.673 296.639 919.142C298.008 915.916 297.283 911.412 297.129 907.947C319.956 907.621 342.785 907.445 365.614 907.419L360.288 915.835C356.648 921.85 322.046 975.613 322.383 979.216C323.797 979.776 324.935 979.859 326.425 979.909C336.047 978.879 346.119 979.421 355.795 979.426L405.162 979.437L566.476 979.442L663.112 979.557L691.4 979.55C697.429 979.553 703.838 979.194 709.796 980.116C709.778 979.199 709.674 978.739 709.272 977.891C706.737 972.552 703.258 967.334 700.394 962.136C692.144 947.163 683.729 932.346 676.106 917.034C682.146 915.576 694.003 916.171 700.879 915.918C733.482 914.715 766.265 914.363 798.889 914.01C800.385 920.79 801.756 927.635 803.566 934.339C804.112 936.242 804.94 940.921 806.849 941.838C809.743 943.229 893.101 942.801 901.976 942.075C902.752 939.736 903.571 937.407 904.172 935.015C907.359 924.585 908.463 912.728 910.323 901.96L916.429 901.964C917.109 908.471 916.39 923.531 919.874 928.531C920.678 929.684 921.504 930.066 922.865 930.344C923.973 930.154 924.701 930.127 925.586 929.375C928.15 927.194 928.041 906.149 928.447 901.414C930.65 901.583 932.867 901.634 935.076 901.725C935.819 909.328 935.737 917.123 936.764 924.671C937.178 927.718 938.068 929.147 940.494 930.989C941.659 931.192 942.198 931.445 943.176 930.566C947.317 926.844 946.806 907.473 947.076 901.461C948.723 901.458 950.355 901.538 951.999 901.627C954.877 903.776 953.806 921.503 954.969 926.217C955.392 927.929 956.232 929.796 957.956 930.539C959.937 931.392 962.058 930.624 963.845 929.716C965.736 927.207 965.754 907.368 966.051 902.637C968.292 903.085 970.657 903.178 972.935 903.388C973.23 909.884 973.204 916.633 974.053 923.077C974.417 925.842 974.973 928.031 977.247 929.758C978.684 930.019 978.906 929.992 980.273 929.472C982.647 926.983 982.413 907.07 982.589 902.994C986.65 902.972 991.569 903.147 995.437 901.789C996.716 901.339 997.225 900.964 997.851 899.786C997.732 899.338 997.665 898.958 997.385 898.558C996.755 897.658 995.566 896.913 994.536 896.606C993.152 896.194 991.917 896.246 990.668 896.889L990.607 898.391C988.235 899.072 985.246 898.61 982.784 898.506C983.054 892.499 982.332 871.769 983.738 867.665C984.819 867.157 985.518 866.864 986.294 865.918C987.106 860.138 987.356 849.409 985.603 843.89C983.396 842.103 955.989 842.714 950.889 842.668C949.879 804.578 950.053 766.418 949.582 728.314C950.426 729.399 951.302 729.579 952.575 729.907C963.55 732.739 975.269 733.955 986.462 735.855C998.369 737.876 1010.52 740.622 1022.51 741.904C1023 741.957 1023.5 741.99 1024 742.013L1024 1024L0 1024L0 744.666C12.2717 742.585 24.495 740.158 36.7485 737.964C50.8682 735.435 65.0341 733.108 79.053 730.059C79.9007 744.569 80.4486 759.119 81.5441 773.611L36.7196 772.969L37.2805 825.653C37.4463 846.014 36.1911 867.877 41.5269 887.676C43.8988 896.764 48.4621 905.132 54.8176 912.048C56.0246 913.328 57.2826 914.56 58.5883 915.74C67.1098 923.408 78.9766 924.423 89.9167 923.73C102.002 922.965 110.73 920.691 118.985 911.384C121.956 907.504 124.513 903.572 126.657 899.177C138.558 870.302 137.346 836.278 137.536 805.557C137.604 794.574 138.159 783.465 137.643 772.496C123.159 772.526 108.647 773.43 94.1533 773.603C94.4072 758.522 94.4582 743.439 94.3064 728.357C101.941 725.524 111.189 724.843 119.242 723.448L160.647 716.086Z"/><path fill="#57952B" d="M326.425 979.909C336.047 978.879 346.119 979.421 355.795 979.426L405.162 979.437L566.476 979.442L663.112 979.557L691.4 979.55C697.429 979.553 703.838 979.194 709.796 980.116C710.011 981.593 711.114 982.083 710.816 983.668C703.368 987.497 460.771 987.286 436.876 987.162L326.664 985.943L326.425 979.909Z"/><defs><linearGradient id="gradient_1" gradientUnits="userSpaceOnUse" x1="272.49588" y1="894.84009" x2="279.95932" y2="930.94312"><stop offset="0" stop-color="#457924"/><stop offset="1" stop-color="#57992E"/></linearGradient></defs><path fill="url(#gradient_1)" d="M297.129 907.947C319.956 907.621 342.785 907.445 365.614 907.419L360.288 915.835C354.183 915.565 317.852 915.244 314.475 916.563C314.688 917.828 314.904 918.688 314.519 919.944C309.311 924.966 295.977 925.87 288.804 926.848C270.124 929.395 203.323 931.061 190.057 920.205C188.802 919.178 188.408 918.322 188.223 916.743C190.235 911.945 198.443 911.093 202.702 908.889C202.828 908.824 202.952 908.755 203.077 908.688C204.192 908.176 204.954 908.047 206.178 908C207.218 908.838 207.491 909.385 207.615 910.746C207.894 913.822 206.65 918.971 208.854 921.423C211.915 922.777 215.268 923.228 218.579 923.552C230.328 924.7 284.311 925.694 293.3 922.421C294.883 921.845 295.989 920.673 296.639 919.142C298.008 915.916 297.283 911.412 297.129 907.947Z"/><path fill="#387221" d="M54.8176 912.048C56.0246 913.328 57.2826 914.56 58.5883 915.74C67.1098 923.408 78.9766 924.423 89.9167 923.73C102.002 922.965 110.73 920.691 118.985 911.384C127.963 912.042 149.432 912.344 156.046 918.482C156.244 919.11 156.605 919.583 156.269 920.213C155.094 922.413 151.239 923.25 149.007 923.717C118.939 930.008 79.8521 928.946 49.481 924.475C44.9437 923.807 35.6447 922.775 31.9147 920.331C31.3314 919.948 30.8664 919.437 30.3882 918.938C30.3224 917.954 30.1276 918.093 30.7069 917.426C34.3488 913.234 49.4359 912.589 54.8176 912.048Z"/><path fill="#387221" d="M904.172 935.015C908.488 936.207 918.518 936.472 921.268 940.071L920.941 940.985C916.261 944.481 907.377 944.722 901.623 945.334C883.388 947.275 865.305 947.417 846.987 947.199C830.151 946.999 812.982 946.541 796.297 944.094C793.422 943.672 786.369 942.789 784.739 940.201C784.331 939.553 784.508 939.674 784.765 938.837C788.977 935.522 798.2 935.18 803.566 934.339C804.112 936.242 804.94 940.921 806.849 941.838C809.743 943.229 893.101 942.801 901.976 942.075C902.752 939.736 903.571 937.407 904.172 935.015Z"/><path fill="#010100" d="M718.742 945.331C717.447 945.656 716.996 945.988 715.693 945.497C716.026 944.049 717.039 943.322 718.227 942.491C725.652 937.299 737.052 937.053 745.709 938.733C749.182 939.407 754.005 940.611 756.057 943.669L755.876 944.497C755.015 944.877 754.769 944.859 753.795 944.663C753.507 944.605 753.224 944.525 752.938 944.456C748.408 945.106 721.969 946.262 718.742 945.331Z"/><path fill="#57952B" d="M718.742 945.331C719.574 944.895 720.426 944.498 721.294 944.139C730.703 940.338 743.647 940.333 752.938 944.456C748.408 945.106 721.969 946.262 718.742 945.331Z"/><path fill="#010100" d="M279.517 955.142C286.295 954.622 294.883 955.037 301.129 957.935C302.86 958.738 304.692 959.667 305.406 961.529C302.57 962.944 294.065 959.688 290.646 959.162C286.807 958.602 282.246 958.068 278.447 958.945C274.894 959.764 271.302 963.865 267.68 963.017C267.294 961.972 267.092 961.532 267.759 960.474C269.848 957.156 275.871 955.771 279.517 955.142Z"/><path fill="#010100" d="M116.134 942.696C121.894 942.758 129.267 943.1 133.832 946.971C134.396 947.45 134.155 947.15 134.236 948.191C131.527 950.005 124.982 946.858 121.538 946.516C121.333 946.496 121.127 946.481 120.922 946.464C116.548 946.374 103.607 949.073 101.229 947.594L101.7 946.628C105.942 943.714 111.14 943.114 116.134 942.696Z"/><path fill="#A7BD48" d="M948.728 671.732C962.45 674.172 976.136 676.63 989.729 679.729C1001.21 682.346 1012.57 685.492 1024 688.309L1024 742.013C1023.5 741.99 1023 741.957 1022.51 741.904C1010.52 740.622 998.369 737.876 986.462 735.855C975.269 733.955 963.55 732.739 952.575 729.907C951.302 729.579 950.426 729.399 949.582 728.314C949.514 709.444 948.929 690.597 948.728 671.732Z"/><path fill="#A7BD48" d="M0 692.879C22.1459 684.995 49.3362 680.019 72.4737 674.821C72.4223 681.541 70.723 695.887 75.3178 700.936C76.023 701.711 77.0119 702.224 77.9073 702.737C78.1867 711.848 78.5686 720.956 79.053 730.059C65.0341 733.108 50.8682 735.435 36.7485 737.964C24.495 740.158 12.2717 742.585 0 744.666L0 692.879Z"/><path fill="#A7BD48" d="M99.3846 669.65C117.893 663.853 139.179 661.623 158.442 656.538C158.581 676.34 160.119 696.265 160.647 716.086L119.242 723.448C111.189 724.843 101.941 725.524 94.3064 728.357C94.1031 719.836 94.0117 711.313 94.0323 702.79C94.8877 702.176 95.7286 701.552 96.4788 700.809C101.487 695.85 99.4776 676.707 99.3846 669.65Z"/><path fill="#57952B" d="M671.174 907.096C687.194 906.844 703.229 907.258 719.25 907.323L797.252 907.319C797.97 909.501 798.399 911.768 798.889 914.01C766.265 914.363 733.482 914.715 700.879 915.918C694.003 916.171 682.146 915.576 676.106 917.034C673.993 914.179 672.539 910.361 671.174 907.096Z"/><path fill="#D3D9DB" d="M697.2 224.241C698.73 223.267 702.414 227.495 704.739 227.746C704.918 225.922 704.367 224.068 704.321 222.221C704.292 221.019 704.227 221.081 705.048 220.224L705.823 228.556L719.926 228.54C720.235 232.69 720.538 236.805 720.499 240.97C712.647 235.863 704.344 230.291 697.2 224.241Z"/><path fill="#C89A62" d="M674.032 285.314L730.02 320.621C729.814 325.517 729.476 330.449 729.518 335.349L727.262 451.084C720.935 451.058 689.878 450.066 686.232 451.746C685.32 452.946 684.975 453.199 684.94 454.73C684.862 458.099 685.694 461.885 686.143 465.244C687.116 472.156 687.987 479.082 688.754 486.02C691.73 513.433 694.439 540.875 696.882 568.341C692.985 568.192 682.749 566.737 679.939 569.737C677.405 572.441 679.502 586.374 679.589 590.286L687.188 590.984C688.497 598.445 692.301 624.903 695.625 629.803C702.084 629.562 708.547 629.476 715.009 629.545C714.573 636.272 714.361 643.013 714.375 649.754C714.356 654.067 714.616 658.462 714.076 662.746C713.508 710.348 711.451 758.036 709.765 805.613C708.757 834.075 708.95 862.954 706.352 891.294C706.047 893.512 705.985 895.789 705.837 898.025L657.478 898.145C657.515 893.74 657.469 889.325 657.922 884.938C657.778 868.65 658.847 852.271 659.288 835.983L661.892 734.536L673.501 301.247C673.513 295.932 673.69 290.618 674.032 285.314Z"/><path fill="#89613C" d="M674.032 285.314L730.02 320.621C729.814 325.517 729.476 330.449 729.518 335.349C719.44 332.229 683.991 307.998 673.501 301.247C673.513 295.932 673.69 290.618 674.032 285.314Z"/><path fill="#89613C" d="M695.625 629.803C702.084 629.562 708.547 629.476 715.009 629.545C714.573 636.272 714.361 643.013 714.375 649.754C714.356 654.067 714.616 658.462 714.076 662.746C713.804 659.705 713.985 656.515 713.999 653.456C709.454 653.469 704.905 653.586 700.361 653.653C698.354 645.926 698.405 637.216 695.625 629.803Z"/><path fill="#A15D31" d="M657.922 884.938C657.989 886.966 658.072 888.994 658.069 891.024C673.998 891.065 690.489 892.289 706.352 891.294C706.047 893.512 705.985 895.789 705.837 898.025L657.478 898.145C657.515 893.74 657.469 889.325 657.922 884.938Z"/><path fill="#C89A62" d="M435.368 502.444C456.267 501.834 477.313 502.359 498.231 502.37C497.693 552.75 496.775 603.125 495.477 653.491C490.262 654.197 484.851 653.582 479.713 654.476C477.681 654.83 475.704 655.648 474.537 657.432C472.724 660.202 473.742 664.01 474.425 666.997C480.353 670.459 488.811 668.878 495.404 670.521L495.223 682.367C493.411 730.765 493.453 779.377 492.669 827.813L491.867 869.267C491.715 876.44 491.894 883.816 491.289 890.955C491.087 893.312 491.077 895.711 490.986 898.077L439.111 898.056L439.047 890.642L435.368 502.444Z"/><path fill="#A15D31" d="M439.047 890.642L491.289 890.955C491.087 893.312 491.077 895.711 490.986 898.077L439.111 898.056L439.047 890.642Z"/><path fill="#89613C" d="M474.425 666.997C480.353 670.459 488.811 668.878 495.404 670.521L495.223 682.367L494.713 680.337C491.279 678.072 485.208 679.953 481.216 679.677C479.158 679.535 477.158 678.945 475.784 677.325C473.383 674.494 474.165 670.398 474.425 666.997Z"/><path fill="#F1DCC1" d="M360.588 427.117L659 427.022C657.037 584.325 653.812 741.61 649.326 898.861C643.575 898.896 637.823 898.889 632.072 898.84C634.148 828.149 635.791 757.446 636.999 686.735C640.078 686.642 643.128 686.426 646.198 686.172C647.009 679.754 646.646 672.817 646.737 666.339C646.851 658.208 647.688 649.098 646.471 641.061C644.359 638.738 640.911 639.158 637.964 639.015L640.556 458.265L640.834 444.409C607.647 443.999 574.396 444.295 541.204 444.338L379.612 444.432C380.448 460.209 380.222 476.132 380.539 491.932L382.636 581.968L390.021 898.518L371.163 898.556C371.013 865.326 370.558 831.635 368.425 798.473C371.595 797.865 374.457 797.102 376.801 794.721C378.122 793.379 378.637 791.754 378.506 789.889C378.176 785.179 371.143 779.859 367.903 776.777C368.309 757.417 367.235 737.882 366.862 718.514C366.521 685.67 365.832 652.83 364.794 620L360.588 427.117Z"/><path fill="#A77545" d="M375.084 906.955L662.174 907.015C663.484 909.251 664.559 911.609 665.678 913.945C675.312 933.46 686.475 952.277 696.423 971.651C619.436 970.863 542.445 970.655 465.455 971.025L387.426 971.022C369.877 971.022 352.284 970.778 334.748 971.481C346.111 952.827 357.613 934.257 369.252 915.772L375.084 906.955Z"/><path fill="#89613C" d="M375.084 906.955L662.174 907.015C663.484 909.251 664.559 911.609 665.678 913.945C620.406 916.38 574.865 915.054 529.531 915.615C493.204 916.065 456.961 915.653 420.639 915.554C403.657 915.507 386.167 916.816 369.252 915.772L375.084 906.955Z"/><path fill="#744929" d="M652.748 956.103C656.962 955.786 661.519 955.541 665.655 956.519C669.232 957.365 672.775 959.043 674.737 962.262C674.899 963.72 675.005 964.081 674.063 965.325C672.286 967.673 667.526 968.812 664.733 969.395C660.014 970.175 654.627 969.799 650.075 968.26C647.643 967.437 644.087 965.672 643.206 963.02C642.802 961.802 643.142 960.968 643.844 959.96C645.411 957.71 650.175 956.521 652.748 956.103Z"/><path fill="#744929" d="M484.819 934.507C486.745 934.521 488.526 934.611 490.258 935.539C491.791 936.36 493.158 937.831 493.506 939.581C493.752 940.823 493.4 942.07 492.591 943.035C491.088 944.828 488.916 944.994 486.759 945.287C485.467 945.241 484.168 945.179 482.894 944.954C480.996 944.619 479.254 943.767 478.289 942.012C477.736 941.006 477.702 939.832 478.209 938.803C479.445 936.294 482.348 935.302 484.819 934.507Z"/><path fill="#744929" d="M574.125 946.506C574.779 946.463 575.064 946.432 575.759 946.448C577.497 946.488 579.497 947.211 580.591 948.656C581.36 949.671 581.792 950.772 581.563 952.064C581.209 954.064 579.612 955.059 578.067 956.102C577.652 956.083 577.237 956.063 576.823 956.027C574.84 955.852 572.502 955.005 571.346 953.251C570.654 952.201 570.439 951.118 570.772 949.885C571.224 948.215 572.777 947.385 574.125 946.506Z"/><path fill="#744929" d="M636.113 929.654C636.263 929.699 636.416 929.736 636.563 929.789C639.509 930.86 643.002 932.959 644.419 935.795C644.371 937.435 643.983 937.73 643.058 939.038C641.547 939.052 640.233 938.862 638.825 938.272C637.037 937.523 635.377 936.374 634.776 934.433C634.168 932.469 635.092 931.213 636.113 929.654Z"/><path fill="#89613C" d="M374.512 942.524C376.312 942.912 378.256 943.699 379.174 945.431C379.796 946.605 379.533 947.254 379.203 948.423C378.073 949.771 377.15 950.038 375.484 950.514C373.25 950.001 372.025 949.415 370.551 947.624C370.189 946.145 370.178 946.044 370.744 944.634C371.958 943.516 372.963 943.07 374.512 942.524Z"/><path fill="#744929" d="M522.412 959.831C523.857 959.948 525.542 960.151 526.634 961.233C527.622 962.211 527.642 962.638 527.787 963.943C527.207 965.511 526.566 966.009 525.259 966.923C523.984 966.998 522.702 967.12 521.579 966.34C520.58 965.646 520.173 964.76 520.191 963.551C520.213 962.034 521.455 960.866 522.412 959.831Z"/><path fill="#744929" d="M424.456 948.2C426.03 947.331 428.01 947.893 428.893 949.458C429.777 951.023 429.235 953.008 427.678 953.907C426.1 954.818 424.082 954.267 423.186 952.68C422.29 951.093 422.861 949.08 424.456 948.2Z"/><path fill="#744929" d="M416.767 947.71C416.979 947.733 417.191 947.745 417.401 947.778C419.062 948.037 420.114 948.574 421.157 949.883C421.471 951.613 421.268 951.886 420.619 953.453C418.77 953.111 417.145 952.804 415.925 951.275C415.73 949.606 416.068 949.196 416.767 947.71Z"/><path fill="#C89A62" d="M298.376 321.338C316.056 308.993 334.744 297.922 353.09 286.6C352.981 291.391 353.014 296.192 352.981 300.984C351.497 409.14 352.423 517.316 355.76 625.431C356.711 658.937 357.491 692.448 358.101 725.961C358.36 739.799 359.264 753.936 358.883 767.749C356 764.447 350.079 756.826 345.282 757.006C342.536 757.108 339.929 759.552 338.452 761.667C337.118 763.577 336.168 765.901 336.545 768.26C337.101 771.745 342.58 775.412 344.564 778.491C339.851 789.107 323.649 803.998 315.638 813.235C312.265 760.044 312.063 706.768 309.9 653.54L309.062 631.524C316.11 631.492 325.572 632.981 332.263 630.905C334.879 630.093 335.835 628.764 337.112 626.431C340.177 615.086 340.616 601.921 341.68 590.196C343.085 590.036 344.815 589.872 346.092 589.22C347.045 588.734 347.87 588.024 348.228 586.984C349.152 584.3 349.627 578.655 348.308 576.148C345.751 571.285 335.5 573.679 330.67 572.201C329.587 571.085 329.546 569.723 329.53 568.206C329.445 560.332 331.239 551.771 332.099 543.887C334.158 523.701 336.573 503.553 339.341 483.452C340.179 476.945 344.068 456.602 342.094 451.119C338.568 449.276 305.668 450.41 299.177 450.439C300.122 414.855 299.133 379.146 298.898 343.555C297.815 338.422 298.46 327.118 298.376 321.338Z"/><path fill="#89613C" d="M298.376 321.338C316.056 308.993 334.744 297.922 353.09 286.6C352.981 291.391 353.014 296.192 352.981 300.984C341.564 308.69 329.95 316.101 318.15 323.207C311.891 327.02 304.991 330.508 299.059 334.751C299.075 337.566 299.377 340.801 298.898 343.555C297.815 338.422 298.46 327.118 298.376 321.338Z"/><path fill="#89613C" d="M309.062 631.524C316.11 631.492 325.572 632.981 332.263 630.905C334.879 630.093 335.835 628.764 337.112 626.431C339.191 630.021 336.733 641.688 335.586 645.957C334.902 648.505 333.716 651.261 331.369 652.695C327.917 654.804 314.691 653.509 309.9 653.54L309.062 631.524Z"/><path fill="#C89A62" d="M501 671.113L570.782 677.575C570.736 681.085 570.602 684.616 570.657 688.124C571.326 716.984 570.284 745.934 570.149 774.804C570.12 804.072 569.925 833.339 569.565 862.605C569.462 871.852 569.654 881.13 569.405 890.371C569.235 892.916 569.094 895.442 569.074 897.995L496.479 898.051L496.514 890.99C496.89 834.219 498.701 777.401 499.546 720.629C499.731 708.198 500.481 695.754 500.476 683.326C500.588 679.253 500.762 675.181 501 671.113Z"/><path fill="#89613C" d="M501 671.113L570.782 677.575C570.736 681.085 570.602 684.616 570.657 688.124C547.69 686.131 524.81 681.934 501.792 680.412C500.725 681.041 500.777 682.16 500.476 683.326C500.588 679.253 500.762 675.181 501 671.113Z"/><path fill="#A15D31" d="M496.514 890.99C506.248 891.483 516.233 891.034 525.99 891.032C540.463 891.029 554.956 891.317 569.405 890.371C569.235 892.916 569.094 895.442 569.074 897.995L496.479 898.051L496.514 890.99Z"/><path fill="#C89A62" d="M720.537 629.48L776.033 629.516L775.066 653.5L767.527 890.492L767.362 898.195L711.412 898.099L711.515 891.112C711.851 876.842 712.9 862.515 713.385 848.235L717.346 721.288C717.986 699.359 719.208 677.261 718.932 655.326C720.44 647.265 720.318 637.694 720.537 629.48Z"/><path fill="#89613C" d="M720.537 629.48L776.033 629.516L775.066 653.5C766.531 653.486 724.772 652.473 719.783 653.972L718.932 655.326C720.44 647.265 720.318 637.694 720.537 629.48Z"/><path fill="#A15D31" d="M711.515 891.112C730.175 891.153 748.884 891.304 767.527 890.492L767.362 898.195L711.412 898.099L711.515 891.112Z"/><path fill="#F1DCC1" d="M552.116 153.436L556.388 156.556C655.195 224.493 754.452 291.773 854.153 358.391C880.608 375.836 907.301 392.918 934.226 409.63L981.614 438.593C987.931 442.535 994.508 446.282 1000.61 450.541C998.665 457.548 996.609 464.546 994.903 471.614L993.3 477.329C951.544 450.905 910.825 422.724 869.307 395.912L636.816 248.531C616.55 235.734 596.383 222.599 576.332 209.46C561.966 200.046 547.72 190.395 532.926 181.661C539.042 172.065 545.442 162.653 552.116 153.436Z"/><path fill="#C89A62" d="M552.116 153.436L556.388 156.556C551.473 164.1 546.636 171.694 541.879 179.338C552.744 184.798 562.772 192.642 573.065 199.148L657.265 253.458L793.314 339.791C821.001 356.975 849.001 373.779 876.348 391.511C891.631 401.42 906.508 411.969 921.633 422.113C934.409 430.682 947.522 438.731 960.263 447.38C971.656 455.113 983.126 464.789 994.903 471.614L993.3 477.329C951.544 450.905 910.825 422.724 869.307 395.912L636.816 248.531C616.55 235.734 596.383 222.599 576.332 209.46C561.966 200.046 547.72 190.395 532.926 181.661C539.042 172.065 545.442 162.653 552.116 153.436Z"/><path fill="#F1DCC1" d="M478.005 153.689L479.171 153.052C481.996 154.198 495.912 177.481 499.054 181.839C474.966 198.666 449.125 213.352 424.359 229.197L230.114 351.843L110.659 428.303L65.5807 456.88C55.432 463.282 45.4134 470.022 34.8926 475.804L33.1586 467.586C31.7465 461.549 30.8174 455.237 30.159 449.075C69.9424 425.604 109.255 401.343 148.073 376.308C210.43 336.808 271.929 295.971 332.528 253.826C369.907 227.697 407.468 201.828 445.207 176.222C456.074 168.995 466.502 159.738 478.005 153.689Z"/><path fill="#C89A62" d="M478.005 153.689L479.171 153.052C481.996 154.198 495.912 177.481 499.054 181.839C474.966 198.666 449.125 213.352 424.359 229.197L230.114 351.843L110.659 428.303L65.5807 456.88C55.432 463.282 45.4134 470.022 34.8926 475.804L33.1586 467.586C38.1485 465.701 43.0525 462.348 47.6564 459.637C56.6285 454.355 65.5383 448.969 74.3841 443.478C114.132 418.881 152.911 392.732 192.217 367.439L490.758 178.925C485.519 173.782 479.508 160.816 478.005 153.689Z"/><path fill="#C89A62" d="M504.449 452.542L571.498 452.537L571.476 649.294L564.375 649.571C543.289 650.523 522.093 651.316 501.058 653.055C502.387 606.106 502.614 559.031 503.354 512.06C503.667 492.251 503.227 472.318 504.449 452.542Z"/><path fill="#F1DCC1" d="M516.877 246.963C524.603 250.502 532.027 254.668 539.072 259.42C572.216 281.944 594.151 316.241 601.63 355.516L521.625 355.457L435.296 355.509C435.605 345.404 437.607 335.422 441.219 325.979C454.453 290.782 482.869 262.256 516.877 246.963Z"/><path fill="#010100" d="M516.552 260.435C520.297 261.388 525.099 264.662 528.471 266.711C553.669 282.023 578.486 312.421 585.606 341.436C578.939 342.185 571.895 341.556 565.175 341.547C550.991 341.477 536.807 341.556 522.625 341.784C498.882 342.096 475.12 342.01 451.376 342.004C452.097 338.103 453.086 334.257 454.336 330.491C464.785 298.388 486.72 275.463 516.552 260.435Z"/><path fill="#A5D3E3" d="M517.617 269.673C538.035 283.494 554.408 296.995 566.331 319.042C569.076 324.117 571.741 329.217 573.471 334.741C561.491 334.965 549.049 335.507 537.109 334.837C513.855 335.302 490.532 334.926 467.272 334.845C465.476 334.857 464.508 335.136 462.992 334.122C461.894 331.035 466.08 323.43 467.523 320.371C477.502 299.208 496.665 280.081 517.617 269.673Z"/><path fill="#79B6D5" d="M517.617 269.673C538.035 283.494 554.408 296.995 566.331 319.042C569.076 324.117 571.741 329.217 573.471 334.741C561.491 334.965 549.049 335.507 537.109 334.837C539.689 333.624 566.35 334.442 571.152 334.457C567.031 327.387 563.391 319.903 558.938 313.052C549.016 297.786 534.3 284.991 518.903 275.491C515.643 276.335 512.487 277.539 509.493 279.081C492.313 287.97 480.682 304.399 470.901 320.501C468.433 324.563 465.44 328.796 464.016 333.359C463.788 334.091 463.829 333.699 464.32 334.641C465.367 334.599 466.233 334.715 467.272 334.845C465.476 334.857 464.508 335.136 462.992 334.122C461.894 331.035 466.08 323.43 467.523 320.371C477.502 299.208 496.665 280.081 517.617 269.673Z"/><path fill="#C89A62" d="M389.427 452.742L429.536 452.615L431.555 679.414C431.714 700.369 432.606 721.413 432.45 742.351C432.439 743.862 432.614 745.117 431.856 746.451C419.272 746.167 406.655 746.43 394.067 746.499L390.077 539.194L388.863 478.161C388.733 471.154 387.604 459.714 388.604 453.303L389.427 452.742Z"/><path fill="#A19E9F" d="M94.0541 777.595C106.943 777.437 119.843 776.957 132.726 776.869C132.679 778.82 132.773 780.884 132.499 782.812C132.575 803.982 132.983 825.259 132.01 846.412C131.107 866.039 128.518 896.747 113.111 910.567C104.764 918.052 92.8641 920.06 81.9977 919.436C72.0838 918.867 63.767 915.402 57.1792 907.848C50.7959 900.528 46.8579 891.479 44.7444 882.063C40.3203 862.351 42.0137 840.359 41.778 820.248C41.6125 806.119 40.6991 791.569 41.6628 777.494C54.9103 777.419 68.158 777.591 81.3992 778.009C81.7218 783.227 81.3065 798.031 85.587 801.155C86.6835 801.955 87.8174 802.255 89.1662 801.975C90.6938 801.657 91.7732 800.431 92.4416 799.092C95.2153 793.539 94.0639 783.764 94.0541 777.595Z"/><path fill="#4C4E57" d="M41.6628 777.494L42.9702 778.649C46.3375 781.064 47.7584 778.467 48.6166 783.206C49.7136 789.265 49.1524 796.176 49.1877 802.339L49.4694 836.952C49.7256 858.055 48.2632 890.52 67.0839 904.699C74.5388 910.315 84.56 911.75 93.6089 910.226C102.358 908.752 109.456 903.508 114.484 896.365C134.24 868.296 121.702 790.123 127.183 782.128C127.64 781.461 127.617 781.654 128.5 781.438C129.543 782.076 130.033 782.225 130.396 783.476C130.673 784.434 130.702 785.618 130.81 786.616C130.889 785.387 130.985 784.328 131.308 783.131L132.499 782.812C132.575 803.982 132.983 825.259 132.01 846.412C131.107 866.039 128.518 896.747 113.111 910.567C104.764 918.052 92.8641 920.06 81.9977 919.436C72.0838 918.867 63.767 915.402 57.1792 907.848C50.7959 900.528 46.8579 891.479 44.7444 882.063C40.3203 862.351 42.0137 840.359 41.778 820.248C41.6125 806.119 40.6991 791.569 41.6628 777.494Z"/><path fill="#F3F3EF" d="M41.6628 777.494L42.9702 778.649C44.1102 796.299 43.6377 814.273 43.8892 831.962C44.2367 856.404 42.4139 890.137 62.5507 907.869C70.0326 914.457 79.7484 917.169 89.6028 916.498C99.65 915.813 109.073 911.817 115.738 904.118C133.243 883.898 131.138 841.37 131.16 815.726C131.168 806.522 132.094 796.347 130.92 787.264C130.892 787.046 130.847 786.832 130.81 786.616C130.889 785.387 130.985 784.328 131.308 783.131L132.499 782.812C132.575 803.982 132.983 825.259 132.01 846.412C131.107 866.039 128.518 896.747 113.111 910.567C104.764 918.052 92.8641 920.06 81.9977 919.436C72.0838 918.867 63.767 915.402 57.1792 907.848C50.7959 900.528 46.8579 891.479 44.7444 882.063C40.3203 862.351 42.0137 840.359 41.778 820.248C41.6125 806.119 40.6991 791.569 41.6628 777.494Z"/><path fill="#C89A62" d="M575.981 678.293C588.66 679.318 601.686 679.97 614.288 681.582C614.562 682.901 614.757 684.915 615.763 685.88C618.311 688.321 625.626 686.921 629.112 686.932L629.038 694.662C627.047 730.614 627.021 766.83 626.4 802.829C625.9 831.822 624.68 860.819 624.437 889.817C624.285 892.579 624.074 895.351 624.013 898.117C607.475 898.187 590.797 898.728 574.273 898.245L574.399 890.503L575.588 718.761C574.844 705.419 575.59 691.658 575.981 678.293Z"/><path fill="#89613C" d="M575.981 678.293C588.66 679.318 601.686 679.97 614.288 681.582C614.562 682.901 614.757 684.915 615.763 685.88C618.311 688.321 625.626 686.921 629.112 686.932L629.038 694.662C611.397 694.045 593.483 691.78 576.066 688.95C576.058 697.801 577.019 710.314 575.588 718.761C574.844 705.419 575.59 691.658 575.981 678.293Z"/><path fill="#A15D31" d="M574.399 890.503C591.03 890.483 607.814 890.275 624.437 889.817C624.285 892.579 624.074 895.351 624.013 898.117C607.475 898.187 590.797 898.728 574.273 898.245L574.399 890.503Z"/><path fill="#C89A62" d="M576.492 452.683C595.21 453.001 613.979 452.618 632.701 452.518L630.257 637.976L620.377 637.482C618.941 637.637 617.771 637.775 616.64 638.813C614.444 640.833 614.726 644.221 614.777 646.932C601.998 647.391 589.226 648.023 576.464 648.829L576.492 452.683Z"/><path fill="#A77545" d="M156.649 410.327C165.013 404.441 173.568 398.833 182.302 393.511L182.852 410.384L193.14 675.781L196.171 760.281C196.629 773.335 197.469 786.537 197.546 799.588C185.872 806.345 178.234 815.014 173.933 827.942C172.431 786.484 170.652 745.037 168.594 703.603L162.156 537.655L158.633 455.836C158.247 445.178 157.307 434.339 157.514 423.688C157.256 419.232 156.968 414.779 156.649 410.327Z"/><path fill="#744929" d="M156.649 410.327C165.013 404.441 173.568 398.833 182.302 393.511L182.852 410.384C182.792 410.239 182.724 410.097 182.672 409.95C182.348 409.024 182.271 408.075 182.146 407.107C178.44 407.487 161.506 420.868 157.514 423.688C157.256 419.232 156.968 414.779 156.649 410.327Z"/><path fill="#178BBD" d="M208.941 798.847C236.834 798.809 264.737 799.09 292.619 798.142C290.824 837.919 291.847 877.784 291.574 917.596C282.108 918.872 271.901 918.34 262.319 918.368C252.796 918.396 242.605 918.934 233.172 917.833C228.456 917.721 218.791 918.992 214.935 916.556C212.188 913.05 213.179 903.803 213.063 899.215C212.521 890.307 212.634 881.402 212.283 872.491C211.317 847.978 210.392 823.333 208.941 798.847Z"/><path fill="#096289" d="M213.063 899.215C213.998 904.61 219.825 910.18 224.123 913.282C226.546 915.032 230.225 917.345 233.172 917.833C228.456 917.721 218.791 918.992 214.935 916.556C212.188 913.05 213.179 903.803 213.063 899.215Z"/><path fill="#C89A62" d="M825.404 590.986C828.606 590.777 831.831 590.481 835.038 590.406L834.509 599.773C833.824 627.638 832.937 655.498 831.848 683.35C830.793 708.851 829.193 734.468 828.959 759.986C809.785 767.567 796.135 779.61 787.758 798.741C785.607 803.524 784.044 808.551 783.102 813.711C782.679 816.01 782.388 820.754 781.116 822.557C779.906 824.272 776.539 825.471 774.745 827.803C774.614 827.974 774.471 828.137 774.336 828.305L774.094 828.609L777.858 719.94L779.287 674.181C779.542 667.386 779.443 660.304 780.174 653.569C780.949 645.602 781.075 637.505 781.52 629.506C787.464 629.512 813.847 628.45 817.684 630.072C819.076 630.027 819.954 629.823 821.231 629.343C823.528 626.923 824.243 603.23 824.644 598.085C825.133 595.729 825.256 593.379 825.404 590.986Z"/><path fill="#89613C" d="M781.52 629.506C787.464 629.512 813.847 628.45 817.684 630.072C817.11 637.841 816.678 645.647 815.953 653.403C804.317 654.772 791.918 653.517 780.174 653.569C780.949 645.602 781.075 637.505 781.52 629.506Z"/><path fill="#89613C" d="M825.404 590.986C828.606 590.777 831.831 590.481 835.038 590.406L834.509 599.773C831.27 598.446 828.157 597.702 824.644 598.085C825.133 595.729 825.256 593.379 825.404 590.986Z"/><path fill="#C89A62" d="M252.535 632.112C269.637 632.372 286.743 632.172 303.833 631.512C304.32 638.859 304.507 646.227 304.916 653.579L308.709 766.273L310.065 801.713C310.321 807.105 310.342 812.651 311.02 817.996C306.714 823.582 302.417 829.849 297.141 834.559C297.018 825.581 297.243 816.639 297.514 807.667C297.695 801.669 298.625 794.934 297.506 789.046C296.99 786.327 295.866 783.783 293.838 781.853C287.247 775.582 265.921 776.098 256.689 776.009C255.989 737.754 253.397 699.394 253.429 661.149C252.194 651.796 252.843 641.585 252.535 632.112Z"/><path fill="#89613C" d="M252.535 632.112C269.637 632.372 286.743 632.172 303.833 631.512C304.32 638.859 304.507 646.227 304.916 653.579C287.965 652.609 270.467 653.004 253.475 653.222C253.515 655.851 253.674 658.53 253.429 661.149C252.194 651.796 252.843 641.585 252.535 632.112Z"/><path fill="#C89A62" d="M617.963 248.936C635.066 259.943 652.585 270.752 669.106 282.603C669.017 288.101 668.485 293.844 668.724 299.309C669.092 303.611 668.626 308.362 668.482 312.688C668.22 320.142 668.016 327.598 667.87 335.055L666.063 418.154C648.739 418.422 631.412 418.535 614.086 418.493C615.755 369.174 615.952 319.732 617.138 270.388C617.006 263.281 617.458 256.025 617.963 248.936Z"/><path fill="#89613C" d="M617.963 248.936C635.066 259.943 652.585 270.752 669.106 282.603C669.017 288.101 668.485 293.844 668.724 299.309C662.844 294.214 655.769 290.39 649.242 286.189C638.501 279.38 627.956 272.266 617.621 264.855C617.618 266.662 617.812 268.697 617.138 270.388C617.006 263.281 617.458 256.025 617.963 248.936Z"/><path fill="#C89A62" d="M358.173 283.34C375.393 272.065 393.209 261.704 410.399 250.41C410.026 271.263 410.461 292.189 410.393 313.054C410.366 321.465 411.079 330.719 410.084 339.017L410.226 418.471C392.646 418.383 375.066 418.42 357.487 418.584C357.35 378.594 357.442 338.604 357.764 298.615C357.819 293.518 357.848 288.429 358.173 283.34Z"/><path fill="#89613C" d="M358.173 283.34C375.393 272.065 393.209 261.704 410.399 250.41C410.026 271.263 410.461 292.189 410.393 313.054C410.366 321.465 411.079 330.719 410.084 339.017C409.358 330.863 409.881 322.295 409.895 314.108L409.983 265.688C392.313 276.24 374.902 287.219 357.764 298.615C357.819 293.518 357.848 288.429 358.173 283.34Z"/><path fill="#EB782A" d="M792.123 860.624L911.688 860.501C911.189 869.071 909.208 877.764 907.759 886.231C904.884 903.03 902.003 920.392 897.573 936.852C894.381 936.894 891.181 936.99 887.989 936.975C861.979 937.031 835.805 937.506 809.816 936.538C807.271 927.707 805.448 918.663 803.331 909.721C800.352 897.137 797.213 884.57 794.67 871.89C793.838 868.134 793.066 864.352 792.123 860.624Z"/><path fill="#D24F15" d="M792.123 860.624L911.688 860.501C911.189 869.071 909.208 877.764 907.759 886.231C904.884 903.03 902.003 920.392 897.573 936.852C894.381 936.894 891.181 936.99 887.989 936.975C890.996 933.404 894.478 902.722 895.895 895.764C897.495 887.905 899.884 880.242 901.423 872.363C889.772 871.223 874.295 872.034 862.239 871.894C841.232 871.65 820.051 870.772 799.058 871.067C797.371 871.091 796.127 870.969 794.67 871.89C793.838 868.134 793.066 864.352 792.123 860.624Z"/><path fill="#8BB348" d="M871.161 660.086L911.962 666.338C912.904 667.544 913.715 668.943 914.559 670.225C920.23 671.695 926.102 671.561 931.917 671.671C932.018 683.73 932.318 695.835 932.09 707.89C932.669 716.924 932.465 726.11 932.496 735.166L932.701 779.255L933.3 824.887C933.326 829.405 933.841 834.081 933.637 838.56C933.572 839.974 933.303 840.973 932.608 842.197C931.514 842.74 931.378 842.778 930.167 842.639C928.216 839.337 929.675 827.333 929.6 822.958L921.291 822.866C915.552 799.756 904.839 779.145 883.815 766.485C878.997 763.583 873.767 761.406 868.494 759.475C868.726 743.204 868.921 726.698 869.808 710.455L871.161 660.086Z"/><path fill="#A7BD48" d="M871.161 660.086L911.962 666.338C912.904 667.544 913.715 668.943 914.559 670.225C920.23 671.695 926.102 671.561 931.917 671.671C932.018 683.73 932.318 695.835 932.09 707.89C931.594 713.511 931.877 719.248 931.935 724.887C925.269 723.766 871.905 714.775 870.312 713.725L869.808 710.455L871.161 660.086Z"/><path fill="#A77545" d="M849.054 396.92C856.208 401.247 863.599 405.514 870.377 410.409C870.17 414.297 870.08 418.031 870.422 421.913C870.458 435.734 869.424 449.754 868.867 463.573L865.823 542.989C863.977 614.212 861.699 685.423 858.988 756.617C851.522 756.104 844.765 756.187 837.431 757.785C842.053 641.274 845.745 524.728 848.506 408.159C848.61 404.405 848.681 400.658 849.054 396.92Z"/><path fill="#744929" d="M849.054 396.92C856.208 401.247 863.599 405.514 870.377 410.409C870.17 414.297 870.08 418.031 870.422 421.913C863.905 416.55 855.772 412.43 848.506 408.159C848.61 404.405 848.681 400.658 849.054 396.92Z"/><path fill="#C89A62" d="M203.884 786.81C202.774 773.978 202.707 760.939 202.172 748.063C200.996 723.219 200.074 698.363 199.407 673.5C198.632 646.873 196.735 620.221 196.155 593.613C196.124 592.206 196.081 590.993 196.591 589.64C198.125 589.646 199.928 590.379 201.266 591.125C202.384 602.169 203.458 612.843 205.378 623.8C206.421 626.245 207.422 629.359 210.125 630.403C216.63 632.916 239.214 631.333 247.316 631.453C247.536 638.866 247.13 647.274 248.548 654.546C248.103 667.663 249.078 681.162 249.407 694.305L251.671 776.023C244.11 775.959 236.589 776.257 229.038 776.595C227.921 770.939 226.533 756.253 221.909 753.127C220.554 752.212 218.961 752.055 217.394 752.428C215.697 752.832 214.437 753.622 213.547 755.146C211.381 758.851 215.906 772.968 216.88 777.588C211.03 779.319 207.133 781.533 203.884 786.81Z"/><path fill="#89613C" d="M205.378 623.8C206.421 626.245 207.422 629.359 210.125 630.403C216.63 632.916 239.214 631.333 247.316 631.453C247.536 638.866 247.13 647.274 248.548 654.546C248.103 653.978 247.788 653.66 247.039 653.492C244.72 652.972 241.638 653.247 239.236 653.205C230.684 653.056 221.101 653.825 212.679 652.316C211.789 651.553 210.878 650.783 210.079 649.923C204.387 643.797 205.361 631.633 205.378 623.8Z"/><path fill="#C89A62" d="M415.568 247.287C431.485 236.544 447.653 226.177 464.057 216.194L464.073 232.682C464.328 247.087 464.141 261.506 464.474 275.904C447.132 296.695 433.407 318.578 428.388 345.629C427.608 349.837 426.245 355.302 426.53 359.504C426.632 361.005 427.166 362.532 428.476 363.404C429.35 363.985 430.482 364.217 431.488 364.464C442.38 364.155 453.278 364.082 464.173 364.245C464.384 373.016 464.926 382.014 464.397 390.769L464.506 418.371L415.53 418.444C415.021 382.798 415.054 347.103 415.085 311.453L414.988 281.661C414.963 275.485 414.664 269.071 415.323 262.929C415.594 257.746 415.501 252.48 415.568 247.287Z"/><path fill="#89613C" d="M415.568 247.287C431.485 236.544 447.653 226.177 464.057 216.194L464.073 232.682C447.39 242.101 431.945 253.449 415.323 262.929C415.594 257.746 415.501 252.48 415.568 247.287Z"/><path fill="#89613C" d="M431.488 364.464C442.38 364.155 453.278 364.082 464.173 364.245C464.384 373.016 464.926 382.014 464.397 390.769C463.105 384.742 463.943 377.165 463.949 370.98C459.507 370.933 434.438 371.388 432.104 369.781C431.247 368.127 431.461 366.275 431.488 364.464Z"/><path fill="#C89A62" d="M560.602 211.981C569.495 217.158 577.948 223.121 586.58 228.717C595.44 234.461 604.535 239.902 613.127 246.044C612.028 255.584 613.287 265.262 612.079 274.697L609.038 418.398L560.994 418.337L561.982 370.764L562.197 364.195C576.103 364.056 590.719 365.363 604.5 363.85C605.666 363.642 606.599 363.323 607.684 362.852C608.709 361.619 608.993 360.703 609.094 359.136C609.371 354.83 607.552 349.365 606.58 345.165C601.372 322.679 589.215 300.69 574.783 282.825C570.172 277.117 564.997 271.811 560.142 266.304C559.719 255.564 559.985 244.758 560.071 234.012C559.874 226.68 560.436 219.314 560.602 211.981Z"/><path fill="#89613C" d="M560.602 211.981C569.495 217.158 577.948 223.121 586.58 228.717C595.44 234.461 604.535 239.902 613.127 246.044C612.028 255.584 613.287 265.262 612.079 274.697C611.745 270.675 612.004 266.519 612.055 262.481C603.876 256.033 594.274 250.78 585.459 245.238C577.313 240.117 569.297 234.447 560.931 229.717C560.182 231.052 560.222 232.507 560.071 234.012C559.874 226.68 560.436 219.314 560.602 211.981Z"/><path fill="#89613C" d="M562.197 364.195C576.103 364.056 590.719 365.363 604.5 363.85C604.852 365.862 605.191 367.528 604.782 369.55L603.949 370.659C598.602 371.325 592.89 370.748 587.486 370.7C578.984 370.679 570.483 370.7 561.982 370.764L562.197 364.195Z"/><path fill="#C89A62" d="M241.483 356.939C258.424 345.222 276.276 333.991 294.118 323.681C294.933 343.711 294.39 363.856 294.322 383.902C294.283 395.278 295.012 406.943 294.391 418.27L294.557 450.431L242.676 450.508C242.704 427.07 242.455 403.632 241.93 380.199C240.982 372.631 241.485 364.571 241.483 356.939Z"/><path fill="#89613C" d="M241.483 356.939C258.424 345.222 276.276 333.991 294.118 323.681C294.933 343.711 294.39 363.856 294.322 383.902C294.283 395.278 295.012 406.943 294.391 418.27C292.953 410.178 293.892 399.734 293.896 391.365C293.863 373.476 293.924 355.587 294.08 337.699C277.165 349.356 259.237 359.821 241.769 370.637C242 373.857 242.062 376.973 241.93 380.199C240.982 372.631 241.485 364.571 241.483 356.939Z"/><path fill="#C89A62" d="M734.952 323.167C751.713 334.049 768.563 344.794 785.498 355.402L785.469 370.532C785.456 397.33 784.44 424.184 784.022 450.987L732.094 450.997C733.293 430.371 733.219 409.508 733.549 388.843C733.813 372.334 734.56 355.836 734.439 339.321C734.506 333.925 734.572 328.553 734.952 323.167Z"/><path fill="#89613C" d="M734.952 323.167C751.713 334.049 768.563 344.794 785.498 355.402L785.469 370.532C768.926 359.778 751.772 348.753 734.439 339.321C734.506 333.925 734.572 328.553 734.952 323.167Z"/><path fill="#C89A62" d="M394.444 751.345C407.071 751.202 419.698 751.155 432.326 751.204L433.194 842.488C433.322 858.487 433.928 874.585 433.525 890.577L433.475 898.022C421.524 897.966 409.573 898.002 397.623 898.13L397.494 890.134L394.444 751.345Z"/><path fill="#A15D31" d="M397.494 890.134C409.503 890.383 421.513 890.531 433.525 890.577L433.475 898.022C421.524 897.966 409.573 898.002 397.623 898.13L397.494 890.134Z"/><path fill="#C89A62" d="M791.085 358.678C802.298 365.638 813.429 372.731 824.475 379.953C829.72 383.342 834.999 387.22 840.487 390.179C840.368 394.955 839.977 399.921 840.224 404.679C840.986 410.211 840.059 416.995 839.902 422.656C839.646 435.608 839.274 448.558 838.785 461.504C837.574 494.553 837.206 527.626 835.689 560.666C829.839 560.605 823.989 560.699 818.145 560.949C820.483 538.881 822.317 516.742 824.423 494.649C825.549 482.838 827.387 470.866 827.919 459.032C828.026 456.657 827.976 454.344 827.247 452.062C823.08 449.717 795.506 450.957 789.219 450.98L790.571 380.669C790.376 373.333 790.942 366.01 791.085 358.678Z"/><path fill="#89613C" d="M791.085 358.678C802.298 365.638 813.429 372.731 824.475 379.953C829.72 383.342 834.999 387.22 840.487 390.179C840.368 394.955 839.977 399.921 840.224 404.679C835.171 401.05 829.557 397.979 824.232 394.754C813.082 387.999 801.777 381.329 791.076 373.88C791.009 376.161 790.806 378.402 790.571 380.669C790.376 373.333 790.942 366.01 791.085 358.678Z"/><path fill="#A19E9F" d="M480.582 124.002C492.245 102.607 506.311 82.2595 517.24 60.5209C529.523 84.4386 544.264 107.075 556.598 130.92C552.391 136.513 548.303 142.194 544.336 147.959C535.178 161.744 525.529 175.223 516.278 188.951C505.288 176.276 495.455 160.307 486.019 146.308C482.792 141.519 479.935 135.709 475.928 131.596L480.582 124.002Z"/><path fill="#656974" d="M480.582 124.002C485.57 135.091 496.244 146.386 507.73 150.794C522.608 156.504 530.263 151.553 544.336 147.959C535.178 161.744 525.529 175.223 516.278 188.951C505.288 176.276 495.455 160.307 486.019 146.308C482.792 141.519 479.935 135.709 475.928 131.596L480.582 124.002Z"/><path fill="#C89A62" d="M187.424 390.155C203.764 379.966 219.923 369.211 236.622 359.641C236.869 364.129 236.937 368.638 237.079 373.132C237.467 398.914 237.702 424.698 237.786 450.483C223.862 450.492 209.939 450.647 196.018 450.95C197.235 466.849 199.248 482.685 200.97 498.535L209.086 572.067C204.538 572.076 199.934 571.76 195.58 573.286C194.197 528.43 192.213 483.594 189.628 438.791C188.96 427.064 188.932 415.24 188.044 403.537C187.734 399.081 187.527 394.619 187.424 390.155Z"/><path fill="#89613C" d="M187.424 390.155C203.764 379.966 219.923 369.211 236.622 359.641C236.869 364.129 236.937 368.638 237.079 373.132C220.795 383.389 204.155 392.989 188.044 403.537C187.734 399.081 187.527 394.619 187.424 390.155Z"/><path fill="#A77545" d="M206.172 590.009L336.71 590.09C336.123 601.172 334.463 612.75 332.739 623.723C332.421 624.22 331.969 625.071 331.523 625.497C330.704 626.279 330.266 626.336 329.209 626.427C324.065 626.87 318.655 626.553 313.479 626.554L287.068 626.677C264.84 626.803 240.832 627.641 218.777 626.636C217.161 626.562 213.207 626.556 212.103 625.458C207.265 620.646 205.82 596.844 206.172 590.009Z"/><path fill="#F3F3EF" d="M470.352 139.034C472.98 141.633 475.008 145.392 477.004 148.482C448.259 169.67 418.017 188.861 388.778 209.359C294.195 276.564 197.476 340.71 98.7698 401.698C97.5918 402.479 96.6856 403.208 95.2866 403.525C102.44 396.476 117.705 387.419 126.543 381.106C152.743 362 179.155 343.187 205.775 324.67L356.183 219.171L421.939 172.731C437.952 161.371 453.811 149.608 470.352 139.034Z"/><path fill="#A77545" d="M692.693 591.557C734.737 592.965 777.118 591.716 819.161 590.501L819.047 596.355C818.796 600.732 818.828 605.341 818.179 609.667C817.887 614.444 817.624 619.223 817.391 624.004L698.957 624.015L695.751 605.651L694.117 598.429L692.693 591.557Z"/><path fill="#A15D31" d="M695.751 605.651C699.444 609.023 703.167 612.271 707.818 614.262C722.522 620.558 752.839 619.083 769.113 618.347C780.666 617.825 796.443 617.798 807.285 614.55C811.143 613.395 814.629 611.536 818.179 609.667C817.887 614.444 817.624 619.223 817.391 624.004L698.957 624.015L695.751 605.651Z"/><path fill="#A15D31" d="M692.693 591.557C734.737 592.965 777.118 591.716 819.161 590.501L819.047 596.355C810.227 596.396 801.446 597.225 792.631 597.394L717.3 598.194C713.682 598.232 696.145 597.504 694.117 598.429L692.693 591.557Z"/><path fill="#A5D3E3" d="M760.539 471.252L804.67 471.039L804.238 477.389L795.991 571.564C785.522 571.523 774.998 570.756 764.519 570.545C763.728 565.135 760.954 560.11 760.401 554.86C759.497 546.281 760.241 537.048 760.287 528.408L760.461 476.959L760.539 471.252Z"/><path fill="#6C93A1" d="M760.539 471.252L804.67 471.039L804.238 477.389C800.377 476.179 767.523 476.983 760.461 476.959L760.539 471.252Z"/><path fill="#F1A42F" d="M918.124 828L924.403 828.034C924.007 834.963 926.071 848.863 920.304 853.615C919.053 854.645 917.416 855.301 915.805 855.457C907.156 856.294 897.918 855.715 889.209 855.733L836.896 855.702L803.293 855.593C797.77 855.594 791.746 856.156 786.301 855.427C783.906 855.106 782.144 853.68 780.819 851.718C780.057 850.591 779.55 849.387 779.072 848.121C778.489 843.331 777.644 833.24 780.171 829.198C786.642 827.404 824.68 828.59 833.999 828.598L918.124 828Z"/><path fill="#D24F15" d="M918.124 828L924.403 828.034C924.007 834.963 926.071 848.863 920.304 853.615C919.053 854.645 917.416 855.301 915.805 855.457C907.156 856.294 897.918 855.715 889.209 855.733L836.896 855.702L803.293 855.593C797.77 855.594 791.746 856.156 786.301 855.427C783.906 855.106 782.144 853.68 780.819 851.718C780.057 850.591 779.55 849.387 779.072 848.121C792.332 847.662 805.574 847.965 818.838 847.966L869.428 847.64C880.34 847.578 891.717 848.343 902.562 847.392C906.32 847.063 914.196 846.129 916.939 843.417C919.783 840.605 918.332 831.712 918.124 828Z"/><path fill="#F3F3EF" d="M561.671 140.286C571.272 146.453 580.336 153.663 589.706 160.208L647.724 200.432C698.624 235.688 749.242 271.351 799.571 307.418C831.616 329.984 863.482 352.801 895.167 375.869L918.805 392.875C923.296 396.09 928.176 399.132 932.259 402.84L931.797 402.994L928.795 401.278C848.872 350.572 770.077 298.11 692.468 243.93L599.747 180.501C584.841 170.255 569.675 160.424 555.161 149.616C557.206 146.397 559.38 143.335 561.671 140.286Z"/><path fill="#A5D3E3" d="M272.712 474.153C287.782 474.39 302.972 473.457 318.017 474.14C316.787 484.286 307.717 564.47 305.984 566.979C304.877 567.428 304.222 567.329 303.055 567.157C293.045 566.314 283.049 566.539 273.016 566.707L272.891 528.111C272.295 520.544 272.574 512.716 272.557 505.119C272.534 494.807 272.363 484.459 272.712 474.153Z"/><path fill="#79B6D5" d="M318.017 474.14C316.787 484.286 307.717 564.47 305.984 566.979C304.877 567.428 304.222 567.329 303.055 567.157C303.121 557.032 305.127 546.796 306.59 536.794C309.508 516.849 312.88 495.942 312.625 475.779C312.741 475.586 312.832 475.374 312.973 475.199C313.744 474.244 316.781 474.257 318.017 474.14Z"/><path fill="#178BBD" d="M272.712 474.153C287.782 474.39 302.972 473.457 318.017 474.14C316.781 474.257 313.744 474.244 312.973 475.199C312.832 475.374 312.741 475.586 312.625 475.779C299.7 477.042 285.952 476.108 272.947 476.037C272.959 493.274 273.822 510.914 272.891 528.111C272.295 520.544 272.574 512.716 272.557 505.119C272.534 494.807 272.363 484.459 272.712 474.153Z"/><path fill="#A5D3E3" d="M220.856 474.051L250.51 474.09C255.952 474.081 261.901 473.492 267.248 474.356L267.97 475.58C267.197 483.645 267.538 492.024 267.526 500.134L267.501 539.42C267.497 548.537 267.713 557.687 267.065 566.785C263.678 559.975 259.819 554.085 252.177 551.556C245.949 549.496 239.442 550.803 233.569 553.323L229.201 555.886C227.665 529.16 224.05 500.715 220.856 474.051Z"/><path fill="#79B6D5" d="M220.856 474.051L250.51 474.09C255.952 474.081 261.901 473.492 267.248 474.356L267.97 475.58C262.741 476.562 256.837 476.15 251.52 476.136L225.989 476.017C229.719 501.481 232.5 527.612 233.569 553.323L229.201 555.886C227.665 529.16 224.05 500.715 220.856 474.051Z"/><path fill="#C89A62" d="M316.382 891.191C316.011 884.081 314.216 870.605 315.966 863.985C317.468 858.307 321.838 852.227 324.65 847.074C330.219 836.766 335.849 826.492 341.541 816.251C345.509 808.995 348.895 801.335 352.994 794.185C353.868 792.66 354.76 791.22 356.286 790.282C356.925 790.502 357.6 790.727 358.055 791.265C359.342 792.787 359.619 795.982 359.792 797.906C360.799 809.074 360.348 820.736 360.52 831.966L361.581 882.754C362.128 887.68 361.928 892.459 361.519 897.388C346.508 897.14 331.494 897.031 316.481 897.061L316.382 891.191Z"/><path fill="#A15D31" d="M361.581 882.754C362.128 887.68 361.928 892.459 361.519 897.388C346.508 897.14 331.494 897.031 316.481 897.061L316.382 891.191C331.455 891.493 346.491 892.202 361.578 892.365C361.483 889.151 361.48 885.969 361.581 882.754Z"/><path fill="#A5D3E3" d="M709.247 471.348L755.292 471.305C755.573 485.542 755.637 499.782 755.482 514.02C755.429 522.008 755.736 530.247 755.101 538.204C755.279 542.495 755.097 546.868 755.091 551.167C753.548 549.724 751.899 548.399 750.157 547.204C745.335 543.923 739.704 541.654 733.806 542.932C726.357 544.547 721.679 550.664 717.745 556.665C715.479 530.024 712.289 503.462 709.767 476.843C709.592 475.012 709.402 473.181 709.247 471.348Z"/><path fill="#178BBD" d="M709.247 471.348L755.292 471.305C755.573 485.542 755.637 499.782 755.482 514.02C755.429 522.008 755.736 530.247 755.101 538.204C754.327 530.375 754.941 521.956 755.042 514.077C755.226 501.554 755.253 489.03 755.124 476.507L725.611 476.456C720.644 476.452 714.581 475.803 709.767 476.843C709.592 475.012 709.402 473.181 709.247 471.348Z"/><path fill="#8F9EB0" d="M920.314 631.944C927.274 631.104 934.585 631.447 941.596 631.454C949.161 631.461 956.826 631.237 964.378 631.693C964.886 642.069 963.802 652.607 963.505 662.993C960.579 663.043 958.137 663.293 955.293 664.071C954.016 664.019 953.131 664.103 951.908 664.477C954.003 664.665 956.09 664.933 958.165 665.282C953.627 665.617 949.102 665.383 944.561 665.481C944.525 670.653 944.615 675.87 944.44 681.036C944.736 692.797 947.58 839.646 946.785 841.725C946.655 842.065 946.285 842.255 946.035 842.52L943.644 842.778C941.768 842.457 939.733 842.61 937.828 842.605C938.105 802.098 937.182 761.475 936.767 720.963C936.578 702.603 936.054 684.187 936.553 665.832C929.795 666.389 923.353 666.562 916.584 665.851C915.382 655.051 915.481 643.709 914.972 632.828C916.822 632.217 918.371 632.028 920.314 631.944Z"/><path fill="#010100" d="M920.314 631.944C927.274 631.104 934.585 631.447 941.596 631.454C949.161 631.461 956.826 631.237 964.378 631.693C964.886 642.069 963.802 652.607 963.505 662.993C960.579 663.043 958.137 663.293 955.293 664.071C955.643 662.952 956.287 662.306 957.018 661.415L956.792 660.874L955.646 660.758C951.189 661.043 946.737 661.395 942.291 661.815C936.688 662.435 930.503 662.703 924.869 662.51C922.58 662.431 921.827 662.258 920.255 660.562C919.934 661.953 919.816 663.063 919.829 664.491L916.584 665.851C915.382 655.051 915.481 643.709 914.972 632.828C916.822 632.217 918.371 632.028 920.314 631.944Z"/><path fill="#6C93A1" d="M920.314 631.944C927.274 631.104 934.585 631.447 941.596 631.454C949.161 631.461 956.826 631.237 964.378 631.693C964.886 642.069 963.802 652.607 963.505 662.993C960.579 663.043 958.137 663.293 955.293 664.071C955.643 662.952 956.287 662.306 957.018 661.415L956.792 660.874L955.646 660.758C956.727 660.41 957.408 660.058 958.304 659.359C960.536 654.238 958.898 642.047 959.194 635.858C950.425 634.306 929.383 635.744 919.416 635.961C918.618 635.847 917.664 635.791 916.903 635.538C915.495 635.071 915.469 634.088 914.972 632.828C916.822 632.217 918.371 632.028 920.314 631.944Z"/><path fill="#A5D3E3" d="M914.972 632.828C916.822 632.217 918.371 632.028 920.314 631.944C927.629 632.339 957.433 630.502 961.721 633.059L962.062 634.155C961.29 635.222 961.133 635.527 959.947 636.052L959.194 635.858C950.425 634.306 929.383 635.744 919.416 635.961C918.618 635.847 917.664 635.791 916.903 635.538C915.495 635.071 915.469 634.088 914.972 632.828Z"/><path fill="#79B6D5" d="M914.972 632.828C915.469 634.088 915.495 635.071 916.903 635.538C917.664 635.791 918.618 635.847 919.416 635.961C919.425 642.83 921.145 654.93 920.255 660.562C919.934 661.953 919.816 663.063 919.829 664.491L916.584 665.851C915.382 655.051 915.481 643.709 914.972 632.828Z"/><path fill="#F3F3EF" d="M923.069 639.559C934.025 639.158 945.043 639.334 956.007 639.38C956.03 645.288 956.511 651.783 955.479 657.577C945.021 657.763 934.549 658.382 924.089 658.671C923.711 652.302 923.371 645.932 923.069 639.559Z"/><path fill="#F3F3EF" d="M943.644 842.778C942.932 807.855 942.515 772.926 942.396 737.996C942.12 714.58 940.828 691.714 943.208 668.311L943.696 667.917C944.388 672.02 943.73 676.377 944.361 680.552C944.385 680.714 944.414 680.875 944.44 681.036C944.736 692.797 947.58 839.646 946.785 841.725C946.655 842.065 946.285 842.255 946.035 842.52L943.644 842.778Z"/><path fill="#F3F3EF" d="M919.829 664.491C919.816 663.063 919.934 661.953 920.255 660.562C921.827 662.258 922.58 662.431 924.869 662.51C930.503 662.703 936.688 662.435 942.291 661.815L944.398 662.411L943.563 662.774L943.678 662.249L943.184 662.044L942.816 662.913C935.29 664.269 927.464 664.229 919.829 664.491Z"/><path fill="#497E77" d="M690.866 457.469C706.482 457.107 722.172 457.423 737.797 457.449L821.148 457.473C820.417 470.056 818.454 482.704 817.266 495.266C815.04 520.655 812.99 546.059 811.115 571.476L802.39 571.383C805.974 539.489 808.042 507.341 811.142 475.379C811.464 472.624 812.533 468.28 811.025 465.877C808.886 465.239 806.773 465.042 804.553 464.979C788.53 464.526 772.414 465.245 756.381 465.321C747.354 465.364 710.399 464.386 704.166 466.279C702.503 473.97 707.516 506.104 708.5 515.673C710.321 533.381 711.486 551.337 714.067 568.942C710.35 568.685 706.596 568.706 702.87 568.641C701.389 550.144 699.219 531.722 697.263 513.272C695.292 494.669 693.533 475.985 690.866 457.469Z"/><path fill="#C89A62" d="M434.961 452.631C456.356 452.142 477.862 452.526 499.268 452.496C498.77 467.364 498.477 482.238 498.391 497.114C477.404 497.333 456.406 497.165 435.417 497.13C435.455 482.294 434.891 467.467 434.961 452.631Z"/><defs><linearGradient id="gradient_2" gradientUnits="userSpaceOnUse" x1="759.9259" y1="217.88173" x2="760.3576" y2="204.00269"><stop offset="0" stop-color="#566F86"/><stop offset="1" stop-color="#6D91AB"/></linearGradient></defs><path fill="url(#gradient_2)" d="M711.084 194.09L810.385 194.044L809.994 204.099C809.988 210.325 809.916 216.557 810.158 222.78C805.738 223.157 801.042 222.8 796.597 222.76L769.664 222.572C750.385 222.486 730.653 223.368 711.419 222.396C710.673 221.025 710.884 219.789 710.896 218.264L711.322 204.52L711.084 194.09Z"/><path fill="#79B6D5" d="M711.084 194.09L810.385 194.044L809.994 204.099C805.701 206.018 721.486 204.654 711.322 204.52L711.084 194.09Z"/><path fill="#656974" d="M710.896 218.264C733.881 215.901 757.418 216.516 780.49 216.804C789.612 216.918 799.901 216.245 808.871 217.966C809.355 219.137 809.533 219.748 809.373 221.011C808.884 221.603 808.685 221.875 807.981 222.219L808.495 222.055L809.083 222.567L810.158 222.78C805.738 223.157 801.042 222.8 796.597 222.76L769.664 222.572C750.385 222.486 730.653 223.368 711.419 222.396C710.673 221.025 710.884 219.789 710.896 218.264Z"/><path fill="#F1A42F" d="M76.8405 692.858C76.3933 680.534 76.6702 668.167 76.4652 655.834C76.1597 637.459 75.439 619.121 75.3834 600.738C75.3568 591.941 73.9207 579.528 75.0121 571.181C75.4588 567.764 76.9174 564.472 79.7433 562.369C81.5032 561.059 83.7794 560.342 85.966 560.777C88.8018 561.34 90.3924 563.132 91.9397 565.426C93.637 568.434 94.3373 571.234 94.5669 574.664C95.4464 587.801 94.6284 601.357 94.7361 614.542C94.9639 634.433 95.0625 654.325 95.0318 674.218C95.0295 680.099 95.9793 690.385 94.6166 695.689C94.3406 696.764 94.0665 697.098 93.0993 697.625C90.0516 699.285 82.65 699.01 79.3593 697.853C78.3917 697.513 77.9177 697.082 77.5398 696.129C77.1181 695.066 76.944 693.993 76.8405 692.858Z"/><path fill="#EB782A" d="M91.9397 565.426C93.637 568.434 94.3373 571.234 94.5669 574.664C95.4464 587.801 94.6284 601.357 94.7361 614.542C94.9639 634.433 95.0625 654.325 95.0318 674.218C95.0295 680.099 95.9793 690.385 94.6166 695.689C94.3406 696.764 94.0665 697.098 93.0993 697.625C90.0516 699.285 82.65 699.01 79.3593 697.853C78.3917 697.513 77.9177 697.082 77.5398 696.129C77.1181 695.066 76.944 693.993 76.8405 692.858C80.9355 691.544 85.3439 692.291 89.4853 690.965C94.2769 686.078 89.9849 581.199 91.9397 565.426Z"/><path fill="#89613C" d="M219.478 458.241C258.03 457.67 296.623 458.349 335.186 458.113C329.65 495.122 325.621 532.351 320.631 569.443L313.873 568.127C317.063 545.998 319.429 523.704 322.236 501.52C323.111 494.586 324.038 487.659 325.017 480.74C325.512 477.407 326.362 473.962 326.619 470.616C326.718 469.319 326.508 468.451 325.975 467.279C324.793 466.118 324.193 466.034 322.625 465.799C285.911 465.722 249.196 465.834 212.483 466.135C214.363 488.518 217.051 510.884 219.436 533.222C220.355 541.829 220.668 554.241 222.424 562.274C220.332 565.46 218.491 568.779 216.626 572.101C216.425 566.27 215.366 560.392 214.6 554.61C213.596 546.976 212.69 539.329 211.884 531.672C209.216 507.277 207.237 482.839 204.269 458.473L219.478 458.241Z"/><path fill="#A77545" d="M727.136 229.932L790.105 229.889L789.98 244.109C789.859 252.067 789.647 260.037 789.653 267.996C789.812 274.072 790.684 281.116 789.569 287.095C789.447 288.026 789.638 287.619 788.988 288.313C783.988 287.066 777.831 281.295 773.631 278.222C768.579 275.434 763.434 271.034 759.326 266.982C756.087 266.067 731.178 249.107 728.581 246.617C727.626 245.701 727.813 243.634 727.751 242.386C727.359 238.25 727.282 234.083 727.136 229.932Z"/><path fill="#744929" d="M727.136 229.932L790.105 229.889L789.98 244.109C777.951 241.203 740.149 238.295 728.363 241.294L727.751 242.386C727.359 238.25 727.282 234.083 727.136 229.932Z"/><path fill="#744929" d="M759.326 266.982C769.465 267.146 779.489 268.147 789.653 267.996C789.812 274.072 790.684 281.116 789.569 287.095C789.447 288.026 789.638 287.619 788.988 288.313C783.988 287.066 777.831 281.295 773.631 278.222C768.579 275.434 763.434 271.034 759.326 266.982Z"/><path fill="#A77545" d="M773.631 278.222C776.219 277.146 786.12 278.375 789.479 278.329C789.487 281.239 789.398 284.193 789.569 287.095C789.447 288.026 789.638 287.619 788.988 288.313C783.988 287.066 777.831 281.295 773.631 278.222Z"/><path fill="#C89A62" d="M469.333 364.076C483.494 364.087 497.701 363.855 511.856 364.182L512.023 373.821C511.792 379.191 512.202 384.721 512.303 390.107L512.606 418.41L469.648 418.279L469.446 370.871L469.333 364.076Z"/><path fill="#89613C" d="M469.333 364.076C483.494 364.087 497.701 363.855 511.856 364.182L512.023 373.821C511.854 372.845 511.612 372.024 511.248 371.102C507.158 369.785 476.339 370.842 469.446 370.871L469.333 364.076Z"/><path fill="#C89A62" d="M470.118 212.851C480.372 205.324 491.933 198.839 502.646 191.922C505.791 197.085 508.829 201.938 513.01 206.348L513.083 213.962C513.078 222.722 512.868 231.54 513.217 240.291C496.897 247.885 482 258.222 469.175 270.852L469.521 228.468C470.022 223.305 469.976 218.037 470.118 212.851Z"/><path fill="#89613C" d="M470.118 212.851C480.372 205.324 491.933 198.839 502.646 191.922C505.791 197.085 508.829 201.938 513.01 206.348L513.083 213.962L502.647 208.725C491.351 214.887 480.585 221.913 469.521 228.468C470.022 223.305 469.976 218.037 470.118 212.851Z"/><path fill="#57952B" d="M233.397 559.71C235.614 558.028 238.327 556.802 241.019 556.123C245.568 554.976 249.145 555.905 253.073 558.239C261.814 562.064 261.162 571.414 264.872 572.244C284.378 570.912 304.991 570.254 324.018 575.202C327.187 575.995 343.353 577.878 344.276 578.592C344.901 580.915 344.37 583.248 343.801 585.54L248.038 585.508L216.326 585.621C211.673 585.637 206.583 586.07 201.99 585.65C201.157 585.574 200.598 585.578 199.989 584.987C198.74 583.772 198.495 581.984 198.554 580.316C198.583 579.477 198.808 578.11 199.533 577.606C202.561 575.499 214.646 576.544 219.379 575.493C222.767 568.259 226.639 563.881 233.397 559.71Z"/><path fill="#8BB348" d="M233.397 559.71C235.614 558.028 238.327 556.802 241.019 556.123C245.568 554.976 249.145 555.905 253.073 558.239C261.814 562.064 261.162 571.414 264.872 572.244L262.984 572.783C261.693 572.468 260.818 572.415 259.499 572.578C256.125 574.683 254.15 579.866 250.024 580.151C248.835 579.585 248.053 579.059 247.592 577.791C247.182 576.659 246.906 575.459 246.612 574.292C240.448 573.279 234.527 572.877 228.285 572.992C227.51 574.725 226.931 576.125 225.519 577.425C223.954 577.809 223.032 577.792 221.637 576.906C221.234 576.65 220.849 576.365 220.458 576.091C219.815 575.641 220.124 575.821 219.379 575.493C222.767 568.259 226.639 563.881 233.397 559.71Z"/><path fill="#F3F3EF" d="M233.397 559.71C235.614 558.028 238.327 556.802 241.019 556.123C245.568 554.976 249.145 555.905 253.073 558.239C251.883 558.198 250.697 558.175 249.508 558.105C244.279 557.797 238.296 560.66 233.397 559.71Z"/><path fill="#F3F3EF" d="M264.872 572.244C284.378 570.912 304.991 570.254 324.018 575.202C321.914 576.396 315.798 575.245 313.281 575.053C303.662 574.317 294.027 573.813 284.385 573.54C277.52 573.385 269.695 574.134 262.984 572.783L264.872 572.244Z"/><path fill="#C89A62" d="M517.002 364.055C530.239 364.02 543.739 363.463 556.94 364.301C556.922 368.484 557.123 372.886 556.575 377.031C556.556 390.731 555.727 404.424 555.629 418.128C543.104 418.026 530.579 418.112 518.058 418.385C517.916 402.492 517.569 386.6 517.015 370.716L517.002 364.055Z"/><path fill="#89613C" d="M517.002 364.055C530.239 364.02 543.739 363.463 556.94 364.301C556.922 368.484 557.123 372.886 556.575 377.031C556.53 375.077 556.558 373.215 555.952 371.333C551.772 370.605 547.063 371.018 542.809 370.964C534.212 370.797 525.614 370.714 517.015 370.716L517.002 364.055Z"/><path fill="#C89A62" d="M527.814 191.736C537.098 197.623 546.819 203.253 555.609 209.859L555.514 227.393C555.548 239.25 555.102 251.092 555.338 262.953C544.751 253.46 531.364 245.555 518.368 240.027C518.183 230.97 518.165 221.91 518.315 212.852C518.803 204.051 522.847 198.662 527.814 191.736Z"/><path fill="#89613C" d="M527.814 191.736C537.098 197.623 546.819 203.253 555.609 209.859L555.514 227.393C546.781 220.476 536.485 215.017 526.97 209.23C524.168 210.68 521.438 212.234 518.315 212.852C518.803 204.051 522.847 198.662 527.814 191.736Z"/><path fill="#6C93A1" d="M622.696 642.563L622.526 680.563L619.072 673.617C610.504 671.722 601.079 671.571 592.325 670.853C568.787 668.922 544.618 668.257 521.259 665.855C522.64 663.187 525.638 660.973 528.019 659.232L527.127 658.266L527.677 659.512L528.198 658.846C527.485 657.855 524.957 657.782 523.699 657.557C540.677 655.5 558.078 654.96 575.159 654.254C590.136 653.635 605.167 652.793 620.153 652.535C620.988 649.214 621.751 645.853 622.696 642.563Z"/><path fill="#8BB348" d="M817.524 566.518L835.535 566.57C835.132 572.385 835.019 578.23 834.816 584.056C814.738 584.348 794.659 584.537 774.58 584.623C748.529 584.986 722.424 585.655 696.375 584.963L685.373 584.568C684.89 580.949 684.57 577.398 684.433 573.749C697.228 573.435 710.35 574.539 723.153 575.06L782.577 577.277C792.319 577.686 802.371 578.757 812.089 578.515C813.333 578.484 814.283 578.529 815.328 577.775C817.55 574.529 817.291 570.312 817.524 566.518Z"/><path fill="#178BBD" d="M350.808 781.916C351.453 782.766 351.904 783.329 352.235 784.364C352.917 786.499 348.404 791.291 347.307 793.236C342.9 801.054 339.321 809.412 334.9 817.266C322.651 839.025 309.628 860.367 297.766 882.33L297.349 882.749C296.324 880.584 297.189 849.998 297.211 844.58C302.429 838.665 306.74 832.04 311.851 826.045C318.752 817.952 326.369 810.481 333.205 802.32C338.965 795.442 344.201 788.029 350.808 781.916Z"/><path fill="#89613C" d="M843.02 762.673C857.077 760.694 870.647 764.656 882.516 772.088C900.747 783.505 910.549 802.346 915.246 822.775L907.219 822.804C905.007 813.646 902.144 804.954 897.088 796.931C888.824 783.817 874.623 772.642 859.377 769.17C857.751 768.914 856.118 768.704 854.48 768.541C839.877 767.009 827.642 771.283 816.307 780.582C803.395 791.174 796.777 807.224 795.07 823.513L786.767 823.306C788.133 810.282 792.942 797.857 800.701 787.308C810.882 773.552 826.22 765.134 843.02 762.673Z"/><path fill="#8BB348" d="M866.837 777.501C880.54 782.602 890.346 794.449 896.401 807.422C897.792 810.402 902.251 819.532 901.186 822.494L900.125 822.657C888.548 822.677 876.963 823.316 865.38 823.406C865.657 808.109 866.461 792.802 866.837 777.501Z"/><path fill="#A77545" d="M846.824 774.206C850.429 773.769 853.992 774.17 857.56 774.697C858.016 790.867 856.666 807.143 856.43 823.323L847.354 823.344L835.257 823.414C835.637 807.541 836.497 791.666 836.49 775.788C839.953 775.024 843.291 774.509 846.824 774.206Z"/><path fill="#8F9EB0" d="M929.328 846.981C941.502 846.522 953.827 846.655 966.009 846.902C971.216 847.008 976.892 846.713 982.008 847.67C982.742 849.007 982.506 850.98 982.508 852.495L982.594 862.53C969.417 862.471 956.228 862.229 943.052 862.288C934.388 862.327 924.702 863.208 916.158 861.881C920.192 859.868 923.197 858.416 925.994 854.752L926.616 853.946C927.63 851.686 928.439 849.295 929.328 846.981Z"/><path fill="#F3F3EF" d="M929.328 846.981C941.502 846.522 953.827 846.655 966.009 846.902C971.216 847.008 976.892 846.713 982.008 847.67C982.742 849.007 982.506 850.98 982.508 852.495C963.939 853.017 945.181 854.161 926.616 853.946C927.63 851.686 928.439 849.295 929.328 846.981Z"/><path fill="#A77545" d="M197.828 810.316L198.379 810.547C199.707 812.303 199.201 820.331 199.296 822.73C200.064 842.094 201.85 861.435 202.566 880.772C199.679 878.508 197.138 876.024 194.584 873.396C193.586 872.28 192.61 871.145 191.657 869.991C184.479 861.284 181.398 852.585 182.575 841.274C183.674 830.701 189.392 817.079 197.828 810.316Z"/><path fill="#178BBD" d="M230.335 782.208C240.403 780.743 280.522 781.427 288.833 785.002C290.23 785.603 291.145 787.012 291.697 788.36C292.23 789.66 292.607 790.045 292.071 791.38C288.239 793.746 276.391 792.644 271.398 792.686C268.815 792.825 266.23 792.916 263.643 792.96C257.676 793.074 211.637 793.557 209.785 792.419C209.511 792.251 209.321 791.974 209.089 791.751C208.917 789.762 209.243 788.419 210.586 786.927C214.47 782.614 224.895 782.652 230.335 782.208Z"/><path fill="#C89A62" d="M826.838 779.906C827.025 780.117 827.261 780.293 827.398 780.539C827.881 781.403 826.172 819.812 826.064 823.714C817.539 823.547 808.996 823.625 800.469 823.595L800.008 823.161C799.979 822.469 800.021 821.866 800.187 821.192C804.749 802.698 810.319 790.197 826.838 779.906Z"/><path fill="#C89A62" d="M773.547 845.14C774.251 849.783 775.023 854.805 779.076 857.806C781.282 859.44 783.733 860.011 786.384 860.466C788.542 869.992 790.484 879.923 793.308 889.269C793.74 892.135 794.59 895.045 795.264 897.868C787.525 898.028 779.766 897.941 772.024 897.968L772.387 889.369C772.679 874.624 773.065 859.881 773.547 845.14Z"/><path fill="#A77545" d="M793.308 889.269C793.74 892.135 794.59 895.045 795.264 897.868C787.525 898.028 779.766 897.941 772.024 897.968L772.387 889.369C779.357 889.375 786.34 889.461 793.308 889.269Z"/><path fill="#A7BD48" d="M721.672 560.842C724.891 555.029 729.026 549.761 735.759 547.917C736.349 547.759 736.944 547.62 737.543 547.5C744.982 549.498 752.106 553.81 755.952 560.719C756.792 562.227 757.416 563.892 757.985 565.519C758.331 567.166 758.551 568.848 758.81 570.51C745.683 569.985 732.352 570.123 719.274 569.072C719.917 566.258 720.758 563.576 721.672 560.842Z"/><path fill="#8BB348" d="M721.672 560.842C727.15 561.403 754.378 567.24 757.985 565.519C758.331 567.166 758.551 568.848 758.81 570.51C745.683 569.985 732.352 570.123 719.274 569.072C719.917 566.258 720.758 563.576 721.672 560.842Z"/><path fill="#656974" d="M82.1459 703.469L89.6311 703.614C89.288 734.289 90.713 765.22 88.9846 795.854C87.878 795.934 88.096 795.888 87.2985 795.279C85.606 789.325 85.6568 771.195 85.3009 763.905C84.317 743.755 82.948 723.627 82.1459 703.469Z"/><path fill="#6C93A1" d="M629.677 644.462L640.804 644.588C640.491 656.695 640.723 668.865 640.726 680.979L629.908 681.011C629.928 668.827 629.851 656.644 629.677 644.462Z"/><path fill="#6C93A1" d="M953.842 867.034C957.083 866.978 960.271 866.938 963.506 867.209C963.408 872.342 963.246 877.474 963.022 882.603C962.975 888.614 962.179 923.88 960.348 927.718L959.56 927.811C957.239 919.26 958.29 907.421 957.633 898.364C956.872 887.886 955.325 877.429 953.842 867.034Z"/><path fill="#A5D3E3" d="M963.506 867.209C963.408 872.342 963.246 877.474 963.022 882.603C962.759 883.211 962.393 883.791 962.071 884.37C959.712 880.689 959.901 872.516 959.467 868.082C960.673 867.231 962.054 867.357 963.506 867.209Z"/><path fill="#A77545" d="M175.451 868.309C177.491 870.505 178.584 874.36 180.145 877.024C184.845 885.048 194.388 893.253 203.123 896.39C197.76 897.759 183.163 896.665 176.944 896.647C176.662 887.191 176.164 877.743 175.451 868.309Z"/><defs><linearGradient id="gradient_3" gradientUnits="userSpaceOnUse" x1="925.86761" y1="894.88031" x2="915.31726" y2="893.34741"><stop offset="0" stop-color="#577D91"/><stop offset="1" stop-color="#6599B1"/></linearGradient></defs><path fill="url(#gradient_3)" d="M918.189 866.937L926.402 866.843C924.483 885.841 924.205 905.044 922.904 924.096C922.811 924.816 922.593 925.347 922.331 926.02L921.771 925.645C920.304 917.31 920.775 908.156 920.301 899.685C919.692 888.785 918.344 877.85 918.189 866.937Z"/><path fill="#6C93A1" d="M478.472 661.354C487.056 659.527 514.447 657.235 523.699 657.557C524.957 657.782 527.485 657.855 528.198 658.846L527.677 659.512L527.127 658.266L528.019 659.232C525.638 660.973 522.64 663.187 521.259 665.855C514.465 665.357 507.683 664.38 500.899 663.716C493.423 662.984 485.89 662.547 478.472 661.354Z"/><path fill="#178BBD" d="M345.151 762.797C345.624 762.942 345.712 762.942 346.194 763.249C349.471 765.333 352.808 770.037 355.618 772.847C360.529 777.759 365.974 782.341 370.546 787.569C371.531 788.694 372.266 789.395 372.54 790.859C371.633 792.109 371.001 792.061 369.551 792.495C369.501 792.481 369.45 792.465 369.399 792.453C368.715 792.293 368.486 792.285 367.885 792.035C364.511 790.633 343.589 769.647 342.236 766.35C342.648 764.738 343.958 763.857 345.151 762.797Z"/><path fill="#C89A62" d="M310.946 872.009C311.291 878.012 311.486 884.023 311.531 890.035L311.671 896.635C308.111 896.657 304.443 897.066 300.895 896.732C299.323 896.584 298.208 896.322 297.184 895.105C297.446 892.872 299.049 891.515 300.517 889.885C304.318 884.091 307.466 877.987 310.946 872.009Z"/><path fill="#A77545" d="M311.671 896.635C308.111 896.657 304.443 897.066 300.895 896.732C299.323 896.584 298.208 896.322 297.184 895.105C297.446 892.872 299.049 891.515 300.517 889.885C304.121 890.324 307.9 890.084 311.531 890.035L311.671 896.635Z"/><path fill="#79B6D5" d="M973.054 867.254L979.739 867.244C979.158 885.918 979.601 904.725 978.132 923.354L977.795 923.738C977.106 919.66 977.174 915.203 976.926 911.061L975.365 885.919C974.938 879.617 973.493 873.485 973.054 867.254Z"/><path fill="#656974" d="M176.055 841.922L177.698 842.508C177.674 842.829 177.644 843.15 177.624 843.472C176.728 857.699 184.081 871.32 194.316 880.678C196.668 882.83 200.089 884.357 202.106 886.768C202.807 887.605 202.697 887.775 202.555 888.792C202.039 889.171 201.876 889.51 201.189 889.386C197.039 888.64 190.573 881.507 187.77 878.244C178.422 867.364 174.985 856.124 176.055 841.922Z"/><path fill="#8BB348" d="M968.499 866.821C970.36 869.119 972.393 893.747 972.387 898.233L971.547 898.565C970.715 898.56 969.87 898.57 969.04 898.505C968.023 898.425 967.169 898.48 966.492 897.664C966.195 892.359 966.913 871.131 968.499 866.821Z"/><path fill="#6C93A1" d="M938.361 890.371C936.818 885.285 935.718 873.218 936.142 867.884C937.469 866.961 939.224 867.262 940.829 867.24C941.862 868.097 941.901 869.002 942.005 870.296C942.462 875.981 939.886 887.857 942.187 892.52L941.068 893.173C940.467 892.844 940.85 892.988 939.864 892.933C939.787 893.967 939.882 893.533 939.67 894.251L939.372 893.166L939.789 892.493L939.183 892.845L939.341 892.448C938.864 891.781 938.651 891.133 938.361 890.371Z"/><path fill="#83ACA0" d="M930.045 866.741L930.926 867.339C931.046 867.599 933.821 894.084 933.736 895.486L932.872 896.169C931.577 896.475 930.276 896.724 928.972 896.98C928.03 893.644 929.172 870.941 930.045 866.741Z"/><defs><linearGradient id="gradient_4" gradientUnits="userSpaceOnUse" x1="942.99829" y1="896.93176" x2="937.50171" y2="917.56824"><stop offset="0" stop-color="#7A9499"/><stop offset="1" stop-color="#5184A6"/></linearGradient></defs><path fill="url(#gradient_4)" d="M938.361 890.371C938.651 891.133 938.864 891.781 939.341 892.448L939.183 892.845L939.789 892.493L939.372 893.166L939.67 894.251C939.882 893.533 939.787 893.967 939.864 892.933C940.85 892.988 940.467 892.844 941.068 893.173C940.84 894.545 940.617 894.799 941.299 895.985C942.058 896.267 942.78 896.558 943.572 896.733C942.766 907.094 942.891 917.925 941.106 928.151C939.515 915.689 939.421 902.912 938.361 890.371Z"/><path fill="#4C4E57" d="M176.055 841.922C177.045 828.489 183.878 815.139 194.252 806.435C195.481 805.404 196.438 804.981 198.013 804.755L198.678 805.072C196.859 806.85 194.653 808.043 192.842 809.864C183.981 818.777 180.041 830.519 177.698 842.508L176.055 841.922Z"/><path fill="#A19E9F" d="M942.187 892.52C942.204 892.346 942.223 892.173 942.239 891.999C942.702 886.834 941.208 870.025 943.144 866.807L944.159 866.754C945.352 867.955 945.593 869.179 945.55 870.818C945.339 878.908 944.68 888.782 943.572 896.733C942.78 896.558 942.058 896.267 941.299 895.985C940.617 894.799 940.84 894.545 941.068 893.173L942.187 892.52Z"/><path fill="#D3D9DB" d="M949.732 871.546C949.792 871.717 949.863 871.885 949.913 872.059C950.866 875.342 953.075 894.589 951.893 896.816C950.531 896.71 949.533 896.561 948.235 896.077C947.704 888.422 949.33 879.389 949.732 871.546Z"/><path fill="#A7BD48" d="M915.115 877.857C915.495 879.901 916.249 895.599 915.521 896.732L913.24 897.109L912.016 896.474C910.84 892.631 914.055 882.028 915.115 877.857Z"/><path fill="#4C4E57" d="M218.209 758.39C221.63 761.328 223.001 772.913 223.825 777.165C223.362 777.273 222.841 777.251 222.365 777.274C219.717 773.797 218.807 762.836 218.209 758.39Z"/></svg>