<?xml version="1.0" encoding="utf-8" ?><svg xmlns="http://www.w3.org/2000/svg" xmlns:xlink="http://www.w3.org/1999/xlink" width="1024" height="1024" viewBox="0 0 1024 1024"><path d="M0 0L1024 0L1024 805.651L1024 815.747L1024 1024L0 1024L0 815.901L0 805.647L0 0Z"/><path fill="#BBD7E4" d="M0 0L1024 0L1024 805.651C999.559 805.035 974.973 805.468 950.522 805.603C951.93 798.627 952.305 782.724 954.727 777.134C955.501 775.346 957.064 775.156 958.765 774.563C960.816 771.741 960.136 767.095 960.138 763.755C957.586 761.927 954.911 760.511 952.132 759.068C954.791 734.684 956.25 709.99 959.79 685.729C961.728 683.984 963.437 682.001 964.878 679.827C968.412 674.597 970.884 668.845 971.648 662.549C973.17 650.013 970.406 635.69 968.637 623.249C965.896 604.314 962.72 585.445 959.112 566.656C946.821 594.029 930.957 622.086 928.927 652.547C928.245 662.784 928.41 673.633 935.54 681.741C934.05 691.028 933.642 700.562 932.487 709.904C930.474 726.194 927.908 742.449 926.301 758.784C924.663 759.003 923.025 759.266 921.425 759.69C914.684 761.477 915.056 769.319 912.026 774.398C911.916 774.582 911.799 774.763 911.686 774.945L906.985 775.918C909.598 760.178 910.098 743.777 911.031 727.848L914.934 663.208L928.1 474.706C936.19 475.434 944.177 477.194 952.166 478.597C962.472 480.352 972.796 482 983.136 483.541C987.027 475.992 1001.23 440.725 1005.64 437.846C1005.76 437.768 1005.89 437.695 1006.01 437.619L1006.17 436.873C1002.93 433.297 998.555 430.317 994.779 427.29L972.829 409.78C944.371 386.952 915.545 364.588 886.361 342.695C874.347 333.662 862.063 325.006 850.09 315.915C849.842 290.581 849.365 265.249 848.659 239.923C858.348 239.909 868.036 239.763 877.721 239.486C874.109 230.068 870.859 220.513 867.192 211.118C851.083 170.991 835.386 130.7 820.104 90.2506C808.464 115.571 797.234 141.077 786.416 166.759C776.382 190.033 765.76 213.466 757.797 237.536C748.86 228.966 739.229 221.01 730.143 212.574C719.091 202.312 708.058 192.156 696.543 182.411C691.705 178.317 686.894 173.978 681.696 170.352C670.762 162.724 658.393 156.68 646.949 149.802L570.094 102.979C546.411 88.7855 522.351 75.7269 500.598 58.5413C490.026 66.1998 479.849 74.4953 469.477 82.4271L389.174 144.784L255.57 248.857L107.92 363.856L52.1165 406.989C41.7345 414.991 31.1394 422.723 21.0165 431.055C33.0026 444.989 43.7038 460.473 56.4056 473.702C60.5248 470.85 64.6835 468.055 68.8803 465.318C94.4065 465.878 119.94 467.417 145.441 468.666C145.554 481.499 146.601 494.42 147.242 507.242L151.319 587.336C154.856 660.151 157.919 732.988 160.507 805.843C146.451 806.196 132.349 805.994 118.288 806.006C113.777 781.287 108.955 756.804 102.666 732.468C114.195 724.939 123.453 714.501 127.329 701.07C130.041 691.677 129.033 683.329 124.254 674.821C116.088 660.283 99.2256 648.775 83.3649 644.346C84.0725 650.465 86.0524 656.479 87.7116 662.395C90.4056 672 93.2231 681.566 95.2062 691.351C87.919 694.908 72.4256 697.516 64.016 699.119C60.5808 684.325 57.7714 669.342 54.5939 654.484C43.5505 663.728 38.2422 674.362 36.3153 688.59C34.5419 701.685 35.9012 713.049 44.1225 723.758C51.8067 733.768 61.9512 738.402 74.2012 740.081C80.5465 761.497 85.0534 783.737 89.9072 805.528C59.9387 805.763 29.969 805.802 0 805.647L0 0Z"/><path fill="#C3BD71" d="M949.177 815.361C974.094 815.913 999.073 815.564 1024 815.747L1024 1024L0 1024L0 815.901C30.7318 815.841 61.4636 815.949 92.1942 816.226C93.8819 827.078 96.5665 837.818 98.7352 848.586C102.928 869.403 106.949 890.297 112.678 910.763C107.338 912.383 101.557 913.117 96.0995 914.38C81.9341 917.658 67.0096 921.492 53.6423 927.273C47.8842 929.764 35.5184 934.977 33.2779 941.39C32.7419 942.924 32.9427 944.585 33.7444 945.983C37.2366 952.07 52.1311 955.582 58.452 957.461C72.2957 961.576 87.2541 963.108 101.474 965.518C141.422 972.289 181.166 977.413 221.507 981.146C315.324 989.683 409.313 996.222 503.408 1000.76C521.961 1001.78 540.496 1003.09 559.009 1004.69C576.899 1006.1 594.972 1007.76 612.923 1006.58C619.701 1006.13 626.55 1005.22 632.97 1002.92C638.884 1000.79 644.29 997.34 649.753 994.275C663.036 986.823 676.204 982.01 691.487 980.982C715.697 979.354 740.493 981.822 764.672 983.317C780.175 984.256 795.685 985.094 811.2 985.833C826.168 986.579 841.078 987.602 856.033 986.051C882.5 983.307 914.046 968.175 938.479 957.395C953.155 950.919 967.569 944.973 981.668 937.219C988.926 933.227 999.67 927.091 1001.92 918.481C1002.83 914.979 1002.33 911.541 1000.47 908.441C991.265 893.147 954.662 885.39 937.945 881.248C942.295 859.393 946.041 837.422 949.177 815.361Z"/><path fill="#B79656" d="M901.566 900.415C901.141 890.619 901.252 880.584 901.818 870.796C902.031 872.562 901.869 873.295 903.103 874.625C905.614 875.592 908.41 874.897 911.06 875.475C909.405 898.171 909.027 920.939 907.368 943.617C913.977 945.387 918.921 946.038 925.561 943.673C927.408 933.089 929.857 922.67 932.002 912.15C934.098 901.872 935.85 891.526 937.945 881.248C954.662 885.39 991.265 893.147 1000.47 908.441C1002.33 911.541 1002.83 914.979 1001.92 918.481C999.67 927.091 988.926 933.227 981.668 937.219C967.569 944.973 953.155 950.919 938.479 957.395C914.046 968.175 882.5 983.307 856.033 986.051C841.078 987.602 826.168 986.579 811.2 985.833C795.685 985.094 780.175 984.256 764.672 983.317C740.493 981.822 715.697 979.354 691.487 980.982C676.204 982.01 663.036 986.823 649.753 994.275C644.29 997.34 638.884 1000.79 632.97 1002.92C626.55 1005.22 619.701 1006.13 612.923 1006.58C594.972 1007.76 576.899 1006.1 559.009 1004.69C540.496 1003.09 521.961 1001.78 503.408 1000.76C409.313 996.222 315.324 989.683 221.507 981.146C181.166 977.413 141.422 972.289 101.474 965.518C87.2541 963.108 72.2957 961.576 58.452 957.461C52.1311 955.582 37.2366 952.07 33.7444 945.983C32.9427 944.585 32.7419 942.924 33.2779 941.39C35.5184 934.977 47.8842 929.764 53.6423 927.273C67.0096 921.492 81.9341 917.658 96.0995 914.38C101.557 913.117 107.338 912.383 112.678 910.763C114.187 918.015 115.379 931.782 121.409 936.942C124.258 939.381 128.369 940.476 132.065 939.984C135.481 939.53 138.619 937.728 140.576 934.864C145.206 928.085 140.917 915.121 139.399 907.78C147.366 905.949 155.59 904.964 163.473 902.911C164.196 901.369 164.002 899.105 164.065 897.413C165.381 905.264 165.107 915.746 165.563 923.968L182.394 925.206C182.973 934.615 183.266 945.573 185.732 954.617C186.803 955.096 187.895 955.529 189.004 955.915C211.214 963.459 255.434 963.082 276.39 952.779C276.797 945.006 278.017 937.148 279.145 929.446C298.174 929.54 317.328 930.992 336.368 931.513C336.547 942.144 336.375 952.813 336.363 963.448C393.699 966.701 451 970.552 508.256 975.001C533.93 977.093 559.884 978.585 585.45 981.643C591.346 979.029 596.942 975.027 602.423 971.63C613.899 964.518 625.27 957.096 637.078 950.546C646.857 952.215 657.068 952.567 666.954 953.353L720.325 957.62L783.567 962.813C794.468 963.753 805.699 965.583 816.628 965.609C825.892 955.981 836.978 948.645 847.721 940.79C865.736 927.618 884.391 914.64 901.566 900.415Z"/><path fill="#C3BD71" d="M120.82 816.249C134.074 816.159 147.329 816.22 160.582 816.432C161.378 830.041 161.228 843.587 161.677 857.194C161.83 857.336 161.989 857.473 162.137 857.621C162.62 858.106 163.086 858.558 163.206 859.265C163.817 862.86 163.41 867.292 163.49 870.965C163.681 879.782 164.025 888.593 164.065 897.413C164.002 899.105 164.196 901.369 163.473 902.911C155.59 904.964 147.366 905.949 139.399 907.78C132.943 877.323 126.75 846.812 120.82 816.249Z"/><path fill="#DEBD74" d="M914.023 820.467C913.18 838.647 913.115 857.405 911.06 875.475C908.41 874.897 905.614 875.592 903.103 874.625C901.869 873.295 902.031 872.562 901.818 870.796L903.979 825.73C907.446 824.18 910.957 822.748 914.023 820.467Z"/><path fill="#A4815B" d="M567.593 422.524C577.473 422.14 587.358 421.875 597.244 421.727C597.327 434.369 598.441 447.568 597.081 460.123L595.994 628.665C592.37 625.234 588.535 622.41 583.295 622.459C578.495 622.504 573.371 624.656 570.055 628.136C566.684 631.675 565.046 636.561 565.308 641.414C565.596 646.745 568.113 652.001 572.199 655.459C575.797 658.506 580.651 660.104 585.356 659.55C589.421 659.071 592.503 657.154 595.616 654.616L595.385 706.84C594.617 764.45 594.37 822.067 594.644 879.682C581.62 878.956 568.604 878.071 555.601 877.026C555.251 828.381 554.313 779.866 555.751 731.215C555.925 725.312 555.734 719.366 555.997 713.479L555.012 716.318C555.589 722.239 555.034 728.682 554.824 734.632C554.417 746.172 553.824 757.723 553.661 769.268C553.155 805.158 553.726 841.062 553.491 876.954C536.882 875.329 519.939 874.9 503.264 873.906C502.099 853.131 503.011 831.841 503.01 811.018L502.753 710.7L503.978 428.961C504 427.464 503.732 425.933 504.499 424.632C510.554 424.053 517.256 423.643 523.315 424.151C523.911 425.77 523.471 427.764 523.291 429.462C524.115 435.435 523.571 441.896 523.522 447.942C523.466 459.543 523.311 471.144 523.057 482.743C522.731 501.163 523.487 519.632 523.055 538.036C523.307 535.968 523.604 533.906 523.944 531.851C523.707 504.334 524.919 476.708 525.078 449.177C524.574 440.749 525.521 432.296 524.999 423.873C538.381 422.646 552.242 423.012 565.702 422.584C565.626 425.246 565.689 427.891 565.763 430.552C566.271 439.857 565.823 449.344 565.848 458.671L566.102 512.208C567.3 516.737 565.646 522.089 566.923 526.327C566.811 494.404 566.991 462.48 567.464 430.559C567.509 427.882 567.58 425.202 567.593 422.524Z"/><path fill="#71422B" d="M524.999 423.873C538.381 422.646 552.242 423.012 565.702 422.584C565.626 425.246 565.689 427.891 565.763 430.552C552.337 430.204 538.883 429.433 525.456 429.375C525.457 435.908 525.779 442.678 525.078 449.177C524.574 440.749 525.521 432.296 524.999 423.873Z"/><path fill="#71422B" d="M567.593 422.524C577.473 422.14 587.358 421.875 597.244 421.727C597.327 434.369 598.441 447.568 597.081 460.123C596.585 450.308 597.059 440.352 597.119 430.519C587.24 430.381 577.344 430.531 567.464 430.559C567.509 427.882 567.58 425.202 567.593 422.524Z"/><path fill="#906C4B" d="M523.944 531.851C524.864 553.619 522.925 575.499 522.864 597.25C522.777 628.152 523.565 659.051 523.253 689.96C523.196 695.673 523.966 708.043 522.631 713.024C521.414 708.427 522.161 679.668 522.181 672.788L522.871 561.08C522.968 553.643 521.65 545.354 523.055 538.036C523.307 535.968 523.604 533.906 523.944 531.851Z"/><path fill="#71422B" d="M503.978 428.961C504 427.464 503.732 425.933 504.499 424.632C510.554 424.053 517.256 423.643 523.315 424.151C523.911 425.77 523.471 427.764 523.291 429.462C516.867 428.941 510.419 429.009 503.978 428.961Z"/><path fill="#574737" d="M566.102 512.208C567.3 516.737 565.646 522.089 566.923 526.327C567.399 533.006 567.882 556.9 566.907 563.362C565.953 557.969 566.359 551.798 566.246 546.305C566.013 534.98 565.635 523.528 566.102 512.208Z"/><path fill="#574737" d="M555.012 716.318C554.728 711.901 554.576 701.484 555.734 697.236C555.787 697.042 555.961 696.892 555.998 696.694C556.05 696.415 555.995 696.125 555.994 695.841C556.814 698.86 556.127 709.68 555.997 713.479L555.012 716.318Z"/><path d="M546.991 583.497C546.951 606.275 547.942 629.077 548.079 651.857C549.384 662.672 548.552 674.259 548.479 685.149C548.441 690.886 549.163 697.425 548.032 703.027C547.241 701.473 546.863 686.17 547.038 683.768C547.258 665.697 546.414 647.431 546.097 629.347C545.848 615.163 546.162 600.976 545.997 586.793L546.991 583.497Z"/><path fill="#574737" d="M548.079 651.857C549.384 662.672 548.552 674.259 548.479 685.149C548.441 690.886 549.163 697.425 548.032 703.027C547.241 701.473 546.863 686.17 547.038 683.768C547.384 684.924 547.53 686.101 547.703 687.292C548.914 675.7 547.83 663.535 548.079 651.857Z"/><path fill="#191412" d="M525 737.849C525.939 741.933 525.47 747.152 525.484 751.362C525.527 764.47 525.05 777.566 525.048 790.673C525.045 812.627 526.617 834.695 525.73 856.625C524.118 851.274 524.816 843.813 524.617 838.105C524.137 824.306 523.514 810.476 523.551 796.669C523.58 785.444 524.192 774.224 524.381 763.001C524.516 754.95 523.664 745.752 525 737.849Z"/><path fill="#574737" d="M545.997 586.793C545.876 581.651 545.762 576.286 546.556 571.194C546.861 575.312 547.146 579.363 546.991 583.497L545.997 586.793Z"/><path fill="#F4B14B" d="M306.42 310.626C321.049 298.602 336.344 287.175 351.49 275.811C359.717 269.637 367.747 263.137 376.257 257.354C378.52 267.006 377.233 284.377 377.181 294.801C377.111 328.984 376.252 363.376 377.395 397.531C370.716 397.734 363.414 397.415 356.843 398.628C356.176 408.129 355.752 418.449 356.622 427.93C358.966 427.941 361.329 428.022 363.667 427.83C367.282 427.111 371.524 427.023 375.132 427.771L376.053 428.473L376.277 430.495C375.355 448.536 376.424 467.042 376.525 485.129L377.363 602.733L378.466 799.255C378.742 826.734 378.624 854.274 379.487 881.74L336.407 906.621L336.161 919.507C329.227 919.34 322.294 919.09 315.365 918.757L310.373 656.655C310.276 650.44 309.845 644.195 309.564 637.983C324.565 638.231 340.3 638.588 355.19 640.323C357 634.486 358.104 628.263 359.442 622.293C359.571 620.661 359.811 618.625 358.435 617.449C355.802 615.195 346.429 616.287 342.932 616.167L333.306 615.947C333.829 601.754 335.489 587.516 336.748 573.371C339.167 546.192 341.705 518.785 343.159 491.549L354.545 490.91C354.386 483.77 354.885 476.506 354.982 469.35C339.683 469.088 324.257 469.952 308.935 470.022C308.305 429.927 307.424 389.736 307.452 349.64C307.284 336.639 306.626 323.633 306.42 310.626Z"/><path fill="#C67830" d="M306.42 310.626C321.049 298.602 336.344 287.175 351.49 275.811C359.717 269.637 367.747 263.137 376.257 257.354C378.52 267.006 377.233 284.377 377.181 294.801C360.854 306.395 345.458 319.055 329.883 331.608C322.459 337.59 314.41 343.119 307.452 349.64C307.284 336.639 306.626 323.633 306.42 310.626Z"/><defs><linearGradient id="gradient_0" gradientUnits="userSpaceOnUse" x1="372.70325" y1="541.86121" x2="314.40012" y2="564.90039"><stop offset="0" stop-color="#AE5A1A"/><stop offset="1" stop-color="#CF7327"/></linearGradient></defs><path fill="url(#gradient_0)" d="M343.159 491.549L354.545 490.91L354.284 492.735C352.422 494.088 349.918 492.458 349.593 495.013C348.185 506.082 348.366 518.258 347.848 529.47C346.515 558.334 345.83 587.415 342.932 616.167L333.306 615.947C333.829 601.754 335.489 587.516 336.748 573.371C339.167 546.192 341.705 518.785 343.159 491.549Z"/><path fill="#BF6C27" d="M355.19 640.323C357 634.486 358.104 628.263 359.442 622.293C361.681 634.561 360.699 647.46 360.4 659.859C343.733 658.65 327.057 657.582 310.373 656.655C310.276 650.44 309.845 644.195 309.564 637.983C324.565 638.231 340.3 638.588 355.19 640.323Z"/><path fill="#8E4C1F" d="M363.667 427.83C367.282 427.111 371.524 427.023 375.132 427.771L376.053 428.473L376.277 430.495C373.871 430.283 367.275 430.86 365.516 429.692C364.768 429.194 364.859 428.414 363.667 427.83Z"/><path fill="#F4B14B" d="M588.582 214.078L634.74 251.514C642.76 258.04 650.624 265.017 658.993 271.083C659.379 283.371 659.186 295.672 659.563 307.946L658.943 464.469C653.49 464.441 643.418 463.336 638.533 465.523C636.867 468.572 637.027 484.821 637.812 488.577C643.35 488.336 648.904 488.004 654.445 487.899L654.553 493.092C656.515 524.597 658.303 556.113 659.915 587.638C660.599 600.325 661.73 613.045 662.08 625.74C654.922 625.552 646.509 624.465 639.458 625.576C637.793 627.8 638.048 641.057 638.517 644.387C638.852 646.763 639.756 648.186 641.416 649.844C647.379 648.714 654.461 649.48 660.555 649.703L660.556 671.938L660.358 939.094C654.53 938.394 648.545 938.25 642.682 937.901C642.218 919.614 642.769 901.058 643.048 882.752C636.179 882.145 629.259 881.889 622.373 881.517C621.671 764.26 621.732 646.999 622.557 529.743C622.565 496.376 622.914 463.046 622.523 429.677L622.5 421.056C633.097 420.718 644.088 421.185 654.625 420.254C655.444 412.91 655.314 396.224 653.266 389.416C632.344 391.149 610.882 390.825 589.888 391.467L588.854 251.592C588.651 239.088 588.56 226.583 588.582 214.078Z"/><path fill="#C67830" d="M588.582 214.078L634.74 251.514C642.76 258.04 650.624 265.017 658.993 271.083C659.379 283.371 659.186 295.672 659.563 307.946C636.31 288.755 612.002 270.913 588.854 251.592C588.651 239.088 588.56 226.583 588.582 214.078Z"/><path fill="#BF6C27" d="M641.416 649.844C647.379 648.714 654.461 649.48 660.555 649.703L660.556 671.938C655.311 671.292 649.797 671.347 644.507 670.941C644.454 667.041 645.485 652.799 643.995 650.13L641.416 649.844Z"/><path fill="#8E4C1F" d="M654.625 420.254C654.003 423.222 653.433 426.048 652.196 428.833C642.302 428.973 632.41 429.254 622.523 429.677L622.5 421.056C633.097 420.718 644.088 421.185 654.625 420.254Z"/><path fill="#9F6132" d="M654.445 487.899L654.553 493.092C650.639 492.881 642.199 494.36 638.981 492.027C637.727 491.118 637.955 489.98 637.812 488.577C643.35 488.336 648.904 488.004 654.445 487.899Z"/><path fill="#DEC5A2" d="M496.474 74.9909C498.24 76.973 497.471 124.927 497.337 131.082C493.62 134.611 489.084 137.583 484.975 140.656L456.602 161.532L352.56 238.971L170.954 375.459C148.175 392.534 125.043 409.017 102.101 425.85C87.2179 436.77 72.5513 448.416 56.9661 458.323L49.4233 448.724L37.5102 433.305C46.0758 425.016 56.4401 418.149 65.8401 410.824C81.432 398.673 96.764 386.273 112.482 374.268L230.834 282.518L426.555 129.866C440.769 118.87 454.927 107.801 469.028 96.6605C478.081 89.4209 486.967 81.6136 496.474 74.9909Z"/><path fill="#DEC5A2" d="M502.408 75.4198C510.955 81.896 518.881 89.1503 526.97 96.1765L559.999 124.729C580.272 142.388 600.907 159.71 621.424 177.089C680.98 226.676 741.268 275.379 802.266 323.183C841.92 354.655 880.598 387.51 922.047 416.646C917.976 423.428 913.113 429.894 908.624 436.416C905.78 440.885 902.987 445.386 900.246 449.918C892.443 443.246 884.176 437.292 876.029 431.061C855.451 415.321 834.472 400.101 813.97 384.267C781.424 359.131 749.646 333.142 717.6 307.393L666.46 266.921C655.596 258.247 645.125 249.061 634.343 240.279C606.848 218.153 579.517 195.824 552.354 173.293L517.872 144.653C512.543 140.172 507.66 134.997 502.018 130.925C501.959 112.423 502.417 93.9242 502.408 75.4198Z"/><path fill="#F4B14B" d="M665.775 650.267C685.835 650.565 705.913 651.563 725.967 651.573L725.967 763.544C725.983 780.826 726.799 798.536 725.888 815.773C726.082 858.717 725.935 901.662 725.446 944.603C717.745 944.438 709.929 943.469 702.246 942.83C689.885 941.856 677.532 940.787 665.188 939.623C666.495 879.54 665.142 819.355 665.583 759.254C665.157 739.311 665.472 719.302 665.483 699.35C665.492 683.047 665.069 666.552 665.775 650.267Z"/><path fill="#C67830" d="M665.775 650.267C685.835 650.565 705.913 651.563 725.967 651.573L725.967 763.544C725.983 780.826 726.799 798.536 725.888 815.773C724.384 809.244 725.493 784.888 725.487 776.313L725.424 672.935C719.004 672.34 712.435 672.563 705.986 672.326C692.645 671.751 679.298 671.304 665.948 670.985C665.507 690.959 666.003 711.048 666.006 731.035C666.008 740.416 666.186 749.893 665.583 759.254C665.157 739.311 665.472 719.302 665.483 699.35C665.492 683.047 665.069 666.552 665.775 650.267Z"/><path fill="#F4B14B" d="M731.326 651.892C753.277 652.781 775.235 653.493 797.197 654.026L796.554 674.102C796.515 684.876 795.577 695.771 795.005 706.534L791.843 766.632L782.401 949.63C765.43 947.57 748.116 946.398 731.058 945.253C732.074 897.658 731.359 849.89 731.07 802.28L731.027 673.08L731.326 651.892Z"/><path fill="#C67830" d="M731.326 651.892C753.277 652.781 775.235 653.493 797.197 654.026L796.554 674.102C774.716 674.209 752.87 673.066 731.027 673.08L731.326 651.892Z"/><path fill="#F4B14B" d="M178.07 409.006C183.772 403.486 190.346 398.731 196.624 393.883C209.107 384.243 221.938 374.902 234.106 364.875C234.578 379.401 234.505 393.932 234.999 408.458C235.22 429.477 236.067 450.518 235.997 471.534L188.361 472.665C188.415 479.923 188.348 487.203 188.537 494.457L194.346 494.576C201.382 494.507 208.424 494.495 215.458 494.343C216.8 524.686 218.74 555.12 220.692 585.432C221.261 594.276 222.198 603.097 222.659 611.946C220.052 611.77 217.41 611.494 214.797 611.514C208.06 611.133 201.192 610.467 194.45 610.543C194.458 614.114 193.67 632.735 195.173 634.384C208.974 634.714 222.81 635.553 236.612 635.513C236.664 641.205 236.666 646.9 236.927 652.586L241.845 801.779C226.753 801.279 211.219 801.949 196.278 804.208C194.366 781.284 194.107 757.994 193.079 734.999L187.261 612.07C185.322 572.043 182.799 532.009 181.287 491.966C180.755 477.866 179.536 463.436 179.737 449.338C179.258 435.891 178.703 422.447 178.07 409.006Z"/><path fill="#C67830" d="M178.07 409.006C183.772 403.486 190.346 398.731 196.624 393.883C209.107 384.243 221.938 374.902 234.106 364.875C234.578 379.401 234.505 393.932 234.999 408.458L234.188 407.696C233.433 407.832 232.837 408.019 232.199 408.46C221.774 415.664 211.894 424.462 201.873 432.269C195.287 437.4 185.513 443.857 179.737 449.338C179.258 435.891 178.703 422.447 178.07 409.006Z"/><path fill="#BF6C27" d="M194.346 494.576C201.382 494.507 208.424 494.495 215.458 494.343C216.8 524.686 218.74 555.12 220.692 585.432C221.261 594.276 222.198 603.097 222.659 611.946C220.052 611.77 217.41 611.494 214.797 611.514C215.024 602.272 213.14 591.754 212.688 582.339C211.267 555.4 210.241 528.442 209.61 501.473L202.246 501.488C202.131 499.575 202.176 497.728 201.236 496.007C199.397 494.634 196.576 494.832 194.346 494.576Z"/><path fill="#BF6C27" d="M195.173 634.384C208.974 634.714 222.81 635.553 236.612 635.513C236.664 641.205 236.666 646.9 236.927 652.586C223.361 651.383 209.517 649.678 195.911 649.481C195.868 644.545 196.16 639.222 195.173 634.384Z"/><path fill="#A4815B" d="M432.008 426.223C454.514 425.818 477.016 425.243 499.513 424.496C499.518 433.833 500.42 444.334 499.084 453.534C498.377 497.473 498.129 541.418 498.341 585.362C498.182 619.88 497.415 654.449 498.045 688.96C497.642 694.192 497.194 699.259 497.735 704.507C497.413 704.615 497.064 704.664 496.768 704.831C496.546 704.957 495.903 705.691 495.714 705.899C494.432 705.142 494.35 705.078 493.746 703.721C493.849 702.189 494.257 700.353 495.28 699.14C495.423 698.97 495.615 698.849 495.783 698.704L496.368 699.744C497.272 697.613 495.841 693.967 495.235 691.765C494.612 690.367 493.913 688.317 492.846 687.247C491.652 686.049 490.438 685.875 488.839 685.619C483.298 684.733 477.362 684.924 471.753 684.536C460.915 683.731 450.088 682.801 439.272 681.745C438.975 674.25 440.573 665.344 438.931 658.08C438.464 656.011 436.652 655.159 434.971 654.144L434.325 653.76C433.448 580.22 431.815 506.573 431.988 433.032L432.008 426.223Z"/><path fill="#71422B" d="M432.008 426.223C454.514 425.818 477.016 425.243 499.513 424.496C499.518 433.833 500.42 444.334 499.084 453.534C498.644 446.367 499.057 439.024 499.183 431.84C476.688 432.443 454.515 433.612 431.988 433.032L432.008 426.223Z"/><path fill="#191412" d="M471.449 542.785L471.866 540.768L472.244 540.691C472.976 545.753 472.18 550.948 472.602 556.032C472.452 582.798 472.15 609.563 471.695 636.326C471.473 646.799 471.749 657.359 471.098 667.807C469.621 662.56 470.594 644.918 470.603 638.172L471.449 542.785Z"/><path fill="#574737" d="M471.449 542.785L472.389 481.451C472.441 472.375 472.627 463.3 472.947 454.23C473.093 449.987 472.937 445.533 473.626 441.35C474.331 449.249 473.656 457.116 473.496 465.02C473.237 477.919 473.251 490.844 473.126 503.746L472.978 537.247C472.958 543.383 473.331 549.945 472.602 556.032C472.18 550.948 472.976 545.753 472.244 540.691L471.866 540.768L471.449 542.785Z"/><path fill="#F4B14B" d="M380.349 253.826C403.875 234.928 428.411 217.3 451.562 197.92C454.371 207.024 452.961 226.803 452.955 237.322C453.113 248.653 452.707 260.466 453.711 271.734C447.777 281.785 440.87 291.44 435.369 301.715C439.949 312.462 447.264 322.401 451.219 333.315C453.483 339.565 452.345 385.176 452.325 394.893C428.527 395.372 404.752 396.701 380.96 397.423C380.475 362.328 381.236 327.13 381.408 292.027C381.517 279.605 382.719 266.036 380.349 253.826Z"/><path fill="#C67830" d="M380.349 253.826C403.875 234.928 428.411 217.3 451.562 197.92C454.371 207.024 452.961 226.803 452.955 237.322C443.994 242.688 435.991 249.962 427.737 256.36C419.301 262.901 410.549 269.008 402.258 275.741C395.484 281.242 388.796 287.355 381.408 292.027C381.517 279.605 382.719 266.036 380.349 253.826Z"/><path fill="#906C4B" d="M343.253 909.189C365.079 910.433 578.635 922.865 582.239 925.099L582.24 925.714C582.529 941.308 582.4 956.901 582.609 972.494C580.549 972.443 578.461 972.465 576.409 972.281C567.825 971.178 559.041 970.745 550.404 970.062L485.158 965.532C455.927 963.356 426.684 961.346 397.43 959.501C379.43 958.315 361.433 956.86 343.402 956.267C343.435 946.811 342.346 929.164 343.957 920.648C343.937 916.781 343.677 913.032 343.253 909.189Z"/><path fill="#C9BEAD" d="M343.253 909.189C365.079 910.433 578.635 922.865 582.239 925.099L582.24 925.714C581.9 929.02 581.167 931.007 579.628 933.912L579.058 934.125L578.866 933.952C577.448 932.077 575.987 930.912 574.012 929.644C518.419 925.262 462.779 921.479 407.104 918.295C386.935 917.176 366.758 915.599 346.574 914.843C345.891 916.989 345.365 918.841 343.957 920.648C343.937 916.781 343.677 913.032 343.253 909.189Z"/><path fill="#ABA7A0" d="M578.866 933.952L579.058 934.125L579.628 933.912C581.167 931.007 581.9 929.02 582.24 925.714C582.529 941.308 582.4 956.901 582.609 972.494C580.549 972.443 578.461 972.465 576.409 972.281C577.093 964.507 577.589 956.717 577.896 948.919C578.103 944.124 577.687 938.555 578.866 933.952Z"/><path fill="#F4B14B" d="M240.537 635.569C262.263 636.522 284.236 637.462 305.983 637.554C305.999 643.925 306.16 650.294 306.463 656.656L310.05 827.009L300.899 826.979C300.89 826.92 300.887 826.86 300.871 826.803C300.071 823.803 300.568 821.064 300.941 818.032C300.364 817.178 299.72 816.339 299.017 815.585C288.374 804.179 260.448 802.929 245.924 802.047C244.634 782.277 244.363 762.39 243.714 742.59L240.869 652.478C240.753 646.844 240.575 641.203 240.537 635.569Z"/><path fill="#BF6C27" d="M240.537 635.569C262.263 636.522 284.236 637.462 305.983 637.554C305.999 643.925 306.16 650.294 306.463 656.656C297.112 656.339 287.726 655.371 278.388 654.731L240.869 652.478C240.753 646.844 240.575 641.203 240.537 635.569Z"/><path fill="#A4815B" d="M537.1 96.5132C543.569 98.9327 549.89 103.549 555.793 107.177C566.01 113.511 576.273 119.77 586.583 125.951L645.855 161.515C655.342 167.213 665.66 172.182 674.571 178.739C686.268 187.348 697.023 197.887 707.763 207.661C723.301 221.757 738.973 235.704 754.779 249.498C764.873 258.013 774.92 266.582 784.921 275.206C801.959 290.161 818.703 305.37 836.489 319.46C859.016 337.304 882.923 353.446 905.539 371.224L959.038 412.694C967.557 419.366 975.589 427.05 984.523 433.12C981.29 433.017 977.732 431.811 974.576 431.051C959.716 427.471 943.168 423.223 929.906 415.414C914.407 406.288 900.111 394.057 886.083 382.852C865.489 366.179 844.787 349.642 823.976 333.241C804.853 318.285 784.858 304.462 765.765 289.488C742.242 271.04 719.829 251.279 696.679 232.389C658.417 201.607 620.888 169.926 584.122 137.372C568.47 123.762 552.285 110.645 537.1 96.5132Z"/><path fill="#F4B14B" d="M663.45 274.755C675.183 283.407 686.098 293.11 697.481 302.213C707.208 309.991 717.703 317.271 726.901 325.646C727.228 337.294 727.1 348.915 727.147 360.563C727.131 394.888 727.404 429.213 727.968 463.533L662.65 464.122C662.373 412.941 662.625 361.759 663.406 310.584C663.485 298.641 663.499 286.698 663.45 274.755Z"/><path fill="#C67830" d="M663.45 274.755C675.183 283.407 686.098 293.11 697.481 302.213C707.208 309.991 717.703 317.271 726.901 325.646C727.228 337.294 727.1 348.915 727.147 360.563C705.796 344.134 685.587 325.944 663.406 310.584C663.485 298.641 663.499 286.698 663.45 274.755Z"/><path fill="#F4B14B" d="M519.028 156.095C528.866 164.263 538.448 172.748 548.389 180.782C560.705 190.736 573.803 200.511 585.222 211.47C585.305 223.641 585.239 235.837 585.539 248.003C586.264 263.993 586.008 280.075 586.14 296.08C586.485 327.87 586.606 359.662 586.505 391.454C564.506 391.77 542.51 392.297 520.522 393.037L520.492 366.9L520.493 359.981C526.55 359.99 532.608 359.94 538.665 359.833C542.103 352.23 545.681 344.691 549.397 337.219C553.084 329.86 566.635 305.515 567.62 299.459C563.552 293.515 560.135 286.898 556.394 280.725L534.021 244.479C528.965 244.427 523.871 244.862 518.823 245.139L519.042 193.594C518.82 181.096 518.816 168.594 519.028 156.095Z"/><path fill="#C67830" d="M519.028 156.095C528.866 164.263 538.448 172.748 548.389 180.782C560.705 190.736 573.803 200.511 585.222 211.47C585.305 223.641 585.239 235.837 585.539 248.003C581.774 246.462 576.754 241.028 573.581 238.344C566.635 232.47 524.223 195.458 519.042 193.594C518.82 181.096 518.816 168.594 519.028 156.095Z"/><path fill="#BF6C27" d="M567.62 299.459C569.306 301.036 569.983 302.891 570.943 304.945C562.654 325.836 554.731 347.5 544.232 367.403C536.319 367.283 528.404 366.915 520.492 366.9L520.493 359.981C526.55 359.99 532.608 359.94 538.665 359.833C542.103 352.23 545.681 344.691 549.397 337.219C553.084 329.86 566.635 305.515 567.62 299.459Z"/><path d="M471.2 252.37L472.515 251.041C476.463 249.744 528.357 247.203 531.416 247.988C532.114 248.167 532.695 249.468 533.093 250.073C539.222 262.302 547.047 273.871 554.101 285.597C556.987 290.394 560.254 295.252 562.428 300.412C562.926 301.748 562.656 302.205 562.042 303.472C560.057 307.566 557.588 311.538 555.321 315.486C548.348 328.81 541.862 341.972 536.366 355.972L469.381 356.574C461.91 343.779 455.017 330.655 448.723 317.242L443.164 306.11L440.709 300.471C443.862 294.017 448.59 287.797 452.449 281.708C458.66 271.908 464.472 261.833 471.2 252.37Z"/><path fill="#A4815B" d="M471.2 252.37C472.189 253.157 473.142 254.06 474.344 254.495C475.293 254.226 476.197 254.191 477.179 254.138C477.326 254.178 477.473 254.22 477.621 254.259C479.062 254.638 480.025 254.713 481.5 254.535L482.027 254.931L481.406 256.73C475.724 260.536 455.498 294.994 451.925 302.751C455.882 310.715 459.95 318.624 464.128 326.474C466.484 330.822 470.064 335.886 471.69 340.509L476.704 349.821C486.29 349.031 524.516 351.163 529.992 348.45C531.52 343.667 534.668 338.609 536.885 334.04C542.277 322.928 547.914 311.751 552.57 300.31L552.58 299.927C553.42 299.553 553.354 299.358 554.281 299.74C555.648 300.303 556.752 301.739 557.518 302.96L557.596 301.764C558.934 300.795 560.12 301.353 561.721 301.557L562.428 300.412C562.926 301.748 562.656 302.205 562.042 303.472C560.057 307.566 557.588 311.538 555.321 315.486C548.348 328.81 541.862 341.972 536.366 355.972L469.381 356.574C461.91 343.779 455.017 330.655 448.723 317.242L443.164 306.11L440.709 300.471C443.862 294.017 448.59 287.797 452.449 281.708C458.66 271.908 464.472 261.833 471.2 252.37Z"/><path fill="#DEC5A2" d="M471.2 252.37C472.189 253.157 473.142 254.06 474.344 254.495C468.05 263.993 461.816 273.531 455.642 283.107C452.408 288.096 448.7 293.117 445.955 298.366C445.419 299.392 444.928 300.264 445.197 301.455C445.464 302.641 446.022 303.892 446.461 305.021C445.315 305.567 444.434 305.89 443.164 306.11L440.709 300.471C443.862 294.017 448.59 287.797 452.449 281.708C458.66 271.908 464.472 261.833 471.2 252.37Z"/><path fill="#DEC5A2" d="M476.704 349.821C486.29 349.031 524.516 351.163 529.992 348.45L531.603 349.918L531.12 351.303C525.85 353.445 491.331 351.496 482.948 351.53C483.646 351.184 484.128 351.088 484.918 350.948C485.948 350.766 486.903 350.531 487.91 350.243L487.503 350.244L487.208 350.033L486.801 350.45L486.707 350.072C483.46 350.434 479.951 350.126 476.704 349.821Z"/><path fill="#DEC5A2" d="M552.57 300.31C553.287 301.228 553.408 301.194 553.25 302.352C551.837 312.684 535.847 337.194 531.603 349.918L529.992 348.45C531.52 343.667 534.668 338.609 536.885 334.04C542.277 322.928 547.914 311.751 552.57 300.31Z"/><path fill="#906C4B" d="M562.428 300.412C562.926 301.748 562.656 302.205 562.042 303.472C560.057 307.566 557.588 311.538 555.321 315.486C554.657 311.549 556.389 306.731 557.518 302.96L557.596 301.764C558.934 300.795 560.12 301.353 561.721 301.557L562.428 300.412Z"/><path fill="#DEC5A2" d="M446.461 305.021C448.227 308.965 452.398 316.373 453.186 320.167L452.276 318.518L451.387 318.69L451.495 317.589C450.505 317.523 449.69 317.476 448.723 317.242L443.164 306.11C444.434 305.89 445.315 305.567 446.461 305.021Z"/><path fill="#C9BEAD" d="M471.69 340.509L476.704 349.821C479.951 350.126 483.46 350.434 486.707 350.072L486.801 350.45L487.208 350.033L487.503 350.244L487.91 350.243C486.903 350.531 485.948 350.766 484.918 350.948C484.128 351.088 483.646 351.184 482.948 351.53L475.817 351.443C474.52 348.704 472.458 345.989 471.412 343.197C470.939 341.935 471.193 341.707 471.69 340.509Z"/><path fill="#A4815B" d="M471.2 252.37L472.515 251.041C476.463 249.744 528.357 247.203 531.416 247.988C532.114 248.167 532.695 249.468 533.093 250.073C539.222 262.302 547.047 273.871 554.101 285.597C556.987 290.394 560.254 295.252 562.428 300.412L561.721 301.557C560.12 301.353 558.934 300.795 557.596 301.764L557.518 302.96C556.752 301.739 555.648 300.303 554.281 299.74C553.354 299.358 553.42 299.553 552.58 299.927C551.905 296.038 538.766 276.551 535.906 271.45C532.596 265.965 529.32 260.405 525.077 255.579C513.987 255.271 502.752 255.999 491.656 256.315C488.398 256.408 484.611 256.982 481.406 256.73L482.027 254.931L481.5 254.535C480.025 254.713 479.062 254.638 477.621 254.259C477.473 254.22 477.326 254.178 477.179 254.138C476.197 254.191 475.293 254.226 474.344 254.495C473.142 254.06 472.189 253.157 471.2 252.37Z"/><path fill="#DEC5A2" d="M471.2 252.37L472.515 251.041C476.463 249.744 528.357 247.203 531.416 247.988C532.114 248.167 532.695 249.468 533.093 250.073C526.716 251.747 519.697 251.633 513.126 251.943C501.199 252.505 489.025 252.667 477.179 254.138C476.197 254.191 475.293 254.226 474.344 254.495C473.142 254.06 472.189 253.157 471.2 252.37Z"/><path fill="#B79656" d="M525.077 255.579C526.328 254.837 526.478 254.716 527.914 254.789C532.645 258.233 534.558 264.538 536.579 269.799C536.434 270.571 536.371 270.772 535.906 271.45C532.596 265.965 529.32 260.405 525.077 255.579Z"/><path fill="#F5F9F9" d="M504.432 260C510.791 259.889 517.15 259.853 523.51 259.892C528.845 268.741 543.882 292.052 546.6 300.343C546.995 301.545 547.003 301.692 546.445 302.756L504.156 303.689C503.958 289.151 504.357 274.544 504.432 260Z"/><path fill="#BBE7E2" d="M486.156 260.739C490.933 260.533 495.729 260.489 500.511 260.37L500.487 303.748C490.707 303.782 480.914 304.024 471.134 304.168C466.351 304.382 461.579 304.409 456.793 304.422C461.296 294.738 475.49 270.323 481.743 262.571C483.217 260.744 483.98 260.946 486.156 260.739Z"/><path fill="#BBE7E2" d="M542.861 307.226L544.993 307.163L545.364 307.787C538.917 320.052 532.837 332.506 527.132 345.134C520.382 345.347 513.629 345.467 506.875 345.495L505.005 345.347C503.612 343.32 504.263 313.589 504.236 308.957C517.095 308.214 529.993 307.833 542.861 307.226Z"/><path fill="#BBE7E2" d="M460.118 309.2C473.513 309.64 487.121 309.03 500.534 308.923C500.545 321.05 500.119 333.185 500.023 345.315C493.398 345.932 486.374 345.503 479.702 345.514C473.419 334.544 464.327 320.732 460.118 309.2Z"/><path fill="#A4815B" d="M439.011 707.855C447.566 708.189 462.613 710.505 470.422 709.181C468.934 719.502 470.21 731.424 469.969 741.966L469.2 770.353C469.082 774.876 468.468 780.015 469.086 784.492C468.883 812.121 467.444 839.781 467.599 867.421L467.64 872.585C455.722 872.289 443.755 871.18 431.869 870.267C425.701 869.793 418.895 869.79 412.853 868.551C409.917 868.585 406.948 868.356 404.013 868.218L403.254 731.989L403.313 729.833C405.176 728.464 432.68 730.428 437.195 730.567C437.321 730.467 437.458 730.38 437.573 730.267C439.779 728.091 439.006 711.699 439.011 707.855Z"/><path fill="#906C4B" d="M412.853 868.551C415.423 867.073 418.926 867.227 421.851 866.988C427.44 866.533 433.088 865.929 438.7 866.05C448.342 866.259 457.947 867.583 467.599 867.421L467.64 872.585C455.722 872.289 443.755 871.18 431.869 870.267C425.701 869.793 418.895 869.79 412.853 868.551Z"/><path d="M432.873 733.897L433.277 732.357L433.028 732.699L433.494 732.851C433.48 735.199 433.402 737.46 433.896 739.77C433.798 768.509 433.93 797.248 434.292 825.984C434.335 832.28 435.491 856.334 434.054 860.42C434.01 860.545 433.942 860.66 433.886 860.78L434.147 860.841C434.07 861.556 434.192 861.235 433.797 861.81C432.339 855.494 432.704 848.444 432.582 841.97C432.438 827.553 432.41 813.135 432.498 798.717L432.54 757.99C432.554 749.983 432.287 741.882 432.873 733.897Z"/><path fill="#71422B" d="M403.254 731.989L403.313 729.833C405.176 728.464 432.68 730.428 437.195 730.567C436.45 730.729 435.07 730.791 434.606 731.409C433.145 733.356 434.126 737.366 433.896 739.77C433.402 737.46 433.48 735.199 433.494 732.851L433.028 732.699L433.277 732.357L432.873 733.897L432.419 732.867C427.825 731.502 408.933 732.023 403.254 731.989Z"/><path fill="#A4815B" d="M599.004 421.706C605.276 421.451 611.629 421.681 617.907 421.762L618.495 430.084L617.418 665.229C617.925 714.642 618.111 764.058 617.974 813.474L618.03 853.316C617.978 862.599 617.338 872.391 618.462 881.605C613.595 880.948 605.119 881.423 601.108 880.232C599.815 880.147 598.575 880.022 597.296 879.821C597.06 879.546 596.695 879.341 596.589 878.995C595.927 876.823 596.231 859.21 596.172 855.693C595.38 808.296 596.305 760.717 597.274 713.327C597.663 694.32 597.415 675.235 598.094 656.247C598.267 651.405 601.419 647.101 601.551 642.214C601.661 638.143 599.072 635.025 598.463 631.22C597.971 628.152 598.377 624.339 598.404 621.203C599.212 557.646 599.416 494.083 599.013 430.521L599.004 421.706Z"/><path fill="#71422B" d="M601.108 880.232C601.589 880.053 601.935 879.766 602.349 879.469C603.225 876.301 603.008 872.626 603.327 869.334C604.441 856.832 605.407 844.317 606.227 831.792C607.74 810.694 610.066 789.713 611.017 768.568C611.833 747.206 612.969 725.858 614.425 704.53C615.194 691.512 615.557 678.127 617.418 665.229C617.925 714.642 618.111 764.058 617.974 813.474L618.03 853.316C617.978 862.599 617.338 872.391 618.462 881.605C613.595 880.948 605.119 881.423 601.108 880.232Z"/><path fill="#71422B" d="M599.004 421.706C605.276 421.451 611.629 421.681 617.907 421.762L618.495 430.084C612.005 430.362 605.51 430.508 599.013 430.521L599.004 421.706Z"/><path fill="#C67830" d="M852.345 428.178C858.698 432.345 864.685 437.503 870.629 442.238C870.574 453.115 869.333 464.187 868.675 475.064L865.018 540.501C859.936 632.901 854.007 725.252 847.231 817.543C844.193 855.363 841.42 893.204 838.912 931.063L830.784 937.224C827.234 939.776 823.737 942.401 820.295 945.098C825.582 893.494 828.223 841.665 831.614 789.917L845.952 554.606L850.76 463.725C851.382 451.892 851.43 439.984 852.345 428.178Z"/><path fill="#F4B14B" d="M238.64 362.031C249.29 353.506 260.241 345.35 271.002 336.964C281.403 328.858 291.624 320.42 302.621 313.12C303.559 326.261 303.414 339.712 303.565 352.895C303.824 391.963 304.429 431.027 305.38 470.084L239.497 471.506L238.911 403.31C238.618 389.552 238.528 375.791 238.64 362.031Z"/><path fill="#C67830" d="M238.64 362.031C249.29 353.506 260.241 345.35 271.002 336.964C281.403 328.858 291.624 320.42 302.621 313.12C303.559 326.261 303.414 339.712 303.565 352.895C293.685 359.213 284.755 367.223 275.431 374.34C264.495 382.688 248.332 393.648 238.911 403.31C238.618 389.552 238.528 375.791 238.64 362.031Z"/><path fill="#C67830" d="M874.467 445.509C882.058 451.207 889.357 456.24 898.031 460.161C893.457 493.742 891.584 527.654 888.703 561.404L868.844 819.817C867.173 840.168 865.737 860.539 864.537 880.924C863.812 892.267 863.703 904.223 861.801 915.43L858.104 917.642C853.229 921.198 848.304 924.685 843.329 928.1C845.652 912.133 846.241 895.588 847.47 879.489L854.228 786.57C859.278 720.471 863.704 654.327 867.506 588.144L874.467 445.509Z"/><path fill="#F4B14B" d="M819.578 655.079C820.316 648.433 820.4 641.706 821.77 635.135C822.258 636.43 822.319 636.584 823.701 637.127C826.378 638.177 830.658 637.762 833.512 637.812C833.407 640.024 833.407 642.295 833.132 644.49C832.885 647.708 832.511 650.974 832.449 654.198C831.997 668.053 830.418 681.948 829.525 695.79C827.884 721.24 813.82 946.131 810.396 951.299C808.889 951.959 807.32 951.676 805.722 951.566C799.484 950.934 793.196 950.586 786.94 950.133C790.53 889.193 793.723 828.23 796.518 767.249L799.682 708.246C800.33 696.986 801.262 685.7 801.529 674.425C802.433 667.843 802.442 660.946 802.514 654.306C808.205 654.489 813.893 654.747 819.578 655.079Z"/><path fill="#BF6C27" d="M805.722 951.566C806.912 932.4 809.227 913.234 810.601 894.056C814.497 839.651 818.011 785.287 823.14 730.976C824.557 715.738 826.084 700.51 827.719 685.294C828.818 674.976 829.196 664.081 832.449 654.198C831.997 668.053 830.418 681.948 829.525 695.79C827.884 721.24 813.82 946.131 810.396 951.299C808.889 951.959 807.32 951.676 805.722 951.566Z"/><defs><linearGradient id="gradient_1" gradientUnits="userSpaceOnUse" x1="836.27386" y1="643.51752" x2="802.39429" y2="672.37592"><stop offset="0" stop-color="#A25622"/><stop offset="1" stop-color="#C4742C"/></linearGradient></defs><path fill="url(#gradient_1)" d="M819.578 655.079C820.316 648.433 820.4 641.706 821.77 635.135C822.258 636.43 822.319 636.584 823.701 637.127C826.378 638.177 830.658 637.762 833.512 637.812C833.407 640.024 833.407 642.295 833.132 644.49C830.175 644.501 827.21 644.465 824.254 644.532C823.809 654.366 824.9 664.166 824.73 673.99C820.999 673.982 803.497 673.189 801.529 674.425C802.433 667.843 802.442 660.946 802.514 654.306C808.205 654.489 813.893 654.747 819.578 655.079Z"/><path fill="#A4815B" d="M402.88 874.181C415.551 874.38 428.214 875.425 440.857 876.221L496.963 879.69C528.81 881.709 560.709 882.762 592.572 884.487C596.35 884.692 634.667 886.615 635.599 887.122L634.547 888.082C623.753 894.247 613.707 901.676 603.479 908.723C597.913 912.559 591.865 917.41 585.531 919.885C584.007 920.481 582.111 920.103 580.53 919.929C570.135 919.743 559.567 918.709 549.177 918.049C537.538 917.31 525.719 916.893 514.149 915.494L513.481 915.276C508.594 915.62 480.174 914.137 475.99 912.961L476.308 911.308C475.004 912.033 473.78 912.647 472.28 912.794C466.035 913.408 459.249 912.397 452.984 911.939C440.668 911.039 428.336 909.933 415.999 909.391C435.187 900.907 455.087 894.382 475.092 888.14L475.036 887.948C460.395 890.455 445.549 896.228 431.722 901.524C425.603 903.868 419.171 907.045 412.77 908.362C406.022 909.752 397.055 907.99 390.115 907.525C377.243 906.585 364.36 905.816 351.468 905.216L350.308 904.905C350.512 904.462 397.733 877.235 402.88 874.181Z"/><path fill="#C9BEAD" d="M402.88 874.181C415.551 874.38 428.214 875.425 440.857 876.221L496.963 879.69C528.81 881.709 560.709 882.762 592.572 884.487C596.35 884.692 634.667 886.615 635.599 887.122L634.547 888.082C628.537 886.884 627.655 889.385 622.035 889.865C615.556 891.537 588.644 888.292 580.128 887.789C568.213 887.085 556.28 886.964 544.358 886.436C526.9 885.61 509.454 884.539 492.026 883.224C474.448 881.953 456.868 881.13 439.285 880.007C428.916 879.345 417.719 877.771 407.358 878.376C404.976 878.515 402.912 878.985 400.702 879.881C395.304 882.067 390.117 885.483 385.074 888.4C378.017 892.541 370.856 896.502 363.597 900.278C359.97 902.167 355.561 904.809 351.468 905.216L350.308 904.905C350.512 904.462 397.733 877.235 402.88 874.181Z"/><path fill="#ABA7A0" d="M622.035 889.865C627.655 889.385 628.537 886.884 634.547 888.082C623.753 894.247 613.707 901.676 603.479 908.723C597.913 912.559 591.865 917.41 585.531 919.885C584.007 920.481 582.111 920.103 580.53 919.929C582.702 914.825 615.399 895.702 622.035 889.865Z"/><path fill="#191412" d="M513.481 915.276C514.892 911.762 542.624 899.078 547.844 896.845C550.545 895.689 553.552 894.125 556.421 893.525C553.657 896.223 547.774 898.103 544.216 899.76C537.629 902.826 519.395 911.374 514.149 915.494L513.481 915.276Z"/><path fill="#373229" d="M498.199 900.241C491.342 905.358 482.402 907.869 475.99 912.961L476.308 911.308C482.937 907.009 490.909 903.277 498.199 900.241Z"/><path fill="#C67830" d="M901.325 461.324C906.045 462.42 910.856 463.249 915.595 464.282C914.102 479.235 913.547 494.309 912.695 509.308L908.588 576.253L889.426 894.672C885.114 898.297 880.387 901.418 875.763 904.628L866.374 911.168C867.38 901.649 867.816 892.019 868.499 882.47L872.718 825.919L893.84 556.7L898.638 493.492C899.455 482.788 899.999 471.976 901.325 461.324Z"/><path fill="#9F6132" d="M180.81 873.858C180.491 871.449 179.999 869.06 180.476 866.649L180.965 866.283C209.947 871.971 253.146 872.949 281.787 865.638C279.625 876.839 278.888 888.475 277.742 899.819C276.053 916.76 274.08 933.672 271.824 950.547C252.421 958.202 209.158 959.355 189.469 951.059C189.107 948.467 188.664 945.868 188.547 943.252C186.453 920.183 184.424 896.733 180.81 873.858Z"/><path fill="#71422B" d="M180.81 873.858C180.491 871.449 179.999 869.06 180.476 866.649L180.965 866.283C209.947 871.971 253.146 872.949 281.787 865.638C279.625 876.839 278.888 888.475 277.742 899.819C276.053 916.76 274.08 933.672 271.824 950.547C252.421 958.202 209.158 959.355 189.469 951.059C189.107 948.467 188.664 945.868 188.547 943.252C203.728 946.84 242.193 947.823 256.122 943.097C258.813 930.523 258.627 917.468 259.12 904.686C259.448 896.559 260.14 888.451 261.195 880.386C253.914 880.651 246.681 881.372 239.386 881.424C219.668 881.564 199.901 878.607 180.81 873.858Z"/><path fill="#F4B14B" d="M731.345 328.79C746.09 340.388 760.752 352.093 775.329 363.903C784.135 370.931 793.222 377.265 801.56 384.9C802.796 396.025 801.948 407.497 802.445 418.689C802.916 433.551 802.547 448.542 802.581 463.419C778.912 463.02 755.174 463.437 731.499 463.512L731.444 363.396L731.345 328.79Z"/><path fill="#C67830" d="M731.345 328.79C746.09 340.388 760.752 352.093 775.329 363.903C784.135 370.931 793.222 377.265 801.56 384.9C802.796 396.025 801.948 407.497 802.445 418.689C796.99 415.523 791.687 410.674 786.67 406.783C772.795 396.022 759.435 384.651 745.488 373.952C740.862 370.403 736.3 366.619 731.444 363.396L731.345 328.79Z"/><path fill="#F4B14B" d="M155.893 467.48C161.979 465.379 169.05 457.756 174.993 454.097L183.883 645.268C186.575 698.559 188.962 751.866 191.042 805.185C184.69 806.605 178.527 808.223 172.406 810.47L155.893 467.48Z"/><path fill="#906C4B" d="M497.491 136.922C500.465 138.988 503.074 142.391 505.939 144.788C497.945 151.352 489.153 157.243 480.886 163.504L433.1 200.407L141.272 424.61L123.901 424.4L114.789 424.284C123.981 416.584 133.719 409.791 143.321 402.643L188.69 368.458C208.211 353.469 227.668 338.312 247.426 323.64C262.957 312.107 278.825 301.013 294.291 289.395L396.958 211.877C412.6 200.309 427.891 188.207 443.677 176.854C461.732 163.869 480.651 151.456 497.491 136.922Z"/><path fill="#F4B14B" d="M805.506 387.526C812.858 392.817 819.727 398.744 826.866 404.313C833.646 409.603 840.699 414.536 847.419 419.901C846.176 430.119 846.014 440.424 845.149 450.673C842.671 486.698 840.434 522.738 838.438 558.792C836.805 585.106 834.634 611.474 833.512 637.812C830.658 637.762 826.378 638.177 823.701 637.127C822.319 636.584 822.258 636.43 821.77 635.135C821.921 634.083 822.123 632.986 822.151 631.923C822.188 630.523 821.735 630.028 820.858 629.002C817.976 627.793 814.094 628.452 810.979 628.505C809.393 628.582 807.955 628.817 806.51 628.024C805.488 626.225 807.835 605.116 808.096 601.742C811.112 564.369 813.42 526.941 815.021 489.48C818.655 489.503 825.426 491.26 828.469 489.671C830.726 488.493 831.231 486.464 832.083 484.24C832.012 478.893 834.862 468.501 831.465 464.123C828.085 462.004 810.09 463.42 805.05 463.456L805.514 420.728L805.506 387.526Z"/><path fill="#C67830" d="M805.506 387.526C812.858 392.817 819.727 398.744 826.866 404.313C833.646 409.603 840.699 414.536 847.419 419.901C846.176 430.119 846.014 440.424 845.149 450.673C841.217 448.205 837.445 444.905 833.693 442.108C824.231 435.073 814.838 427.945 805.514 420.728L805.506 387.526Z"/><path fill="#9F6132" d="M815.021 489.48C818.655 489.503 825.426 491.26 828.469 489.671C830.726 488.493 831.231 486.464 832.083 484.24C832.78 488.4 832.573 492.808 832.543 497.02L823.668 497.078C821.236 516.197 819.835 535.475 818.167 554.673C815.961 579.302 813.565 603.913 810.979 628.505C809.393 628.582 807.955 628.817 806.51 628.024C805.488 626.225 807.835 605.116 808.096 601.742C811.112 564.369 813.42 526.941 815.021 489.48Z"/><path fill="#A4815B" d="M401.016 426.823L429.529 426.325C429.577 428.55 429.542 430.809 429.685 433.029C430.599 439.983 430.041 447.767 430.15 454.807L430.89 499.098L432.403 654.035L402.923 651.107C403.019 578.231 402.545 505.354 401.501 432.485L401.016 426.823Z"/><path fill="#71422B" d="M401.016 426.823L429.529 426.325C429.577 428.55 429.542 430.809 429.685 433.029C420.319 432.395 410.884 432.479 401.501 432.485L401.016 426.823Z"/><path fill="#906C4B" d="M360.975 402.532C393.809 402.384 426.778 400.138 459.591 398.949C499.457 397.749 539.33 396.787 579.208 396.063C602.106 395.518 625.34 394.013 648.223 394.621C649.25 395.585 649.043 396.458 649.197 397.811C648.485 403.538 648.888 409.723 648.878 415.511L360.522 422.206C360.599 418.132 360.593 414.036 360.839 409.969L360.975 402.532Z"/><path fill="#DEC5A2" d="M360.975 402.532C393.809 402.384 426.778 400.138 459.591 398.949C499.457 397.749 539.33 396.787 579.208 396.063C602.106 395.518 625.34 394.013 648.223 394.621C649.25 395.585 649.043 396.458 649.197 397.811C633.39 402.586 603.21 402.797 585.923 403.493C558.648 404.655 531.363 405.559 504.071 406.205L409.023 408.615C392.976 409.048 376.886 409.787 360.839 409.969L360.975 402.532Z"/><path fill="#DEC5A2" d="M819.13 113.42C824.035 124.867 828.248 136.593 832.797 148.183L851.748 195.711C856.369 207.526 860.49 219.805 865.963 231.25C839.619 231.95 813.227 231.543 786.886 232.372C780.915 232.561 774.94 232.505 768.974 232.202C772.053 223.872 775.803 215.758 779.116 207.514C790.888 177.695 803.456 148.197 816.807 119.051C817.559 117.165 818.333 115.288 819.13 113.42Z"/><path fill="#F5F9F9" d="M816.807 119.051C817.59 121.034 817.151 122.56 816.707 124.602C815.335 130.908 813.337 137.102 811.702 143.344L797.78 195.518C795.857 202.682 790.411 226.594 787.853 231.209C787.577 231.708 787.308 232.021 786.886 232.372C780.915 232.561 774.94 232.505 768.974 232.202C772.053 223.872 775.803 215.758 779.116 207.514C790.888 177.695 803.456 148.197 816.807 119.051Z"/><path fill="#A4815B" d="M498.045 688.96C499.741 700.451 498.385 719.851 498.401 732.198L498.532 770.008C498.559 777.015 498.913 784.236 498.421 791.212C498.482 818.722 499.105 846.446 498.137 873.931C488.625 873.448 479.106 873.161 469.597 872.614C469.513 849.469 469.17 826.263 469.547 803.123C469.054 796.912 469.69 790.692 469.086 784.492C468.468 780.015 469.082 774.876 469.2 770.353L469.969 741.966C470.21 731.424 468.934 719.502 470.422 709.181C462.613 710.505 447.566 708.189 439.011 707.855L438.982 699.405C453.511 701.008 468.392 701.563 482.991 702.588C485.809 702.786 490.423 703.336 492.614 701.253C495.301 698.699 495.124 695.188 495.235 691.765C495.841 693.967 497.272 697.613 496.368 699.744L495.783 698.704C495.615 698.849 495.423 698.97 495.28 699.14C494.257 700.353 493.849 702.189 493.746 703.721C494.35 705.078 494.432 705.142 495.714 705.899C495.903 705.691 496.546 704.957 496.768 704.831C497.064 704.664 497.413 704.615 497.735 704.507C497.194 699.259 497.642 694.192 498.045 688.96Z"/><path fill="#71422B" d="M498.045 688.96C499.741 700.451 498.385 719.851 498.401 732.198L498.532 770.008C498.559 777.015 498.913 784.236 498.421 791.212C497.413 781.36 498.057 770.804 498.017 760.867C497.86 742.193 497.903 723.519 498.145 704.847C495.641 707.139 493.203 709.088 490.235 710.754C483.879 709.933 477.467 709.973 471.099 709.322L470.459 708.349L470.422 709.181C462.613 710.505 447.566 708.189 439.011 707.855L438.982 699.405C453.511 701.008 468.392 701.563 482.991 702.588C485.809 702.786 490.423 703.336 492.614 701.253C495.301 698.699 495.124 695.188 495.235 691.765C495.841 693.967 497.272 697.613 496.368 699.744L495.783 698.704C495.615 698.849 495.423 698.97 495.28 699.14C494.257 700.353 493.849 702.189 493.746 703.721C494.35 705.078 494.432 705.142 495.714 705.899C495.903 705.691 496.546 704.957 496.768 704.831C497.064 704.664 497.413 704.615 497.735 704.507C497.194 699.259 497.642 694.192 498.045 688.96Z"/><path fill="#574737" d="M470.422 709.181L470.459 708.349L471.099 709.322C471.023 731.528 470.679 753.732 470.068 775.929C469.904 784.685 471.114 794.58 469.547 803.123C469.054 796.912 469.69 790.692 469.086 784.492C468.468 780.015 469.082 774.876 469.2 770.353L469.969 741.966C470.21 731.424 468.934 719.502 470.422 709.181Z"/><path fill="#C67830" d="M456.559 235.082C456.775 221.809 456.375 208.709 455.869 195.465C464.513 187.301 477.094 178.745 486.714 171.405C493.948 165.886 504.075 157.054 511.829 152.823C512.724 152.334 512.754 152.202 513.764 152.527C515.882 159.347 514.556 172.388 514.567 179.782C514.576 185.149 514.921 190.522 514.837 195.884C514.92 212.29 514.91 228.697 514.807 245.104C499.983 245.607 484.531 245.339 469.822 247.155C466.076 253.906 461.447 260.134 457.576 266.825L456.559 235.082Z"/><path fill="#F4B14B" d="M514.282 190.521C514.31 192.192 514.09 194.389 514.837 195.884C514.92 212.29 514.91 228.697 514.807 245.104C499.983 245.607 484.531 245.339 469.822 247.155C466.076 253.906 461.447 260.134 457.576 266.825L456.559 235.082C464.342 229.551 471.711 223.267 479.251 217.392L514.282 190.521Z"/><defs><linearGradient id="gradient_2" gradientUnits="userSpaceOnUse" x1="721.77576" y1="630.92554" x2="700.02563" y2="553.64532"><stop offset="0" stop-color="#75C3BD"/><stop offset="1" stop-color="#BBE9E0"/></linearGradient></defs><path fill="url(#gradient_2)" d="M694.117 557.767C708.45 557.279 722.847 557.375 737.188 557.26C738.205 580.789 738.431 604.475 738.654 628.025L725.791 627.642C712.103 627.473 698.418 627.1 684.74 626.524C684.126 603.618 681.731 580.882 680.212 558.033L694.117 557.767Z"/><defs><linearGradient id="gradient_3" gradientUnits="userSpaceOnUse" x1="719.10052" y1="556.9751" x2="696.2132" y2="483.83154"><stop offset="0" stop-color="#AFE1DA"/><stop offset="1" stop-color="#EAF1F4"/></linearGradient></defs><path fill="url(#gradient_3)" d="M688.125 489.23C704.291 488.793 720.506 488.984 736.679 488.941C737.272 497.171 736.948 505.613 736.923 513.864L736.959 553.102C732.868 553.197 728.777 553.314 724.687 553.451C709.806 553.974 694.918 554.312 680.028 554.467C678.896 545.664 678.656 536.567 678.018 527.695C677.102 514.965 675.92 502.246 675.207 489.503L688.125 489.23Z"/><path fill="#F4B14B" d="M379.524 431.4C379.516 430.002 379.325 428.89 380.019 427.638C385.566 427.36 391.121 427.521 396.663 427.239C396.878 432.247 397.14 437.239 396.926 442.253C397.697 511.63 398.071 581.012 398.05 650.394C392.507 649.772 387.025 649.374 381.445 649.522C381.19 576.812 380.55 504.104 379.524 431.4Z"/><path fill="#9F6132" d="M379.524 431.4C379.516 430.002 379.325 428.89 380.019 427.638C385.566 427.36 391.121 427.521 396.663 427.239C396.878 432.247 397.14 437.239 396.926 442.253C396.416 438.95 396.545 435.47 396.495 432.128L379.524 431.4Z"/><defs><linearGradient id="gradient_4" gradientUnits="userSpaceOnUse" x1="85.101479" y1="723.71796" x2="73.65667" y2="658.73041"><stop offset="0" stop-color="#898A83"/><stop offset="1" stop-color="#AFB2B1"/></linearGradient></defs><path fill="url(#gradient_4)" d="M90.5587 653.908C98.5933 657.456 105.919 661.842 112.087 668.13C116.803 672.349 119.809 677.665 122.349 683.382C124.921 692.157 122.448 701.87 118.189 709.76C112.066 721.099 100.715 729.647 88.4318 733.241C78.804 736.057 67.72 735.84 58.8427 730.818C53.0986 727.569 48.4571 722.571 45.1311 716.908C42.1261 711.558 40.6369 705.948 40.4089 699.829C39.9787 688.277 43.2521 673.507 51.3022 664.821C54.3645 678.038 57.2032 691.719 61.7318 704.52C74.9919 700.784 88.6302 698.922 101.846 694.768C98.6206 681.005 94.5137 667.474 90.5587 653.908Z"/><path fill="#6F716C" d="M122.349 683.382C124.921 692.157 122.448 701.87 118.189 709.76C112.066 721.099 100.715 729.647 88.4318 733.241C78.804 736.057 67.72 735.84 58.8427 730.818C53.0986 727.569 48.4571 722.571 45.1311 716.908C50.527 717.639 55.7794 720.997 60.8961 722.88C71.3138 726.714 82.086 726.685 92.2534 721.919C105.728 715.601 114.692 701.448 119.595 687.914C120.119 686.121 121.227 684.847 122.349 683.382Z"/><path fill="#909793" d="M112.087 668.13C116.803 672.349 119.809 677.665 122.349 683.382C121.227 684.847 120.119 686.121 119.595 687.914C119.443 681.101 113.778 674.769 112.087 668.13Z"/><path fill="#43514F" d="M295.927 829.342L296.427 829.475C296.759 837.954 295.797 847.021 295.258 855.5C268.442 869.819 203.747 867.949 174.886 859.148C173.253 858.65 171.7 858.125 170.154 857.394L168.195 856.262C166.396 852.507 166.832 835.695 166.508 830.25C171.819 833.04 177.212 834.767 183.076 836.04C209.646 841.808 272.785 844.284 295.927 829.342Z"/><path fill="#909793" d="M295.927 829.342C295.936 830.837 296.267 831.773 295.098 832.898C292.896 835.016 288.302 836.182 285.437 837.231C256.902 847.676 216.697 845.773 186.958 841.837C181.396 841.101 175.99 840.028 170.556 838.628C170.622 843.521 171.877 853.243 170.154 857.394L168.195 856.262C166.396 852.507 166.832 835.695 166.508 830.25C171.819 833.04 177.212 834.767 183.076 836.04C209.646 841.808 272.785 844.284 295.927 829.342Z"/><defs><linearGradient id="gradient_5" gradientUnits="userSpaceOnUse" x1="775.96576" y1="553.62073" x2="758.02338" y2="484.92325"><stop offset="0" stop-color="#AADED8"/><stop offset="1" stop-color="#E4EDEF"/></linearGradient></defs><path fill="url(#gradient_5)" d="M741.139 488.74C758.751 488.207 776.479 488.503 794.107 488.389C791.543 508.684 789.439 529.034 787.796 549.424C787.623 550.693 787.744 551.015 786.913 552.046C771.842 553.259 756.279 552.785 741.149 553.088L739.882 506.794C739.758 501.94 738.662 493.398 739.722 489.177L741.139 488.74Z"/><defs><linearGradient id="gradient_6" gradientUnits="userSpaceOnUse" x1="768.8407" y1="628.3244" x2="760.23761" y2="555.83551"><stop offset="0" stop-color="#79C5BE"/><stop offset="1" stop-color="#B3E3DB"/></linearGradient></defs><path fill="url(#gradient_6)" d="M784.687 556.748C785.373 556.748 785.992 556.882 786.666 557.004C787.45 559.331 782.326 620.888 781.788 628.155L744.125 627.748L743.138 627.534C742.177 626.009 741.269 565.008 740.997 557.374C755.557 556.979 770.121 556.77 784.687 556.748Z"/><path fill="#0F4247" d="M221.333 806.218C239.418 805.498 275.217 805 290.763 814.337C292.665 815.48 295.585 817.434 295.954 819.831C296.142 821.056 295.556 822.144 294.747 823.016C285.614 832.867 257.185 834.3 244.125 834.979C226.614 835.372 183.104 836.388 169.286 825.164C167.899 824.037 167.265 823.129 167.046 821.322C167.283 820.358 167.559 819.668 168.21 818.922C177.003 808.848 207.988 806.945 221.333 806.218Z"/><path d="M228.309 809.72C241.519 809.386 273.822 809.486 284.331 816.066C286.052 817.144 287.07 818.234 287.575 820.232C287.454 821.123 287.37 821.831 286.784 822.564C281.083 829.697 246.247 830.544 236.741 830.735C222.844 830.794 191.217 831.461 179.289 825.049C177.334 823.999 175.809 822.69 175.201 820.5C175.424 819.312 175.491 818.848 176.351 817.93C183.333 810.489 217.269 810.159 228.309 809.72Z"/><path fill="#537D7D" d="M209.324 825.009C203.234 825.157 187.832 825.026 183.151 820.884L183.19 819.925C183.352 819.802 183.503 819.664 183.675 819.556C192.397 814.039 234.954 813.974 246.512 814.56C254.814 815.023 263.085 815.925 271.292 817.261C274.018 817.727 279.389 818.426 281.041 820.773L280.644 821.667C274.957 824.644 265.571 824.034 259.142 824.454C251.035 825.631 216.164 826.989 209.324 825.009Z"/><path fill="#0F4247" d="M209.324 825.009C219.056 821.331 231.693 819.942 242.005 820.542C246.223 820.787 256.405 821.406 259.142 824.454C251.035 825.631 216.164 826.989 209.324 825.009Z"/><defs><linearGradient id="gradient_7" gradientUnits="userSpaceOnUse" x1="270.19534" y1="611.01703" x2="232.5009" y2="555.21466"><stop offset="0" stop-color="#69C5C1"/><stop offset="1" stop-color="#CCDEE1"/></linearGradient></defs><path fill="url(#gradient_7)" d="M242.613 550.539C252.96 550.131 263.314 549.934 273.668 549.947C272.669 571.209 270.925 592.427 269.906 613.685C255.49 613.159 240.935 613.021 226.551 611.976C225.389 597.571 225.089 582.995 223.642 568.632C223.438 562.759 223.1 556.886 222.813 551.017C229.409 550.72 236.011 550.56 242.613 550.539Z"/><path fill="#BBD7E4" d="M222.813 551.017C229.409 550.72 236.011 550.56 242.613 550.539C242.391 550.67 242.17 550.805 241.945 550.932C241.126 551.395 240.438 551.513 239.535 551.723C232.947 553.252 229.64 564.888 223.788 568.516C223.735 568.549 223.691 568.593 223.642 568.632C223.438 562.759 223.1 556.886 222.813 551.017Z"/><defs><linearGradient id="gradient_8" gradientUnits="userSpaceOnUse" x1="262.99338" y1="549.46826" x2="235.63081" y2="488.19016"><stop offset="0" stop-color="#ABE0CF"/><stop offset="1" stop-color="#FFFBFD"/></linearGradient></defs><path fill="url(#gradient_8)" d="M257.393 493.25L277.384 492.984C276.648 510.823 275.061 528.649 274.189 546.487L239.75 546.973C234.026 546.978 228.302 547.048 222.579 547.183C221.693 529.502 219.695 511.754 219.488 494.049C232.117 493.55 244.754 493.283 257.393 493.25Z"/><path fill="#A4815B" d="M812.196 467.469C816.388 467.158 820.562 467.075 824.763 467.02C824.196 472.972 823.496 478.91 822.663 484.831C796.242 483.21 769.424 484.044 742.95 484.182L641.681 484.717C641.712 480.833 641.61 476.892 641.885 473.02C641.686 471.631 641.383 470.312 641.75 468.93C644.115 467.583 669.286 468.579 673.96 468.589C720.071 468.687 766.098 467.856 812.196 467.469Z"/><path fill="#DEC5A2" d="M641.885 473.02C641.686 471.631 641.383 470.312 641.75 468.93C644.115 467.583 669.286 468.579 673.96 468.589C720.071 468.687 766.098 467.856 812.196 467.469C809.872 468.42 807.753 469.036 805.252 469.309C790.787 470.887 776.155 471.005 761.623 471.477C736.967 472.255 712.303 472.751 687.635 472.965L658.934 473.133C653.305 473.189 647.477 473.655 641.885 473.02Z"/><path fill="#909793" d="M85.7797 757.4L93.4306 757.494L102.653 757.482C110.629 794.985 117.641 832.688 125.293 870.258C127.437 880.784 129.732 891.279 132.177 901.739C133.683 908.303 135.514 914.964 136.477 921.628C136.943 924.854 137.875 928.921 135.762 931.744C134.966 932.807 133.995 933.466 132.665 933.676C130.214 934.064 127.867 932.715 125.881 931.453C124.633 930.494 123.486 929.559 122.915 928.036C120.96 922.816 120.074 916.712 118.838 911.27L111.753 880.085C106.518 856.831 102.175 833.437 97.2033 810.136C93.4412 792.504 89.0008 775.166 85.7797 757.4Z"/><defs><linearGradient id="gradient_9" gradientUnits="userSpaceOnUse" x1="125.7607" y1="843.73663" x2="105.43661" y2="846.29749"><stop offset="0" stop-color="#565D5E"/><stop offset="1" stop-color="#6E736D"/></linearGradient></defs><path fill="url(#gradient_9)" d="M93.4306 757.494L102.653 757.482C110.629 794.985 117.641 832.688 125.293 870.258C127.437 880.784 129.732 891.279 132.177 901.739C133.683 908.303 135.514 914.964 136.477 921.628C136.943 924.854 137.875 928.921 135.762 931.744C134.966 932.807 133.995 933.466 132.665 933.676C130.214 934.064 127.867 932.715 125.881 931.453C127.401 927.437 127.398 922.776 127.028 918.55C125.545 901.569 120.46 882.944 117.05 866.061C115.445 858.111 114.757 849.989 113.099 842.081C111.915 836.43 110.308 830.878 109.067 825.24C107.14 816.493 105.577 807.669 103.59 798.935C100.436 785.073 96.764 771.316 93.4306 757.494Z"/><defs><linearGradient id="gradient_10" gradientUnits="userSpaceOnUse" x1="302.9556" y1="596.87085" x2="280.56174" y2="549.29419"><stop offset="0" stop-color="#81CAC6"/><stop offset="1" stop-color="#CEE3E4"/></linearGradient></defs><path fill="url(#gradient_10)" d="M277.081 549.921C290.75 549.673 304.42 549.52 318.092 549.461C316.824 563.844 316.047 578.306 315.046 592.712C314.592 600.246 313.938 607.834 313.877 615.381C307.251 614.987 275.744 614.637 272.958 613.434L272.745 613.162L277.081 549.921Z"/><path fill="#6FA1A6" d="M272.745 613.162C281.356 607.023 304.684 594.857 315.046 592.712C314.592 600.246 313.938 607.834 313.877 615.381C307.251 614.987 275.744 614.637 272.958 613.434L272.745 613.162Z"/><path fill="#A4815B" d="M642.844 629.32L806.73 633.6C809.384 633.492 812.066 633.552 814.724 633.544C814.496 638.908 814.12 644.276 813.81 649.637C798.72 649.411 783.617 648.578 768.53 648.086C726.55 646.717 684.485 645.108 642.488 644.503C642.511 639.432 642.55 634.384 642.844 629.32Z"/><path fill="#DEC5A2" d="M642.844 629.32L806.73 633.6C808.984 634.116 811.41 633.445 813.535 634.394L813.74 635.196C813.106 636.322 812.562 637.492 811.234 637.898C805.16 639.753 796.668 639.379 790.255 639.354C759.108 639.228 728.151 637.138 697.065 635.61L658.03 633.697C654.406 633.502 650.675 633.781 647.084 633.422C645.927 633.307 644.428 633.104 643.487 632.37C642.866 631.885 642.933 630.106 642.844 629.32Z"/><path fill="#93AEB1" d="M925.253 773.197C933.472 773.442 941.294 774.354 949.378 775.835C946.812 793.93 926.489 932.339 921.439 938.155C920.397 938.11 919.994 938.006 919.159 937.376C919.027 933.676 919.969 929.62 920.452 925.934C921.353 919.279 922.103 912.603 922.702 905.914C925.79 869.636 929.643 833.318 932.129 797.007C932.914 790.632 933.129 783.749 932.777 777.343C929.142 785.847 928.558 804.974 927.579 814.771C925.044 838.739 922.761 862.733 920.732 886.749C919.482 902.027 918.944 917.575 917.161 932.778C916.976 934.354 916.753 936.115 915.794 937.426C915.313 938.084 915.335 937.866 914.39 938.004L913.731 937.049C912.839 931.661 914.817 913.332 915.147 906.575C915.908 890.993 920.085 779.417 923.168 774.064C923.622 773.276 924.435 773.377 925.253 773.197Z"/><path fill="#906C4B" d="M638.253 889.943C639.515 894.763 638.292 929.784 638.279 937.979C631.167 941.899 624.442 946.725 617.635 951.156L586.794 971.069C585.608 967.896 586.511 930.179 586.519 924.441C587.234 923.276 587.96 922.164 589.075 921.34C593.592 918.005 599.058 915.456 603.849 912.446C615.385 905.199 627.014 897.632 638.253 889.943Z"/><path fill="#6FA1A6" d="M803.926 240.425C816.242 239.781 828.766 239.576 841.096 239.773C841.205 263.303 841.531 286.831 842.073 310.355C837.946 306.772 833.669 303.28 829.736 299.487C821.106 291.694 811.709 284.577 803.379 276.486C798.813 272.834 794.537 268.727 790.433 264.57C790.352 262.26 790.382 259.964 790.426 257.655C789.844 252.077 790.023 246.357 789.973 240.75L803.926 240.425Z"/><path fill="#537D7D" d="M803.926 240.425C816.242 239.781 828.766 239.576 841.096 239.773C841.205 263.303 841.531 286.831 842.073 310.355C837.946 306.772 833.669 303.28 829.736 299.487C830.068 291.236 831.772 261.625 827.768 255.717C824.311 250.617 809.065 249.732 803.446 248.704L803.556 244.796C803.788 243.389 803.81 241.852 803.926 240.425Z"/><path fill="#BBE7E2" d="M789.973 240.75L803.926 240.425C803.81 241.852 803.788 243.389 803.556 244.796L803.446 248.704C803.443 256.761 804.365 268.978 803.379 276.486C798.813 272.834 794.537 268.727 790.433 264.57C790.352 262.26 790.382 259.964 790.426 257.655C789.844 252.077 790.023 246.357 789.973 240.75Z"/><path fill="#93AEB1" d="M789.973 240.75L803.926 240.425C803.81 241.852 803.788 243.389 803.556 244.796L803.446 248.704C800.6 248.168 797.981 248.034 795.097 248.022C793.569 248.387 792.217 248.454 790.65 248.457C790.665 251.501 790.854 254.638 790.426 257.655C789.844 252.077 790.023 246.357 789.973 240.75Z"/><path fill="#6FA1A6" d="M803.556 244.796L803.446 248.704C800.6 248.168 797.981 248.034 795.097 248.022L794.843 247.785C795.745 247.573 796.645 247.339 797.551 247.146C799.891 246.648 801.467 246.007 803.556 244.796Z"/><path fill="#F4B14B" d="M382.106 728.639C387.755 728.817 393.402 729.073 399.044 729.409C398.369 776.423 399.411 823.481 399.012 870.506L393.499 873.973C390.088 875.951 386.692 877.866 383.139 879.578L382.106 728.639Z"/><path fill="#9F6132" d="M925.101 419.837C945.448 429.759 966.281 435.681 988.146 441.27C984.016 451.376 979.487 461.314 974.57 471.061L969.704 469.729C948.148 463.279 926.332 457.728 904.315 453.09C910.619 441.638 917.976 430.788 925.101 419.837Z"/><path fill="#A4815B" d="M198.729 615.075C250.603 617.542 302.5 619.495 354.412 620.935C354.905 624.283 352.732 631.426 352.039 635.022C342.838 634.871 333.622 634.253 324.418 633.987C282.434 632.432 240.436 631.237 198.431 630.402C198.43 625.344 198.143 620.1 198.729 615.075Z"/><path fill="#DEC5A2" d="M198.729 615.075C250.603 617.542 302.5 619.495 354.412 620.935C353.063 621.85 352.189 623.319 351.238 624.619C345.95 625.126 340.234 624.393 334.921 624.202C325.096 623.84 315.268 623.583 305.437 623.432C278.712 622.97 251.993 623.298 225.29 621.95C216.859 621.524 207.66 621.676 199.412 620.001C198.626 618.716 198.794 616.581 198.729 615.075Z"/><defs><linearGradient id="gradient_11" gradientUnits="userSpaceOnUse" x1="305.99936" y1="546.87543" x2="293.32001" y2="490.82611"><stop offset="0" stop-color="#A0E3D1"/><stop offset="1" stop-color="#EAF0E6"/></linearGradient></defs><path fill="url(#gradient_11)" d="M312.44 492.747L322.606 492.553C320.125 509.936 319.377 527.999 318.043 545.526C308.113 545.828 298.182 546.079 288.25 546.28C284.675 546.415 281.088 546.432 277.51 546.503C279.169 528.744 279.328 510.739 280.416 492.925L312.44 492.747Z"/><path fill="#F4B14B" d="M455.805 394.902C456.083 377.175 456.184 359.445 456.108 341.716L466.393 360.924C482.931 360.943 499.489 360.465 516.028 360.295L516.086 366.968L516.077 393.125C496.002 393.964 475.89 394.336 455.805 394.902Z"/><path fill="#BF6C27" d="M466.393 360.924C482.931 360.943 499.489 360.465 516.028 360.295L516.086 366.968C500.432 367.097 484.809 365.937 469.145 365.985C468.024 364.417 467.241 362.65 466.393 360.924Z"/><path fill="#A4815B" d="M192.005 478.602C192.236 478.113 192.53 477.748 192.856 477.32C197.539 476.544 202.566 476.832 207.314 476.76C215.724 476.665 224.133 476.526 232.541 476.344C264.228 475.622 296.025 474.555 327.714 474.478C331.597 474.469 347.785 473.817 350.239 475.154L350.425 476.518C350.402 479.81 350.363 483.072 350.098 486.354C323.444 488.983 296.123 488.279 269.349 488.578C243.709 488.864 218.086 490.015 192.443 490.273C192.401 486.411 192.551 482.426 192.005 478.602Z"/><path fill="#DEC5A2" d="M192.005 478.602C192.236 478.113 192.53 477.748 192.856 477.32C197.539 476.544 202.566 476.832 207.314 476.76C215.724 476.665 224.133 476.526 232.541 476.344C264.228 475.622 296.025 474.555 327.714 474.478C331.597 474.469 347.785 473.817 350.239 475.154L350.425 476.518C333.734 482.431 255.194 480.423 233.185 480.337C219.877 480.375 206.571 480.683 193.275 481.261C192.29 480.534 192.325 479.745 192.005 478.602Z"/><path fill="#C67830" d="M955.299 589.474C955.949 587.956 956.61 586.443 957.281 584.933C957.695 589.097 958.151 593.256 958.649 597.41C960.5 604.496 961.374 612.098 962.471 619.338C965.059 636.419 969.773 659.588 960.528 675.433C957.342 680.894 952.243 681.391 948.771 685.448C948.211 684.87 947.263 684.826 946.492 684.625C944.036 682.198 941.376 679.612 939.942 676.429L938.922 676.127C938.074 674.743 937.354 673.285 936.772 671.77C927.377 647.167 945.108 612.052 955.299 589.474Z"/><path fill="#BF6C27" d="M949.809 675.928C956.375 669.747 959.222 657.777 959.187 648.93C959.163 642.789 958.057 636.515 957.596 630.376C956.866 620.669 956.025 610.675 956.108 600.945C956.127 598.686 955.822 594.659 956.978 592.771L957.685 593.299C957.746 593.992 957.779 594.647 957.762 595.344C957.739 596.325 958.13 596.6 958.649 597.41C960.5 604.496 961.374 612.098 962.471 619.338C965.059 636.419 969.773 659.588 960.528 675.433C957.342 680.894 952.243 681.391 948.771 685.448C948.211 684.87 947.263 684.826 946.492 684.625C944.036 682.198 941.376 679.612 939.942 676.429L939.946 675.991C943.221 675.84 946.503 676.12 949.809 675.928Z"/><path fill="#DEBD74" d="M955.299 589.474C956.159 590.655 956.25 590.732 956.027 592.237C955.096 598.539 951.249 605.245 948.854 611.209C941.537 629.435 932.661 656.806 939.946 675.991L939.942 676.429L938.922 676.127C938.074 674.743 937.354 673.285 936.772 671.77C927.377 647.167 945.108 612.052 955.299 589.474Z"/><path fill="#A4815B" d="M800.959 488.345C804.001 488.112 806.994 487.977 810.046 487.993C809.05 499.071 808.755 510.235 808.14 521.342C807.337 534.78 806.411 548.21 805.361 561.631L802.254 601.618C801.532 610.525 800.548 619.589 800.424 628.524C796.733 628.458 792.96 628.217 789.276 628.337L787.004 627.999L786.587 627.265C787.971 612.277 795.506 492.217 798.22 488.506L800.959 488.345Z"/><path fill="#DEC5A2" d="M789.276 628.337L787.004 627.999L786.587 627.265C787.971 612.277 795.506 492.217 798.22 488.506L800.959 488.345C802.359 488.779 803.049 488.786 803.98 489.952C804.319 495.525 803.413 501.62 802.857 507.181C801.727 518.479 800.287 529.743 799.088 541.033C796.75 563.039 794.811 585.114 792.05 607.069C791.163 614.131 790.497 621.331 789.276 628.337Z"/><path fill="#C67830" d="M300.899 826.979L310.05 827.009C310.92 857.468 310.823 888.066 310.97 918.538C300.713 918.417 290.411 917.831 280.158 917.453C282.022 899.845 283.218 881.87 286 864.39C291.028 862.524 295.139 860.842 299.393 857.532C300.425 847.402 300.559 837.151 300.899 826.979Z"/><path fill="#906C4B" d="M665.021 486.917C667.083 486.902 669.17 486.815 671.228 486.903C673.572 533.47 678.661 579.87 680.236 626.461C677.711 626.383 675.141 626.407 672.629 626.168C670.796 626.137 669.076 626.213 667.336 625.58C666.216 621.391 666.388 616.31 666.086 611.976C665.38 602.315 664.747 592.649 664.185 582.979L658.494 487.118L665.021 486.917Z"/><path fill="#DEC5A2" d="M658.494 487.118L665.021 486.917C665.069 498.478 665.878 510.086 666.443 521.633C667.25 539.718 668.286 557.793 669.55 575.852C670.778 592.549 672.465 609.424 672.629 626.168C670.796 626.137 669.076 626.213 667.336 625.58C666.216 621.391 666.388 616.31 666.086 611.976C665.38 602.315 664.747 592.649 664.185 582.979L658.494 487.118Z"/><path fill="#A4815B" d="M328.932 492.217L339.331 491.827C337.43 517.327 335.349 542.812 333.086 568.282C331.685 584.102 329.63 599.957 329.242 615.841C325.773 615.685 321.243 616.011 317.947 615.062C317.88 614.871 317.794 614.684 317.745 614.487C317.144 612.092 325.66 495.8 326.502 493.305C326.6 493.014 326.837 492.79 327.004 492.533L328.932 492.217Z"/><path fill="#DEC5A2" d="M317.947 615.062C317.88 614.871 317.794 614.684 317.745 614.487C317.144 612.092 325.66 495.8 326.502 493.305C326.6 493.014 326.837 492.79 327.004 492.533L328.932 492.217L332.215 492.683C332.787 494.285 328.755 518.337 328.346 522.25C325.793 546.641 324.871 571.111 321.98 595.481C321.263 601.531 321.13 608.598 319.365 614.411C318.401 615.055 318.889 614.874 317.947 615.062Z"/><path fill="#B79656" d="M383.69 723.836L382.825 723.5C382.633 723.024 382.541 722.862 382.467 722.289C381.791 717.044 382.565 705.907 382.58 700.154C382.615 686.358 382.12 672.522 382.326 658.738C382.348 657.285 382.17 656.297 383.006 655.087L385.279 654.757C385.188 659.704 384.633 677.223 386.57 680.848L386.58 683.702C388.133 689.525 386.854 696.403 387.605 702.486C390.887 704.642 394.877 707.146 399.008 706.306C400.458 706.011 402.152 705.029 402.85 703.67C403.351 702.695 403.576 701.684 403.695 700.606C403.459 699.292 403.149 698.295 403.811 697.049C406.46 696.685 433.908 699.003 434.727 699.529C434.968 700.625 435.037 701.564 435.025 702.686C434.642 710.105 434.703 717.974 433.377 725.276C422.585 724.817 411.789 724.439 400.992 724.141C395.277 723.964 389.397 723.453 383.69 723.836Z"/><path fill="#F5F9F9" d="M383.69 723.836L382.825 723.5C382.633 723.024 382.541 722.862 382.467 722.289C381.791 717.044 382.565 705.907 382.58 700.154C382.615 686.358 382.12 672.522 382.326 658.738C382.348 657.285 382.17 656.297 383.006 655.087L385.279 654.757C385.188 659.704 384.633 677.223 386.57 680.848L386.58 683.702C386.489 687.066 386.698 690.487 386.44 693.833C386.053 698.847 385.171 703.803 384.792 708.815C384.424 713.686 384.643 719.07 383.69 723.836Z"/><path fill="#71422B" d="M403.695 700.606C403.459 699.292 403.149 698.295 403.811 697.049C406.46 696.685 433.908 699.003 434.727 699.529C434.968 700.625 435.037 701.564 435.025 702.686C424.756 702.339 413.766 702.708 403.695 700.606Z"/><path fill="#B79656" d="M385.279 654.757C388.466 654.977 392.356 654.608 395.397 655.313C403.65 655.81 428.559 656.19 434.593 658.477C436.086 664.08 435.322 675.66 435.401 681.897C423.281 681.486 411.156 681.194 399.03 681.02C398.558 678.562 398.426 675.775 396.333 674.116C395.153 673.181 392.4 672.696 390.965 673.171C389.746 673.575 389.145 674.312 388.637 675.45C387.28 678.488 388.466 685.371 388.279 688.971C387.865 686.659 387.825 682.687 386.57 680.848C384.633 677.223 385.188 659.704 385.279 654.757Z"/><path fill="#F5F9F9" d="M395.397 655.313C403.65 655.81 428.559 656.19 434.593 658.477C434.058 659.305 434.404 658.886 433.482 659.669C428.954 659.987 396.713 657.432 394.339 655.821L395.397 655.313Z"/><path fill="#8E4C1F" d="M132.128 435.28L142.763 434.764L144.309 458.522C128.126 457.481 111.932 456.615 95.7299 455.924C90.6673 455.447 85.5684 455.469 80.4872 455.395C89.5212 449.009 98.2077 442.191 107.017 435.503C115.387 435.485 123.758 435.411 132.128 435.28Z"/><path fill="#C67830" d="M153.448 427.789C159.919 422.22 166.764 417.19 173.687 412.205C173.904 426.154 174.149 440.171 174.993 454.097C169.05 457.756 161.979 465.379 155.893 467.48C155.444 454.223 153.925 441.038 153.448 427.789Z"/><path fill="#F5F9F9" d="M402.599 688.379C402.308 686.931 401.899 686.113 402.48 684.73C408.439 684.259 486.168 689.101 488.901 690.096C489.684 691.059 490.033 691.865 490.48 693.003C490.402 694.4 490.284 695.241 489.687 696.541C487.514 698.027 412.129 693.212 404.232 692.205C403.045 690.937 403.008 690.044 402.599 688.379Z"/><path fill="#43514F" d="M402.599 688.379C413.398 689.158 485.811 695.465 490.48 693.003C490.402 694.4 490.284 695.241 489.687 696.541C487.514 698.027 412.129 693.212 404.232 692.205C403.045 690.937 403.008 690.044 402.599 688.379Z"/><path fill="#F5F9F9" d="M572.902 631.354C575.195 628.657 577.597 626.775 581.264 626.501C585.028 626.219 588.815 628.066 591.533 630.565C593.064 631.974 594.056 633.663 595.076 635.455C596.266 639.619 596.71 643.419 594.591 647.388C592.914 650.505 590.06 652.822 586.665 653.825C583.215 654.815 579.153 654.31 576.086 652.433C573.51 650.856 571.481 648.063 570.806 645.117C570.735 644.81 570.677 644.5 570.613 644.191C569.822 639.142 570.341 635.796 572.902 631.354Z"/><path fill="#93AEB1" d="M595.076 635.455C596.266 639.619 596.71 643.419 594.591 647.388C592.914 650.505 590.06 652.822 586.665 653.825C583.215 654.815 579.153 654.31 576.086 652.433C573.51 650.856 571.481 648.063 570.806 645.117C570.735 644.81 570.677 644.5 570.613 644.191C570.787 643.125 570.825 642.085 571.411 641.162C572.007 642.863 572.121 643.587 573.491 644.806C575.673 647.661 578.184 649.866 581.849 650.51C584.15 650.919 586.52 650.379 588.417 649.013C592.74 645.935 594.237 640.405 595.076 635.455Z"/><path fill="#BBD7E4" d="M572.902 631.354C574.519 635.641 572.505 639.713 573.365 644.139L573.491 644.806C572.121 643.587 572.007 642.863 571.411 641.162C570.825 642.085 570.787 643.125 570.613 644.191C569.822 639.142 570.341 635.796 572.902 631.354Z"/><path d="M583.492 636.006C584.488 635.969 585.546 635.899 586.536 636.03C587.798 636.197 588.947 637.162 589.582 638.225C590.365 639.538 590.342 641.091 589.82 642.486C588.919 644.895 587.298 645.775 585.024 646.706C584.346 646.688 583.658 646.686 582.986 646.575C581.363 646.306 579.806 645.415 579.045 643.902C578.459 642.737 578.502 641.31 578.971 640.115C579.818 637.954 581.578 637.059 583.492 636.006Z"/><path fill="#F5F9F9" d="M583.006 637.359L584.082 637.083C585.393 637.197 585.931 637 586.939 637.936C586.961 639.175 586.774 640.279 585.945 641.273C585.014 642.389 584.235 642.363 582.912 642.508C581.597 641.899 581.452 641.866 580.731 640.624C580.888 639.439 580.99 638.807 581.939 637.936C582.228 637.671 582.651 637.514 583.006 637.359Z"/><path fill="#191412" d="M583.006 637.359L584.082 637.083C585.185 637.898 585.448 637.962 585.868 639.244C585.413 640.484 585.295 640.685 584.283 641.528C583.112 641.225 583.116 641.222 582.41 640.238C582.419 639.161 582.671 638.478 582.999 637.468C583.01 637.433 583.004 637.396 583.006 637.359Z"/><path fill="#F4B14B" d="M938.922 676.127L939.942 676.429C941.376 679.612 944.036 682.198 946.492 684.625C947.263 684.826 948.211 684.87 948.771 685.448C950.925 687.154 952.124 686.869 954.742 686.633C953.905 691.59 953.533 696.706 952.526 701.611C950.388 701.789 948.24 702.021 946.096 702.095L938.796 702.017C939.463 694.753 942.054 682.882 938.922 676.127Z"/><path fill="#BF6C27" d="M946.492 684.625C947.263 684.826 948.211 684.87 948.771 685.448C950.925 687.154 952.124 686.869 954.742 686.633C953.905 691.59 953.533 696.706 952.526 701.611C950.388 701.789 948.24 702.021 946.096 702.095C946.087 696.286 946.426 690.442 946.492 684.625Z"/><path fill="#F4B14B" d="M934.3 739.339C936.91 739.419 939.494 739.664 942.092 739.91L948.781 740.478C947.645 745.685 948.118 752.709 945.284 757.185C943.63 758.204 942.343 758.008 940.44 757.658C937.699 757.411 934.872 757.449 932.117 757.372C932.889 751.367 933.617 745.356 934.3 739.339Z"/><path fill="#9F6132" d="M942.092 739.91L948.781 740.478C947.645 745.685 948.118 752.709 945.284 757.185C943.63 758.204 942.343 758.008 940.44 757.658C940.874 751.732 941.425 745.814 942.092 739.91Z"/><path fill="#909793" d="M90.5754 738.148L97.0535 736.081C98.7024 741.244 99.9451 746.493 101.219 751.758L94.5919 751.638L84.336 751.319C83.3079 747.573 82.5053 743.76 81.6479 739.972C84.6617 739.489 87.6045 738.844 90.5754 738.148Z"/><path fill="#6F716C" d="M90.5754 738.148L97.0535 736.081C98.7024 741.244 99.9451 746.493 101.219 751.758L94.5919 751.638C93.9031 747.836 93.5182 740.716 90.5754 738.148Z"/><path fill="#F4B14B" d="M935.927 722.841C938.633 722.551 941.312 722.326 944.032 722.207C946.269 722.361 948.438 722.374 950.679 722.28C950.416 725.91 950.884 733.455 948.363 736.271C947.021 736.711 945.883 736.407 944.538 736.164L940.646 735.773C939.908 735.726 939.167 735.683 938.432 735.601C937.464 735.493 936.251 735.265 935.684 734.392C934.828 733.075 934.808 731.691 935.05 730.203C935.447 727.759 935.675 725.303 935.927 722.841Z"/><path fill="#9F6132" d="M944.032 722.207C946.269 722.361 948.438 722.374 950.679 722.28C950.416 725.91 950.884 733.455 948.363 736.271C947.021 736.711 945.883 736.407 944.538 736.164C944.83 732.474 945.551 728.282 943.896 724.855L944.032 722.207Z"/><path fill="#BF6C27" d="M943.896 724.855C945.551 728.282 944.83 732.474 944.538 736.164L940.646 735.773L941.449 735.499C943.202 733.548 943.464 727.557 943.896 724.855Z"/><path fill="#BBD7E4" d="M766.496 240.247L782.475 240.324C782.453 244.485 783.584 254.709 781.954 258.044L780.793 257.127C775.205 251.947 767.711 247.125 763.317 240.922C764.145 240.137 765.375 240.332 766.496 240.247Z"/><path fill="#F4B14B" d="M936.745 717.916C937.157 714.115 936.554 709.495 938.651 706.238C940.423 705.363 941.518 705.836 943.444 706.107C946.344 706.326 949.232 706.599 952.142 706.529L951.181 717.523L944.441 718.009L936.745 717.916Z"/><path fill="#9F6132" d="M943.444 706.107C946.344 706.326 949.232 706.599 952.142 706.529L951.181 717.523L944.441 718.009C944.545 714.746 945.01 710.951 944.57 707.737C944.408 706.557 944.317 706.769 943.444 706.107Z"/><path fill="#B79656" d="M174.371 863.779C174.565 863.932 174.779 864.063 174.954 864.237C177.015 866.284 180.692 906.936 181.251 912.027C179.385 911.972 177.751 912.029 176.04 911.217C175.529 909.418 174.088 865.805 174.371 863.779Z"/><path fill="#191412" d="M911.432 801.609C912.636 801.345 913.589 800.864 914.74 801.373C915.488 804.497 915.183 811.591 913.629 814.439C913.132 815.35 911.916 815.987 911.05 816.504L907.025 818.414C906.005 818.753 905.339 818.928 904.262 818.83C903.736 816.899 904.103 806.032 904.775 803.963C905.21 802.621 906.91 802.48 908.132 802.053L911.432 801.609Z"/><path fill="#5A260E" d="M908.132 802.053C908.063 807.545 907.062 812.985 907.025 818.414C906.005 818.753 905.339 818.928 904.262 818.83C903.736 816.899 904.103 806.032 904.775 803.963C905.21 802.621 906.91 802.48 908.132 802.053Z"/><path fill="#5A260E" d="M911.432 801.609C912.636 801.345 913.589 800.864 914.74 801.373C915.488 804.497 915.183 811.591 913.629 814.439C913.132 815.35 911.916 815.987 911.05 816.504C910.336 814.209 911.746 805.421 911.432 801.609Z"/><path fill="#6FA1A6" d="M937.481 762.088L942.694 762.565C945.878 762.838 951.339 763.234 953.462 766.07C953.768 766.478 953.863 766.88 954.012 767.343C953.608 768.544 953.324 769.061 952.123 769.614C948.964 771.069 939.519 769.862 935.882 769.232C935.85 766.912 936.172 765.744 937.516 763.865C937.7 763.608 937.89 763.354 938.077 763.099L937.481 762.088Z"/><path fill="#BBD7E4" d="M937.481 762.088L942.694 762.565C942.505 764.081 942.496 765.515 941.237 766.563C940.204 767.423 938.754 767.974 937.538 768.517C937.01 768.753 936.44 769.065 935.882 769.232C935.85 766.912 936.172 765.744 937.516 763.865C937.7 763.608 937.89 763.354 938.077 763.099L937.481 762.088Z"/><path fill="#5A260E" d="M917.059 771.854L917.585 772.35C918.677 775.844 915.856 788.856 915.43 793.338C913.463 793.96 911.581 794.803 909.682 795.605L909.226 795.078C909.439 790.261 909.509 785.216 910.603 780.511C911.177 779.585 911.678 779.42 912.654 779.051C913.108 778.88 913.57 778.728 914.015 778.533C917.166 777.151 916.124 774.598 917.059 771.854Z"/><path fill="#191412" d="M393.048 675.293C394.508 680.85 401.482 694.952 398.75 700.159C398.125 701.351 397.302 701.768 395.992 701.909C395.371 701.975 395.006 701.943 394.409 701.92C393.912 701.286 393.487 700.578 393.04 699.907C392.926 691.749 392.482 683.431 393.048 675.293Z"/><path fill="#373229" d="M393.04 699.907C393.286 698.655 393.244 697.623 394.144 696.683C394.685 698.194 394.888 700.374 394.409 701.92C393.912 701.286 393.487 700.578 393.04 699.907Z"/><path fill="#F5F9F9" d="M935.882 769.232C932.312 768.861 923.085 769.87 920.555 767.876C920.663 766.386 920.631 765.898 921.706 764.752C924.581 761.687 933.583 762.12 937.481 762.088L938.077 763.099C937.89 763.354 937.7 763.608 937.516 763.865C936.172 765.744 935.85 766.912 935.882 769.232Z"/><path fill="#DEBD74" d="M906.071 782.805L906.842 783.76C907.121 787.274 908.22 793.77 906.553 796.835L905.347 796.225C904.223 792.794 905.232 786.342 906.071 782.805Z"/></svg>