<?xml version="1.0" encoding="utf-8" ?><svg xmlns="http://www.w3.org/2000/svg" xmlns:xlink="http://www.w3.org/1999/xlink" width="1024" height="1024" viewBox="0 0 1024 1024"><path fill="#020201" d="M0 0L1024 0L1024 741.488L1024 754.322L1024 1024L0 1024L0 762.384L0 753.348L0 0Z"/><path fill="#90C4E4" d="M0 0L1024 0L1024 741.488C1000.12 734.705 975.511 730.34 951.423 724.289L955.315 668.292C956.018 656.85 956.207 645.232 957.309 633.832C965.247 634.305 992.923 637.203 998.886 635.607C1000.97 633.46 1000.94 629.471 1000.88 626.623C1000.64 615.153 995.799 532.582 991.48 527.242C990.3 527.468 990.623 527.166 990.036 528.073C985.513 535.065 976.351 600.714 975.25 611.762C960.25 608.392 940.925 609.295 925.532 609.318C925.194 599.058 922.663 530.27 920.028 527.167L918.69 527.253C913.108 533.906 894.491 617.881 895.882 628.113C896.027 629.183 896.021 629.557 896.901 630.153C901.035 632.951 924.977 631.827 931.553 632.463C930.323 661.518 927.965 690.586 925.782 719.581C910.544 715.993 895.352 712.216 880.208 708.252C879.833 655.322 879.73 602.391 879.901 549.46C879.853 507.037 879.459 464.595 879.891 422.175C891.984 429.587 903.566 437.747 915.299 445.707C927.909 454.26 940.817 462.638 952.652 472.253C961.405 464.106 968.968 454.067 976.697 444.95C981.663 439.09 987.648 433.25 991.615 426.691C985.621 418.901 954.779 400.993 944.34 394.071L881.325 351.838C856.818 335.226 832.511 316.545 807.455 301.065C807.231 278.443 806.764 255.824 806.054 233.212L838.527 233.504C838.537 228.491 838.485 223.469 838.584 218.457C834.291 213.476 814.802 190.79 810.565 188.152C805.253 184.844 776.133 179.069 767.987 177.063L676.624 154.396C672.284 159.397 668.707 165.473 664.987 170.967C660.215 178.013 655.081 185.01 650.83 192.379C640.881 184.026 629.203 177.287 618.684 169.614C583.21 144.105 547.455 118.989 511.426 94.271C479.731 115.793 448.149 137.482 416.682 159.335C331.566 217.025 246.839 275.287 162.508 334.119C131.239 355.19 100.15 376.526 69.2428 398.125C60.8144 403.945 36.4361 418.58 31.7416 424.954C31.9359 426.816 32.6347 428.178 33.6306 429.755C37.354 435.654 62.6388 466.36 67.3137 470.104C67.622 470.351 67.9446 470.58 68.2685 470.806C78.3178 466.305 88.7527 457.73 97.8196 451.395C112.706 440.995 127.768 430.585 143.057 420.788C144.271 516.357 143.506 611.994 143.625 707.574C134.5 709.589 125.558 712.365 116.588 714.973C118.711 667.569 117.97 632.372 95.4119 589.302C92.5216 583.783 88.697 574.743 84.3931 570.346C83.8717 569.813 83.3141 569.51 82.635 569.227C79.4403 570.555 77.5151 576.408 76.2519 579.466C64.0979 608.885 54.2002 642.651 62.3587 674.374C64.8395 684.02 68.2179 693.426 70.9199 703.014C73.2438 711.259 74.8356 719.592 76.1693 728.047C56.5045 733.656 36.9947 741.02 17.5711 747.493C11.74 749.436 5.92156 751.739 0 753.348L0 0Z"/><path fill="#8CAC4A" d="M950.79 736.03C975.044 742.752 999.656 747.973 1024 754.322L1024 1024L0 1024L0 762.384C26.004 756.521 51.2477 746.648 77.043 739.75C77.9201 751.167 77.9243 762.694 79.2805 774.063C77.7546 775.636 76.6381 777.182 75.5208 779.065C75.3695 784.545 75.4576 790.018 75.5312 795.499L49.3374 795.412C44.2794 795.4 38.8466 795.053 33.8314 795.713C31.5872 796.009 28.655 796.537 26.9055 798.1C24.6086 800.152 24.3484 804.425 24.3342 807.295C24.3148 811.216 23.9115 817.309 26.8478 820.3C30.3876 823.906 37.7776 822.294 42.414 822.811C44.9584 863.015 50.3565 903.214 54.0668 943.336C46.8919 945.112 29.875 945.233 25 950.433C23.9888 951.512 24.0401 951.872 24.0094 953.266C24.4186 954.025 24.7913 954.692 25.432 955.284C30.4864 959.957 41.8193 962.092 48.491 962.817C60.4322 964.114 73.264 962.672 85.3117 962.499L135.393 961.645C144.331 961.515 153.367 961.766 162.29 961.26C169.584 960.846 176.791 959.379 184.089 958.903C186.363 960.592 188.046 963.006 190.475 964.506C192.657 965.854 194.925 966.283 197.433 966.535C209.846 967.785 222.544 967.45 235.015 967.796C268.683 968.729 302.392 968.553 336.073 969.144C405.714 970.831 475.377 971.439 545.036 970.968C576.789 970.913 608.649 971.228 640.389 970.34C653.954 969.961 673.738 969.684 686.662 966.349C688.907 965.77 691.18 965.007 692.343 962.834C695.328 957.26 691.247 946.351 689.684 940.531C720.965 942.292 752.584 939.903 783.926 940.689L785.971 941.204C800.591 942.084 815.526 941.46 830.182 941.46C835.053 941.46 842.318 940.56 846.881 941.861C849.265 943.985 871.492 943.051 879.493 946.133C886.356 939.813 896.172 941.395 904.805 941.749C907.231 941.849 909.656 941.976 912.085 942.008C912.371 946.319 912.61 949.631 916.144 952.653C918.466 954.639 921.621 955.469 924.636 955.073C928.006 954.631 930.93 952.706 932.83 949.905C934.233 947.836 934.52 945.515 934.771 943.087C938.216 911.014 940.041 878.635 942.433 846.465C945.407 809.668 948.193 772.856 950.79 736.03Z"/><path fill="#70962F" d="M785.971 941.204C800.591 942.084 815.526 941.46 830.182 941.46C835.053 941.46 842.318 940.56 846.881 941.861C849.265 943.985 871.492 943.051 879.493 946.133C886.356 939.813 896.172 941.395 904.805 941.749C907.231 941.849 909.656 941.976 912.085 942.008C912.371 946.319 912.61 949.631 916.144 952.653C918.466 954.639 921.621 955.469 924.636 955.073C928.006 954.631 930.93 952.706 932.83 949.905C934.233 947.836 934.52 945.515 934.771 943.087C940.368 943.027 945.991 942.879 951.586 943.025C956.7 943.159 966.456 943.405 969.924 947.741C970.921 948.988 971.346 950.249 971.086 951.849C970.815 953.516 969.933 954.808 968.548 955.75C967.289 956.606 965.979 956.989 964.483 957.207C957.357 958.244 949.384 957.781 942.163 957.87C926.191 958.067 896.225 959.397 882.072 956.238C880.914 955.259 879.821 954.176 878.711 953.142C876.126 954.088 873.663 954.649 870.917 954.865C863.381 955.457 855.684 955.305 848.121 955.386C833.029 955.5 817.937 955.533 802.845 955.484C793.727 955.477 770.966 956.531 763.047 954.664C761.657 954.336 760.603 953.477 759.873 952.263C758.974 950.769 758.597 948.676 759.164 947.003C761.649 939.672 779.762 944.236 785.436 941.542C785.626 941.452 785.793 941.317 785.971 941.204Z"/><path fill="#70962F" d="M149.699 907.066C153.893 908.146 157.988 908.89 162.279 909.492C172.513 912.267 184.029 913.479 194.61 914.146C199.561 914.459 204.647 914.357 209.561 914.992C210.267 921.284 210.975 951.08 214.376 953.958C215.838 955.195 219.972 955.375 221.886 955.478C228.993 955.86 236.227 955.598 243.347 955.586L282.503 955.514C289.459 955.504 315.502 956.515 319.825 955.143C321.141 954.725 322.109 953.452 322.79 952.324C325.467 942.234 326.005 922.639 326.199 911.847C330.502 911.927 350.913 910.958 352.988 912.717L353.449 914.136C352.613 919.999 345.526 925.409 342.482 930.542C342.48 936.551 342.308 942.629 342.584 948.629C342.737 952.284 341.941 958.112 344.646 960.91C345.561 961.856 346.508 961.908 347.745 961.98C359.889 962.678 372.442 962.032 384.622 962.005L458.275 961.869L676.55 961.654C681.192 935.167 683.193 935.521 671.736 910.699C685.477 910.422 699.265 910.61 713.011 910.559C712.722 913.855 712.263 917.413 712.549 920.71C712.741 922.925 713.285 924.598 715.006 926.097C721.802 928.115 765.825 927.64 773.953 926.643C776.257 926.361 777.221 925.994 778.645 924.131C779.752 924.068 780.911 924.073 782.008 923.923C782.323 928.772 781.402 936.554 783.926 940.689C752.584 939.903 720.965 942.292 689.684 940.531C691.247 946.351 695.328 957.26 692.343 962.834C691.18 965.007 688.907 965.77 686.662 966.349C673.738 969.684 653.954 969.961 640.389 970.34C608.649 971.228 576.789 970.913 545.036 970.968C475.377 971.439 405.714 970.831 336.073 969.144C302.392 968.553 268.683 968.729 235.015 967.796C222.544 967.45 209.846 967.785 197.433 966.535C194.925 966.283 192.657 965.854 190.475 964.506C188.046 963.006 186.363 960.592 184.089 958.903C176.791 959.379 169.584 960.846 162.29 961.26C153.367 961.766 144.331 961.515 135.393 961.645L85.3117 962.499C73.264 962.672 60.4322 964.114 48.491 962.817C41.8193 962.092 30.4864 959.957 25.432 955.284C24.7913 954.692 24.4186 954.025 24.0094 953.266C24.0401 951.872 23.9888 951.512 25 950.433C29.875 945.233 46.8919 945.112 54.0668 943.336C54.2181 945.812 54.1786 948.763 55.1609 951.062C55.6925 952.306 56.5445 953.325 57.8754 953.716C63.6412 955.411 129.209 954.893 137.823 954.419C139.792 954.311 143.973 954.075 145.489 952.842C148.731 950.204 149.326 913.25 149.699 907.066Z"/><path fill="#8CAC4A" d="M880.555 721.153C895.368 723.721 910.337 727.886 924.854 731.8C921.4 789.174 917.208 846.447 914.373 903.856C913.745 916.564 912.446 929.297 912.085 942.008C909.656 941.976 907.231 941.849 904.805 941.749C896.172 941.395 886.356 939.813 879.493 946.133C871.492 943.051 849.265 943.985 846.881 941.861C847.64 941.56 848.531 941.259 849.213 940.811C850.557 939.929 850.9 938.784 851.349 937.343C850.542 929.412 851.362 921.189 850.882 913.184L848.251 910.85C849.959 908.903 873.19 910.642 878.131 909.097C880.214 906.857 879.46 902.042 879.421 899.112L879.914 778.321L879.967 744.104C879.967 736.538 879.577 728.668 880.555 721.153Z"/><path fill="#70962F" d="M879.421 899.112C883.116 899.02 888.831 898.284 891.639 901.367C892.696 902.526 893.187 903.751 892.958 905.335C892.419 909.055 888.254 912.031 885.329 913.985C875.212 920.747 863.243 919.294 851.597 919.514C851.641 925.206 852.317 931.745 851.349 937.343C850.542 929.412 851.362 921.189 850.882 913.184L848.251 910.85C849.959 908.903 873.19 910.642 878.131 909.097C880.214 906.857 879.46 902.042 879.421 899.112Z"/><path fill="#435A19" d="M162.279 909.492C166.924 908.731 172.031 909.349 176.758 909.315L209.177 909.051L209.561 914.992C204.647 914.357 199.561 914.459 194.61 914.146C184.029 913.479 172.513 912.267 162.279 909.492Z"/><path fill="#435A19" d="M326.199 911.847C326.411 910.642 326.258 909.97 327.246 909.17C336.008 909.023 344.77 908.96 353.533 908.98L353.449 914.136L352.988 912.717C350.913 910.958 330.502 911.927 326.199 911.847Z"/><path fill="#8CAC4A" d="M778.645 924.131C778.699 923.945 778.755 923.761 778.807 923.575C779.953 919.459 778.954 915.305 780.014 911.29C781.098 910.979 781.243 910.979 782.326 911.295C784.154 914.152 781.933 920.427 782.008 923.923C780.911 924.073 779.752 924.068 778.645 924.131Z"/><path fill="#BB7F4D" d="M234.179 358.594L286.722 323.465C293.762 318.716 350.155 279.787 353.633 278.984C355.756 278.494 360.046 279.814 362.426 279.987C367.499 280.355 372.917 279.897 378.037 279.9L415.122 279.841L473.482 279.929C471.932 283.655 470.219 287.197 468.301 290.747C468.436 290.909 468.575 291.067 468.707 291.231C474.457 298.398 476.444 307.602 483.923 316.084C493.818 327.306 507.15 334.708 516.447 346.527C522.572 340.491 528.894 334.732 535.3 328.998C541.691 323.276 548.601 317.585 553.783 310.704C558.527 304.405 561.195 296.981 565.536 290.502L560.465 279.664L589.121 279.854C593.296 279.919 597.822 279.667 601.937 280.256C618.105 280.106 634.274 280.091 650.442 280.211C656.271 280.252 663.555 279.346 669.135 280.779C674.481 282.152 693.049 296.162 699.165 300.308C728.707 320.338 757.658 341.533 787.811 360.617L714.213 360.972C588.218 360.948 462.224 360.262 336.236 358.915C326.641 359.384 316.868 359.031 307.256 359.032L234.179 358.594Z"/><path fill="#955D32" d="M601.937 280.256C618.105 280.106 634.274 280.091 650.442 280.211C656.271 280.252 663.555 279.346 669.135 280.779C674.481 282.152 693.049 296.162 699.165 300.308C728.707 320.338 757.658 341.533 787.811 360.617L714.213 360.972C710.251 356.358 695.938 347.42 690.356 343.479C669.195 328.627 648.143 313.62 627.201 298.461C618.975 292.527 609.39 287.057 601.937 280.256Z"/><path fill="#955D32" d="M234.179 358.594L286.722 323.465C293.762 318.716 350.155 279.787 353.633 278.984C355.756 278.494 360.046 279.814 362.426 279.987C367.499 280.355 372.917 279.897 378.037 279.9L415.122 279.841C404.078 288.889 392.461 297.222 381.241 306.054C365.067 318.785 349.14 331.997 332.544 344.165C325.591 349.262 318.026 353.482 311.102 358.552C319.41 358.613 327.966 358.209 336.236 358.915C326.641 359.384 316.868 359.031 307.256 359.032L234.179 358.594Z"/><path fill="#BB7F4D" d="M655.005 365.948C676.278 366.11 697.552 366.109 718.826 365.947C719.305 394.093 718.946 422.307 718.999 450.463C712.826 450.425 674.568 449.242 671.975 451.636C670.818 452.704 670.41 455.189 670.281 456.654C669.827 461.794 669.667 468.67 670.445 473.762C671.092 478.001 672.205 482.149 672.347 486.455C672.736 498.198 672.521 510.04 672.606 521.796C672.701 534.908 673.077 548.097 672.568 561.198C672.356 566.666 670.783 585.106 673.978 588.824C680.575 590.466 711.074 589.147 719.975 589.158L720.32 852.875C720.407 865.267 720.252 877.662 720.513 890.052C719.637 890.649 718.758 891.252 717.933 891.919C714.107 895.007 713.008 898.362 712.501 903.105L669.144 903.157C667.916 899.653 668.341 896.817 667.536 893.402C667.176 891.877 665.894 891.189 664.679 890.373C662.179 882.946 658.872 868.862 654.985 862.776C656.255 843.776 655.493 824.23 655.531 805.173L655.497 696.446L655.005 365.948Z"/><path fill="#BB8956" d="M798.722 368.841C815.09 379.973 831.713 390.702 848.154 401.723C854.651 406.078 861.338 410.228 867.626 414.876C868.609 429.715 868.537 444.612 868.608 459.476L869.045 903.437C845.88 903.22 822.715 903.231 799.55 903.47L799.478 869.935C806.058 869.934 820.196 871.422 825.771 869.139C827.483 867.109 827.792 864.498 827.903 861.92C828.258 853.765 827.459 845.754 821.524 839.567C815.427 833.21 807.961 832.551 799.699 832.365C799.442 814.769 799.984 797.091 799.992 779.484C800.02 716.167 800.683 652.815 800.041 589.502C807.022 589.507 841.821 590.738 845.364 588.368C846.434 587.652 846.394 584.911 846.478 583.685C846.907 577.434 846.489 571.055 846.694 564.779C847.535 543.957 848.101 523.125 848.39 502.288C848.46 497.221 847.606 485.674 848.733 481.233C849.236 480.832 849.735 480.429 850.211 479.996C851.724 478.62 851.687 476.637 851.744 474.712C851.876 470.337 852.899 454.729 850.094 451.702C844.89 449.249 807.401 450.487 798.85 450.489L798.915 423.753C797.788 405.617 798.642 387.028 798.722 368.841Z"/><path fill="#955D32" d="M798.722 368.841C815.09 379.973 831.713 390.702 848.154 401.723C854.651 406.078 861.338 410.228 867.626 414.876C868.609 429.715 868.537 444.612 868.608 459.476C862.971 457.141 852.785 449.629 847.236 446.096L799.132 415.509C799.159 418.272 799.065 420.996 798.915 423.753C797.788 405.617 798.642 387.028 798.722 368.841Z"/><path fill="#BB8956" d="M152.93 414.076C177.24 398.475 200.655 381.639 224.662 365.594C224.29 382.931 223.742 400.44 224.48 417.767L224.203 449.584C208.384 449.574 192.27 448.903 176.487 449.684C176.399 463.829 178.931 583.575 181.174 587.434C187.462 589.635 215.788 587.92 224.196 588.006C224.388 628.443 224.985 669.106 224.114 709.525C220.918 713.726 217.717 717.892 215.197 722.549C209.03 733.948 206.119 749.414 207.823 762.28L207.954 763.198C201.729 762.989 196.418 763.194 191.498 767.603C187.068 771.574 185.474 777.499 185.342 783.271C185.217 788.711 186.621 793.84 190.5 797.806C193.864 801.244 197.699 802.839 202.426 803.15C202.471 835.995 207.295 868.567 208.989 901.345C189.761 900.899 170.524 900.948 151.298 901.492C151.662 890.122 150.773 878.188 151.921 866.919C151.491 862.004 151.804 856.827 151.826 851.883L152.006 823.406L158.014 823.351C161.463 823.115 164.352 822.823 166.773 820.077C171.016 815.266 169.915 805.932 169.462 799.968C168.701 798.796 167.818 797.612 166.788 796.659C164.365 794.416 161.55 794.464 158.452 794.512L152.113 794.533C152.838 681.561 152.965 568.587 152.495 455.614L153.008 426.682C152.544 422.544 152.854 418.236 152.93 414.076Z"/><path fill="#955D32" d="M152.93 414.076C177.24 398.475 200.655 381.639 224.662 365.594C224.29 382.931 223.742 400.44 224.48 417.767C224.203 416.603 224.191 415.074 223.187 414.399C215.153 418.266 207.531 423.673 199.897 428.329C185.361 437.192 170.653 446.134 155.826 454.488C155.575 449.434 155.394 444.373 154.756 439.35C154.014 442.688 156.326 452.379 154.179 454.226L153.443 453.725C153.519 447.984 154.839 431.153 153.008 426.682C152.544 422.544 152.854 418.236 152.93 414.076Z"/><path fill="#E79B4E" d="M152.495 455.614L155.068 454.947L155.81 455.449C156.931 463.526 156.481 476.215 156.577 484.775L157.239 544.94C157.784 578.304 158.751 611.705 158.894 645.067L158.452 794.512L152.113 794.533C152.838 681.561 152.965 568.587 152.495 455.614Z"/><path fill="#E79B4E" d="M152.006 823.406L158.014 823.351L157.653 863.17C157.579 870.47 157.751 877.958 157.232 885.234C155.945 886.822 154.896 888.073 153.147 889.153L152.29 889.025C151.476 881.718 152.691 874.253 151.921 866.919C151.491 862.004 151.804 856.827 151.826 851.883L152.006 823.406Z"/><path fill="#BB7F4D" d="M351.532 364.758C357.097 364.653 362.662 364.591 368.227 364.571C368.701 377.76 368.524 390.981 368.752 404.178L369.762 523.369C370.386 586.741 370.606 650.117 370.421 713.493L370.128 812.045L370.095 845.167C370.065 851.854 370.427 858.861 369.483 865.475C368.456 872.671 362.027 877.354 360.416 884.404C359.546 888.21 360.376 892.648 362.425 895.918C360.862 897.897 359.369 899.495 357.466 901.149C347.299 901.399 337.13 901.565 326.96 901.648L331.569 832.424C332.637 822.676 332.987 812.732 333.565 802.938C336.459 802.657 339.21 802.472 341.553 800.551C344.801 797.889 345.978 793.916 346.408 789.885C347.24 782.102 346.207 773.311 340.951 767.149C336.629 762.082 332.083 761.961 325.881 761.567C325.207 738.066 321.356 725.076 305.511 707.302L305.465 588.482C312.155 588.49 350.02 589.549 352.961 587.53C353.368 586.319 353.663 585.107 353.873 583.846C354.837 578.061 354.637 571.802 354.801 565.937C355.126 554.627 355.363 543.314 355.511 532.001C355.962 514.572 356.292 497.141 356.502 479.708C356.671 471.313 357.218 462.805 357.061 454.415C357.04 453.287 356.85 452.657 356.185 451.709C351.975 449.285 311.415 450.531 303.559 450.538C303.167 422.017 303.499 393.526 302.72 365.004L351.532 364.758Z"/><path fill="#F4C481" d="M459.893 402.513C477.614 402.528 495.579 401.972 513.27 402.781L513.09 411.167C512.718 441.586 512.674 472.007 512.958 502.427C509.278 502.743 505.665 503.208 502.018 503.789L501.888 504.409C501.223 507.644 499.921 512.344 502.057 515.185C504.114 517.923 509.428 517.788 512.48 518.087L513.469 839.551L468.465 839.42C468.408 830.827 467.784 822.223 467.597 813.627C467.224 796.558 463.737 620.039 464.65 618.424C465.281 617.308 465.858 616.484 465.86 615.166C465.866 610.672 464.275 605.926 463.752 601.436C463.288 597.449 463.547 593.202 463.516 589.181C462.689 529.62 461.517 470.064 460.002 410.516L459.893 402.513Z"/><path fill="#F7B252" d="M459.893 402.513C477.614 402.528 495.579 401.972 513.27 402.781L513.09 411.167C505.634 410.464 498.025 410.634 490.54 410.582C480.361 410.468 470.181 410.446 460.002 410.516L459.893 402.513Z"/><path fill="#F4C481" d="M411.626 402.663C425.475 402.588 439.657 401.881 453.467 402.669C454.409 403.914 454.2 405.344 454.312 406.878L457.6 557.963C457.843 572.994 458.531 588.031 458.493 603.063C450.629 603.108 442.748 603.271 434.886 603.182C434.939 599.67 436.029 593.979 433.652 591.162C432.606 590.694 431.771 590.397 430.634 590.244L430.041 590.294C425.134 590.674 419.04 589.474 414.597 591.753C411.699 596.939 413.103 645.028 413.877 652.568C417.194 652.743 420.488 652.889 423.81 652.86C426.91 652.808 431.044 653.325 433.376 650.912C435.949 648.249 434.479 636.609 434.46 632.488L434.378 620.069L459.274 619.922L459.493 631.973L461.746 760.5C462.128 786.742 463.188 813.123 462.665 839.364L446.381 839.298L410.034 839.319C409.685 693.765 410.215 548.21 411.626 402.663Z"/><path fill="#F4C481" d="M434.378 620.069L459.274 619.922L459.493 631.973L461.746 760.5C462.128 786.742 463.188 813.123 462.665 839.364L446.381 839.298C444.4 838.059 429.629 838.818 426.23 838.833C426.164 818.265 424.916 797.698 424.484 777.133C423.949 735.711 423.725 694.286 423.81 652.86C426.91 652.808 431.044 653.325 433.376 650.912C435.949 648.249 434.479 636.609 434.46 632.488L434.378 620.069Z"/><path fill="#F7B252" d="M434.378 620.069L459.274 619.922L459.493 631.973C451.144 631.958 442.799 632.611 434.46 632.488L434.378 620.069Z"/><path fill="#F7B252" d="M411.626 402.663C425.475 402.588 439.657 401.881 453.467 402.669C454.409 403.914 454.2 405.344 454.312 406.878L453.681 406.29C453.034 407.531 452.475 408.107 451.078 408.529C449.281 409.072 427.805 409.983 423.585 410.315L424.122 590.078C426.212 590.053 428.595 589.793 430.634 590.244L430.041 590.294C425.134 590.674 419.04 589.474 414.597 591.753C411.699 596.939 413.103 645.028 413.877 652.568C417.194 652.743 420.488 652.889 423.81 652.86C423.725 694.286 423.949 735.711 424.484 777.133C424.916 797.698 426.164 818.265 426.23 838.833C429.629 838.818 444.4 838.059 446.381 839.298L410.034 839.319C409.685 693.765 410.215 548.21 411.626 402.663Z"/><path fill="#BB8956" d="M725.427 589.151C748.456 589.528 771.546 589.206 794.58 589.188L794.908 832.549C786.288 832.447 771.664 831.12 763.702 833.304C757.049 835.13 753.452 839.21 750.262 845.024C747.06 852.384 748.523 879.34 748.55 888.51C740.676 888.456 732.8 888.465 724.926 888.538L725.427 589.151Z"/><path fill="#F4C481" d="M519.059 518.58C538.076 520.86 557.099 523.604 576.13 525.67L575.98 534.951L570.35 839.48L519.697 839.541L519.262 529.403L519.059 518.58Z"/><path fill="#E79B4E" d="M519.059 518.58C538.076 520.86 557.099 523.604 576.13 525.67L575.98 534.951C572.202 533.962 567.967 533.67 564.084 533.119C555.134 531.79 546.156 530.654 537.157 529.712C531.422 529.07 525.649 527.888 519.897 527.554L519.262 529.403L519.059 518.58Z"/><path fill="#128B5C" d="M278.966 801.959C285.807 801.339 292.871 801.541 299.748 801.498C309.004 801.439 318.287 801.288 327.542 801.421C322.512 850.332 320.454 899.578 316.394 948.575C283.959 948.41 251.525 948.431 219.091 948.64C218.635 942.2 218.246 935.749 217.548 929.33C217.389 921.515 216.457 913.694 215.999 905.889C213.972 871.375 210.114 837.04 208.172 802.525C231.766 802.423 255.377 801.902 278.966 801.959Z"/><path fill="#0A6747" d="M278.966 801.959C285.807 801.339 292.871 801.541 299.748 801.498C309.004 801.439 318.287 801.288 327.542 801.421C322.512 850.332 320.454 899.578 316.394 948.575C283.959 948.41 251.525 948.431 219.091 948.64C218.635 942.2 218.246 935.749 217.548 929.33L218.182 930.194C223.507 931.713 241.014 930.314 247.58 930.208C263.204 930.099 278.828 929.885 294.449 929.567C297.58 887.036 300.442 844.485 303.033 801.918C295.125 802.164 286.84 802.731 278.966 801.959Z"/><path fill="#020201" d="M224.527 835.882C224.584 835.652 224.645 835.422 224.698 835.19C225.683 830.887 224.014 825.612 225.305 821.468C226.832 824.673 230.453 893.213 230.733 901.801C228.643 894.291 227.716 886.718 226.834 878.998C226.473 875.839 226.379 872.356 225.712 869.266L225.234 870.858L224.727 870.86C224.506 870.248 224.313 869.7 224.191 869.058C223.024 862.926 221.055 840.986 224.527 835.882Z"/><path fill="#6F939B" d="M225.712 869.266L225.234 870.858L224.727 870.86C224.506 870.248 224.313 869.7 224.191 869.058C223.024 862.926 221.055 840.986 224.527 835.882C224.552 847.05 224.817 858.132 225.712 869.266Z"/><path fill="#DC824C" d="M376.509 384.414C385.434 389.148 393.881 394.685 402.573 399.823L403.372 400.484C402.108 428.617 402.604 456.845 402.516 485L402.457 614.375L402.087 838.954C395.36 838.961 388.06 838.424 381.403 839.447C380.761 843.704 378.396 847.877 376.525 851.7C377.694 695.94 377.689 540.174 376.509 384.414Z"/><path fill="#7E3620" d="M402.573 399.823L403.372 400.484C402.108 428.617 402.604 456.845 402.516 485L402.457 614.375L402.087 838.954C395.36 838.961 388.06 838.424 381.403 839.447C381.171 828.641 383.071 775.258 386.322 767.591C387.166 761.867 387.715 756.259 387.998 750.483C387.104 745.273 388.104 738.647 388.302 733.324L390.408 686.688L394.407 568.146C395.561 529.673 396.395 491.212 398.612 452.779C399.084 444.602 399.995 436.45 400.527 428.276C400.862 423.13 400.73 404.653 401.965 401.493C402.544 400.012 401.941 401.931 402.436 400.3C402.484 400.141 402.528 399.982 402.573 399.823Z"/><path fill="#3B0E0B" d="M387.998 750.483C388.606 754.966 390.201 762.392 387.393 766.418C386.944 767.061 386.836 767.118 386.322 767.591C387.166 761.867 387.715 756.259 387.998 750.483Z"/><path fill="#020201" d="M389.83 413.112C391.368 429.541 390.895 445.676 390.486 462.136C390.033 478.679 389.721 495.226 389.55 511.775C389.463 529.231 389.777 546.724 389.379 564.174C388.858 586.955 387.616 609.707 387.202 632.499L386.052 691.265C385.783 704.134 385.712 717.061 384.875 729.908C384.703 732.871 384.566 735.837 384.464 738.803C384.097 740.797 383.881 742.712 383.79 744.738L383.552 744.624L383.401 744.146C383.456 733.897 383.191 723.488 383.919 713.265C383.319 687.146 383.924 661.188 384.383 635.08L387.409 504.621C387.952 488.752 388.359 472.878 388.63 457.002C388.995 442.914 389.475 429.17 388.773 415.074L389.83 413.112Z"/><path fill="#3B0E0B" d="M383.401 744.146C383.456 733.897 383.191 723.488 383.919 713.265C384.226 717.193 382.839 726.956 384.875 729.908C384.703 732.871 384.566 735.837 384.464 738.803C384.097 740.797 383.881 742.712 383.79 744.738L383.552 744.624L383.401 744.146Z"/><path fill="#020201" d="M395.762 396.779C396.391 397.289 396.398 397.12 396.592 397.814C397.248 400.166 396.985 441.197 396.631 446.093C396.55 447.2 396.374 447.698 395.808 448.621L394.83 447.595C392.495 440.352 394.626 405.487 395.762 396.779Z"/><path fill="#7E3620" d="M383.401 744.146L383.552 744.624L383.79 744.738C383.881 742.712 384.097 740.797 384.464 738.803C384.565 742.88 385.47 749.577 383.615 753.171L384.296 751.979L382.937 751.372C383.102 749.26 382.87 746.135 383.401 744.146Z"/><path fill="#3B0E0B" d="M388.773 415.074C388.564 412.313 388.429 409.62 388.48 406.849L389.115 406.069L388.569 406.112L388.748 405.547L389.212 406.427L388.542 406.368C390.055 407.726 389.673 411.089 389.83 413.112L388.773 415.074Z"/><path fill="#F4C481" d="M581.033 525.857C592.226 526.631 603.408 527.539 614.579 528.582L614.627 671.77C613.027 673.137 611.742 674.276 611.463 676.49C611.014 680.058 612.86 684.719 613.37 688.318C613.917 692.174 614.022 695.994 613.975 699.883L613.086 799.126C612.918 812.427 613.357 825.938 612.646 839.207C604.211 839.49 595.649 839.707 587.217 839.388C583.362 839.631 579.379 839.443 575.51 839.461C575.71 792.82 577.602 746.126 578.322 699.477L580.12 587.177C580.403 569.761 580.264 552.325 580.907 534.92L581.033 525.857Z"/><path fill="#F7B252" d="M581.033 525.857C592.226 526.631 603.408 527.539 614.579 528.582L614.627 671.77C613.027 673.137 611.742 674.276 611.463 676.49C611.014 680.058 612.86 684.719 613.37 688.318C613.917 692.174 614.022 695.994 613.975 699.883L613.086 799.126C612.918 812.427 613.357 825.938 612.646 839.207C604.211 839.49 595.649 839.707 587.217 839.388C590.625 838.603 594.491 838.884 597.993 838.858L598.491 684.52C598.212 634.852 598.309 585.182 598.782 535.516C592.855 534.907 586.86 534.991 580.907 534.92L581.033 525.857Z"/><path fill="#F7B252" d="M48.6831 826.554C48.5577 825.168 48.2054 824.552 49.0521 823.374C56.1667 822.403 70.4641 823.494 78.287 823.508L144.883 823.317C144.664 851.756 143.44 880.389 142.192 908.803C141.621 921.815 140.702 934.85 140.486 947.871C114.047 948.015 87.4817 948.567 61.0548 947.945C60.6073 944.541 60.2736 941.123 60.0541 937.698C59.4035 924.575 56.9656 911.235 55.6723 898.112C53.3195 874.242 51.7281 850.361 48.6831 826.554Z"/><path fill="#E79B4E" d="M48.6831 826.554C48.5577 825.168 48.2054 824.552 49.0521 823.374C56.1667 822.403 70.4641 823.494 78.287 823.508L144.883 823.317C144.664 851.756 143.44 880.389 142.192 908.803C141.621 921.815 140.702 934.85 140.486 947.871C114.047 948.015 87.4817 948.567 61.0548 947.945C60.6073 944.541 60.2736 941.123 60.0541 937.698C60.1872 937.738 60.3192 937.782 60.4532 937.818C70.5865 940.598 92.8788 936.029 102.256 930.775C107.949 927.585 110.809 923.78 112.495 917.528C117.592 898.628 123.201 850.142 113.016 833.534C112.144 832.113 111.035 830.826 109.486 830.135C103.086 827.277 60.9262 829.347 49.2447 826.692C49.0567 826.65 48.8703 826.6 48.6831 826.554Z"/><defs><linearGradient id="gradient_0" gradientUnits="userSpaceOnUse" x1="669.42395" y1="615.64227" x2="615.26758" y2="610.16974"><stop offset="0" stop-color="#5D3925"/><stop offset="1" stop-color="#AA4A2B"/></linearGradient></defs><path fill="url(#gradient_0)" d="M638.765 388.54C641.522 386.042 644.431 383.719 647.192 381.23L647.491 845.768C644.895 842.308 642.728 839.382 638.957 837.103C633.143 836.974 627.328 836.951 621.513 837.035L622.072 758.071L622.102 730.062C622.13 725.38 621.904 720.474 622.422 715.825L622.74 530.613C626.587 530.703 630.287 530.718 634.1 530.122C634.925 529.497 635.281 529.303 635.5 528.26C637.124 520.545 634.2 510.408 635.784 502.376L635.301 500.369C634.742 498.325 634.234 495.33 632.503 493.974C630.252 492.211 625.112 493.375 622.344 493.552C622.03 462.965 622.519 432.322 622.607 401.73C627.319 396.78 633.351 392.694 638.765 388.54Z"/><path fill="#DC824C" d="M622.74 530.613C626.587 530.703 630.287 530.718 634.1 530.122C634.545 530.971 634.475 531.372 635.429 531.671C636.196 531.912 636.958 532.097 637.741 532.275C642.066 538.354 640.956 588.876 640.147 599.058L639.658 599.627L635.892 599.181C635.201 583.797 636.013 568.115 634.658 552.816C632.734 567.041 633.438 582.013 633.284 596.367C633.019 615.825 632.571 635.279 631.939 654.727C630.057 665.278 630.837 679.077 630.438 690.048C629.741 709.233 629.095 729.147 626.393 748.151C625.518 754.306 624.073 760.354 622.829 766.44C621.862 749.642 623.722 732.561 622.422 715.825L622.74 530.613Z"/><path fill="#DC824C" d="M622.607 401.73C627.319 396.78 633.351 392.694 638.765 388.54C636.962 395.424 634.962 402.872 635.503 410.045C635.167 437.828 633.716 465.858 635.544 493.612C635.607 495.624 636.101 498.519 635.301 500.369C634.742 498.325 634.234 495.33 632.503 493.974C630.252 492.211 625.112 493.375 622.344 493.552C622.03 462.965 622.519 432.322 622.607 401.73Z"/><path fill="#020201" d="M634.658 552.816C636.013 568.115 635.201 583.797 635.892 599.181L639.658 599.627L640.147 599.058L640.766 599.495C642.901 616.089 636.308 641.586 635.676 659.371C635.065 676.57 635.465 693.794 635.397 711C635.261 745.304 634.994 779.855 633.135 814.102L632.882 814.237C631.647 792.025 632.977 769.409 633.272 747.148C633.583 723.689 632.44 700.421 631.724 676.998C631.497 669.587 632.269 662.11 631.939 654.727C632.571 635.279 633.019 615.825 633.284 596.367C633.438 582.013 632.734 567.041 634.658 552.816Z"/><path fill="#D4663B" d="M635.892 599.181L639.658 599.627C639.461 609.423 638.69 619.199 637.352 628.906C635.645 625.961 637.011 620.278 636.089 616.711C635.701 610.939 635.936 604.975 635.892 599.181Z"/><path fill="#955D32" d="M636.089 616.711C637.011 620.278 635.645 625.961 637.352 628.906C637.115 632.021 636.701 635.145 636.373 638.254C635.344 631.329 636.002 623.726 636.089 616.711Z"/><path fill="#020201" d="M635.503 410.045L636.191 407.815L636.319 408.109L635.627 408.965L636.489 408.641C638.227 428.902 637.342 450.885 636.928 471.265C636.399 475.286 637.283 492.14 636.011 493.966L635.544 493.612C633.716 465.858 635.167 437.828 635.503 410.045Z"/><path fill="#652E19" d="M635.544 493.612L636.011 493.966C637.283 492.14 636.399 475.286 636.928 471.265C637.126 476.912 638.05 498.533 635.784 502.376L635.301 500.369C636.101 498.519 635.607 495.624 635.544 493.612Z"/><path fill="#F4C481" d="M175.458 335.187C239.595 290.141 304.107 245.632 368.987 201.663C370.685 204.495 372.087 207.39 373.469 210.386L389.581 241.214C363.229 259.189 336.336 276.309 309.728 293.904C271.825 319.001 234.226 344.554 196.939 370.556C191.47 361.1 185.072 351.744 180.037 342.104L175.458 335.187Z"/><path fill="#F4D7AE" d="M175.458 335.187C239.595 290.141 304.107 245.632 368.987 201.663C370.685 204.495 372.087 207.39 373.469 210.386C370.667 214.109 366.115 217.251 362.359 220.006C353.28 226.667 343.477 232.327 334.254 238.791C322.095 247.313 310.138 256.103 297.917 264.542C273.216 281.596 248.275 298.3 223.101 314.648C212.002 321.969 192.002 337.684 180.037 342.104L175.458 335.187Z"/><path fill="#904827" d="M357.868 923.346C392.839 922.244 427.973 923.033 462.968 923.003L668.33 922.888C669.982 926.455 671.163 930.232 672.428 933.95C672.849 940.345 671.595 946.982 670.768 953.33C639.441 952.959 608.073 953.482 576.74 953.423L350.411 953.549C350.454 947.746 351.456 939.862 350.042 934.261C350.886 930.278 355.206 926.425 357.868 923.346Z"/><path fill="#BB7F4D" d="M357.868 923.346C392.839 922.244 427.973 923.033 462.968 923.003L668.33 922.888C669.982 926.455 671.163 930.232 672.428 933.95C666.242 934.818 659.775 934.503 653.537 934.49L625.998 934.418L534.585 934.41L408.006 934.476L369.987 934.495C363.489 934.495 356.468 935.027 350.042 934.261C350.886 930.278 355.206 926.425 357.868 923.346Z"/><path fill="#F4C481" d="M650.283 202.897C657.449 207.636 664.179 212.993 671.201 217.941L723.829 254.692L807.944 312.314C821.018 321.224 834.372 329.735 847.278 338.892L840.704 347.516C835.157 355.733 829.475 363.924 823.258 371.651C816.296 367.249 809.748 361.954 802.945 357.271L760.778 328.718L632.512 241.91C637.774 231.738 641.829 220.87 646.503 210.409C647.651 207.828 648.745 205.276 650.283 202.897Z"/><path fill="#F4D7AE" d="M650.283 202.897C657.449 207.636 664.179 212.993 671.201 217.941L723.829 254.692L807.944 312.314C821.018 321.224 834.372 329.735 847.278 338.892L840.704 347.516C837.05 346.296 832.58 341.998 829.259 339.771C815.84 330.775 802.434 321.917 789.153 312.706L690.339 243.441C680.844 236.672 670.803 230.625 661.476 223.632C656.215 219.688 650.723 215.47 646.503 210.409C647.651 207.828 648.745 205.276 650.283 202.897Z"/><path fill="#BB8956" d="M229.457 588.012L300.092 588.292C299.732 626.495 299.784 664.701 300.248 702.902C297.925 701.108 295.446 699.585 292.961 698.03C286.946 694.895 280.381 692.956 273.628 692.321C257.76 690.687 241.863 694.484 229.376 704.566C229.599 665.715 229.626 626.863 229.457 588.012Z"/><path fill="#F4C481" d="M510.019 105.408L509.991 114.769L510.059 161.189C498.08 170.7 484.603 178.61 471.736 186.862C456.008 196.95 440.538 207.49 424.899 217.721C414.589 224.467 403.768 230.87 393.802 238.09C388.576 228.456 383.335 218.848 378.568 208.976C376.78 205.661 375.036 202.323 373.337 198.962C387.259 187.79 405.679 176.466 420.819 166.166L510.019 105.408Z"/><path fill="#F4D7AE" d="M510.019 105.408L509.991 114.769C492.017 130.406 472.199 143.522 452.636 157.048C440.58 165.384 428.745 174.047 416.716 182.428C404.014 191.277 391.092 199.881 378.568 208.976C376.78 205.661 375.036 202.323 373.337 198.962C387.259 187.79 405.679 176.466 420.819 166.166L510.019 105.408Z"/><path fill="#F4C481" d="M514.23 106.315C528.21 116.841 543.097 126.182 557.372 136.298L646.009 199.529C644.709 202.482 643.314 205.368 641.868 208.252C637.616 218.271 633.797 228.897 627.892 238.065C589.789 213.574 552.709 187.483 515.026 162.358L514.492 117.292L514.23 106.315Z"/><path fill="#F4D7AE" d="M514.23 106.315C528.21 116.841 543.097 126.182 557.372 136.298L646.009 199.529C644.709 202.482 643.314 205.368 641.868 208.252C634.779 205.629 608.749 185.033 601.053 179.448L514.492 117.292L514.23 106.315Z"/><path fill="#955D32" d="M381.435 378.325C380.096 377.9 378.794 377.425 377.568 376.728C376.245 375.976 374.809 374.332 374.628 372.753C374.499 371.634 374.772 370.804 375.645 370.047C376.725 369.109 378.624 368.843 379.99 368.766C390.797 368.153 401.856 368.526 412.685 368.49L477.317 368.52C515.117 368.619 552.915 368.957 590.71 369.534C606.782 369.748 622.892 369.515 638.955 370.043L645.711 370.011C640.725 377.63 625.008 391.175 617.056 395.908C566.211 396.587 515.42 395.645 464.58 395.314C446.299 395.25 428.017 395.308 409.737 395.488C404.608 391.998 399.427 388.585 394.196 385.249C389.909 383.002 385.655 380.694 381.435 378.325Z"/><path fill="#7E3620" d="M638.955 370.043L645.711 370.011C640.725 377.63 625.008 391.175 617.056 395.908C566.211 396.587 515.42 395.645 464.58 395.314C446.299 395.25 428.017 395.308 409.737 395.488C404.608 391.998 399.427 388.585 394.196 385.249C406.008 383.643 423.979 385.568 436.599 385.57L557.684 384.876L587.426 384.579C595 384.517 603.13 384.865 610.58 383.462C618.867 381.902 626.396 376.948 634.26 374.067L635.145 373.748C637.331 373.061 640.078 372.521 641.924 371.154L641.638 370.59L638.955 370.043Z"/><path fill="#DC824C" d="M381.435 378.325C380.096 377.9 378.794 377.425 377.568 376.728C376.245 375.976 374.809 374.332 374.628 372.753C374.499 371.634 374.772 370.804 375.645 370.047C376.725 369.109 378.624 368.843 379.99 368.766C390.797 368.153 401.856 368.526 412.685 368.49L477.317 368.52C515.117 368.619 552.915 368.957 590.71 369.534C606.782 369.748 622.892 369.515 638.955 370.043L641.638 370.59L641.924 371.154C640.078 372.521 637.331 373.061 635.145 373.748C618.218 372.583 600.885 374.094 583.954 374.804C566.216 375.398 548.471 375.795 530.723 375.993L438.381 377C419.596 377.164 400.138 376.522 381.435 378.325Z"/><path fill="#F4C481" d="M42.6939 426.473C56.0501 414.828 72.2046 405.28 86.8354 395.293C115.038 375.951 143.373 356.803 171.837 337.848L177.702 348.518C182.505 356.905 187.457 365.206 192.555 373.418C173.051 387.738 152.773 400.956 132.814 414.627C111.613 429.147 90.7208 444.011 69.208 458.081C62.2585 449.476 55.1526 440.999 47.8937 432.653C45.9909 430.714 44.3569 428.615 42.6939 426.473Z"/><path fill="#F4D7AE" d="M42.6939 426.473C56.0501 414.828 72.2046 405.28 86.8354 395.293C115.038 375.951 143.373 356.803 171.837 337.848L177.702 348.518L130.361 379.085C110.845 391.924 91.6105 404.918 71.732 417.199C65.3499 421.142 53.7227 430.145 47.8937 432.653C45.9909 430.714 44.3569 428.615 42.6939 426.473Z"/><path fill="#F4C481" d="M850.635 341.167C881.008 361.324 911.208 381.74 941.233 402.414C948.291 407.279 955.42 412.043 962.616 416.704C967.891 420.142 973.787 423.435 978.455 427.666C976.184 430.519 973.796 433.247 971.375 435.973C965.487 443.711 958.845 451.23 952.444 458.562C935.057 448.187 918.754 435.755 901.963 424.435C877.236 407.763 852.022 391.734 827.797 374.345C832.346 366.546 838.369 359.139 843.563 351.709C845.896 348.202 848.132 344.552 850.635 341.167Z"/><path fill="#F4D7AE" d="M850.635 341.167C881.008 361.324 911.208 381.74 941.233 402.414C948.291 407.279 955.42 412.043 962.616 416.704C967.891 420.142 973.787 423.435 978.455 427.666C976.184 430.519 973.796 433.247 971.375 435.973C961.527 431.323 952.412 423.516 943.257 417.55L864.108 365.625C857.174 361.173 850.655 355.835 843.563 351.709C845.896 348.202 848.132 344.552 850.635 341.167Z"/><path fill="#BB8956" d="M723.345 368.575L723.555 366.497C725.518 365.177 787.189 365.579 792.987 366.533L793.098 412.589C793.23 425.17 793.09 437.766 793.072 450.348C769.864 450.047 746.654 450.069 723.447 450.415L723.481 399.28C723.496 389.069 723.778 378.773 723.345 368.575Z"/><path fill="#955D32" d="M723.345 368.575L723.555 366.497C725.518 365.177 787.189 365.579 792.987 366.533L793.098 412.589L747.962 384.018C739.833 378.866 731.8 373.156 723.345 368.575Z"/><path fill="#BB8956" d="M229.389 364.804C252.356 365.547 275.421 365.13 298.399 365.141C298.456 380.175 298.694 395.238 298.399 410.268C298.411 423.504 298.556 436.74 298.832 449.973C275.593 449.529 252.349 449.394 229.106 449.571L229.357 411.954L229.389 364.804Z"/><path fill="#955D32" d="M229.389 364.804C252.356 365.547 275.421 365.13 298.399 365.141C298.456 380.175 298.694 395.238 298.399 410.268C297.55 404.407 297.893 398.111 297.902 392.19C297.913 383.932 297.878 375.665 298.01 367.408C275.928 383.518 252.771 397.889 229.357 411.954L229.389 364.804Z"/><path fill="#9DA2A6" d="M83.107 580.029C98.3063 607.184 108.802 638.082 110.323 669.354C111.102 685.38 109.856 701.602 109.21 717.624C108.478 735.822 108.261 754.027 107.434 772.226L92.0292 772.126L85.6049 772.302C85.7229 752.165 85.0503 731.53 80.8368 711.772C78.2028 699.421 73.6641 687.605 70.3507 675.439C62.8053 647.734 67.8872 620.984 77.1952 594.428C79.0708 589.578 80.9877 584.78 83.107 580.029Z"/><path fill="#A0B5C4" d="M77.1952 594.428C79.1455 595.035 80.1888 595.57 81.4447 597.243L81.4387 598.063C73.8533 620.354 69.5834 642.842 74.5779 666.265C77.6342 680.599 82.2698 694.561 85.3961 708.887C89.7842 729.681 92.0071 750.874 92.0292 772.126L85.6049 772.302C85.7229 752.165 85.0503 731.53 80.8368 711.772C78.2028 699.421 73.6641 687.605 70.3507 675.439C62.8053 647.734 67.8872 620.984 77.1952 594.428Z"/><path fill="#020201" d="M81.4447 597.243L82.0221 596.818C87.8522 601.622 95.6464 621.324 96.2222 628.758C96.2793 629.495 96.1696 630.139 95.9703 630.844L95.4069 631.299C93.2784 628.114 91.4481 619.935 89.7606 615.743C87.317 609.672 84.3806 603.898 81.4387 598.063L81.4447 597.243Z"/><path fill="#020201" d="M95.7352 643.678C97.1601 643.969 98.3446 644.135 99.1587 645.452C102.173 650.329 105.35 715.609 103.077 721.422C102.62 721.312 102.166 721.194 101.717 721.054C100.322 720.621 99.5539 719.8 98.9436 718.475C97.7872 715.963 98.1356 711.48 98.0781 708.74C97.8765 699.124 97.7912 689.54 97.2141 679.932C96.5744 669.282 95.4337 658.558 95.1582 647.9C95.1185 646.363 95.2453 645.143 95.7352 643.678Z"/><path fill="#955D32" d="M457.707 210.012C472.145 210.397 486.588 210.56 501.031 210.502C500.887 223.425 501.038 236.358 500.835 249.276L500.861 250.708C499.066 252.472 496.356 253.308 494.225 254.657C486.746 259.396 481.007 266.227 476.845 273.992C468.953 274.056 461.02 274.286 453.132 274.085C442.175 274.944 430.723 274.357 419.727 274.204C400.189 273.93 380.467 273.548 360.947 274.314C366.057 270.495 371.511 267.043 376.766 263.412C391.449 253.267 406.25 243.459 421.174 233.681C433.258 225.764 445.088 217.053 457.707 210.012Z"/><path fill="#BB7F4D" d="M500.509 220.686C500.382 229.798 499.288 240.352 500.835 249.276L500.861 250.708C499.066 252.472 496.356 253.308 494.225 254.657C486.746 259.396 481.007 266.227 476.845 273.992C468.953 274.056 461.02 274.286 453.132 274.085C442.79 273.274 432.049 273.886 421.66 273.866C440.531 260.19 459.358 246.012 478.801 233.167C485.77 228.562 493.582 225.381 500.509 220.686Z"/><path fill="#F4C481" d="M519.498 402.82L577.643 402.901L577.591 410.854C577.206 428.953 576.971 447.055 576.888 465.158C576.84 475.572 577.456 486.519 576.581 496.884C557.574 498.573 538.586 499.808 519.615 501.959C519.166 471.838 519.397 441.674 519.448 411.548L519.498 402.82Z"/><path fill="#F7B252" d="M519.498 402.82L577.643 402.901L577.591 410.854C573.395 410.423 521.506 409.97 519.789 411.247C519.667 411.338 519.562 411.448 519.448 411.548L519.498 402.82Z"/><path fill="#BB7F4D" d="M369.218 898.012L540.128 897.35C579.327 897.163 618.559 896.456 657.757 896.767L660.888 904.614C662.385 907.982 663.993 911.334 665.012 914.884L361.061 915.404C361.876 912.998 362.59 910.427 363.583 908.096C365.14 904.527 367.054 901.241 369.218 898.012Z"/><path fill="#904827" d="M660.888 904.614C662.385 907.982 663.993 911.334 665.012 914.884L361.061 915.404C361.876 912.998 362.59 910.427 363.583 908.096C397.697 906.482 431.96 906.962 466.104 906.791C511.378 906.707 556.65 906.305 601.918 905.586C610.82 905.496 656.801 906.096 660.888 904.614Z"/><path fill="#955D32" d="M523.667 210.986C537.926 211.047 552.185 211.013 566.443 210.883C578.432 217.844 589.596 226.306 601.116 234.012C620.623 247.06 640.508 259.855 659.506 273.623L595.214 273.955C582.556 274.102 569.884 273.953 557.225 273.92C548.46 261.4 539.239 252.307 523.93 248.964C523.888 243.688 523.883 238.413 523.915 233.137C523.417 225.831 523.461 218.307 523.667 210.986Z"/><path fill="#BB7F4D" d="M524.074 216.55C533.635 223.068 539.507 232.483 548.352 239.622C558.446 247.768 569.136 255.371 579.723 262.861C584.787 266.444 590.64 269.83 595.214 273.955C582.556 274.102 569.884 273.953 557.225 273.92C548.46 261.4 539.239 252.307 523.93 248.964C523.888 243.688 523.883 238.413 523.915 233.137C524.292 227.626 524.116 222.071 524.074 216.55Z"/><path fill="#904827" d="M375.189 872.241C395.703 871.577 416.288 871.95 436.816 871.803L593.171 871.111C611.586 870.962 630.054 871.241 648.455 870.58L652.411 881.08L655.485 889.045C589.072 888.958 522.659 889.273 456.25 889.99L400.237 890.015C389.563 890.013 378.764 890.334 368.108 889.777L367.564 889.074C367.584 885.914 369.361 882.88 370.716 880.094C372.158 877.452 373.542 874.762 375.189 872.241Z"/><path fill="#BB7F4D" d="M375.189 872.241C395.703 871.577 416.288 871.95 436.816 871.803L593.171 871.111C611.586 870.962 630.054 871.241 648.455 870.58L652.411 881.08C642.018 881.996 630.812 881.193 620.36 881.165C596.237 881.268 572.113 881.053 547.996 880.519C521.645 880.19 495.267 880.494 468.913 880.439C436.182 880.093 403.449 879.978 370.716 880.094C372.158 877.452 373.542 874.762 375.189 872.241Z"/><path fill="#B6E4EF" d="M262.946 480.493C284.167 480.507 305.387 480.754 326.602 481.234C326.439 508.03 326.718 534.828 327.441 561.615C308.531 561.494 289.608 561.752 270.697 561.859C268.911 534.689 264.695 507.674 262.946 480.493Z"/><path fill="#B6E4EF" d="M700.535 481.111C721.333 480.977 742.342 480.435 763.125 481.168C762.896 489.521 761.631 498.085 760.722 506.403L755.621 552.881L754.883 560.729L701.063 561.003C701.075 534.374 700.349 507.736 700.535 481.111Z"/><path fill="#B6E4EF" d="M205.364 480.033C222.719 479.905 240.073 479.884 257.428 479.968C258.723 487.728 259.028 495.974 259.834 503.823C261.808 523.085 263.637 542.361 265.323 561.651C246.133 561.542 226.942 561.673 207.755 562.043C207.353 534.7 205.802 507.372 205.364 480.033Z"/><path fill="#B6E4EF" d="M768.182 481.168C785.741 480.909 803.559 480.641 821.106 481.316C821.053 492.465 819.823 503.682 819.377 514.831C818.766 530.14 818.766 545.479 818.217 560.794L812.594 560.901L759.268 560.785C759.946 549.748 761.577 538.627 762.865 527.644L768.182 481.168Z"/><path fill="#BB7F4D" d="M387.317 847.708C429.703 846.857 472.217 847.47 514.621 847.469L636.673 847.076L639.749 852.044C641.367 854.629 643.041 857.184 644.436 859.899C645.063 861.083 645.487 861.194 645.089 862.533C642.42 863.632 581.763 863.231 572.657 863.267L385.059 864.006C383.105 864.035 381.167 864.189 379.268 863.661C379.827 859.681 382.568 855.25 384.473 851.718C385.398 850.366 386.294 848.989 387.317 847.708Z"/><path fill="#904827" d="M387.317 847.708C429.703 846.857 472.217 847.47 514.621 847.469L636.673 847.076L639.749 852.044C618.414 850.789 596.756 851.471 575.384 851.507L458.711 852.3C433.98 852.434 409.187 852.757 384.473 851.718C385.398 850.366 386.294 848.989 387.317 847.708Z"/><path fill="#904827" d="M385.059 864.006C384.495 862.868 384.141 862.751 384.469 861.473C387.374 860.093 400.914 860.66 404.994 860.543C468.535 858.722 531.927 859.748 595.471 860.455C604.029 860.55 639.662 861.573 644.436 859.899C645.063 861.083 645.487 861.194 645.089 862.533C642.42 863.632 581.763 863.231 572.657 863.267L385.059 864.006Z"/><path fill="#BB7F4D" d="M682.368 162.774C686.939 163.604 691.562 165.554 696.011 166.931C701.962 168.727 707.962 170.354 714.004 171.81C743.167 179.13 772.732 185.715 801.677 193.785C804.204 194.489 806.326 195.013 808.338 196.805C810.721 198.925 822.586 211.413 822.701 213.755C785.187 213.343 747.611 213.675 710.094 213.806C701.206 196.699 692.248 179.317 682.368 162.774Z"/><path fill="#7F7F83" d="M936.963 645.869C939.169 645.929 941.401 645.918 943.601 646.08C945.12 646.122 949.641 645.801 950.49 647.215C950.612 647.419 950.656 647.66 950.739 647.882L936.093 843.416L931.455 908.755C930.561 920.124 929.958 931.802 928.259 943.072C928.045 944.491 927.82 945.821 926.641 946.806C925.198 948.011 922.811 948.205 921.017 948.419C920.247 947.912 919.325 947.322 918.758 946.571C917.886 945.415 918.035 943.924 918.066 942.551C918.23 935.312 919.145 927.989 919.58 920.749C920.642 901.577 921.809 882.411 923.081 863.252L936.963 645.869Z"/><path fill="#9DA2A6" d="M936.963 645.869C939.169 645.929 941.401 645.918 943.601 646.08C942.787 663.09 941.095 680.129 939.854 697.116L930.167 827.175C928.364 853.632 926.408 880.079 924.298 906.513C923.587 916.527 922.949 926.528 922.106 936.533C921.778 940.418 921.734 944.611 921.017 948.419C920.247 947.912 919.325 947.322 918.758 946.571C917.886 945.415 918.035 943.924 918.066 942.551C918.23 935.312 919.145 927.989 919.58 920.749C920.642 901.577 921.809 882.411 923.081 863.252L936.963 645.869Z"/><path fill="#22608D" d="M209.508 769.524C221.271 768.825 233.437 769.404 245.235 769.332L319.079 769.01C320.259 773.119 321.017 776.755 321.025 781.072C321.137 786.225 321.134 791.41 321.398 796.556C297.005 797.094 272.523 796.835 248.12 796.877C234.131 796.9 217.212 797.802 203.589 796.386C200.583 796.074 197.111 795.653 195.169 793.075C192.196 789.128 193.203 782.926 193.721 778.337L194.064 776.991C194.824 775.284 195.837 773.379 197.183 772.065C200.448 768.881 205.326 769.503 209.508 769.524Z"/><path fill="#2D7EA8" d="M209.508 769.524C221.271 768.825 233.437 769.404 245.235 769.332L319.079 769.01C320.259 773.119 321.017 776.755 321.025 781.072C307.409 784.463 294.191 784.472 280.284 784.438C259.4 784.389 239.18 783.048 218.42 781.022C210.289 780.229 201.732 779.93 193.721 778.337L194.064 776.991C194.824 775.284 195.837 773.379 197.183 772.065C200.448 768.881 205.326 769.503 209.508 769.524Z"/><path fill="#90C4E4" d="M194.064 776.991C194.824 775.284 195.837 773.379 197.183 772.065C200.448 768.881 205.326 769.503 209.508 769.524C208.914 771.526 208.342 772.462 206.491 773.505C202.994 775.478 198.071 776.56 194.064 776.991Z"/><path fill="#F7B252" d="M583.391 402.981C593.796 402.984 604.266 402.737 614.663 403.089L614.469 494.414C609.405 494.802 604.339 495.158 599.271 495.482C593.511 495.593 587.698 496.382 581.921 496.621L583.055 411.55L583.391 402.981Z"/><path fill="#F4C481" d="M583.055 411.55C587.487 409.887 595.224 410.747 599.951 411.324C600.5 439.352 598.755 467.447 599.271 495.482C593.511 495.593 587.698 496.382 581.921 496.621L583.055 411.55Z"/><path fill="#BB8956" d="M262.641 714.152C264.959 713.82 267.565 713.878 269.901 714.08C279.515 714.913 288.104 719.724 294.188 727.169C302.799 737.706 303.262 749.541 301.862 762.504L272.822 762.463L231.779 762.434C230.462 750.105 231.244 738.343 238.89 728.118C244.814 720.197 252.926 715.591 262.641 714.152Z"/><path fill="#652E19" d="M747.775 233.25C764.822 233.082 781.869 233.011 798.916 233.037C799.115 254.229 800.893 275.346 800.077 296.549C793.413 291.236 786.147 286.512 779.142 281.654C773.202 278.103 767.556 273.758 761.867 269.799C744.82 257.937 728.234 245.229 710.97 233.714C723.143 232.976 735.571 233.351 747.775 233.25Z"/><path fill="#9DA2A6" d="M511.264 254.111C517.883 253.245 525.511 253.809 531.76 256.244C545.797 261.714 552.929 275.952 558.527 288.945L523.625 289.122L475.469 289.263C477.403 283.36 480.152 277.756 483.636 272.613C490.624 262.208 498.967 256.477 511.264 254.111Z"/><path fill="#9C918C" d="M476.962 294.377L557.503 293.823C554.091 301.371 549.142 309.983 542.611 315.26C534.291 323.216 525.584 330.774 517.133 338.591C510.865 333.489 504.862 328.052 498.806 322.703C488.561 315.568 481.332 305.992 476.962 294.377Z"/><path fill="#7F7F83" d="M498.806 322.703C505.174 321.583 511.784 321.874 518.206 321.014C524.536 320.166 530.455 317.947 536.575 316.247C538.613 315.682 540.476 315.285 542.611 315.26C534.291 323.216 525.584 330.774 517.133 338.591C510.865 333.489 504.862 328.052 498.806 322.703Z"/><path fill="#904827" d="M205.903 461.521C205.842 459.79 205.58 457.829 206.627 456.403C214.616 455.563 322.528 456.488 324.096 457.073C324.717 458.549 324.294 459.49 324.016 461.044C323.421 465.378 323.675 469.847 323.729 474.214L205.975 473.541L205.903 461.521Z"/><path fill="#E79B4E" d="M205.903 461.521C205.842 459.79 205.58 457.829 206.627 456.403C214.616 455.563 322.528 456.488 324.096 457.073C324.717 458.549 324.294 459.49 324.016 461.044L205.903 461.521Z"/><path fill="#7E3620" d="M701.32 457.301C714.239 456.735 727.257 456.883 740.19 456.799C766.461 456.699 792.733 456.737 819.004 456.914L819.094 463.458C819.36 467.007 819.401 470.555 819.461 474.112L700.93 474.204C700.983 468.643 700.698 462.821 701.32 457.301Z"/><path fill="#E79B4E" d="M701.32 457.301C714.239 456.735 727.257 456.883 740.19 456.799C766.461 456.699 792.733 456.737 819.004 456.914L819.094 463.458C792.747 463.501 766.4 463.35 740.056 463.007C727.404 462.936 714.706 463.401 702.064 462.978C701.238 461.502 701.428 459.009 701.32 457.301Z"/><path fill="#F4C481" d="M30.7972 808.639C30.8 806.623 30.5558 804.496 31.4863 802.657C34.0267 800.968 149.243 801.68 163.6 801.603L163.617 807.984C163.539 810.19 163.288 813.885 161.82 815.62C160.142 817.603 150.96 816.904 148.116 816.902L69.0223 816.547C60.478 816.533 51.9341 816.436 43.3916 816.258C40.4154 816.181 36.8735 816.401 33.9827 815.859C33.0823 815.691 32.521 815.606 31.9248 814.901C30.4567 813.163 30.7397 810.765 30.7972 808.639Z"/><defs><linearGradient id="gradient_1" gradientUnits="userSpaceOnUse" x1="96.303459" y1="818.64258" x2="97.122627" y2="805.08112"><stop offset="0" stop-color="#E27B23"/><stop offset="1" stop-color="#F19832"/></linearGradient></defs><path fill="url(#gradient_1)" d="M30.7972 808.639C33.136 810.406 37.1354 810.331 39.9764 810.427C50.0894 810.769 60.2884 810.113 70.4046 809.875C89.0409 809.527 107.675 809.049 126.304 808.44C132.581 808.249 138.842 808.061 145.122 808.134C151.218 808.204 157.558 808.659 163.617 807.984C163.539 810.19 163.288 813.885 161.82 815.62C160.142 817.603 150.96 816.904 148.116 816.902L69.0223 816.547C60.478 816.533 51.9341 816.436 43.3916 816.258C40.4154 816.181 36.8735 816.401 33.9827 815.859C33.0823 815.691 32.521 815.606 31.9248 814.901C30.4567 813.163 30.7397 810.765 30.7972 808.639Z"/><path fill="#8CAC4A" d="M142.27 721.508C142.833 721.435 143.228 721.55 143.778 721.666C144.657 723.592 144.822 785.952 144.989 794.962C141.196 794.983 121.516 795.846 119.762 794.209C119.508 791.052 119.627 787.864 119.458 784.7C119.216 780.151 117.797 776.847 114.368 773.837C115.298 759.043 115.687 744.269 116.074 729.453C124.624 726.333 133.526 724.017 142.27 721.508Z"/><path fill="#904827" d="M701.073 571.881C701.017 570.221 700.79 569.243 701.55 567.745C702.068 567.49 702.169 567.405 702.822 567.293C704.87 566.941 707.632 567.413 709.78 567.441C715.639 567.518 721.505 567.458 727.364 567.456L801.916 567.435C806.27 567.44 813.614 566.529 817.61 567.883C818.204 569.584 818.02 571.218 817.945 572.995C817.564 576.058 817.543 579.231 817.395 582.318L701.487 582.929C701.457 579.229 701.38 575.57 701.073 571.881Z"/><path fill="#E79B4E" d="M701.073 571.881C701.017 570.221 700.79 569.243 701.55 567.745C702.068 567.49 702.169 567.405 702.822 567.293C704.87 566.941 707.632 567.413 709.78 567.441C715.639 567.518 721.505 567.458 727.364 567.456L801.916 567.435C806.27 567.44 813.614 566.529 817.61 567.883C818.204 569.584 818.02 571.218 817.945 572.995C811.964 573.38 805.766 573.057 799.766 573.041C783.399 572.88 767.035 572.567 750.674 572.102C734.2 571.783 717.501 572.735 701.073 571.881Z"/><path fill="#904827" d="M321.592 567.372L323.801 567.262C324.935 568.394 324.968 570.076 324.976 571.659C324.994 575.14 324.638 578.354 325.087 581.845L209.093 581.544C208.857 578.698 208.649 575.851 208.469 573.002L208.266 567.356L316.189 567.383L321.592 567.372Z"/><path fill="#E79B4E" d="M208.266 567.356L316.189 567.383C316.287 569.213 316.432 570.748 315.818 572.497L208.469 573.002L208.266 567.356Z"/><path fill="#DC824C" d="M316.189 567.383L321.592 567.372C321.565 568.928 321.751 570.479 320.819 571.806C319.433 572.71 317.438 572.48 315.818 572.497C316.432 570.748 316.287 569.213 316.189 567.383Z"/><path fill="#22608D" d="M253.902 700.91C263.509 697.446 278.458 699.95 287.501 704.258C301.363 710.861 310.765 722.644 315.702 737.022C318.469 745.08 319.332 753.517 319.461 761.999C316.052 761.933 312.39 762.122 309.031 761.582C309.254 753.192 308.904 745.199 307.313 736.941C301.531 724.316 294.601 714.404 281.099 709.388C270.594 705.577 259 706.135 248.908 710.935C238.372 715.863 230.821 724.595 226.943 735.525C223.834 744.291 223.905 753.213 225.517 762.283C222.435 762.29 219.117 762.069 216.064 762.435C215.841 762.194 215.572 761.987 215.394 761.71C213.301 758.446 214.761 748.791 215.162 745.091C217.397 733.372 222.055 721.528 230.964 713.23C236.828 706.603 245.371 702.672 253.902 700.91Z"/><path fill="#90C4E4" d="M253.902 700.91L254.07 701.244C246.051 704.976 239.077 707.421 232.62 713.728C225.245 722.524 218.471 734.784 216.94 746.308L215.162 745.091C217.397 733.372 222.055 721.528 230.964 713.23C236.828 706.603 245.371 702.672 253.902 700.91Z"/><path fill="#2D7EA8" d="M307.313 736.941C310.173 741.265 311.738 746.961 313.703 751.77C315.047 755.06 316.707 758.22 318.183 761.453C315.162 761.424 312.03 761.229 309.031 761.582C309.254 753.192 308.904 745.199 307.313 736.941Z"/><path fill="#2D7EA8" d="M215.162 745.091L216.94 746.308C216.916 751.009 218.556 758.372 216.064 762.435C215.841 762.194 215.572 761.987 215.394 761.71C213.301 758.446 214.761 748.791 215.162 745.091Z"/><path fill="#6F939B" d="M788.214 915.951C788.552 915.305 788.883 914.661 789.279 914.047C790.844 911.624 793.988 909.889 796.781 909.405C801.034 908.667 834.908 909.011 839.518 909.867C841.119 910.165 842.304 910.991 843.59 911.944L844.67 914.424C844.583 921.138 844.533 927.853 844.52 934.567L831.575 934.569C816.898 934.532 802.221 934.691 787.548 935.045C787.499 928.713 787.378 922.236 788.214 915.951Z"/><path fill="#698192" d="M788.214 915.951C788.816 919.486 789.999 921.72 792.319 924.427C792.319 924.562 792.335 924.698 792.32 924.833C792.185 926.037 790.732 927.346 791.313 928.311C805.083 929.157 818.942 928.122 832.675 928.978L831.575 934.569C816.898 934.532 802.221 934.691 787.548 935.045C787.499 928.713 787.378 922.236 788.214 915.951Z"/><path fill="#B6E4EF" d="M788.214 915.951C788.552 915.305 788.883 914.661 789.279 914.047C790.844 911.624 793.988 909.889 796.781 909.405C801.034 908.667 834.908 909.011 839.518 909.867C841.119 910.165 842.304 910.991 843.59 911.944C839.12 912.467 834.808 913.858 830.383 914.301C820.616 915.279 810.078 914.442 800.24 914.326C796.298 916.997 794.242 920.124 792.319 924.427C789.999 921.72 788.816 919.486 788.214 915.951Z"/><path fill="#698192" d="M833.045 922.659C836.644 918.942 840.053 916.749 844.67 914.424C844.583 921.138 844.533 927.853 844.52 934.567L831.575 934.569L832.675 928.978C832.915 926.896 832.935 924.754 833.045 922.659Z"/><path fill="#698192" d="M757.535 846.308C758.159 845.035 758.909 843.714 759.831 842.629C762.303 839.72 765.914 838.833 769.56 838.592C778.349 838.012 803.951 837.732 811.237 839.626C813.168 840.128 814.442 841.065 815.935 842.351C818.357 844.696 819.63 847.525 820.939 850.565C821.378 854.387 821.533 858.12 821.555 861.966C815.76 861.732 809.961 861.586 804.16 861.53L756.53 861.464C755.837 856.319 756 851.284 757.535 846.308Z"/><path fill="#B6E4EF" d="M757.535 846.308C758.159 845.035 758.909 843.714 759.831 842.629C762.303 839.72 765.914 838.833 769.56 838.592C778.349 838.012 803.951 837.732 811.237 839.626C813.168 840.128 814.442 841.065 815.935 842.351C814.001 843.221 811.974 843.292 809.897 843.586C801.707 844.746 769.09 842.066 765.081 845.254C763.841 847.621 763.166 850.338 761.754 852.579L760.973 852.567C759.312 850.565 758.211 848.838 757.535 846.308Z"/><path fill="#505B68" d="M820.939 850.565C821.378 854.387 821.533 858.12 821.555 861.966C815.76 861.732 809.961 861.586 804.16 861.53C807.571 858.126 811.079 854.822 814.681 851.621C816.95 851.522 818.811 851.476 820.939 850.565Z"/><path fill="#698192" d="M989.061 560.435C989.964 566.391 990.363 572.319 990.717 578.325C992.626 595.487 993.46 613.001 994.66 630.245C964.062 627.891 933.488 627.068 902.851 625.585C903.524 621.6 904.124 617.604 904.651 613.597C905.373 615.487 906.652 615.636 908.422 616.419C909.84 617.034 911.269 617.624 912.708 618.19L914.003 618.416C914.026 618.338 914.033 618.252 914.073 618.18C914.957 616.572 917.351 616.077 919.017 615.405C939.319 615.043 960.63 615.298 980.565 619.344C983.138 609.856 983.884 599.772 985.127 590.032C986.387 580.158 987.956 570.33 989.061 560.435Z"/><path fill="#A0B5C4" d="M989.061 560.435C989.964 566.391 990.363 572.319 990.717 578.325C989.174 580.322 988.793 582.177 988.446 584.654C986.697 597.151 989.05 609.828 985.892 622.33C974.512 622.862 924.449 621.907 914.751 618.653C914.503 618.57 914.253 618.495 914.003 618.416C914.026 618.338 914.033 618.252 914.073 618.18C914.957 616.572 917.351 616.077 919.017 615.405C939.319 615.043 960.63 615.298 980.565 619.344C983.138 609.856 983.884 599.772 985.127 590.032C986.387 580.158 987.956 570.33 989.061 560.435Z"/><path fill="#6F939B" d="M719.471 901.95C719.487 900.699 719.753 899.748 720.543 898.763C722.851 895.887 727.522 894.921 730.983 894.656C737.17 894.182 764.407 893.889 769.349 895.256C770.57 895.594 771.543 896.463 772.477 897.279C772.803 898.659 773.079 899.912 773.103 901.341C773.688 905.296 773.248 909.497 773.081 913.486L773.035 919.819C754.869 919.818 736.703 920.013 718.541 920.405C718.5 917.661 718.651 914.929 718.785 912.189C718.867 908.777 718.794 905.308 719.471 901.95Z"/><path fill="#698192" d="M718.785 912.189C720.085 913.329 721.361 914.586 722.881 915.422C734.657 915.603 746.474 915.001 758.237 915.417C759.094 914.656 760.105 913.495 761.1 912.967C765.098 913.026 769.093 913.199 773.081 913.486L773.035 919.819C754.869 919.818 736.703 920.013 718.541 920.405C718.5 917.661 718.651 914.929 718.785 912.189Z"/><path fill="#B6E4EF" d="M719.471 901.95C719.487 900.699 719.753 899.748 720.543 898.763C722.851 895.887 727.522 894.921 730.983 894.656C737.17 894.182 764.407 893.889 769.349 895.256C770.57 895.594 771.543 896.463 772.477 897.279C765.816 901.244 740.173 899.068 731.539 899.151C727.217 902.324 723.498 906.314 719.204 909.608C719.376 907.066 719.661 904.495 719.471 901.95Z"/><path fill="#505B68" d="M773.103 901.341C773.688 905.296 773.248 909.497 773.081 913.486C769.093 913.199 765.098 913.026 761.1 912.967C764.834 909.621 769.34 907.842 771.986 905.473C773.354 904.248 773.02 903.051 773.103 901.341Z"/><path fill="#904827" d="M332.36 480.757C337.864 479.969 343.976 480.532 349.547 480.527C349.428 507.496 349.136 534.464 348.67 561.429L341.549 561.55L333.333 561.518C333.489 534.623 332.645 507.656 332.36 480.757Z"/><path fill="#DC824C" d="M332.36 480.757C334.882 480.95 337.329 481.013 339.857 480.978C339.429 507.886 341.599 534.683 341.549 561.55L333.333 561.518C333.489 534.623 332.645 507.656 332.36 480.757Z"/><defs><linearGradient id="gradient_2" gradientUnits="userSpaceOnUse" x1="173.3241" y1="545.11279" x2="215.71274" y2="496.41928"><stop offset="0" stop-color="#965335"/><stop offset="1" stop-color="#AF6438"/></linearGradient></defs><path fill="url(#gradient_2)" d="M188.269 480.423L199.502 480.378C199.648 507.546 201.616 534.744 201.571 561.902C196.449 561.804 190.098 562.616 185.173 561.704C185.088 534.805 183.516 507.909 183.293 481.026C184.681 480.175 186.67 480.422 188.269 480.423Z"/><path fill="#E79B4E" d="M185.173 561.704C185.088 534.805 183.516 507.909 183.293 481.026C184.681 480.175 186.67 480.422 188.269 480.423C188.597 491.185 189.058 501.984 189.101 512.75C189.149 524.961 188.894 537.15 189.691 549.347C189.891 552.405 191.057 558.349 190.083 561.064C188.426 561.555 186.893 561.631 185.173 561.704Z"/><path fill="#BB7F4D" d="M827.039 481.617C832.336 481.499 837.635 481.482 842.933 481.567C842.664 507.927 841.888 534.28 840.604 560.611L829.218 560.916C827.807 560.971 826.552 561.186 825.319 560.368C824.28 555.096 825.303 548.005 825.402 542.511C825.768 522.214 827.129 501.916 827.039 481.617Z"/><path fill="#E79B4E" d="M829.218 560.916C827.807 560.971 826.552 561.186 825.319 560.368C824.28 555.096 825.303 548.005 825.402 542.511C825.768 522.214 827.129 501.916 827.039 481.617L830.174 482.353C832.04 486.741 832.665 492.49 832.913 497.221C833.75 513.185 832.032 530.238 830.701 546.16C830.308 550.86 830.332 556.344 829.218 560.916Z"/><path fill="#955D32" d="M679.136 481.033C684.259 481.019 689.394 480.942 694.516 480.995C694.515 507.648 694.772 534.332 694.403 560.982C689.607 560.974 684.71 561.165 679.943 560.593C680.045 536.753 679.456 512.913 679.416 489.072C679.249 486.384 679.122 483.728 679.136 481.033Z"/><path fill="#E79B4E" d="M679.574 481.536C683.739 481.481 687.912 481.483 692.075 481.357C685.377 487.651 684.746 489.772 684.493 498.786C684.092 513.084 684.468 527.501 684.496 541.81C684.508 547.749 685.078 554.352 684.242 560.212C682.804 560.391 681.39 560.509 679.943 560.593C680.045 536.753 679.456 512.913 679.416 489.072C679.528 486.555 679.629 484.057 679.574 481.536Z"/><path fill="#698192" d="M510.743 511.554C510.059 511.546 509.514 511.406 508.852 511.247L508.361 510.287L508.973 509.41C514.182 508.111 520.384 508.04 525.761 507.489C543.873 505.694 562.027 504.341 580.205 503.431C588.117 502.991 596.29 501.812 604.192 502.022C605.159 503.069 604.956 503.861 605.08 505.234C604.693 510.64 604.998 516.16 605.08 521.579C582.191 519.511 559.338 517.066 536.53 514.247C529.031 513.386 517.496 512.974 510.743 511.554Z"/><path fill="#A0B5C4" d="M510.743 511.554C510.059 511.546 509.514 511.406 508.852 511.247L508.361 510.287L508.973 509.41C514.182 508.111 520.384 508.04 525.761 507.489C543.873 505.694 562.027 504.341 580.205 503.431C588.117 502.991 596.29 501.812 604.192 502.022C605.159 503.069 604.956 503.861 605.08 505.234C596.897 507.885 580.517 507.725 571.483 508.021C560.126 508.393 548.835 509.28 537.494 509.819C530.828 510.135 524.232 510.001 517.6 510.874L518.723 510.953C516.057 511.059 513.395 511.259 510.743 511.554Z"/><path fill="#BB8956" d="M757.178 870.017C769.62 870.045 782.061 869.973 794.502 869.799C794.132 881.371 793.969 892.949 794.012 904.527L779.127 904.633L779.132 902.314C779.125 898.226 779.395 893.154 776.08 890.115C771.918 886.301 762.416 887.875 757.162 888.086L757.178 870.017Z"/><path fill="#955D32" d="M818.48 220.28C821.106 220.12 824.179 219.644 826.707 220.434C828.322 220.938 829.738 221.581 830.56 223.087L829.976 223.989C828.24 224.831 826.745 225.123 824.814 225.217C814.165 225.736 803.19 225.107 792.497 225.082C769.032 224.966 745.566 224.97 722.101 225.095C718.742 225.1 712.135 226.256 709.615 223.91C709.391 222.546 709.458 222.354 709.992 221.07C710.543 220.716 711.008 220.476 711.677 220.435C722.9 219.741 734.634 220.449 745.902 220.457L818.48 220.28Z"/><path fill="#F4C481" d="M96.8746 778.976C100.693 778.786 107.869 777.56 110.907 780.071C114.138 782.741 113.224 791.265 113.292 795.223L103.019 795.318C96.9218 795.447 90.8226 795.466 84.7246 795.374C83.8678 795.43 83.2159 795.353 82.373 795.23C80.213 792.498 81.301 782.901 81.3556 779.148C84.4977 778.928 87.7122 779.02 90.8645 778.988L96.8746 778.976Z"/><path fill="#E79B4E" d="M96.8746 778.976C100.693 778.786 107.869 777.56 110.907 780.071C114.138 782.741 113.224 791.265 113.292 795.223L103.019 795.318C104.692 793.068 103.624 787.076 103.434 784.382C101.437 782.078 99.4108 780.611 96.8746 778.976Z"/><path fill="#FBE076" d="M81.3556 779.148C84.4977 778.928 87.7122 779.02 90.8645 778.988C90.9839 784.281 91.2677 789.628 91.0698 794.919C88.9833 794.983 86.7614 794.895 84.7246 795.374C83.8678 795.43 83.2159 795.353 82.373 795.23C80.213 792.498 81.301 782.901 81.3556 779.148Z"/><path fill="#22608D" d="M319.079 769.01C323.736 768.844 328.485 768.335 333.134 768.472C338.063 773.061 340.024 778.421 340.23 785.093C340.33 788.331 340.155 792.15 337.782 794.638C335.08 797.473 325.394 796.499 321.398 796.556C321.134 791.41 321.137 786.225 321.025 781.072C321.017 776.755 320.259 773.119 319.079 769.01Z"/><path fill="#9DA2A6" d="M916.221 558.108C916.457 563.107 916.537 568.124 916.682 573.127C917.41 582.796 917.702 592.506 918.138 602.192C918.323 606.3 918.012 611.434 919.017 615.405C917.351 616.077 914.957 616.572 914.073 618.18C914.033 618.252 914.026 618.338 914.003 618.416L912.708 618.19C911.269 617.624 909.84 617.034 908.422 616.419C906.652 615.636 905.373 615.487 904.651 613.597C908.178 595.117 910.899 576.193 916.221 558.108Z"/><path fill="#A0B5C4" d="M916.221 558.108C916.457 563.107 916.537 568.124 916.682 573.127C910.865 581.1 910.85 606.866 912.357 616.454C912.448 617.037 912.575 617.616 912.708 618.19C911.269 617.624 909.84 617.034 908.422 616.419C906.652 615.636 905.373 615.487 904.651 613.597C908.178 595.117 910.899 576.193 916.221 558.108Z"/><path fill="#7F7F83" d="M419.83 597.077L427.563 596.775L427.568 603.823C428.155 609.727 428.026 615.731 427.935 621.659C428.051 628.151 427.742 634.743 428.166 641.214C428.233 643.497 428.288 645.78 428.332 648.063L420.089 647.97L419.983 642.066L419.683 630.921C419.321 627.131 419.343 623.389 419.386 619.585C419.403 612.084 419.372 604.566 419.83 597.077Z"/><path fill="#2A303C" d="M427.505 621.539L427.935 621.659C428.051 628.151 427.742 634.743 428.166 641.214C428.233 643.497 428.288 645.78 428.332 648.063L420.089 647.97L419.983 642.066L419.683 630.921C420 631.321 420.01 631.373 420.481 631.738C421.442 632.482 422.824 633.099 424.036 632.789C425.772 632.345 426.575 630.746 427.486 629.35L427.505 621.539Z"/><path fill="#20222D" d="M428.166 641.214C428.233 643.497 428.288 645.78 428.332 648.063L420.089 647.97L419.983 642.066C422.89 642.19 425.343 641.943 428.166 641.214Z"/><path fill="#020201" d="M423.751 618.695C423.115 618.213 422.532 617.747 422.034 617.116C421.086 615.912 420.66 613.943 420.95 612.445C421.191 611.194 421.866 610.112 423.017 609.523C424.408 608.809 425.637 609.28 427.002 609.73C427.008 611.815 426.943 613.91 427.22 615.98C426.102 616.974 425.051 617.937 423.751 618.695Z"/><path fill="#505B68" d="M427.568 603.823C428.155 609.727 428.026 615.731 427.935 621.659L427.505 621.539C427.501 619.662 427.434 617.845 427.22 615.98C426.943 613.91 427.008 611.815 427.002 609.73C427.745 608.734 427.516 605.197 427.568 603.823Z"/><path fill="#955D32" d="M500.018 181.417L500.804 181.77C501.695 188.919 500.999 196.89 500.988 204.131C489.625 204.035 478.261 204.043 466.898 204.155L466.208 203.914C468.756 201.073 473.347 198.993 476.55 196.832C484.32 191.589 492.116 186.468 500.018 181.417Z"/><path fill="#B6E4EF" d="M627.959 499.701L628.626 500.112C629.968 506.382 628.872 516.928 628.719 523.538C623.611 523.109 618.515 522.551 613.436 521.863L612.095 521.561C610.18 518.193 611.095 505.317 611.054 501.104C616.671 500.473 622.323 500.123 627.959 499.701Z"/><path fill="#955D32" d="M524.207 182.389C531.383 187.135 538.593 191.829 545.836 196.47C549.772 199.023 554.076 201.498 557.684 204.497C546.482 204.411 535.28 204.413 524.078 204.502C524.096 197.134 523.986 189.755 524.207 182.389Z"/><defs><linearGradient id="gradient_3" gradientUnits="userSpaceOnUse" x1="663.55707" y1="209.56479" x2="693.88806" y2="196.50261"><stop offset="0" stop-color="#C05C23"/><stop offset="1" stop-color="#F19B40"/></linearGradient></defs><path fill="url(#gradient_3)" d="M676.31 166.282C679.52 168.573 698.999 206.798 702.3 213.642C702.837 214.754 703.547 216.017 703.851 217.217C704.546 219.969 704.46 227.559 703.529 230.209L702.733 230.184C699.944 227.187 700.968 220.817 699.694 216.9C697.604 210.473 693.705 204.42 690.532 198.451C686.121 189.576 681.899 180.49 676.52 172.149C670.709 180.86 664.621 190.473 660.373 200.02L656.391 196.097C663.432 186.513 669.658 176.165 676.31 166.282Z"/><path fill="#7E3620" d="M331.249 460.993L331.719 457.231C337.151 456.218 344.162 456.748 349.708 457.128C350.534 458.425 350.168 459.587 350.094 461.089C349.773 465.331 350.009 469.736 350.006 473.997L330.772 474.039C330.679 469.742 330.6 465.246 331.249 460.993Z"/><path fill="#DC824C" d="M331.249 460.993L331.719 457.231C337.151 456.218 344.162 456.748 349.708 457.128C350.534 458.425 350.168 459.587 350.094 461.089C343.812 461.11 337.53 461.078 331.249 460.993Z"/><path fill="#7E3620" d="M825.469 457.341C831.843 457.289 838.225 457.163 844.596 457.412C845.07 463.032 845.114 468.714 845.296 474.351C839.106 474.374 832.876 474.544 826.69 474.384C826.532 470.712 826.549 466.923 826.118 463.278C825.716 461.32 825.62 459.33 825.469 457.341Z"/><path fill="#E79B4E" d="M825.469 457.341C831.843 457.289 838.225 457.163 844.596 457.412C844.538 459.033 844.763 461.407 843.956 462.832C838.163 463.58 831.968 463.239 826.118 463.278C825.716 461.32 825.62 459.33 825.469 457.341Z"/><path fill="#904827" d="M182.485 460.538C182.362 459.129 182.327 457.971 182.59 456.561C184.742 455.801 196.867 456.037 199.074 456.721C200.329 458.006 200.046 458.641 200.123 460.392C200.02 464.766 200.009 469.143 200.09 473.518L182.631 473.502L182.485 460.538Z"/><path fill="#E79B4E" d="M182.485 460.538C182.362 459.129 182.327 457.971 182.59 456.561C184.742 455.801 196.867 456.037 199.074 456.721C200.329 458.006 200.046 458.641 200.123 460.392L182.485 460.538Z"/><path fill="#7E3620" d="M677.122 457.244C682.375 456.636 687.872 456.946 693.16 456.943C692.705 462.668 692.831 468.344 692.936 474.079L676.836 474.069L677.003 461.943L677.122 457.244Z"/><path fill="#DC824C" d="M677.122 457.244L677.761 457.307C682.317 457.721 688.081 456.368 692.318 457.806C692.52 458.989 692.522 459.854 692.347 461.041C688.753 462.915 681.123 461.976 677.003 461.943L677.122 457.244Z"/><path fill="#904827" d="M341.889 567.232L347.912 567.301C347.891 572.153 347.844 576.981 347.57 581.827C344.384 581.937 341.179 581.903 337.99 581.934L331.67 581.926C331.612 577.059 331.489 572.186 331.732 567.323L341.889 567.232Z"/><path fill="#020201" d="M338.122 569.509C339.828 569.492 341.545 569.206 342.918 570.391C343.816 571.165 344.115 572.358 343.998 573.488C343.843 574.997 343.01 575.936 341.857 576.788C340.426 576.875 338.746 577.088 337.544 576.117C336.934 575.625 336.443 574.981 336.319 574.204C336.006 572.237 336.976 570.96 338.122 569.509Z"/><defs><linearGradient id="gradient_4" gradientUnits="userSpaceOnUse" x1="193.88788" y1="581.0528" x2="192.61618" y2="566.99207"><stop offset="0" stop-color="#A25533"/><stop offset="1" stop-color="#C37142"/></linearGradient></defs><path fill="url(#gradient_4)" d="M185.555 566.98L201.064 566.947C201.396 571.86 201.574 576.782 201.598 581.706L185.929 581.679L185.555 566.98Z"/><path fill="#020201" d="M190.381 569.566C191.8 569.481 193.622 569.268 194.941 569.933C196.249 570.594 196.364 571.091 196.693 572.381C196.271 574.034 195.579 574.738 194.417 575.893C193.189 575.982 192.182 576.01 191.04 575.464C189.804 574.873 189.211 573.82 188.843 572.56C189.155 570.933 189.236 570.761 190.381 569.566Z"/><path fill="#7E3620" d="M824.883 572.443C824.919 571.027 825.031 569.647 825.183 568.239C829.076 567.06 834.614 567.215 838.509 568.334C839.654 569.419 839.593 570.025 839.919 571.537C839.985 575.069 839.932 578.538 839.715 582.065C834.648 582.158 829.57 582.315 824.503 582.333C824.555 579.067 824.436 575.675 824.883 572.443Z"/><path fill="#DC824C" d="M824.883 572.443C824.919 571.027 825.031 569.647 825.183 568.239C829.076 567.06 834.614 567.215 838.509 568.334C839.654 569.419 839.593 570.025 839.919 571.537C836.93 573.538 828.667 572.494 824.883 572.443Z"/><path fill="#BB7F4D" d="M509.794 216.889C509.809 215.03 509.501 212.634 510.536 211.03C512.044 210.205 513.739 210.487 515.401 210.548C515.439 218.409 515.813 226.426 515.408 234.268C515.539 237.706 516.522 245.735 514.496 248.353C513.084 248.558 511.87 248.457 510.469 248.304C508.642 245.915 509.749 221.257 509.794 216.889Z"/><path fill="#904827" d="M509.794 216.889C509.809 215.03 509.501 212.634 510.536 211.03C512.044 210.205 513.739 210.487 515.401 210.548C515.439 218.409 515.813 226.426 515.408 234.268C514.249 228.879 516.481 222.99 514.273 217.94C512.709 216.803 511.696 217.002 509.794 216.889Z"/><path fill="#7E3620" d="M680.986 191.392C685.045 197.954 693.405 211.833 695.598 218.847C696.116 220.503 696.124 222.388 696.187 224.108C690.816 221.535 685.804 217.334 680.99 213.839C680.892 206.357 680.891 198.874 680.986 191.392Z"/><path fill="#652E19" d="M678.799 566.693C683.133 566.803 687.468 566.883 691.803 566.935C692.263 570.023 691.992 573.072 692.063 576.172C692.285 578.304 692.545 580.433 692.614 582.577L684.265 582.545C682.578 582.623 680.567 582.967 679.063 582.115C678.059 580.605 678.471 578.157 678.517 576.397C678.471 573.16 678.304 569.902 678.799 566.693Z"/><path fill="#DC824C" d="M678.799 566.693C683.133 566.803 687.468 566.883 691.803 566.935C691.707 568.518 691.816 570.29 691.028 571.703C687.366 572.448 683.163 572.581 679.467 572.091C678.704 570.575 678.887 568.388 678.799 566.693Z"/><path fill="#7E3620" d="M692.063 576.172C692.285 578.304 692.545 580.433 692.614 582.577L684.265 582.545C684.191 580.688 684.307 578.816 684.369 576.959C686.76 576.174 689.558 576.299 692.063 576.172Z"/><path fill="#7E3620" d="M678.517 576.397C679.941 576.15 681.525 576.624 682.897 577.049C683.935 577.37 683.423 577.424 684.369 576.959C684.307 578.816 684.191 580.688 684.265 582.545C682.578 582.623 680.567 582.967 679.063 582.115C678.059 580.605 678.471 578.157 678.517 576.397Z"/><path fill="#7F7F83" d="M937.395 632.86C942.224 633.116 947.08 633.496 951.915 633.549C951.61 637.998 951.85 643.609 950.739 647.882C950.656 647.66 950.612 647.419 950.49 647.215C949.641 645.801 945.12 646.122 943.601 646.08C941.401 645.918 939.169 645.929 936.963 645.869L937.395 632.86Z"/><path fill="#BB7F4D" d="M510.194 174.938C511.3 175.276 512.968 175.946 513.839 176.707C514.101 176.936 514.656 177.55 514.806 177.941C516.055 181.198 515.024 200.143 515.029 204.709C513.547 204.745 511.217 205.052 510.019 204.081C509.226 197.222 509.231 181.721 510.194 174.938Z"/><path fill="#7E3620" d="M670.739 191.36C670.787 191.631 670.849 191.899 670.884 192.172C671.236 194.898 671.851 203.954 670.197 205.942L668.848 205.204C667.997 204.465 667.396 203.794 666.759 202.864C666.116 198.877 668.957 194.803 670.739 191.36Z"/></svg>