<?xml version="1.0" encoding="utf-8" ?><svg xmlns="http://www.w3.org/2000/svg" xmlns:xlink="http://www.w3.org/1999/xlink" width="1024" height="1024" viewBox="0 0 1024 1024"><path fill="#DEDEDE" transform="scale(2 2)" d="M274.599 232.195C274.247 218.414 277.695 190.868 267.764 181.496C258.52 172.771 242.773 173.802 234.306 183.112C228.62 189.365 229.257 198.669 229.275 206.524L229.301 223.789C229.306 226.823 229.469 229.924 229.288 232.95L228.02 232.95L228.008 232.759L227.284 232.88C225.743 232.136 223.913 232.069 222.404 232.95C221.677 230.198 220.364 227.636 219.244 225.032L190.1 156.522C187.293 150.086 181.853 140.459 180.623 133.883C178.352 121.732 184.962 108.036 197.447 104.642C203.46 103.008 210.2 103.458 216.388 103.457L358.157 103.491C369.204 103.49 380.465 103.022 391.482 103.791C407.449 104.905 411.611 118.082 417.002 130.957L429.028 159.949C434.74 173.405 440.74 186.729 446.202 200.29C451.468 213.362 456.666 223.408 448.335 237.253C437.585 255.119 418.139 249.437 401.808 249.926C398.289 243.35 389.311 234.556 382.001 232.95L382.01 210.951C382.016 204.868 382.594 198.176 380.996 192.26C374.917 169.755 342.053 169.882 335.795 192.19C334.089 198.273 334.78 205.402 334.782 211.687L334.795 232.95C326.334 236.54 319.132 243.923 314.192 251.516C309.691 251.594 300.214 250.048 296.753 250.731C290.421 242.25 285.319 236.103 274.599 232.195Z"/><path fill="#FDC901" transform="scale(2 2)" d="M73.3732 212.461C64.3062 213.511 55.3746 209.608 49.9848 202.242C44.595 194.876 43.5783 185.182 47.3223 176.857C51.0664 168.533 58.9939 162.862 68.0813 162.007C81.924 160.705 94.2352 170.789 95.6855 184.617C97.1359 198.444 87.1848 210.863 73.3732 212.461Z"/><path fill="#BF1604" transform="scale(2 2)" d="M122.551 232.95L122.539 210.604C122.539 204.55 121.928 197.815 123.398 191.927C129.129 168.979 162.254 170.143 168.05 192.567C169.461 198.023 168.771 204.503 168.768 210.144L168.75 232.95C168.144 245.19 169.248 257.571 168.75 269.821L137.785 269.826C132.742 269.829 127.581 270.093 122.551 269.821L122.551 232.95Z"/><path fill="#F16907" transform="scale(2 2)" d="M334.795 232.95L334.782 211.687C334.78 205.402 334.089 198.273 335.795 192.19C342.053 169.882 374.917 169.755 380.996 192.26C382.594 198.176 382.016 204.868 382.01 210.951L382.001 232.95L382.001 269.821L334.795 269.821L334.795 232.95Z"/><path fill="#FEFEFE" transform="scale(2 2)" d="M229.288 232.95C229.469 229.924 229.306 226.823 229.301 223.789L229.275 206.524C229.257 198.669 228.62 189.365 234.306 183.112C242.773 173.802 258.52 172.771 267.764 181.496C277.695 190.868 274.247 218.414 274.599 232.195C274.297 240.155 273.506 262.224 274.599 269.821C269.922 269.375 264.959 269.812 260.243 269.818L229.288 269.821L229.303 245.119C229.307 241.103 229.528 236.95 229.288 232.95Z"/><path fill="#FEFEFE" transform="scale(2 2)" d="M222.404 232.95C223.913 232.069 225.743 232.136 227.284 232.88L228.008 232.759L228.02 232.95L223.758 235.426C223.196 234.67 222.816 233.794 222.404 232.95Z"/><path fill="#FDC901" transform="scale(2 2)" d="M274.599 232.195C285.319 236.103 290.421 242.25 296.753 250.731C312.404 275.193 300.798 309.714 274.599 322.091C271.692 322.759 268.85 324.397 265.921 325.199C253.345 328.64 241.875 327.088 230.001 322.091C194.605 302.267 190.492 259.179 223.758 235.426L228.02 232.95L229.288 232.95C229.528 236.95 229.307 241.103 229.303 245.119L229.288 269.821L260.243 269.818C264.959 269.812 269.922 269.375 274.599 269.821C273.506 262.224 274.297 240.155 274.599 232.195Z"/><path fill="#FDC901" transform="scale(2 2)" d="M382.001 232.95C389.311 234.556 398.289 243.35 401.808 249.926C419.09 274.08 407.222 308.56 381.245 321.517C366.438 327.892 350.155 328.991 335.347 321.517C334.231 320.253 329.796 317.726 328.049 316.432C307.919 301.528 302.583 273.404 314.192 251.516C319.132 243.923 326.334 236.54 334.795 232.95L334.795 269.821L382.001 269.821L382.001 232.95Z"/><path fill="#F16907" transform="scale(2 2)" d="M122.551 321.517C112.323 314.928 105.278 308.992 100.041 297.639C89.365 274.496 98.7476 243.726 122.551 232.95L122.551 269.821C127.581 270.093 132.742 269.829 137.785 269.826L168.75 269.821C169.248 257.571 168.144 245.19 168.75 232.95C170.213 233.183 171.494 234.061 172.749 234.811C190.901 245.654 199.387 265.598 196.051 286.482C193.859 300.206 182.024 316.898 168.75 322.091C150.752 328.033 141.658 329.595 122.551 321.517C122.574 324.52 123.013 328.112 122.551 331.044C122.392 327.898 122.542 324.672 122.551 321.517Z"/><path fill="#BF1604" transform="scale(2 2)" d="M122.551 321.517C141.658 329.595 150.752 328.033 168.75 322.091L168.757 358.12C168.758 364.659 169.443 373.894 168.02 380.094C162.731 403.135 129.291 403.3 123.479 380.513C121.784 373.866 122.535 365.893 122.54 359.043L122.551 331.044C123.013 328.112 122.574 324.52 122.551 321.517Z"/><path fill="#BF1604" transform="scale(2 2)" d="M335.347 321.517C350.155 328.991 366.438 327.892 381.245 321.517C380.907 325.847 381.23 330.443 381.235 334.8L381.256 362.462C381.258 368.293 381.716 374.603 380.284 380.291C374.71 402.433 341.755 403.993 336.212 381.05C334.628 374.495 335.34 364.42 335.339 357.486L335.347 321.517Z"/><path fill="#BF1604" transform="scale(2 2)" d="M230.001 322.091C241.875 327.088 253.345 328.64 265.921 325.199C268.85 324.397 271.692 322.759 274.599 322.091L274.598 363.422C274.609 373.463 276.79 383.746 269.155 391.638C260.468 400.619 245.525 399.597 236.985 390.951C227.957 381.811 229.986 369.485 230.006 357.76L230.001 322.091Z"/><path fill="#FDC901" transform="scale(2 2)" d="M444.529 409.058C431.04 410.408 419.01 400.57 417.655 387.081C416.301 373.593 426.135 361.559 439.623 360.2C453.117 358.841 465.157 368.68 466.513 382.175C467.868 395.67 458.024 407.707 444.529 409.058Z"/></svg>