<?xml version="1.0" encoding="utf-8" ?><svg xmlns="http://www.w3.org/2000/svg" xmlns:xlink="http://www.w3.org/1999/xlink" width="1024" height="1024" viewBox="0 0 1024 1024"><path transform="scale(2 2)" d="M145.321 281.414C131.543 287.977 121.156 284.873 107.712 280.606C94.7084 276.479 81.6005 273.41 68.0679 271.599C58.2568 270.286 50.6561 271.717 41.9324 265.653C34.7645 260.671 29.5061 252.895 28.0327 244.257C26.2326 233.703 28.3279 228.722 34.9882 221.547C49.2499 206.183 54.8256 180.375 55.5789 159.586C56.2465 141.163 56.8703 127.143 79.6861 123.254C91.6743 121.499 98.4726 130.832 107.682 136.267C121.059 144.161 137.751 148.225 153.249 147.138C161.925 146.529 169.773 143.748 178.453 146.471C193.604 151.223 202.782 167.452 197.862 182.829C196.235 187.916 194.002 192.841 192.017 197.799L173.757 244.331C166.847 261.924 163.043 272.208 145.321 281.414ZM88.2642 134.068C84.5852 131.76 80.8664 132.047 77.209 134.068C81.259 139.687 85.7964 144.541 89.402 150.559C99.5459 177.533 93.268 204.457 75.2365 226.128C74.0096 227.603 65.6662 235.597 65.3775 236.55C57.2833 241.407 51.8952 243.852 42.4967 245.466C63.1888 231.317 79.4816 209.998 84.1183 184.957C86.7391 170.803 82.479 148.534 75.2754 135.565C64.1189 138.159 65.3844 147.124 65.3124 155.994C65.1423 176.95 58.7613 209.153 44.362 225.502C38.8105 231.805 35.0677 234.042 37.646 244.048C39.1804 250.003 43.2324 254.345 48.0787 257.873C66.8278 274.053 97.3502 230.323 103.245 215.952C111.461 195.922 111.111 175.777 102.691 155.908C99.849 149.2 95.5069 136.988 88.2642 134.068ZM109.912 148.271C111.648 152.96 113.781 157.372 115.222 162.191C127.295 202.591 108.874 238.952 77.209 263.655C93.4411 264.578 120.708 276.979 131.822 275.495C136.729 274.839 140.706 272.361 145.321 270.906C156.71 261.116 157.587 259.509 162.852 245.781L168.85 230.429C172.187 222.012 189.148 182.709 189.679 175.311C190.426 164.893 180.642 155.208 170.508 154.75C166.005 154.546 161.257 156.221 156.722 156.596C140.376 157.947 124.827 155.075 109.912 148.271Z"/><path transform="scale(2 2)" d="M382.312 292.438C352.031 297.909 342.088 280.277 329.793 257.639L311.171 223.117C308.289 217.783 304.121 212.958 301.652 207.52C291.728 185.659 303.287 160.201 323.542 149.303C329.019 146.356 335.138 144.473 340.974 142.367C355.441 137.145 382.353 127.262 397.715 125.648C415.906 123.791 432.512 135.303 436.274 153.427C437.443 159.062 437.843 164.803 439.144 170.431C443.811 190.626 456.131 214.972 474.155 226.309C484.662 232.918 485.95 248.447 479.738 257.963C472.039 269.754 458.857 270.204 446.276 272.307C431.448 274.785 417.317 278.316 403.525 284.358C396.601 287.392 389.767 290.898 382.312 292.438ZM343.59 180.534C349.422 162.714 358.754 154.338 372.816 142.154L351.611 148.915C343.304 151.615 332.087 154.836 324.855 159.702C311.838 168.459 304.297 184.997 309.133 200.398C310.622 205.138 317.354 214.35 320.353 219.725L339.877 255.314C345.124 264.874 348.757 274.783 358.991 280.057C369.519 285.483 381.08 284.367 391.065 278.553C395.26 277.539 401.436 274.124 405.84 272.455C419.04 267.452 432.025 264.098 446.067 262.564C413.858 257.619 341.872 230.829 342.742 189.884C342.809 186.741 343.38 183.664 343.59 180.534ZM397.715 135.565C394.889 136.848 392.113 139.885 389.599 141.817C372.101 155.264 343.013 176.337 354.833 202.44C364.604 224.018 409.68 244.261 434.121 249.709C443.169 251.894 457.313 255.287 466.513 256.451C473.101 253.283 474.236 242.992 471.563 237.683C470.122 234.819 466.436 233.401 463.904 231.616C444.718 218.085 430.673 186.019 427.375 163.713C424.698 145.609 418.298 134.336 397.715 135.565Z"/><path fill="#FECA04" transform="scale(2 2)" d="M88.2642 134.068C95.5069 136.988 99.849 149.2 102.691 155.908C111.111 175.777 111.461 195.922 103.245 215.952C97.3502 230.323 66.8278 274.053 48.0787 257.873C50.3207 255.881 64.6723 239.098 65.3775 236.55C65.6662 235.597 74.0096 227.603 75.2365 226.128C93.268 204.457 99.5459 177.533 89.402 150.559C89.803 147.521 88.0023 139.184 88.2642 134.068Z"/><path fill="#FECA04" transform="scale(2 2)" d="M434.121 249.709C409.68 244.261 364.604 224.018 354.833 202.44C343.013 176.337 372.101 155.264 389.599 141.817C392.113 139.885 394.889 136.848 397.715 135.565C418.298 134.336 424.698 145.609 427.375 163.713C430.673 186.019 444.718 218.085 463.904 231.616C466.436 233.401 470.122 234.819 471.563 237.683C474.236 242.992 473.101 253.283 466.513 256.451C457.313 255.287 443.169 251.894 434.121 249.709ZM417.687 152.657C412.349 156.203 406.634 169.721 414.062 173.853C419.234 171.413 420.722 160.832 421.175 155.876C420.363 154.465 419.513 152.735 417.687 152.657ZM425.012 176.509C418.443 179.969 414.996 194.854 421.175 198.444C427.906 198.354 427.711 183.857 427.428 179.253C426.737 178.238 426.038 177.223 425.012 176.509ZM435.049 198.444C427.437 203.19 428.927 218.145 435.049 221.134C441.565 221.996 438.858 199.1 435.049 198.444ZM451.407 223.826C445.467 225.459 447.702 238.606 453.028 241.442C457.818 238.776 458.238 224.375 451.407 223.826Z"/><path fill="#FECA04" transform="scale(2 2)" d="M77.209 263.655C108.874 238.952 127.295 202.591 115.222 162.191C113.781 157.372 111.648 152.96 109.912 148.271C124.827 155.075 140.376 157.947 156.722 156.596C161.257 156.221 166.005 154.546 170.508 154.75C180.642 155.208 190.426 164.893 189.679 175.311C189.148 182.709 172.187 222.012 168.85 230.429L162.852 245.781C157.587 259.509 156.71 261.116 145.321 270.906C140.706 272.361 136.729 274.839 131.822 275.495C120.708 276.979 93.4411 264.578 77.209 263.655ZM177.914 163.509C172.384 165.753 168.096 169.514 166.759 175.409C167.608 176.596 168.371 178.171 170.043 177.757C173.432 175.599 180.142 171.286 181.098 167.035C181.591 164.844 179.942 163.372 177.914 163.509ZM178.927 186.043C171.622 187.861 160.103 201.129 169.137 200.661C172.876 199.081 184.195 192.488 181.707 187.002C181.182 185.845 179.993 186.058 178.927 186.043ZM167.514 212.283C153.314 217.772 152.48 230.278 158.12 226.961C162.066 224.715 170.908 220.787 172.135 215.969C173.06 212.338 170.393 212.14 167.514 212.283ZM155.771 236.55C151.256 237.817 143.124 241.812 140.713 245.991C139.486 248.117 139.22 251.672 142.308 251.757C149.298 249.983 164.719 237.329 155.771 236.55ZM138.734 260.3C126.139 263.102 122.224 275.322 129.356 273.572C133.449 271.576 144.223 267.186 141.855 260.961C140.872 260.105 139.982 260.246 138.734 260.3Z"/><path fill="#FEFEFE" transform="scale(2 2)" d="M414.062 173.853C406.634 169.721 412.349 156.203 417.687 152.657C419.513 152.735 420.363 154.465 421.175 155.876C420.722 160.832 419.234 171.413 414.062 173.853Z"/><path fill="#FEFEFE" transform="scale(2 2)" d="M166.759 175.409C168.096 169.514 172.384 165.753 177.914 163.509C179.942 163.372 181.591 164.844 181.098 167.035C180.142 171.286 173.432 175.599 170.043 177.757C168.371 178.171 167.608 176.596 166.759 175.409Z"/><path fill="#FEFEFE" transform="scale(2 2)" d="M421.175 198.444C414.996 194.854 418.443 179.969 425.012 176.509C426.038 177.223 426.737 178.238 427.428 179.253C427.711 183.857 427.906 198.354 421.175 198.444Z"/><path fill="#FECA04" transform="scale(2 2)" d="M391.065 278.553C389.685 278.038 387.865 278.584 386.403 278.615C371.844 278.916 361.291 273.741 354.053 261.152C345.137 245.643 330.002 197.286 343.59 180.534C343.38 183.664 342.809 186.741 342.742 189.884C341.872 230.829 413.858 257.619 446.067 262.564C432.025 264.098 419.04 267.452 405.84 272.455C401.436 274.124 395.26 277.539 391.065 278.553Z"/><path fill="#FEFEFE" transform="scale(2 2)" d="M169.137 200.661C160.103 201.129 171.622 187.861 178.927 186.043C179.993 186.058 181.182 185.845 181.707 187.002C184.195 192.488 172.876 199.081 169.137 200.661Z"/><path fill="#FEFEFE" transform="scale(2 2)" d="M435.049 221.134C428.927 218.145 427.437 203.19 435.049 198.444C438.858 199.1 441.565 221.996 435.049 221.134Z"/><path fill="#FEFEFE" transform="scale(2 2)" d="M158.12 226.961C152.48 230.278 153.314 217.772 167.514 212.283C170.393 212.14 173.06 212.338 172.135 215.969C170.908 220.787 162.066 224.715 158.12 226.961Z"/><path fill="#FEFEFE" transform="scale(2 2)" d="M453.028 241.442C447.702 238.606 445.467 225.459 451.407 223.826C458.238 224.375 457.818 238.776 453.028 241.442Z"/><path fill="#FEFEFE" transform="scale(2 2)" d="M142.308 251.757C139.22 251.672 139.486 248.117 140.713 245.991C143.124 241.812 151.256 237.817 155.771 236.55C164.719 237.329 149.298 249.983 142.308 251.757Z"/><path transform="scale(2 2)" d="M281.431 374.807C263.026 367.806 239.49 370.5 221.38 377.215C215.507 379.392 209.754 383.08 203.589 384.18C182.218 387.992 164.124 366.848 167.884 346.198C169.208 338.926 172.167 331.641 174.052 324.441C177.51 311.238 188.321 265.734 195.328 255.955C202.892 245.396 213.51 240.843 225.954 238.743C251.891 237.611 294.659 244.472 311.37 264.265C318.586 272.813 321.485 283.977 324.867 294.411L334.183 323.888C336.523 331.373 340.218 340.346 341.919 347.791C345.401 363.026 333.151 381.252 317.806 384.375C302.74 387.442 293.403 375.487 281.431 374.807ZM226.802 248.247C200.725 252.798 199.527 268.343 193.691 289.449L184.189 323.846C182.19 331.336 175.98 348.619 177.218 355.237C179.37 366.739 188.06 374.67 199.855 374.807C198.83 366.885 198.212 359.71 198.255 351.687C200.64 321.924 212.892 293.782 236.017 274.108C247.653 264.208 258.563 259.372 272.692 253.959C262.567 250.355 237.49 247.237 226.802 248.247ZM289.098 259.536C259.178 266.98 238.427 278.529 222.153 305.516C210.513 324.818 204.616 349.666 209.059 372.03C212.601 370.401 216.174 368.911 219.776 367.424C222.425 366.547 225.064 365.701 227.758 364.971C227.168 314.839 257.953 282.628 305.027 271.537C301.805 267.531 294.355 260.803 289.098 259.536ZM310.41 281.414C272.303 280.999 233.779 324.302 237.542 362.631C249.072 361.029 261.211 360.193 272.692 362.631C281.269 363.72 290.052 366.504 297.992 369.911C306.74 373.664 313.09 378.981 322.222 371.832C336.058 361 333.649 353.385 329.368 339.677L321.71 315.879C318.28 305.141 314.694 291.67 310.543 281.356L310.41 281.414Z"/><path fill="#FECA04" transform="scale(2 2)" d="M209.059 372.03C204.616 349.666 210.513 324.818 222.153 305.516C238.427 278.529 259.178 266.98 289.098 259.536C294.355 260.803 301.805 267.531 305.027 271.537C257.953 282.628 227.168 314.839 227.758 364.971C225.064 365.701 222.425 366.547 219.776 367.424C216.174 368.911 212.601 370.401 209.059 372.03Z"/><path fill="#FEFEFE" transform="scale(2 2)" d="M129.356 273.572C122.224 275.322 126.139 263.102 138.734 260.3C139.982 260.246 140.872 260.105 141.855 260.961C144.223 267.186 133.449 271.576 129.356 273.572Z"/><path fill="#FECA04" transform="scale(2 2)" d="M237.542 362.631C233.779 324.302 272.303 280.999 310.41 281.414L310.543 281.356C314.694 291.67 318.28 305.141 321.71 315.879L329.368 339.677C333.649 353.385 336.058 361 322.222 371.832C313.09 378.981 306.74 373.664 297.992 369.911C290.052 366.504 281.269 363.72 272.692 362.631C261.211 360.193 249.072 361.029 237.542 362.631ZM310.41 289.675C306.266 292.36 297.522 303.135 305.027 306.961C312.479 302.758 315.616 289.306 310.41 289.675ZM318.886 313.65C315.327 315.898 305.501 327.85 313.051 330.581C319.083 328.843 325.132 314.947 318.886 313.65ZM325.076 338.708C320.849 341.447 310.072 354.186 318.886 356.207C323.297 355.271 331.001 341.452 325.076 338.708Z"/><path fill="#FEFEFE" transform="scale(2 2)" d="M305.027 306.961C297.522 303.135 306.266 292.36 310.41 289.675C315.616 289.306 312.479 302.758 305.027 306.961Z"/><path fill="#FEFEFE" transform="scale(2 2)" d="M313.051 330.581C305.501 327.85 315.327 315.898 318.886 313.65C325.132 314.947 319.083 328.843 313.051 330.581Z"/><path fill="#FEFEFE" transform="scale(2 2)" d="M318.886 356.207C310.072 354.186 320.849 341.447 325.076 338.708C331.001 341.452 323.297 355.271 318.886 356.207Z"/></svg>