<?xml version="1.0" encoding="utf-8" ?><svg xmlns="http://www.w3.org/2000/svg" xmlns:xlink="http://www.w3.org/1999/xlink" width="1024" height="1024" viewBox="0 0 1024 1024"><path transform="scale(2 2)" d="M357.554 146.746C311.427 145.689 279.263 157.266 268.455 204.771C267.025 205.336 265.564 205.74 264.084 206.151C257.389 203.984 258.843 198.352 258.024 192.592C253.194 158.607 237.518 151.593 212.105 134.556C207.684 131.592 198.409 128.175 202.033 121.466C208.844 116.401 240.371 124.705 259.038 111.9C271.852 103.11 282.521 85.007 290.288 71.6145C298.924 56.7233 300.806 56.9721 304.476 74.5251C307.12 87.1747 309.927 109.454 319.309 119.142C330.533 130.733 351.432 131.276 360.157 137.782C363.698 140.423 362.103 146.624 357.554 146.746ZM291.397 90.6619C280.609 103.612 289.75 124.837 302.644 132.235C305.991 135.666 313.015 139.365 317.589 139.755C319.655 139.931 328.029 139.604 329.371 137.665C328.924 136.587 322.543 133.975 321.129 133.168C302.482 122.531 300.569 101.763 295.425 83.0661C293.845 85.4416 292.143 87.8774 291.397 90.6619ZM278.221 116.663C277.61 114.375 277.247 112.047 276.684 109.753C261.033 125.63 245.129 130.644 223.288 129.867C224.916 130.991 226.527 132.171 228.285 133.083C243.07 144.397 253.384 147.92 261.565 166.336C263.538 170.778 264.597 175.521 266.518 179.966C267.277 177.543 268.347 175.462 269.556 173.243C277.217 161.411 286.185 152.367 299.049 146.232C300.267 145.796 301.455 145.225 302.644 144.71C289.933 138.349 283.285 129.168 278.221 116.663Z"/><path fill="#FECA04" transform="scale(2 2)" d="M302.644 132.235C289.75 124.837 280.609 103.612 291.397 90.6619C292.088 102.23 294.215 112.863 298.56 123.731C299.724 126.644 301.548 129.323 302.644 132.235Z"/><path fill="#FECA04" transform="scale(2 2)" d="M228.285 133.083C230.289 133.004 236.349 135.367 238.885 136.018C255.24 140.215 273.802 134.469 278.221 116.663C283.285 129.168 289.933 138.349 302.644 144.71C301.455 145.225 300.267 145.796 299.049 146.232C296.412 145.045 285.342 147.411 282.425 148.525C276.077 150.951 267.629 169.004 269.556 173.243C268.347 175.462 267.277 177.543 266.518 179.966C264.597 175.521 263.538 170.778 261.565 166.336C253.384 147.92 243.07 144.397 228.285 133.083Z"/><path transform="scale(2 2)" d="M216.045 257.365C180.35 271.736 160.559 296.135 157.413 335.296C157.169 338.332 156.711 342.157 157.604 345.104C157.819 350.509 158.828 355.901 159.463 361.268C153.877 375.363 146.389 356.749 144.032 352.441C121.209 310.743 109.08 308.026 63.5421 302.488C57.992 301.813 32.6181 299.487 30.7286 297.467C23.7591 290.015 43.8103 282.143 48.5388 279.443C61.9938 271.762 79.3962 262.494 91.8989 253.513C129.573 226.447 124.976 150.229 130.752 145.537C138.216 139.474 145.111 159.761 148.134 165.158C160.12 186.563 171.262 212.996 196.331 221.586C201.74 223.439 207.849 223.787 213.504 224.542L242.143 228.195C245.638 228.628 255.053 228.02 257.19 231.486C260.488 236.837 250.647 239.854 247.414 241.527C237.534 246.641 225.371 251.782 216.045 257.365ZM134.872 185.567C134.322 189.006 133.08 193.7 133.259 197.134C133.652 204.657 149.246 228.548 156.603 233.013C165.701 244.584 193.056 253.295 207.118 249.838C210.898 248.909 214.979 246.232 218.467 244.468L232.786 237.375C220.189 235.064 205.383 235.379 193.384 231.455C165.85 222.451 150.361 192.335 137.766 167.699C136.103 173.293 135.547 179.766 134.872 185.567ZM130.406 217.174L128.756 213.289C110.467 268.201 89.5438 262.99 50.6923 290.886C52.2236 290.864 53.7687 290.793 55.2978 290.886C89.3674 296.16 116.429 294.384 138.338 324.248C140.912 327.758 143.248 332.11 146.094 335.311L147.568 337.083C146.172 310.524 157.658 289.757 174.576 270.817C176.881 269.523 184.817 262.324 187.88 259.98C166.522 255.476 152.246 246.915 138.854 229.522C135.809 225.567 133.697 220.947 130.406 217.174Z"/><path fill="#FECA04" transform="scale(2 2)" d="M268.455 204.771C279.263 157.266 311.427 145.689 357.554 146.746C353.918 148.673 350.418 148.505 346.418 149.075C318.161 153.101 294.262 160.575 279.724 187.361C276.973 192.429 274.44 200.505 271.568 204.771L268.455 204.771Z"/><path transform="scale(2 2)" d="M283.008 212.38C280.625 218.8 268.93 219.902 274.991 203.088C284.692 176.181 308.679 157.352 337.929 157.047C341.677 156.674 350.198 155.328 352.306 159.674C356.418 168.154 343.42 166.884 339.504 166.962C309.051 167.575 292.452 186.107 283.008 212.38Z"/><path fill="#FECA04" transform="scale(2 2)" d="M156.603 233.013C149.246 228.548 133.652 204.657 133.259 197.134C133.08 193.7 134.322 189.006 134.872 185.567C134.961 188.422 149.544 219.155 151.576 222.906C153.288 226.065 155.831 229.481 156.603 233.013Z"/><path transform="scale(2 2)" d="M391.705 346.497C380.836 354.039 371.16 380.042 368.946 392.283C368.129 396.807 366.154 410.149 368.063 413.751C368.181 419.884 361.045 422.094 357.989 416.736C348.55 400.186 346.047 376.245 328.686 361.936C318.119 353.226 280.664 343.519 266.41 339.321C262.08 338.046 254.545 336.265 250.705 334.424C247.373 332.826 245.387 328.233 249.014 325.621C252.412 323.174 259.206 320.902 263.25 319.04L300.414 301.629C308.987 297.551 318.191 293.675 325.041 286.901C342.613 269.523 350.58 237.078 357.652 214.027C358.699 210.612 361.301 198.215 364.059 196.369C372.245 190.89 375.632 209.57 377.525 214.922C385.1 236.335 393.412 263.57 413.144 277.208C432.035 290.265 476.628 288.803 481.725 296.984C481.801 298.102 481.749 299.226 481.725 300.346C478.707 305.544 470.816 306.433 465.589 308.492L439.408 318.78C424.968 324.578 401.461 333.613 391.705 346.497ZM367.405 218.937C364.881 222.916 363.886 228.508 362.493 233.013C357.171 251.975 371.711 285.448 386.804 295.086C395.415 304.88 411.776 310.037 424.273 313.163C433.779 310.499 445.977 304.616 455.9 301.155C440.887 297.52 423.893 296.051 410.307 288.148C390.997 276.915 380.629 254.223 373.426 233.859C371.673 228.901 370.618 223.211 367.405 218.937ZM356.228 268.475C355.466 265.958 354.529 263.392 354.001 260.817L353.763 261.136C351.175 264.644 349.575 268.926 347.601 272.792C333.543 300.325 320.071 303.796 294.05 316.394C287.307 319.658 275.473 326.057 268.455 328.029C270.157 328.846 271.809 329.631 273.653 330.068C277.525 331.786 281.947 332.859 285.991 334.145C329.203 347.888 336.755 344.657 358.821 390.298C362.658 360.239 382.633 334.89 408.708 320.358C387.665 309.848 373.878 303.281 361.606 280.416C359.524 276.537 358.121 272.424 356.228 268.475Z"/><path fill="#FECA04" transform="scale(2 2)" d="M130.406 217.174C133.697 220.947 135.809 225.567 138.854 229.522C152.246 246.915 166.522 255.476 187.88 259.98C184.817 262.324 176.881 269.523 174.576 270.817C170.131 270.402 157.045 276.15 153.662 278.972C144.227 286.84 141.919 318.012 144.631 329.674C145.054 331.49 146.338 333.505 146.094 335.311C143.248 332.11 140.912 327.758 138.338 324.248C116.429 294.384 89.3674 296.16 55.2978 290.886C55.3528 290.88 55.4085 290.88 55.4627 290.869C75.7725 286.767 108.288 284.257 126.443 276.101C148.847 266.035 132.477 235.638 130.43 217.408L130.406 217.174Z"/><path fill="#FECA04" transform="scale(2 2)" d="M362.493 233.013C368.006 239.207 374.333 270.54 380.845 282.756C382.881 286.576 385.915 290.87 386.804 295.086C371.711 285.448 357.171 251.975 362.493 233.013Z"/><path fill="#FECA04" transform="scale(2 2)" d="M157.604 345.104C156.711 342.157 157.169 338.332 157.413 335.296C160.559 296.135 180.35 271.736 216.045 257.365C214.21 260.104 205.277 264.725 202.064 266.933C182.975 280.051 166.659 303.166 161.206 325.513C159.797 331.29 159.24 340.138 157.604 345.104Z"/><path transform="scale(2 2)" d="M184.486 388.764C167.373 350.736 184.708 305.877 215.258 280.117C225.616 271.383 240.81 263.325 254.679 264.524C257.789 263.02 263.143 264.227 266.518 264.524C220.871 278.012 191.073 311.542 185.476 359.679C184.579 367.391 184.456 375.124 184.486 382.879C184.402 384.842 184.448 386.8 184.486 388.764Z"/><path fill="#FECA04" transform="scale(2 2)" d="M356.228 268.475C358.121 272.424 359.524 276.537 361.606 280.416C373.878 303.281 387.665 309.848 408.708 320.358C382.633 334.89 362.658 360.239 358.821 390.298C336.755 344.657 329.203 347.888 285.991 334.145C281.947 332.859 277.525 331.786 273.653 330.068C291.483 325.419 323.213 331.514 337.285 322.033C352.923 311.496 352.921 285.863 356.228 268.475Z"/><path transform="scale(2 2)" d="M384.506 436.443C384.681 440.499 384.553 444.615 384.635 448.682L384.213 448.76C379.881 444.759 377.656 428.882 377.552 422.953C376.858 383.501 420.491 329.84 461.5 329.228C464.97 328.891 493.697 330.293 475.988 333.296C423.056 342.275 388.327 382.835 384.506 436.443Z"/><path fill="#FECA04" transform="scale(2 2)" d="M368.063 413.751C366.154 410.149 368.129 396.807 368.946 392.283C371.16 380.042 380.836 354.039 391.705 346.497C390.893 348.532 389.565 350.237 388.377 352.058C379.948 364.981 373.686 379.957 370.751 395.1C369.552 401.29 369.185 407.601 368.063 413.751Z"/></svg>