<?xml version="1.0" encoding="utf-8" ?><svg xmlns="http://www.w3.org/2000/svg" xmlns:xlink="http://www.w3.org/1999/xlink" width="1024" height="1024" viewBox="0 0 1024 1024"><path fill="#E33913" transform="scale(2 2)" d="M174.285 81.068C172.928 81.1226 171.598 81.122 170.242 81.068C169.993 96.1138 170.242 111.207 170.24 126.258L170.235 145.261C170.233 148.4 170.084 151.609 170.242 154.741C155.891 154.75 141.512 154.512 127.165 154.741C112.647 153.565 112.801 141.283 114.235 129.651C117.858 100.281 144.538 77.3433 174.285 81.068Z"/><path fill="#B71108" transform="scale(2 2)" d="M170.242 81.068C171.598 81.122 172.928 81.1226 174.285 81.068C196.559 81.2668 215.366 96.7025 223.537 116.738C226.009 124.555 229.34 140.539 225.854 147.394C223.926 151.187 220.195 152.921 216.603 154.741L170.242 154.741C170.084 151.609 170.233 148.4 170.235 145.261L170.24 126.258C170.242 111.207 169.993 96.1138 170.242 81.068Z"/><path fill="#E97C07" transform="scale(2 2)" d="M315.845 116.738C322.149 115.767 331.241 116.741 337.95 116.747L364.649 116.727C369.681 116.712 375.069 116.307 380.056 117C404.204 120.354 404.357 157.402 380.168 160.558C372.678 161.535 364.562 160.981 357.001 160.979L315.845 160.973C316.528 160.313 318.033 160.203 318.952 159.876C337.353 153.322 340.251 127.305 321.33 118.864C319.644 118.112 317.79 117.655 316.147 116.883L315.845 116.738Z"/><path fill="#DEDEDE" transform="scale(2 2)" d="M223.537 116.738C226.054 116.258 229.199 116.71 231.791 116.719L296.637 116.756C302.963 116.765 309.56 116.253 315.845 116.738L316.147 116.883C317.79 117.655 319.644 118.112 321.33 118.864C340.251 127.305 337.353 153.322 318.952 159.876C318.033 160.203 316.528 160.313 315.845 160.973C314.652 161.548 287.235 160.97 284.068 160.969L213.368 160.973C214.176 158.534 215.028 156.777 216.603 154.741C220.195 152.921 223.926 151.187 225.854 147.394C229.34 140.539 226.009 124.555 223.537 116.738Z"/><path fill="#FDC901" transform="scale(2 2)" d="M127.165 154.741C141.512 154.512 155.891 154.75 170.242 154.741L216.603 154.741C215.028 156.777 214.176 158.534 213.368 160.973C212.667 162.495 211.61 163.938 210.625 165.287C194.336 187.598 165.229 192.515 142.854 176.069C136.66 171.517 128.358 162.564 127.165 154.741Z"/><path fill="#FDC901" transform="scale(2 2)" d="M218.39 232.404L314.787 232.404L314.986 232.517C317.247 233.769 319.723 234.637 322.047 235.772C341.902 245.474 336.331 269.332 314.952 277.127L314.768 277.403L314.787 277.487C311.649 277.819 308.198 277.516 305.019 277.507L213.368 277.487L210.512 277.487C208.592 277.054 205.935 277.437 203.943 277.451L128.893 277.487C127.202 276.694 124.946 276.572 123.125 276.075C109.733 272.42 113.382 254.371 116.111 244.553C129.286 197.164 193.529 187.722 218.39 232.404Z"/><path fill="#E97C07" transform="scale(2 2)" d="M314.787 232.404L355.215 232.405C367.336 232.403 382.199 229.843 391.632 239.291C406.051 253.731 395.725 277.971 374.257 277.631C354.441 277.318 334.606 277.484 314.787 277.487L314.768 277.403L314.952 277.127C336.331 269.332 341.902 245.474 322.047 235.772C319.723 234.637 317.247 233.769 314.986 232.517L314.787 232.404Z"/><path fill="#FC982D" transform="scale(2 2)" d="M128.893 277.487L203.943 277.451C205.935 277.437 208.592 277.054 210.512 277.487L170.242 277.487C170.146 286.721 170.629 296.021 170.242 305.238C151.058 304.803 138.055 293.913 128.893 277.487Z"/><path fill="#E97C07" transform="scale(2 2)" d="M170.242 277.487L210.512 277.487L213.368 277.487C204.839 294.502 189.57 305.822 170.242 305.238C170.629 296.021 170.146 286.721 170.242 277.487Z"/><path fill="#E33913" transform="scale(2 2)" d="M127.165 395.064C118.116 394.49 113.694 390.811 113.69 381.455C113.674 348.851 136.784 321.231 170.242 321.242C170.034 338.316 170.256 355.412 170.249 372.489L170.199 386.506C170.167 389.277 169.841 392.323 170.242 395.064L127.165 395.064Z"/><path fill="#B71108" transform="scale(2 2)" d="M170.242 321.242C191.39 321.168 208.775 331.921 219.646 349.503C224.996 360.072 231.547 382.695 221.976 392.602C220.362 393.753 218.468 394.427 216.603 395.064L170.242 395.064C169.841 392.323 170.167 389.277 170.199 386.506L170.249 372.489C170.256 355.412 170.034 338.316 170.242 321.242Z"/><path fill="#DEDEDE" transform="scale(2 2)" d="M219.646 349.503C221.995 347.656 249.634 348.871 254.192 348.908L301.371 348.903C305.147 348.915 309.024 348.533 312.784 348.784C314.796 349.8 317.038 350.055 319.125 350.852C338.545 358.26 337.883 386.2 320.171 392.537C318.993 392.958 315.02 393.764 318.339 394.029C315.434 394.414 312.212 394.065 309.264 394.052L290.377 394.02C281.907 394.017 226.615 395.281 222.244 393.49L221.976 392.602C231.547 382.695 224.996 360.072 219.646 349.503Z"/><path fill="#E97C07" transform="scale(2 2)" d="M312.784 348.784L357.306 348.77C363.919 348.769 375.887 348.1 382.045 349.446C402.644 353.947 404.238 388.535 381.361 393.544C377.566 394.375 373.535 394.096 369.675 394.07L331.452 394.036C327.08 394.044 322.707 394.301 318.339 394.029C315.02 393.764 318.993 392.958 320.171 392.537C337.883 386.2 338.545 358.26 319.125 350.852C317.038 350.055 314.796 349.8 312.784 348.784Z"/><path fill="#FDC901" transform="scale(2 2)" d="M127.165 395.064L170.242 395.064C170.695 396.432 170.446 423.794 170.242 426.865C150.608 426.637 133.219 413.895 127.165 395.064Z"/><path fill="#FDC901" transform="scale(2 2)" d="M170.242 395.064L216.603 395.064C209.676 415.13 191.168 427.469 170.242 426.865C170.446 423.794 170.695 396.432 170.242 395.064Z"/></svg>