<?xml version="1.0" encoding="utf-8" ?><svg xmlns="http://www.w3.org/2000/svg" xmlns:xlink="http://www.w3.org/1999/xlink" width="1024" height="1024" viewBox="0 0 1024 1024"><path transform="scale(2 2)" d="M245.34 308.246C231.043 316.23 213.719 315.782 198.527 310.671C195.481 309.646 187.651 307.61 189.153 302.936C190.515 298.696 196.235 299.331 199.732 298.386C215.477 294.133 225.385 276.59 228.138 261.595C234.595 226.421 219.935 175.384 207.335 140.86C200.185 121.269 199.825 104.353 224.478 100.748C259.778 96.8266 307.723 125.453 313.42 162.132C320.487 207.633 285.13 286.311 245.34 308.246ZM294.421 141.673C283.191 126.216 261.666 114.317 243.181 111.357C235.793 110.174 223.599 108.291 217.124 112.845C206.391 120.392 215.024 134.986 218.455 144.14C230.28 175.686 236.923 207.122 238.504 240.7C242.292 240.138 245.678 238.934 249.345 238.114C270.043 229.432 291.299 207.056 288.71 183.115C286.515 162.817 264.034 143.804 245.827 136.468C243.033 135.343 232.692 132.732 238.406 127.029C241.385 124.056 246.188 126.567 249.339 127.883C274.279 138.304 298.954 160.84 298.565 189.81C296.366 217.218 266.936 248.859 238.504 249.797C238.388 271.775 229.404 293.845 209.224 304.176C254.837 311.037 281.193 262.56 294.144 225.875C296.247 219.918 299.425 213.029 299.32 206.591C306.489 190.365 307.115 155.293 294.421 141.673Z"/><path transform="scale(2 2)" d="M125.487 305.242C114.272 312.326 69.7201 305.128 78.4897 294.595C81.0484 291.521 86.1034 293.1 89.5756 292.645C107.863 290.251 116.065 271.996 116.253 255.439C116.572 227.381 99.2625 183.577 85.4102 157.824C82.2679 151.983 78.131 145.857 77.3416 139.146C75.7409 125.539 85.9662 116.34 98.7764 115.004C130.181 113.807 176.074 126.355 185.403 161.044C194.287 194.081 183.149 237.607 166.312 266.535C157.86 281.056 142.285 300.813 125.487 305.242ZM166.198 146.455C151.628 132.177 131.552 126.463 111.739 124.862C104.736 124.296 95.7201 122.653 90.1826 128.115C82.1509 136.038 89.342 145.507 93.4919 153.259C107.833 180.048 118.235 209.503 124.398 239.202C127.939 237.914 131.35 236.339 134.804 234.843C149.188 227.091 163.516 209.383 164.9 193.115C166.69 172.064 135.796 149.322 115.945 145.891C111.585 145.137 104.769 145.841 105.813 139.139C106.344 135.736 110.172 134.942 113.043 135.49C134.927 139.674 154.853 151.679 167.519 170.242C176.47 183.36 174.956 190.983 172.4 204.799C165.782 226.2 146.383 241.897 125.487 248.403C125.601 274.172 122.112 284.66 101.588 298.99C117.305 298.746 125.228 298.851 138.195 286.84C162.67 264.17 177.436 226.132 178.711 193.172C180.378 177.919 177.98 156.982 166.198 146.455Z"/><path fill="#FECA04" transform="scale(2 2)" d="M294.421 141.673C307.115 155.293 306.489 190.365 299.32 206.591C298.297 204.615 300.365 190.933 298.868 188.334L298.565 189.81C298.954 160.84 274.279 138.304 249.339 127.883C246.188 126.567 241.385 124.056 238.406 127.029C232.692 132.732 243.033 135.343 245.827 136.468C264.034 143.804 286.515 162.817 288.71 183.115C291.299 207.056 270.043 229.432 249.345 238.114C244.463 203.145 241.557 182.023 228.971 147.436C226.818 141.518 223.777 135.274 225.829 128.877C231.904 109.944 273.755 126.525 284.074 133.312C286.268 134.755 292.662 141.459 294.421 141.673Z"/><path fill="#FECA04" transform="scale(2 2)" d="M166.198 146.455C177.98 156.982 180.378 177.919 178.711 193.172L178.606 193.369C176.621 197.184 175.594 201.706 172.4 204.799C174.956 190.983 176.47 183.36 167.519 170.242C154.853 151.679 134.927 139.674 113.043 135.49C110.172 134.942 106.344 135.736 105.813 139.139C104.769 145.841 111.585 145.137 115.945 145.891C135.796 149.322 166.69 172.064 164.9 193.115C163.516 209.383 149.188 227.091 134.804 234.843C132.518 228.716 131.207 222.037 129.207 215.783C124.418 200.812 118.757 185.984 111.903 171.833L104.553 156.968C100.883 149.712 93.9194 138.062 107.264 134.663C118.4 131.826 144.646 138.265 155.818 142.162C158.903 143.238 162.985 146.552 166.198 146.455Z"/><path transform="scale(2 2)" d="M294.421 389.625C291.511 387.195 285.927 381.874 288.799 377.662C293.841 370.269 302.088 383.302 305.814 385.79C322.49 396.924 346.551 401.219 358.992 381.952C383.395 344.162 328.452 278.206 333.517 234.004C336.649 206.673 371.086 149.445 398.449 143.75C422.142 142.991 426.224 166.826 429.602 185.397C437.352 228.005 435.363 275.729 422.561 317.251C409.767 358.746 374.094 424.923 320.635 408.098C312.497 405.537 298.43 397.374 294.421 389.625ZM409.987 157.084C395.403 145.138 380.192 166.392 371.399 177.228C355.504 196.816 340.21 222.181 342.982 248.366C344.869 266.186 352.938 282.163 359.546 298.561C361.826 304.218 363.563 310.518 366.326 315.935C369.709 314.616 372.708 313.026 375.743 311.039C403.757 291.773 406.39 228.36 403.579 198.183C402.814 189.961 401.003 181.979 399.883 173.823C401.697 169.156 407.141 168.483 409.027 173.702C411.006 179.178 411.545 187.623 412.196 193.527C416.489 232.45 414.104 308.822 368.516 324.922C376.098 348.386 378.565 377.013 359.333 395.25C378.666 386.525 395.541 358.755 403.946 340.495C425.842 292.922 429.453 234.592 419.609 183.305C417.982 174.827 416.978 163.094 409.987 157.084Z"/><path fill="#FECA04" transform="scale(2 2)" d="M375.743 311.039C374.432 308.53 373.424 305.782 372.34 303.164L366.642 289.112C351.095 249.923 345.536 232.899 370.444 196.378C378.085 185.174 395.88 159.764 409.987 157.084C416.978 163.094 417.982 174.827 419.609 183.305C429.453 234.592 425.842 292.922 403.946 340.495C395.541 358.755 378.666 386.525 359.333 395.25C378.565 377.013 376.098 348.386 368.516 324.922C414.104 308.822 416.489 232.45 412.196 193.527C411.545 187.623 411.006 179.178 409.027 173.702C407.141 168.483 401.697 169.156 399.883 173.823C401.003 181.979 402.814 189.961 403.579 198.183C406.39 228.36 403.757 291.773 375.743 311.039Z"/></svg>