<?xml version="1.0" encoding="utf-8" ?><svg xmlns="http://www.w3.org/2000/svg" xmlns:xlink="http://www.w3.org/1999/xlink" width="1024" height="1024" viewBox="0 0 1024 1024"><defs><linearGradient id="gradient_0" gradientUnits="userSpaceOnUse" x1="284.88934" y1="158.10129" x2="448.9899" y2="150.53114"><stop offset="0" stop-color="#8105F2"/><stop offset="1" stop-color="#E303F6"/></linearGradient></defs><path fill="url(#gradient_0)" transform="scale(2 2)" d="M306.856 114.979C305.373 118.597 303.195 121.981 301.617 125.586C279.065 177.098 322.967 233.575 377.773 225.461C416.948 219.66 443.734 181.66 437.809 142.863C431.365 100.667 383.776 70.7397 343.656 86.5463C339.69 88.109 329.972 93.0941 329.451 84.2838C328.892 74.8254 357.7 71.6855 364.151 71.4947C390.314 68.0873 421.027 87.0028 435.313 107.827C460.458 144.479 451.222 196.987 414.41 222.173C350.689 265.769 272.022 209.834 286.117 137.148C287.334 130.869 293.545 111.299 298.868 107.938C303.59 104.957 308.133 109.938 306.936 114.675L306.856 114.979Z"/><path fill="#D400F1" transform="scale(2 2)" d="M316.953 101.898C308.696 100.656 309.547 92.1338 316.953 90.3102C325.113 91.2127 323.173 99.501 316.953 101.898Z"/><path fill="#D400F1" transform="scale(2 2)" d="M219.381 109.484L237.309 109.462C242.537 109.437 250.68 107.765 250.059 115.888C249.544 122.615 239.063 120.788 234.71 120.77C229.308 120.748 223.865 120.908 218.468 120.751C220.171 119.448 228.393 120.715 231.451 119.555C233.259 116.965 232.672 113.169 232.627 110.122C228.852 110.072 222.781 110.845 219.381 109.484Z"/><path fill="#2400EE" transform="scale(2 2)" d="M116.836 120.751C102.656 121.563 83.084 121.238 68.8611 120.747C60.8068 120.469 59.3241 112.245 66.2736 109.484L99.4742 109.482C107.382 109.481 119.27 106.318 121.554 114.979C120.866 117.958 119.95 119.696 116.836 120.751Z"/><path fill="#8010ED" transform="scale(2 2)" d="M218.468 120.751L186.507 120.761C182.414 120.76 170.639 122.052 167.502 119.522C164.182 116.845 165.142 110.206 169.66 109.595C174.007 109.007 180.694 109.471 185.324 109.472L219.381 109.484C222.781 110.845 228.852 110.072 232.627 110.122C232.672 113.169 233.259 116.965 231.451 119.555C228.393 120.715 220.171 119.448 218.468 120.751Z"/><path fill="#D400F1" transform="scale(2 2)" d="M368.542 197.64C360.974 198.135 358.553 189.042 363.882 186.936C366.04 186.084 368.582 186.343 370.867 186.186C384.742 185.229 397.462 174.622 399.445 160.536C400.187 155.263 398.687 150.387 404.272 147.513C408.105 146.919 410.955 149.5 411.344 153.2C413.926 177.767 391.662 195.697 368.542 197.64Z"/><path fill="#8010ED" transform="scale(2 2)" d="M187.714 218.699C181.379 219.035 174.827 218.701 168.468 218.7L89.8407 218.704C82.8659 218.709 61.6941 222.073 61.7234 212.667C61.7445 205.892 70.7554 207.343 75.1003 207.381L141.401 207.377C147.457 207.583 204.236 206.556 206.295 208.761C209.527 212.224 207.557 215.855 204.536 218.699C201.25 218.318 190.241 217.403 187.714 218.699Z"/><path fill="#D400F1" transform="scale(2 2)" d="M141.401 207.377L196.764 207.366C199.159 207.358 201.672 207.178 204.05 207.47C210.46 208.255 210.337 217.535 204.238 218.648C201.381 219.17 191.282 218.754 187.714 218.699C190.241 217.403 201.25 218.318 204.536 218.699C207.557 215.855 209.527 212.224 206.295 208.761C204.236 206.556 147.457 207.583 141.401 207.377Z"/><path fill="#8010ED" transform="scale(2 2)" d="M106.41 284.171L79.6992 284.178C75.6641 284.184 66.7107 285.583 63.5217 282.689C59.9867 279.482 61.5008 273.457 66.2327 272.736C70.5413 272.08 75.4395 272.514 79.8221 272.515L106.41 272.532L134.037 272.53C139.144 272.521 150.958 270.135 150.213 278.646C150.007 281.002 148.825 282.66 147.091 284.171C142.986 284.594 138.466 284.187 134.318 284.183L106.41 284.171Z"/><path fill="#8010ED" transform="scale(2 2)" d="M194.649 278.701C196.618 269.269 212.373 272.508 220.646 272.532L253.655 272.527C258.085 272.527 272.137 271.089 275.556 274.131C277.67 276.012 277.907 280.291 275.915 282.34C273.332 284.997 268.72 284.23 265.407 284.218L252.005 284.171L218.493 284.185C210.722 284.189 197.123 287.209 194.649 278.701Z"/><defs><linearGradient id="gradient_1" gradientUnits="userSpaceOnUse" x1="446.12006" y1="335.03531" x2="304.81189" y2="374.54987"><stop offset="0" stop-color="#D600F5"/><stop offset="1" stop-color="#850AF4"/></linearGradient></defs><path fill="url(#gradient_1)" transform="scale(2 2)" d="M296.753 313.279C315.423 283.446 350.895 268.654 385.229 276.385C419.563 284.116 445.272 312.684 449.353 347.64C453.434 382.596 434.998 416.318 403.368 431.75C371.739 447.182 333.813 440.96 308.773 416.23C312.099 416.889 316.601 425.085 323.018 425.305C323.607 424.296 320.234 418.737 323.208 420.963L323.358 420.095C323.051 418.997 321.566 418.699 321.312 417.848C320.915 416.518 321.996 414.936 321.364 413.547C320.834 412.38 314.351 406.719 312.724 404.552L312.844 403.953C320.739 412.457 328.935 419.098 339.76 423.584C376.246 438.705 418.668 420.994 433.715 384.418C448.554 348.345 430.084 305.36 394.054 290.772C354.902 274.921 314.909 294.78 299.414 333.292C299.068 330.078 304.512 318.593 300.052 310.097L299.578 310.078C298.634 310.731 297.939 312.389 297.237 313.345L296.753 313.279Z"/><path fill="#8010ED" transform="scale(2 2)" d="M296.753 313.279L297.237 313.345C297.939 312.389 298.634 310.731 299.578 310.078L300.052 310.097C304.512 318.593 299.068 330.078 299.414 333.292C293.041 356.022 294.855 374.668 306.659 395.592C308.38 398.642 310.972 401.04 312.844 403.953L312.724 404.552C314.351 406.719 320.834 412.38 321.364 413.547C321.996 414.936 320.915 416.518 321.312 417.848C321.566 418.699 323.051 418.997 323.358 420.095L323.208 420.963C320.234 418.737 323.607 424.296 323.018 425.305C316.601 425.085 312.099 416.889 308.773 416.23C281.16 388.959 276.165 346.179 296.753 313.279Z"/><path fill="#D400F1" transform="scale(2 2)" d="M368.542 398.921C364.177 398.577 359.778 395.812 362.26 390.679C365.514 383.949 394.918 391.507 397.982 362.955C398.537 357.777 396.991 353.053 403.026 351.075C407.985 350.986 409.831 353.344 409.854 358.145C409.966 381.89 392.005 398.899 368.542 398.921Z"/><path fill="#8010ED" transform="scale(2 2)" d="M202.98 403.079C199.003 403.537 194.629 403.085 190.597 403.082L72.6143 403.072C70.6419 403.054 67.4071 403.385 65.6375 402.685C59.4784 400.246 61.1164 393.482 66.2736 391.233C72.4213 390.928 78.7514 391.226 84.9155 391.226L173.811 391.225C179.043 391.225 201.172 390.175 205.046 391.986C210.233 394.412 207.945 401.637 202.98 403.079Z"/></svg>