<?xml version="1.0" encoding="UTF-8" standalone="no"?>
<svg
   width="1365"
   height="768"
   viewBox="0 0 1365 768"
   version="1.1"
   id="svg3"
   sodipodi:docname="Skynet_Terminator_logo.svg"
   inkscape:version="1.4.2 (f4327f4, 2025-05-13)"
   xmlns:inkscape="http://www.inkscape.org/namespaces/inkscape"
   xmlns:sodipodi="http://sodipodi.sourceforge.net/DTD/sodipodi-0.dtd"
   xmlns="http://www.w3.org/2000/svg"
   xmlns:svg="http://www.w3.org/2000/svg">
  <defs
     id="defs3" />
  <sodipodi:namedview
     id="namedview3"
     pagecolor="#ffffff"
     bordercolor="#000000"
     borderopacity="0.25"
     inkscape:showpageshadow="2"
     inkscape:pageopacity="0.0"
     inkscape:pagecheckerboard="0"
     inkscape:deskcolor="#d1d1d1"
     showgrid="false"
     inkscape:zoom="0.66"
     inkscape:cx="487.12121"
     inkscape:cy="532.57576"
     inkscape:window-width="1920"
     inkscape:window-height="991"
     inkscape:window-x="-9"
     inkscape:window-y="-9"
     inkscape:window-maximized="1"
     inkscape:current-layer="layer5"
     showguides="true">
    <sodipodi:guide
       position="878.01724,425.32759"
       orientation="0,-1"
       id="guide30"
       inkscape:locked="false" />
    <sodipodi:guide
       position="712.5,559.37931"
       orientation="0,-1"
       id="guide31"
       inkscape:locked="false" />
    <sodipodi:guide
       position="692.67241,588.25862"
       orientation="0,-1"
       id="guide32"
       inkscape:locked="false" />
  </sodipodi:namedview>
  <g
     id="g3"
     sodipodi:insensitive="true"
     style="display:inline">
    <path
       d="M 0,0 H 1365 V 768 H 0 Z m 259,573 v 24.1 l 58.75,-0.3 c 58.31,-0.31 58.79,-0.33 64.34,-2.56 10.17,-4.12 13.15,-9.38 13.72,-24.25 0.64,-16.92 -2.17,-23.42 -12.31,-28.49 l -6,-3 -47.83,-0.5 c -45.89,-0.48 -47.89,-0.58 -49.25,-2.44 -0.78,-1.07 -1.42,-3.43 -1.42,-5.25 V 527 h 111 v -24.06 l -59.75,0.28 -59.75,0.28 -6,3 c -5.07,2.53 -6.39,3.78 -8.5,8 -2.23,4.46 -2.5,6.23 -2.5,16.5 0,16.02 2.76,22.54 11.41,26.95 7,3.58 14.17,4.05 61.27,4.05 H 372 v 3.5 c 0,2.17 -0.76,4.26 -2,5.5 -1.95,1.95 -3.33,2 -56.5,2 z m 602.5,22.97 c 2.2,0.44 27.29,0.86 55.75,0.92 L 969,597 V 572 H 865.11 l -1.55,-2.22 c -0.86,-1.22 -1.56,-3.47 -1.56,-5 V 562 h 107 v -23.98 l -53.25,-0.26 -53.25,-0.26 -0.31,-3.2 c -0.17,-1.77 0.18,-4.13 0.79,-5.25 1.08,-2.03 1.72,-2.05 53.56,-2.05 H 969 v -24.54 l -53.25,0.34 c -29.29,0.19 -54.83,0.76 -56.77,1.25 -8.96,2.3 -17.57,10.99 -20.07,20.28 -0.63,2.33 -0.91,13.4 -0.72,28.01 0.31,24.04 0.32,24.19 3.01,29.28 4.16,7.88 10.48,12.34 20.3,14.35 z M 582,572 v 25.12 l 40.25,-0.31 c 39.56,-0.3 40.34,-0.35 45.25,-2.61 6.53,-3.01 10.83,-7.27 13.68,-13.58 2.27,-5.01 2.33,-5.91 2.63,-41.9 l 0.3,-36.78 -12.3,0.28 -12.31,0.28 -0.28,13.93 c -0.16,8.19 -0.73,14.48 -1.37,15.25 -0.87,1.05 -9.02,1.32 -39.9,1.32 -33.95,0 -39,-0.2 -40.38,-1.57 -1.28,-1.28 -1.57,-4.17 -1.57,-15.5 V 502 h -24.16 l 0.33,18.25 c 0.3,16.43 0.55,18.65 2.49,22.25 2.94,5.44 7.85,9.94 13.84,12.7 4.93,2.27 5.56,2.3 47.75,2.6 l 42.75,0.3 v 5.75 c 0,3.16 -0.54,6.29 -1.2,6.95 -0.89,0.89 -10.82,1.2 -38.5,1.2 z m 215.99,25.11 c 3.65,1.17 9.86,0.17 15.01,-2.43 4.96,-2.49 10.26,-9.37 11.97,-15.5 0.61,-2.2 1.02,-18.5 1.02,-40.43 L 826,502 h -23.97 l -0.27,34.44 -0.26,34.44 -33,-31.94 c -37.6,-36.39 -40.82,-38.76 -51.07,-37.56 -6.49,0.76 -11.85,3.27 -15.57,7.28 -1.18,1.28 -2.13,2.27 -2.88,3.4 -2.98,4.46 -2.95,10.93 -3,45.1 l -0.07,39.34 11.53,0.28 11.53,0.28 0.53,-70.56 28.5,28.05 c 34.89,34.34 41.23,39.74 49.99,42.56 z M 408,503 v 94 h 26 l 0.06,-19.75 c 0.05,-15.75 0.3,-19.35 1.25,-17.75 3.24,5.45 11.02,10.98 33.35,23.75 L 492.71,597 h 23.84 c 14.33,0 23.47,-0.36 22.9,-0.91 -0.82,-0.78 -16.04,-9.66 -68.3,-39.85 -8.55,-4.94 -10.97,-6.76 -9.81,-7.41 0.85,-0.47 18.76,-10.98 39.82,-23.35 L 539.44,503 h -48.23 l -23.71,14.17 c -22.86,13.66 -28.13,17.45 -31.73,22.83 -1.58,2.38 -1.67,1.54 -1.72,-17.25 L 434,503 Z m 627,24 v 70.06 l 23.5,-0.56 0.53,-69.5 H 1113 V 503 H 980 v 24 z M 702,406.68 V 420 h 167.94 c 92.37,0 168.18,-0.38 168.47,-0.85 0.28,-0.46 -1.6,-3.21 -4.19,-6.09 l -4.72,-5.24 z m 0,16.32 v 12 h 176.54 c 170.14,0 176.5,-0.07 175.56,-1.81 -0.53,-1 -3.01,-3.7 -5.51,-6 l -4.55,-4.19 z m -377.39,-3.83 c 0.28,0.46 76.2,0.72 168.7,0.58 l 168.19,-0.25 0.3,-5.72 c 0.28,-5.32 0.13,-5.76 -2.1,-6.32 -1.33,-0.33 -74.91,-0.46 -163.52,-0.28 l -161.11,0.32 -5.49,5.42 c -3.02,2.98 -5.26,5.8 -4.97,6.25 z M 702,453 v 11 h 189.94 c 142.66,0 190.12,-0.29 190.66,-1.16 0.42,-0.68 -1.17,-2.93 -3.89,-5.5 l -4.59,-4.34 z m -422,10.21 c 0,0.44 85.84,0.68 190.75,0.54 L 661.5,463.5 662.1,453 H 289.57 l -4.79,4.71 c -2.63,2.59 -4.78,5.07 -4.78,5.5 z m 29,-28.99 c 0,0.43 79.31,0.67 176.25,0.53 L 661.5,434.5 v -11 l -341.93,-0.51 -5.29,5.22 c -2.9,2.87 -5.28,5.58 -5.28,6.01 z M 702,438 v 11 h 183.54 c 177.76,0 183.5,-0.06 182.55,-1.84 -0.54,-1.01 -2.81,-3.48 -5.04,-5.5 l -4.06,-3.66 z m -402.84,5.48 -5.66,5.48 184,-0.23 184,-0.23 0.31,-4.4 c 0.21,-2.84 -0.15,-4.7 -1,-5.24 -0.72,-0.45 -81.11,-0.84 -178.65,-0.84 L 304.82,438 Z M 702,378 v 12 h 154 c 84.7,0 154,-0.32 154,-0.72 0,-0.39 -2.35,-3.09 -5.22,-6 L 999.57,378 Z m 0.67,-17.67 c 0.86,0.87 266.27,0.7 272.83,-0.17 l 5,-0.66 -5.4,-5.75 -5.39,-5.75 H 702 v 5.83 c 0,3.21 0.3,6.14 0.67,6.5 z M 354,389.22 c 0,0.43 69.19,0.67 153.75,0.53 L 661.5,389.5 v -11 l -296.93,-0.51 -5.29,5.22 c -2.9,2.87 -5.28,5.58 -5.28,6.01 z m 34.59,-28.96 c 3.25,0.2 65.99,0.34 139.41,0.3 L 661.5,360.5 662.1,348 H 394.44 l -11.77,11.89 z M 702,394 v 10 h 161 c 88.55,0 161,-0.24 161,-0.52 0,-0.29 -1.86,-2.54 -4.13,-5 l -4.12,-4.48 z m -358.5,5 -4.93,5.01 161.46,-0.26 161.47,-0.25 0.3,-4.75 0.31,-4.75 H 348.42 Z M 409.69,332.83 398.52,344 H 662 v -3.05 c 0,-5.03 -3.56,-7.64 -11.61,-8.5 -3.79,-0.41 -59.5,-0.49 -123.79,-0.18 z M 702,340.67 V 344 h 263.48 l -5.57,-5.57 -5.56,-5.56 -123.59,-0.19 -123.59,-0.18 -2.59,2.42 c -1.77,1.67 -2.58,3.47 -2.58,5.75 z m 0,23.33 v 10 h 146 c 80.3,0 146,-0.36 146,-0.79 0,-0.44 -1.93,-2.69 -4.29,-5 L 985.42,364 Z M 566,176.44 c 0,0.31 52.3,0.56 116.22,0.56 H 798.44 L 785.56,164 H 578.11 l -6.05,5.94 c -3.33,3.27 -6.06,6.2 -6.06,6.5 z M 373.5,369 l -4.93,5.01 146.46,-0.26 146.47,-0.25 0.3,-4.75 0.31,-4.75 H 378.42 Z m 51.94,-52 -11.88,12 h 119.22 c 65.57,0 119.22,-0.18 119.22,-0.39 0,-0.22 -2.59,-2.91 -5.75,-5.99 l -5.75,-5.6 -107.53,-0.01 z M 712,328.22 c 0,0.43 53.33,0.78 118.5,0.78 65.17,0 118.5,-0.32 118.5,-0.72 0,-0.39 -2.35,-3.09 -5.22,-6 L 938.57,317 H 722.56 l -5.28,5.22 c -2.9,2.86 -5.28,5.56 -5.28,6 z M 571.14,186.64 576.43,192 h 210.5 l 5,-5.21 c 3.44,-3.6 4.62,-5.45 3.78,-5.97 -1.46,-0.92 -225.84,-1.09 -228.21,-0.18 -1.35,0.51 -0.66,1.65 3.64,6 z m 9.42,9.36 11.88,12 h 179 l 5.28,-5.22 c 2.9,-2.86 5.28,-5.56 5.28,-6 C 782,196.35 736.68,196 681.28,196 Z M 445.5,299 c 0.79,0.27 40.25,0.39 87.71,0.25 47.46,-0.13 86.95,-0.25 87.76,-0.25 0.81,0 -1.43,-2.92 -4.97,-6.5 l -6.44,-6.5 h -153.8 l -5.84,6.25 c -4.1,4.39 -5.42,6.4 -4.42,6.75 z M 743,298.99 c 0.83,0.54 2.1,0.77 2.83,0.5 0.73,-0.27 40.32,-0.49 87.97,-0.49 h 86.64 L 907.56,286 H 753.8 l -6.15,6 c -5.04,4.91 -5.88,6.18 -4.65,6.99 z M 583,159.89 c 0,0.81 27.11,1.11 99,1.11 54.45,0 99,-0.36 99,-0.79 0,-0.44 -2.04,-2.8 -4.54,-5.25 l -4.54,-4.46 -89.96,-0.3 -89.95,-0.3 -4.5,4.44 c -2.48,2.44 -4.51,4.94 -4.51,5.55 z m 145,152.19 c 0,0.55 41.46,0.92 103.21,0.92 h 103.21 l -9.84,-10 h -187.3 l -4.64,4.08 c -2.55,2.25 -4.64,4.5 -4.64,5 z m -289.5,-8.88 -8.78,9.8 h 206.7 l -9.84,-10 z M 596,146.24 c 0,0.42 38.47,0.76 85.5,0.76 47.03,0 85.5,-0.35 85.5,-0.78 0,-0.44 -2.41,-3.17 -5.35,-6.07 l -5.35,-5.29 -74.81,0.07 -74.8,0.07 -5.35,5.24 c -2.94,2.89 -5.34,5.59 -5.34,6 z m 4.69,70.95 4.73,4.81 h 152.47 l 4.3,-4.58 c 2.37,-2.51 4.46,-4.99 4.64,-5.5 0.39,-1.07 -169.11,-1.3 -170.19,-0.23 -0.38,0.38 1.44,2.86 4.05,5.5 z m 14.71,15.26 4.9,5.55 h 122.4 l 5.65,-5.93 c 3.11,-3.25 5.65,-6.18 5.65,-6.5 0,-0.31 -32.44,-0.57 -72.08,-0.57 -45.13,0 -71.96,0.36 -71.75,0.95 0.18,0.52 2.54,3.45 5.23,6.5 z M 612,130.15 c 0,0.47 31.6,0.85 70.22,0.85 h 70.22 L 740.56,119 H 622.88 l -5.44,5.15 c -2.99,2.82 -5.44,5.52 -5.44,6 z m 146.56,151.94 c 0.72,1.17 144.44,1.21 144.44,0.05 0,-0.48 -2.23,-2.95 -4.96,-5.5 L 893.09,272 H 768.22 l -5.11,4.59 c -2.81,2.53 -4.86,5.01 -4.55,5.5 z M 461,282.21 c 0,0.44 32.4,0.79 72,0.79 39.6,0 72,-0.32 72,-0.72 0,-0.39 -2.12,-2.86 -4.71,-5.5 L 595.58,272 H 470.57 l -4.79,4.71 c -2.63,2.59 -4.78,5.07 -4.78,5.5 z m 310.99,-13.96 c 0,0.41 26.66,0.75 59.23,0.75 h 59.22 l -11.88,-12 -47.53,0.01 -47.53,0.01 -5.76,5.24 c -3.17,2.88 -5.76,5.58 -5.75,5.99 z M 475,267.89 c 0,0.8 16.27,1.11 58,1.11 31.9,0 58,-0.32 58,-0.72 0,-0.39 -2.35,-3.09 -5.22,-6 L 580.57,257 h -95.15 l -5.21,4.89 c -2.86,2.69 -5.21,5.39 -5.21,6 z M 628,114.44 c 0,0.31 24.4,0.56 54.22,0.56 h 54.22 l -11.88,-12 h -86.27 l -5.14,5.44 c -2.83,2.99 -5.15,5.69 -5.15,6 z m 2.52,133.58 4.9,4.98 h 92.99 l 9.45,-10.5 -55.59,-0.26 c -30.57,-0.14 -55.83,-0.02 -56.12,0.27 -0.29,0.3 1.68,2.78 4.37,5.51 z m 9.04,8.98 11.88,12 h 61.12 l 11.88,-12 z m 149.57,-5.68 c -1.28,1.57 1.52,1.68 41.96,1.68 h 43.34 l -10.86,-11 -32.54,0.03 -32.53,0.02 -4,3.8 c -2.2,2.08 -4.62,4.55 -5.37,5.47 z m -298,-0.04 c -1.3,1.62 1.04,1.72 41.25,1.72 23.44,0 42.62,-0.32 42.62,-0.72 0,-0.39 -2.12,-2.86 -4.71,-5.5 L 565.58,242 h -65.25 l -3.92,3.78 c -2.15,2.07 -4.53,4.55 -5.28,5.5 z M 309,635.5 c 0,13.83 0.09,14.5 2,14.5 1.79,0 2,-0.67 2,-6.5 V 637 h 3.4 c 2.63,0 4.09,0.79 6.48,3.51 1.69,1.94 3.78,4.86 4.63,6.5 1.38,2.68 2.03,2.99 6.3,2.99 4.69,0 4.77,-0.05 6.22,-4.25 l 1.47,-4.25 6.1,-0.29 6.09,-0.3 1.74,4.55 c 1.23,3.2 2.3,4.54 3.65,4.54 1.06,0 1.92,-0.22 1.92,-0.5 0,-0.27 -2.52,-6.79 -5.6,-14.5 -4.78,-11.93 -5.93,-14 -7.76,-14 -0.05,0 -0.11,0 -0.16,0 -0.31,0 -0.57,0 -0.81,0.06 -1.43,0.35 -2.33,2.82 -8.72,19.69 -1.72,4.54 -3.44,8.25 -3.82,8.25 -0.39,0 -1.52,-1.39 -2.52,-3.09 -1.01,-1.7 -3.18,-4.63 -4.82,-6.5 -2.74,-3.11 -2.82,-3.41 -0.97,-3.41 2.56,0 6.18,-4.5 6.18,-7.68 0,-1.33 -1.1,-3.52 -2.45,-4.87 -2.25,-2.24 -3.23,-2.45 -11.5,-2.45 H 309 Z M 644.22,99.15 c 1.88,1.2 74.53,1.07 75.27,-0.13 0.33,-0.54 -1.43,-3.01 -3.92,-5.5 L 711.05,89 h -58.14 l -4.99,4.67 c -3.62,3.38 -4.64,4.89 -3.7,5.48 z M 595,621 v 29 h 6.53 C 613.6,650 618,646.13 618,635.5 618,624.59 614.23,621 602.78,621 Z m 220.44,-396 -12.88,13 h 56.88 l -12.88,-13 z m -307.88,9.87 -2.93,3.13 h 27.68 c 15.23,0 27.69,-0.32 27.69,-0.72 0,-0.4 -2.57,-3.32 -5.72,-6.5 L 548.56,225 h -31.25 l -3.41,3.37 c -1.87,1.85 -4.72,4.77 -6.34,6.5 z M 488,621 v 29.21 l 8.59,-0.36 c 7.59,-0.31 8.81,-0.62 10.5,-2.71 2.72,-3.36 2.5,-8.53 -0.46,-10.86 -2.35,-1.85 -2.35,-1.9 -0.5,-4.19 2.53,-3.12 2.35,-5.7 -0.58,-8.64 -2.18,-2.17 -3.33,-2.45 -10,-2.45 z m 172.13,-342.48 4.12,4.48 h 34.64 l 4.3,-4.58 c 2.37,-2.51 4.46,-4.99 4.64,-5.5 0.2,-0.55 -10.23,-0.92 -25.75,-0.92 -17.1,0 -26.08,0.35 -26.08,1.02 0,0.56 1.86,3.04 4.13,5.5 z M 657.64,85.31 c 1.18,1.17 48.36,0.83 48.36,-0.36 0,-0.57 -2.23,-3.27 -4.95,-6 L 696.1,74 h -28.67 l -5.24,5.31 c -2.88,2.92 -4.93,5.62 -4.55,6 z M 659,635.5 c 0,13.83 0.09,14.5 2,14.5 1.79,0 2,-0.67 2,-6.5 V 637 h 3.83 c 4.17,0 5.75,1.32 10.49,8.75 1.7,2.66 3.45,4.25 4.69,4.25 1.1,0 1.99,-0.25 1.99,-0.55 0,-1.31 -7.07,-11.45 -7.99,-11.45 -0.55,0 -1.01,-0.45 -1.01,-1 0,-0.55 0.67,-1 1.5,-1 4.99,0 7.23,-8.53 3.33,-12.69 -1.98,-2.09 -3.05,-2.31 -11.5,-2.31 H 659 Z m -263,0 c 0,13.75 0.1,14.5 1.97,14.5 1.82,0 1.99,-0.82 2.25,-11.23 l 0.28,-11.23 7.22,11.23 c 5.3,8.24 7.77,11.23 9.25,11.23 1.95,0 2.03,-0.6 2.03,-14.5 0,-13.83 -0.09,-14.5 -2,-14.5 -1.88,0 -2,0.67 -2,11.22 v 11.22 l -7.25,-11.22 c -5.7,-8.81 -7.73,-11.21 -9.5,-11.22 -2.23,0 -2.25,0.13 -2.25,14.5 z m -172,0 c 0,13.83 0.09,14.5 2,14.5 1.88,0 2,-0.67 2.01,-11.25 l 0.01,-11.25 7.26,11 c 5.14,7.78 7.92,11.09 9.49,11.32 2.22,0.32 2.23,0.24 2.23,-14.25 0,-13.82 -0.1,-14.57 -1.97,-14.57 -1.82,0 -1.99,0.82 -2.25,11.02 l -0.28,11.03 -7.22,-11.03 c -5.27,-8.04 -7.77,-11.02 -9.25,-11.02 -1.95,0 -2.03,0.59 -2.03,14.5 z m 645,0 c 0,13.75 0.1,14.5 1.97,14.5 1.81,0 1.98,-0.82 2.25,-10.75 l 0.28,-10.75 7,10.77 c 5.45,8.39 7.44,10.71 9,10.5 1.83,-0.25 2.02,-1.12 2.24,-10.27 0.3,-12.67 -0.41,-18.5 -2.27,-18.5 -1.11,0 -1.46,2.38 -1.69,11.24 l -0.28,11.24 -7.26,-11.24 c -5.25,-8.12 -7.81,-11.24 -9.25,-11.24 -1.9,0 -1.99,0.69 -1.99,14.5 z m -357,13.8 c 0,0.38 0.81,0.7 1.79,0.7 1.2,0 2.31,-1.4 3.34,-4.25 l 1.55,-4.25 12.01,-0.59 1.74,4.55 c 1.23,3.2 2.3,4.54 3.65,4.54 1.06,0 1.92,-0.22 1.92,-0.5 0,-0.27 -2.52,-6.79 -5.6,-14.5 -7.55,-18.86 -8.05,-18.87 -15.15,-0.2 -2.89,7.58 -5.25,14.11 -5.25,14.5 z m 118,0 c 0,0.38 0.81,0.7 1.79,0.7 1.2,0 2.31,-1.4 3.34,-4.25 l 1.55,-4.25 12.01,-0.59 1.74,4.55 c 1.23,3.2 2.3,4.54 3.65,4.54 1.06,0 1.92,-0.22 1.92,-0.5 0,-0.27 -2.52,-6.79 -5.6,-14.5 -7.55,-18.86 -8.05,-18.87 -15.15,-0.2 -2.89,7.58 -5.25,14.11 -5.25,14.5 z m 166,0.44 c 0,0.14 0.86,0.26 1.92,0.26 1.35,0 2.42,-1.34 3.65,-4.54 l 1.74,-4.55 12.01,0.59 1.55,4.25 c 1.18,3.26 2.06,4.25 3.76,4.25 2.13,0 1.98,-0.61 -3.59,-14.25 -5.04,-12.33 -6.12,-14.25 -8.05,-14.25 -1.95,0 -2.92,1.8 -7.61,13.99 -2.96,7.7 -5.38,14.11 -5.38,14.25 z m -184.28,-6.2 c -1.66,1.93 -3.55,2.8 -6.87,3.17 -2.53,0.29 -4.85,0.11 -5.16,-0.4 -0.31,-0.51 -0.65,-5.62 -0.75,-11.37 l -0.18,-10.44 5.73,0.03 c 7.56,0.04 9.51,2.2 9.51,10.52 0,4.64 -0.47,6.38 -2.28,8.49 z m 398.58,4.5 c 4.3,2.62 12.13,2.61 16.45,-0.03 3.03,-1.85 3.25,-2.35 3.25,-7.5 V 635 h -6.07 c -5.25,0 -6.03,0.24 -5.74,1.75 0.24,1.28 1.47,1.83 4.57,2.06 3.73,0.27 4.24,0.59 4.24,2.72 0,4.66 -8.24,6.95 -14.09,3.92 -3.54,-1.83 -4.91,-4.92 -4.91,-11.09 0,-3.66 0.56,-5.07 2.92,-7.44 4.15,-4.14 10.09,-4.13 13.89,0.04 1.9,2.07 3.13,2.7 4.12,2.08 1.2,-0.74 1.16,-1.26 -0.26,-3.42 -0.92,-1.4 -2.68,-3.09 -3.91,-3.75 -3.12,-1.67 -11.45,-1.3 -14.4,0.63 -8.52,5.58 -8.56,20.36 -0.06,25.54 z M 922,621 v 29 h 11 c 8.98,0 11,-0.27 11,-1.46 0,-1.15 -1.87,-1.52 -8.75,-1.75 l -8.75,-0.29 -0.3,-4.75 -0.31,-4.75 h 8.06 c 7.38,0 8.05,-0.17 8.05,-2 0,-1.83 -0.67,-2 -8,-2 h -8 v -9 h 8.5 c 6.89,0 8.5,-0.28 8.5,-1.5 0,-1.24 -1.83,-1.5 -10.5,-1.5 z m -497,0 v 29 h 11 c 8.98,0 11,-0.27 11,-1.46 0,-1.15 -1.87,-1.52 -8.75,-1.75 l -8.75,-0.29 -0.3,-4.75 -0.31,-4.75 h 8.06 c 7.38,0 8.05,-0.17 8.05,-2 0,-1.83 -0.67,-2 -8,-2 h -8 v -9 h 8.5 c 6.89,0 8.5,-0.28 8.5,-1.5 0,-1.24 -1.83,-1.5 -10.5,-1.5 z m 611,0 v 29 h 10.39 c 8.2,0 10.51,-0.31 10.96,-1.46 0.46,-1.2 -1,-1.51 -8.15,-1.75 l -8.7,-0.29 -0.61,-9.5 h 8.06 c 7.38,0 8.05,-0.17 8.05,-2 0,-1.83 -0.67,-2 -8,-2 h -8 v -9 h 8.5 c 6.89,0 8.5,-0.28 8.5,-1.5 0,-1.24 -1.83,-1.5 -10.5,-1.5 z m -468,0 v 29 h 10.5 c 8.54,0 10.5,-0.27 10.5,-1.46 0,-1.14 -1.82,-1.52 -8.25,-1.75 l -8.25,-0.29 -0.3,-4.75 -0.31,-4.75 h 8.06 c 7.38,0 8.05,-0.17 8.05,-2 0,-1.83 -0.67,-2 -8,-2 h -8 v -9 h 8.5 c 6.89,0 8.5,-0.28 8.5,-1.5 0,-1.24 -1.83,-1.5 -10.5,-1.5 z m -315,0 v 29.07 l 10.67,-0.29 c 7.24,-0.19 10.8,-0.67 11.07,-1.49 0.29,-0.87 -2.07,-1.29 -8.42,-1.5 l -8.82,-0.29 -0.3,-4.75 -0.31,-4.75 h 8.06 c 7.38,0 8.05,-0.17 8.05,-2 0,-1.83 -0.67,-2 -8,-2 h -8 v -9 h 8.5 c 6.89,0 8.5,-0.28 8.5,-1.5 0,-1.24 -1.83,-1.5 -10.5,-1.5 z m 289.92,26.08 c 2.54,2.54 3.66,2.92 8.58,2.92 4.92,0 6.04,-0.38 8.58,-2.92 5.77,-5.77 2.99,-11.3 -7,-13.91 -3.52,-0.92 -6.86,-2.45 -7.47,-3.42 -3.16,-5.02 7.37,-8.13 11.17,-3.3 2.6,3.3 5.64,3.49 4.67,0.3 -1.05,-3.41 -2.35,-4.63 -6.01,-5.64 -6.85,-1.89 -14.44,1.95 -14.44,7.31 0,3.71 2.3,5.64 9.47,7.97 7.13,2.31 9.3,4.16 8.22,6.98 -1.86,4.84 -12.07,4.43 -14.46,-0.58 -0.83,-1.72 -1.83,-2.5 -2.76,-2.14 -2.28,0.87 -1.75,3.23 1.45,6.43 z M 1063,635.5 c 0,12.08 0.24,14.5 1.47,14.5 1.18,0 1.52,-2.16 1.75,-11.25 l 0.28,-11.25 7.49,11.25 c 10.37,15.58 11.01,15.39 11.01,-3.25 0,-12.08 -0.24,-14.5 -1.47,-14.5 -1.18,0 -1.52,2.16 -1.75,11.25 l -0.28,11.25 -7.36,-11.25 C 1063.78,616.41 1063,616.63 1063,635.5 Z m 58,-14.5 v 29 h 10.5 c 8.54,0 10.5,-0.27 10.5,-1.46 0,-1.14 -1.82,-1.52 -8.25,-1.75 l -8.25,-0.29 -0.3,-4.71 -0.31,-4.7 7.81,-0.3 c 6.14,-0.23 7.8,-0.61 7.8,-1.79 0,-1.18 -1.66,-1.56 -7.75,-1.79 L 1125,632.92 V 624 h 8.5 c 6.89,0 8.5,-0.28 8.5,-1.5 0,-1.24 -1.83,-1.5 -10.5,-1.5 z m -23.82,27.75 c 4.36,2.1 11.36,1.5 14.62,-1.24 3.59,-3.02 4.72,-6.37 2.43,-7.25 -0.93,-0.36 -1.8,-0.04 -2.07,0.75 -0.25,0.76 -1.49,2.41 -2.76,3.68 -3.29,3.29 -7.81,3.05 -11.48,-0.61 -2.47,-2.47 -2.92,-3.72 -2.92,-8.05 0,-5.53 1.95,-10.41 4.54,-11.41 0.9,-0.34 3.15,-0.62 5.01,-0.62 2.59,0 3.9,0.69 5.55,2.92 1.22,1.65 2.75,2.69 3.53,2.39 2.15,-0.82 1.63,-2.69 -1.61,-5.79 -2.33,-2.23 -3.91,-2.85 -7.25,-2.85 -5.41,0.01 -10.3,2.52 -12.25,6.3 -3.42,6.6 -0.72,19.19 4.66,21.78 z m -333.67,-0.92 c 5.27,4.15 15.76,2.25 18.3,-3.3 1.66,-3.65 1.5,-4.53 -0.81,-4.53 -1.1,0 -2,0.53 -2,1.19 0,0.65 -0.98,2.22 -2.17,3.5 -2.9,3.07 -7.85,3.06 -11.45,-0.04 -2.27,-1.95 -2.8,-3.35 -3.16,-8.3 -0.39,-5.33 -0.15,-6.28 2.26,-9.15 3.55,-4.21 9.39,-4.52 12.93,-0.7 1.28,1.38 3.07,2.5 3.98,2.5 1.52,0 1.53,-0.25 0.13,-2.97 -0.85,-1.63 -2.54,-3.5 -3.75,-4.16 -3.13,-1.67 -10.39,-1.35 -13.36,0.59 -8.09,5.31 -8.59,19.32 -0.9,25.37 z m -479.28,1.5 c 0.7,0.28 3.67,0.55 6.6,0.59 4.61,0.07 5.72,-0.31 8.25,-2.84 2.89,-2.9 2.92,-3.04 2.92,-14.5 0,-10.91 -0.12,-11.58 -2,-11.58 -1.88,0 -2,0.67 -2,11 0,9.67 -0.24,11.24 -2,13 -2.53,2.53 -7.08,2.57 -10.14,0.09 -2.18,-1.76 -2.39,-2.76 -2.7,-13 -0.26,-8.72 -0.64,-11.09 -1.75,-11.09 -1.13,0 -1.41,2.2 -1.41,11.05 0,11.1 1.22,16.07 4.23,17.28 z M 723,635.5 c 0,13.83 0.09,14.5 2,14.5 1.79,0 2,-0.67 2,-6.5 V 637 h 7 c 6.33,0 7,-0.19 7,-2 0,-1.81 -0.67,-2 -7,-2 h -7 v -9 h 8 c 6.44,0 8,-0.29 8,-1.5 0,-1.23 -1.78,-1.5 -10,-1.5 h -10 z m 80.42,55.34 c 1.98,3.83 5.69,4.27 8.02,0.94 1.91,-2.73 2.12,-13.7 0.31,-15.95 -2.02,-2.51 -4.5,-2.85 -6.86,-0.95 -2.98,2.42 -3.82,11.42 -1.47,15.96 z m -45.82,0.99 c 2.12,3.03 6.39,2.59 8.11,-0.83 0.69,-1.38 1.27,-4.88 1.28,-7.8 0.01,-4.32 -0.45,-5.75 -2.48,-7.78 -2.07,-2.07 -2.85,-2.31 -4.55,-1.4 -1.13,0.61 -2.48,2.23 -3.01,3.61 -1.49,3.91 -1.13,11.66 0.65,14.2 z M 675,293.5 c 3.54,3.58 6.67,6.5 6.94,6.5 0.83,0 12.06,-11.38 12.06,-12.22 0,-0.43 -5.72,-0.78 -12.72,-0.78 H 668.56 Z M 541.07,691.88 c -1.06,1.97 -0.9,2.12 2.39,2.12 5.52,0 7.54,-2.72 7.54,-10.17 0,-7.23 -1.69,-9.83 -6.41,-9.83 h -3.1 l 0.35,7.88 c 0.22,4.67 -0.1,8.74 -0.77,10 z M 695,637 c 0,12.33 0.1,13 2,13 1.9,0 2,-0.67 2,-13 v -13 h 4.5 c 3.33,0 4.5,-0.39 4.5,-1.5 0,-1.25 -1.94,-1.5 -11.5,-1.5 -9.56,0 -11.5,0.25 -11.5,1.5 0,1.13 1.22,1.5 5,1.5 h 5 z m -236,0 c 0,12.33 0.1,13 2,13 1.9,0 2,-0.67 2,-13 v -13 h 5 c 3.78,0 5,-0.37 5,-1.5 0,-1.25 -1.94,-1.5 -11.5,-1.5 -9.56,0 -11.5,0.25 -11.5,1.5 0,1.11 1.17,1.5 4.5,1.5 h 4.5 z m 446,0 c 0,12.33 0.1,13 2,13 1.9,0 2,-0.67 2,-13 v -13 h 4.5 c 3.33,0 4.5,-0.39 4.5,-1.5 0,-1.24 -1.89,-1.5 -11,-1.5 -9.11,0 -11,0.26 -11,1.5 0,1.11 1.17,1.5 4.5,1.5 H 905 Z M 495.85,685.48 495.5,694 h 3.18 c 1.75,0 3.88,-0.71 4.75,-1.57 1.76,-1.77 2.12,-6.97 0.54,-7.95 -0.6,-0.37 -0.76,-2.07 -0.39,-4.07 0.86,-4.58 -0.8,-6.41 -5.82,-6.41 -3.42,0 -3.83,0.22 -2.78,1.48 0.83,0.99 1.11,4.26 0.87,10 z M 364,635.5 V 650 h 9 c 7.21,0 9,-0.29 9,-1.45 0,-1.1 -1.65,-1.53 -6.75,-1.75 l -6.75,-0.3 -0.28,-12.75 C 367.96,621.83 367.81,621 365.97,621 364.1,621 364,621.74 364,635.5 Z m 585,0 V 650 h 9 c 7.21,0 9,-0.29 9,-1.45 0,-1.1 -1.65,-1.53 -6.75,-1.75 l -6.75,-0.3 -0.28,-12.75 C 952.96,621.83 952.81,621 950.97,621 949.1,621 949,621.74 949,635.5 Z m 22,0 V 650 h 9 c 7.21,0 9,-0.29 9,-1.45 0,-1.1 -1.65,-1.53 -6.75,-1.75 l -6.75,-0.3 -0.28,-12.75 C 974.96,621.83 974.81,621 972.97,621 971.1,621 971,621.74 971,635.5 Z m -145.37,12.25 c 0.56,2.1 1.14,2.25 8.88,2.25 6.33,0 8.41,-0.34 8.84,-1.46 0.45,-1.18 -0.83,-1.51 -6.65,-1.75 l -7.2,-0.29 -0.28,-12.75 C 828.96,621.83 828.81,621 826.97,621 c -1.85,0 -1.97,0.72 -1.96,12.25 0.01,6.74 0.29,13.26 0.62,14.5 z M 820,221.22 c 0,0.43 4.95,0.78 11,0.78 6.05,0 11,-0.35 11,-0.78 0,-0.44 -2.47,-3.23 -5.5,-6.22 l -5.5,-5.43 -5.5,5.43 c -3.03,2.99 -5.5,5.78 -5.5,6.22 z m -298,0.01 c 0,0.42 4.94,0.77 10.97,0.77 12.71,0 12.83,-0.2 4.54,-7.35 l -5.38,-4.65 -5.07,5.22 c -2.78,2.88 -5.06,5.58 -5.06,6.01 z m 153.43,411.79 c -1.41,0.54 -4.78,0.98 -7.5,0.98 H 663 v -10 h 5.57 c 7.15,0 9.43,1.22 9.43,5.06 0,2.29 -0.6,3.22 -2.57,3.96 z m -349.65,-0.58 c -1.33,0.93 -4.34,1.56 -7.5,1.56 H 313 v -10 h 5.93 c 6.31,0 9.07,1.53 9.07,5.01 0,1.03 -1,2.58 -2.22,3.43 z M 819,684.06 c 0,6.45 0.36,9.84 1,9.44 0.55,-0.34 1,-2.39 1,-4.56 0,-5.38 2.04,-5.09 4.85,0.68 1.23,2.54 2.47,4.4 2.74,4.12 0.27,-0.27 -0.28,-2.11 -1.22,-4.09 -1.63,-3.43 -1.63,-3.76 0.15,-7.06 1.54,-2.85 1.66,-3.9 0.69,-6.02 -0.97,-2.14 -1.84,-2.57 -5.19,-2.57 H 819 Z m -45.97,0.19 c 0.02,7.74 0.29,9.8 1.1,8.42 0.58,-1.01 0.85,-2.65 0.59,-3.64 -0.61,-2.32 0.72,-4.49 2.18,-3.59 0.62,0.38 2.05,2.51 3.18,4.72 2.52,4.94 3.76,4.42 1.39,-0.58 -1.57,-3.31 -1.58,-3.83 -0.08,-6.98 2,-4.22 2,-4.52 -0.04,-6.77 -0.98,-1.08 -3.03,-1.83 -5,-1.83 H 773 Z m -246.95,0 c 0.08,10.46 0.28,11.11 1.38,4.5 0.84,-5.02 2.67,-4.73 5.39,0.87 1.23,2.54 2.47,4.4 2.74,4.12 0.27,-0.27 -0.29,-2.15 -1.26,-4.17 -1.42,-2.97 -1.52,-4.04 -0.54,-5.61 0.67,-1.06 1.21,-3.47 1.21,-5.34 0,-3.7 -1.21,-4.62 -6.08,-4.62 H 526 Z m -21.99,-39.36 c -0.96,1.52 -10.14,2.77 -11.34,1.54 -0.41,-0.42 -0.75,-2.71 -0.75,-5.1 V 637 h 5.3 c 2.91,0 5.84,0.54 6.5,1.2 1.4,1.4 1.55,4.71 0.29,6.69 z m 284.66,48.54 c 0.41,0.41 0.89,-1.31 1.05,-3.84 0.24,-3.56 0.7,-4.59 2.03,-4.59 3.07,0 6.17,-2.95 6.17,-5.86 0,-3.73 -1.7,-5.14 -6.2,-5.14 H 788 v 9.33 c 0,5.14 0.34,9.68 0.75,10.1 z m 22.62,-6.08 c -0.73,3.46 -1.3,4.2 -3.49,4.45 -3.19,0.37 -3.88,-1.09 -3.88,-8.19 0,-5.85 1.69,-9.01 4.53,-8.46 2.54,0.49 3.99,6.73 2.84,12.2 z M 748,635.5 c 0,13.83 0.09,14.5 2,14.5 1.91,0 2,-0.67 2,-14.5 0,-13.83 -0.09,-14.5 -2,-14.5 -1.91,0 -2,0.67 -2,14.5 z m 40,0 c 0,13.83 0.09,14.5 2,14.5 1.91,0 2,-0.67 2,-14.5 0,-13.83 -0.09,-14.5 -2,-14.5 -1.91,0 -2,0.67 -2,14.5 z m 70,0 c 0,13.83 0.09,14.5 2,14.5 1.91,0 2,-0.67 2,-14.5 0,-13.83 -0.09,-14.5 -2,-14.5 -1.91,0 -2,0.67 -2,14.5 z m 136,0 c 0,13.83 0.09,14.5 2,14.5 1.91,0 2,-0.67 2,-14.5 0,-13.83 -0.09,-14.5 -2,-14.5 -1.91,0 -2,0.67 -2,14.5 z m -230.57,55.93 c -0.87,0.86 -1.73,1.57 -1.93,1.57 -0.2,0 -1.06,-0.71 -1.93,-1.57 -1.07,-1.07 -1.57,-3.44 -1.57,-7.42 0,-7.36 0.64,-9.01 3.5,-9.01 2.86,0 3.5,1.65 3.5,9.01 0,3.98 -0.5,6.35 -1.57,7.42 z m 69.57,1.74 c 0,1.85 1.74,-0.31 2.16,-2.67 0.25,-1.42 1.28,-2.09 3.51,-2.31 2.79,-0.27 3.22,0.04 3.82,2.75 0.37,1.68 1.08,3.06 1.59,3.06 0.11,0 0.21,0.01 0.3,0.02 0.16,0.02 0.28,0.03 0.36,-0.02 0.31,-0.2 0.01,-1.35 -1.43,-6.94 -0.22,-0.86 -0.47,-1.82 -0.75,-2.89 -2.54,-9.93 -3.08,-11.08 -4.47,-9.6 -0.89,0.93 -5.09,16.31 -5.09,18.6 z M 673,69.21 c 0,0.43 4.07,0.79 9.04,0.79 8.5,0 8.97,-0.11 8.03,-1.86 -0.54,-1.03 -2.64,-3.31 -4.66,-5.09 l -3.67,-3.21 -4.37,4.29 c -2.4,2.36 -4.37,4.64 -4.37,5.08 z M 502.8,631.8 c -0.66,0.66 -3.36,1.2 -6,1.2 H 492 v -9 h 4.07 c 2.23,0 4.93,0.47 6,1.04 2.16,1.15 2.57,4.92 0.73,6.76 z m 46.32,57.45 c -0.78,2.01 -1.76,2.75 -3.64,2.75 h -2.56 l 0.29,-8.25 c 0.28,-8.06 0.35,-8.25 2.79,-8.25 2.26,0 2.58,0.53 3.35,5.5 0.55,3.56 0.47,6.47 -0.23,8.25 z m 144.95,-5 c 0.08,10.98 1.7,11.19 1.9,0.25 l 0.11,-6 1.91,3.5 1.91,3.5 1.27,-3.25 c 0.7,-1.79 1.62,-3.25 2.05,-3.25 0.43,0 0.82,3.49 0.87,7.75 0.05,4.67 0.35,6.76 0.76,5.25 1.11,-4.08 0.17,-18.17 -1.18,-17.74 -0.64,0.2 -1.6,1.8 -2.13,3.56 -1.23,4.09 -2.11,4.02 -3.54,-0.32 -0.64,-1.92 -1.8,-3.5 -2.58,-3.5 -1.14,0 -1.41,2.02 -1.35,10.25 z M 713,635.5 c 0,12.22 0.24,14.5 1.5,14.5 1.26,0 1.5,-2.28 1.5,-14.5 0,-12.22 -0.24,-14.5 -1.5,-14.5 -1.26,0 -1.5,2.28 -1.5,14.5 z m -135.93,52.25 c 1.15,3.44 2.51,6.25 3.01,6.25 0.51,0 0.84,-4.56 0.74,-10.25 l -0.18,-10.25 -0.57,7.41 c -0.66,8.54 -1.69,8.28 -4.64,-1.16 -2.8,-8.96 -4.43,-7.57 -4.43,3.75 0,5.67 0.4,9.5 1,9.5 0.57,0 1.01,-3.09 1.02,-7.25 0.01,-8.22 0.74,-7.86 4.05,2 z M 895,683.92 c 0,6.05 0.4,10.08 1,10.08 0.58,0 1.01,-3.26 1.02,-7.75 0.01,-8.72 0.7,-8.47 4.05,1.5 1.15,3.44 2.51,6.25 3.01,6.25 0.51,0 0.83,-4.55 0.72,-10.25 -0.15,-8.16 -0.26,-8.86 -0.54,-3.43 -0.43,8.28 -1.74,8.34 -4.65,0.21 -3.34,-9.32 -4.61,-8.39 -4.61,3.39 z m -83.14,-51.67 2.11,5.75 h -9.75 l 2.14,-6.41 c 1.18,-3.53 2.42,-6.12 2.77,-5.75 0.34,0.36 1.57,3.25 2.73,6.41 z M 680,674 v 20 l 4.75,-0.13 c 4.47,-0.13 4.54,-0.17 1.25,-0.75 -3.29,-0.58 -3.52,-0.88 -3.81,-4.87 -0.28,-3.97 -0.14,-4.25 2.25,-4.25 1.41,0 2.56,-0.45 2.56,-1 0,-0.55 -1.12,-1 -2.5,-1 -2.18,0 -2.5,-0.44 -2.5,-3.44 0,-3.24 0.22,-3.46 3.75,-3.83 3.44,-0.36 3.35,-0.41 -1,-0.56 z M 352,637.35 c 0,0.36 -2.06,0.65 -4.57,0.65 -0.29,0 -0.56,0 -0.81,0 -1.63,0.01 -2.6,0.02 -2.98,-0.45 -0.57,-0.68 0.08,-2.36 1.65,-6.46 0.17,-0.45 0.35,-0.92 0.54,-1.42 l 1.84,-4.83 2.17,5.93 c 1.19,3.26 2.16,6.23 2.16,6.58 z m 177,0 c 0,0.36 -2.06,0.65 -4.57,0.65 -0.29,0 -0.56,0 -0.81,0 -1.63,0.01 -2.6,0.02 -2.98,-0.45 -0.57,-0.68 0.07,-2.36 1.65,-6.46 0.17,-0.45 0.35,-0.92 0.54,-1.42 l 1.84,-4.83 2.17,5.93 c 1.19,3.26 2.16,6.23 2.16,6.58 z m 118,0 c 0,0.36 -2.03,0.65 -4.5,0.65 -2.47,0 -4.49,-0.11 -4.48,-0.25 0.01,-0.14 1.06,-3.1 2.33,-6.59 l 2.31,-6.35 2.17,5.95 c 1.19,3.27 2.17,6.24 2.17,6.59 z M 510,685.58 V 694 l 4.75,-0.08 c 4.85,-0.08 4.85,-0.28 0,-1.35 -2.44,-0.54 -2.75,-1.06 -2.75,-4.59 0,-3.58 0.25,-3.98 2.5,-3.98 1.38,0 2.5,-0.45 2.5,-1 0,-0.55 -1.12,-1 -2.5,-1 -2.18,0 -2.5,-0.44 -2.5,-3.44 0,-3.24 0.22,-3.46 3.75,-3.83 l 3.75,-0.39 -4.14,-0.17 c -5.1,-0.21 -5.36,0.34 -5.36,11.41 z m 109.2,7.22 c 1.85,1.85 5.53,1.42 7.1,-0.82 2.06,-2.94 0.96,-6.55 -2.91,-9.5 -3.56,-2.71 -4.45,-6.14 -1.85,-7.13 0.84,-0.33 2.42,0.21 3.5,1.18 2.32,2.1 2.67,0.33 0.39,-1.96 -2.06,-2.06 -3.02,-1.98 -5.43,0.43 -2.85,2.85 -2.52,4.2 2,8.26 4.21,3.78 5.02,6.65 2.47,8.76 -1.27,1.06 -1.95,0.88 -4,-1.05 -1.79,-1.68 -2.47,-1.91 -2.47,-0.84 0,0.81 0.54,2.01 1.2,2.67 z m -31.77,-1.23 c 0.54,2.17 1.12,2.42 5.34,2.32 l 4.73,-0.1 -4.25,-0.96 c -4.12,-0.92 -4.25,-1.07 -4.25,-4.89 0,-3.71 0.17,-3.94 3,-3.94 3.76,0 3.96,-1.76 0.25,-2.18 -2.28,-0.27 -2.8,-0.87 -3.06,-3.51 -0.3,-3.09 -0.17,-3.2 4,-3.57 l 4.31,-0.39 -4.75,-0.18 c -4.3,-0.15 -4.75,0.04 -4.79,2.08 -0.03,1.24 -0.29,4.65 -0.59,7.57 -0.3,2.93 -0.28,6.42 0.06,7.75 z m 124.06,0.42 c 2.18,2.41 4.8,2.58 6.94,0.44 2.68,-2.69 1.88,-5.69 -2.54,-9.49 -3.32,-2.86 -4.01,-4 -3.45,-5.75 0.76,-2.39 3.46,-2.89 5.36,-0.99 0.89,0.89 1.2,0.9 1.2,0.04 0,-2.04 -3.76,-3.44 -6,-2.24 -3.35,1.79 -2.62,6.42 1.5,9.57 3.73,2.84 4.58,6.29 2.07,8.37 -1.14,0.95 -1.87,0.76 -3.59,-0.96 -2.66,-2.66 -3.99,-1.75 -1.49,1.01 z m -61.29,0.81 c 0.66,0.66 2.14,1.2 3.3,1.2 5.58,0 6.19,-6.57 1,-10.71 -2.16,-1.72 -3.5,-3.66 -3.5,-5.07 0,-2.75 2.45,-3.93 4.54,-2.19 2.3,1.91 2.75,0.54 0.49,-1.5 -1.85,-1.68 -2.14,-1.69 -4.5,-0.14 -3.75,2.46 -3.35,6.07 0.99,8.85 3.9,2.5 5.36,5.99 3.47,8.27 -1.64,1.98 -2.6,1.88 -4.99,-0.51 -1.28,-1.28 -2,-1.53 -2,-0.7 0,0.72 0.54,1.84 1.2,2.5 z M 560,689.97 c 0,2.22 0.45,4.03 1,4.03 0.55,0 1,-1.99 1,-4.42 0,-2.43 0.91,-6.55 2.03,-9.15 1.12,-2.61 1.88,-5.21 1.68,-5.79 -0.19,-0.57 -1.21,1.07 -2.28,3.65 -1.06,2.59 -2.23,4.7 -2.6,4.71 -0.36,0 -1.44,-2.03 -2.38,-4.5 -0.95,-2.47 -2.1,-4.5 -2.56,-4.5 -0.84,0 -0.47,1.22 2.52,8.22 0.88,2.04 1.59,5.53 1.59,7.75 z m 77,-0.29 c 0,2.71 0.39,4.2 1,3.82 0.55,-0.34 1,-2.38 1,-4.53 0,-2.15 1.1,-6.4 2.44,-9.44 1.35,-3.04 2.07,-5.53 1.61,-5.53 -0.46,0 -1.54,1.76 -2.4,3.91 -2.23,5.59 -3.25,5.71 -5.2,0.6 -0.95,-2.48 -2.1,-4.51 -2.57,-4.51 -0.47,0 0.26,2.53 1.63,5.62 1.43,3.24 2.49,7.51 2.49,10.06 z m -172.47,1.37 c 1.69,3.28 5.36,3.99 7.47,1.45 1.42,-1.71 -0.04,-2.06 -1.69,-0.41 -1.87,1.87 -5.04,-0.64 -5.45,-4.32 -0.99,-8.96 1.9,-14.65 6.1,-12.03 1.61,1.01 1.87,0.98 1.43,-0.16 -0.98,-2.56 -4.47,-2.59 -7,-0.06 -1.89,1.89 -2.39,3.45 -2.39,7.48 0,2.81 0.69,6.43 1.53,8.05 z m 277.94,0.55 c 1.79,2.73 5.63,3.19 7.53,0.9 1.42,-1.71 -0.04,-2.06 -1.69,-0.41 -1.9,1.9 -5.15,-0.73 -5.91,-4.75 -1.47,-7.84 2.32,-14.19 6.85,-11.47 l 2.25,1.35 -2.23,-2.32 -2.24,-2.31 -2.76,2.06 c -2.43,1.8 -2.81,2.82 -3.07,8.3 -0.21,4.41 0.16,6.95 1.27,8.65 z m -239.62,-1.35 c -0.51,0.96 -2.03,1.75 -3.39,1.75 -2.2,0 -2.46,-0.42 -2.46,-4 0,-3.61 0.24,-4 2.53,-4 2.94,0 4.78,3.46 3.32,6.25 z m 364.4,2.36 c -1.55,1.18 -1.32,1.33 2.06,1.36 3.73,0.03 3.77,-0.01 2.25,-2.19 -2.14,-3.06 -2.13,-14.06 0.01,-16.21 1.43,-1.43 1.27,-1.56 -1.75,-1.49 -1.83,0.04 -2.76,0.3 -2.07,0.58 0.85,0.35 1.25,3.05 1.25,8.56 0,6.5 -0.34,8.32 -1.75,9.39 z m -86.42,-12.42 c -0.23,1.64 -1.09,2.4 -2.94,2.61 -2.23,0.26 -2.71,-0.16 -3.25,-2.85 -0.75,-3.73 -0.18,-4.95 2.3,-4.95 2.48,0 4.28,2.41 3.89,5.19 z m -297.71,10.09 0.13,4.22 0.74,-5.02 c 0.4,-2.76 1.72,-6.96 2.93,-9.33 1.21,-2.36 2.03,-4.79 1.83,-5.4 -0.2,-0.6 -1.4,1.11 -2.67,3.81 l -2.31,4.9 -2.45,-4.83 c -3.34,-6.56 -3.95,-5.3 -0.83,1.74 1.38,3.13 2.57,7.59 2.63,9.91 z M 668,684.57 c 0,5.62 0.4,9.43 1,9.43 0.6,0 1,-3.81 1,-9.43 0,-8.99 0.11,-9.45 2.25,-9.86 1.24,-0.24 0,-0.45 -2.75,-0.46 -2.75,-0.01 -4.21,0.19 -3.25,0.44 1.51,0.39 1.75,1.75 1.75,9.88 z m 185,0 c 0,5.62 0.4,9.43 1,9.43 0.6,0 1,-3.81 1,-9.43 0,-8.13 0.24,-9.49 1.75,-9.88 0.96,-0.25 -0.28,-0.46 -2.75,-0.46 -2.47,0 -3.71,0.21 -2.75,0.46 1.51,0.39 1.75,1.75 1.75,9.88 z m -57.17,-4.96 c -0.26,2.31 -0.88,2.95 -3.08,3.21 -2.6,0.3 -2.75,0.09 -2.75,-3.75 0,-3.22 0.37,-4.07 1.75,-4.05 3.04,0.02 4.42,1.58 4.08,4.59 z m 31,0 c -0.26,2.31 -0.88,2.95 -3.08,3.21 -2.6,0.3 -2.75,0.09 -2.75,-3.75 0,-3.22 0.37,-4.07 1.75,-4.05 3.04,0.02 4.42,1.58 4.08,4.59 z m -293,0.58 c -0.24,1.67 -1.09,2.4 -3.08,2.63 -2.6,0.3 -2.75,0.09 -2.75,-3.75 0,-3.31 0.35,-4.07 1.88,-4.07 2.53,0 4.35,2.38 3.95,5.19 z M 473,639.5 c 0,1.13 1.22,1.5 5,1.5 3.78,0 5,-0.37 5,-1.5 0,-1.13 -1.22,-1.5 -5,-1.5 -3.78,0 -5,0.37 -5,1.5 z m 28.5,39 c 0,2.38 -0.48,3.07 -2.32,3.33 -2.08,0.29 -2.29,-0.02 -2,-3 0.25,-2.56 0.78,-3.33 2.32,-3.33 1.56,0 2,0.67 2,3 z m 339.11,4.28 c 0.56,2.8 0.37,3.22 -1.43,3.22 -2.73,0 -3.07,-0.84 -1.97,-4.89 1.05,-3.87 2.42,-3.2 3.4,1.67 z"
       fill="#010000"
       id="path1" />
    <path
       d="m 702,406.68 327.5,1.14 4.72,5.24 c 2.59,2.88 4.47,5.63 4.19,6.09 -0.29,0.47 -76.1,0.85 -168.47,0.85 H 702 Z m 0,16.32 h 342.04 l 4.55,4.19 c 2.5,2.3 4.98,5 5.51,6 0.94,1.74 -5.42,1.81 -175.56,1.81 H 702 Z m -377.39,-3.83 c -0.29,-0.45 1.95,-3.27 4.97,-6.25 l 5.49,-5.42 161.11,-0.32 c 88.61,-0.18 162.19,-0.05 163.52,0.28 2.23,0.56 2.38,1 2.1,6.32 l -0.3,5.72 -168.19,0.25 c -92.5,0.14 -168.42,-0.12 -168.7,-0.58 z M 702,453 h 372.12 l 4.59,4.34 c 2.72,2.57 4.31,4.82 3.89,5.5 -0.54,0.87 -48,1.16 -190.66,1.16 H 702 Z m -422,10.21 c 0,-0.43 2.15,-2.91 4.78,-5.5 L 289.57,453 H 662.1 l -0.6,10.5 -190.75,0.25 C 365.84,463.89 280,463.65 280,463.21 Z m 29,-28.99 c 0,-0.43 2.38,-3.14 5.28,-6.01 l 5.29,-5.22 341.93,0.51 v 11 l -176.25,0.25 C 388.31,434.89 309,434.65 309,434.22 Z M 702,438 h 356.99 l 4.06,3.66 c 2.23,2.02 4.5,4.49 5.04,5.5 0.95,1.78 -4.79,1.84 -182.55,1.84 H 702 Z m -402.84,5.48 5.66,-5.48 177.34,0.02 c 97.54,0 177.93,0.39 178.65,0.84 0.85,0.54 1.21,2.4 1,5.24 l -0.31,4.4 -184,0.23 -184,0.23 z M 702,378 h 297.57 l 5.21,5.28 c 2.87,2.91 5.22,5.61 5.22,6 0,0.4 -69.3,0.72 -154,0.72 H 702 Z m 0.67,-17.67 C 702.3,359.97 702,357.04 702,353.83 V 348 h 267.71 l 5.39,5.75 5.4,5.75 -5,0.66 c -6.56,0.87 -271.97,1.04 -272.83,0.17 z M 354,389.22 c 0,-0.43 2.38,-3.14 5.28,-6.01 l 5.29,-5.22 296.93,0.51 v 11 l -153.75,0.25 C 423.19,389.89 354,389.65 354,389.22 Z m 34.59,-28.96 -5.92,-0.37 L 394.44,348 H 662.1 l -0.6,12.5 -133.5,0.06 c -73.42,0.04 -136.16,-0.1 -139.41,-0.3 z M 702,394 h 313.75 l 4.12,4.48 c 2.27,2.46 4.13,4.71 4.13,5 0,0.28 -72.45,0.52 -161,0.52 H 702 Z m -358.5,5 4.92,-5 h 313.69 l -0.31,4.75 -0.3,4.75 -161.47,0.25 -161.46,0.26 z m 66.19,-66.17 116.91,-0.56 c 64.29,-0.31 120,-0.23 123.79,0.18 8.05,0.86 11.61,3.47 11.61,8.5 V 344 H 398.52 Z M 702,340.67 c 0,-2.28 0.81,-4.08 2.58,-5.75 l 2.59,-2.42 123.59,0.18 123.59,0.19 5.56,5.56 5.57,5.57 H 702 Z m 0,23.33 h 283.42 l 4.29,4.21 c 2.36,2.31 4.29,4.56 4.29,5 0,0.43 -65.7,0.79 -146,0.79 H 702 Z M 566,176.44 c 0,-0.3 2.73,-3.23 6.06,-6.5 l 6.05,-5.94 h 207.45 l 12.88,13 H 682.22 C 618.3,177 566,176.75 566,176.44 Z M 373.5,369 l 4.92,-5 h 283.69 l -0.31,4.75 -0.3,4.75 -146.47,0.25 -146.46,0.26 z m 51.94,-52 107.53,0.01 107.53,0.01 5.75,5.6 c 3.16,3.08 5.75,5.77 5.75,5.99 0,0.21 -53.65,0.39 -119.22,0.39 H 413.56 Z M 712,328.22 c 0,-0.44 2.38,-3.14 5.28,-6 l 5.28,-5.22 h 216.01 l 5.21,5.28 c 2.87,2.91 5.22,5.61 5.22,6 0,0.4 -53.33,0.72 -118.5,0.72 C 765.33,329 712,328.65 712,328.22 Z M 571.14,186.64 c -4.3,-4.35 -4.99,-5.49 -3.64,-6 2.37,-0.91 226.75,-0.74 228.21,0.18 0.84,0.52 -0.34,2.37 -3.78,5.97 l -5,5.21 h -210.5 z m 9.42,9.36 h 100.72 c 55.4,0 100.72,0.35 100.72,0.78 0,0.44 -2.38,3.14 -5.28,6 l -5.28,5.22 h -179 z M 445.5,299 c -1,-0.35 0.32,-2.36 4.42,-6.75 l 5.84,-6.25 h 153.8 l 6.44,6.5 c 3.54,3.58 5.78,6.5 4.97,6.5 -0.81,0 -40.3,0.12 -87.76,0.25 -47.46,0.14 -86.92,0.02 -87.71,-0.25 z M 743,298.99 c -1.23,-0.81 -0.39,-2.08 4.65,-6.99 l 6.15,-6 h 153.76 l 12.88,13 H 833.8 c -47.65,0 -87.24,0.22 -87.97,0.49 -0.73,0.27 -2,0.04 -2.83,-0.5 z M 583,159.89 c 0,-0.61 2.03,-3.11 4.51,-5.55 l 4.5,-4.44 89.95,0.3 89.96,0.3 4.54,4.46 c 2.5,2.45 4.54,4.81 4.54,5.25 0,0.43 -44.55,0.79 -99,0.79 -71.89,0 -99,-0.3 -99,-1.11 z m 145,152.19 c 0,-0.5 2.09,-2.75 4.64,-5 l 4.64,-4.08 h 187.3 l 9.84,10 H 831.21 C 769.46,313 728,312.63 728,312.08 Z m -289.5,-8.88 188.08,-0.2 9.84,10 H 429.72 Z M 596,146.24 c 0,-0.41 2.4,-3.11 5.34,-6 l 5.35,-5.24 74.8,-0.07 74.81,-0.07 5.35,5.29 c 2.94,2.9 5.35,5.63 5.35,6.07 0,0.43 -38.47,0.78 -85.5,0.78 -47.03,0 -85.5,-0.34 -85.5,-0.76 z m 4.69,70.95 c -2.61,-2.64 -4.43,-5.12 -4.05,-5.5 1.08,-1.07 170.58,-0.84 170.19,0.23 -0.18,0.51 -2.27,2.99 -4.64,5.5 l -4.3,4.58 H 605.42 Z m 14.71,15.26 c -2.69,-3.05 -5.05,-5.98 -5.23,-6.5 -0.21,-0.59 26.62,-0.95 71.75,-0.95 39.64,0 72.08,0.26 72.08,0.57 0,0.32 -2.54,3.25 -5.65,6.5 L 742.7,238 H 620.3 Z M 612,130.15 c 0,-0.48 2.45,-3.18 5.44,-6 l 5.44,-5.15 h 117.68 l 11.88,12 H 682.22 C 643.6,131 612,130.62 612,130.15 Z m 146.56,151.94 c -0.31,-0.49 1.74,-2.97 4.55,-5.5 l 5.11,-4.59 h 124.87 l 4.95,4.64 c 2.73,2.55 4.96,5.02 4.96,5.5 0,1.16 -143.72,1.12 -144.44,-0.05 z M 461,282.21 c 0,-0.43 2.15,-2.91 4.78,-5.5 l 4.79,-4.71 h 125.01 l 4.71,4.78 c 2.59,2.64 4.71,5.11 4.71,5.5 0,0.4 -32.4,0.72 -72,0.72 -39.6,0 -72,-0.35 -72,-0.79 z m 310.99,-13.96 c -0.01,-0.41 2.58,-3.11 5.75,-5.99 l 5.76,-5.24 47.53,-0.01 47.53,-0.01 11.88,12 h -59.22 c -32.57,0 -59.23,-0.34 -59.23,-0.75 z M 475,267.89 c 0,-0.61 2.35,-3.31 5.21,-6 l 5.21,-4.89 h 95.15 l 5.21,5.28 c 2.87,2.91 5.22,5.61 5.22,6 0,0.4 -26.1,0.72 -58,0.72 -41.73,0 -58,-0.31 -58,-1.11 z M 628,114.44 c 0,-0.31 2.32,-3.01 5.15,-6 l 5.14,-5.44 h 86.27 l 11.88,12 H 682.22 C 652.4,115 628,114.75 628,114.44 Z m 2.52,133.58 c -2.69,-2.73 -4.66,-5.21 -4.37,-5.51 0.29,-0.29 25.55,-0.41 56.12,-0.27 l 55.59,0.26 -9.45,10.5 h -92.99 z m 9.04,8.98 h 84.88 l -11.88,12 h -61.12 z m 149.57,-5.68 c 0.75,-0.92 3.17,-3.39 5.37,-5.47 l 4,-3.8 32.53,-0.02 32.54,-0.03 10.86,11 h -43.34 c -40.44,0 -43.24,-0.11 -41.96,-1.68 z m -298,-0.04 c 0.75,-0.95 3.13,-3.43 5.28,-5.5 l 3.92,-3.78 h 65.25 l 4.71,4.78 c 2.59,2.64 4.71,5.11 4.71,5.5 0,0.4 -19.18,0.72 -42.62,0.72 -40.21,0 -42.55,-0.1 -41.25,-1.72 z M 644.22,99.15 c -0.94,-0.59 0.08,-2.1 3.7,-5.48 L 652.91,89 h 58.14 l 4.52,4.52 c 2.49,2.49 4.25,4.96 3.92,5.5 -0.74,1.2 -73.39,1.33 -75.27,0.13 z M 815.44,225 h 31.12 l 12.88,13 h -56.88 z m -307.88,9.87 c 1.62,-1.73 4.47,-4.65 6.34,-6.5 l 3.41,-3.37 h 31.25 l 5.72,5.78 c 3.15,3.18 5.72,6.1 5.72,6.5 0,0.4 -12.46,0.72 -27.69,0.72 h -27.68 z m 152.57,43.65 c -2.27,-2.46 -4.13,-4.94 -4.13,-5.5 0,-0.67 8.98,-1.02 26.08,-1.02 15.52,0 25.95,0.37 25.75,0.92 -0.18,0.51 -2.27,2.99 -4.64,5.5 l -4.3,4.58 H 664.25 Z M 657.64,85.31 c -0.38,-0.38 1.67,-3.08 4.55,-6 L 667.43,74 h 28.67 l 4.95,4.95 c 2.72,2.73 4.95,5.43 4.95,6 0,1.19 -47.18,1.53 -48.36,0.36 z m 145.78,605.53 c -2.35,-4.54 -1.51,-13.54 1.47,-15.96 2.36,-1.9 4.84,-1.56 6.86,0.95 1.81,2.25 1.6,13.22 -0.31,15.95 -2.33,3.33 -6.04,2.89 -8.02,-0.94 z m -45.82,0.99 c -1.78,-2.54 -2.14,-10.29 -0.65,-14.2 0.53,-1.38 1.88,-3 3.01,-3.61 1.7,-0.91 2.48,-0.67 4.55,1.4 2.03,2.03 2.49,3.46 2.48,7.78 -0.01,2.92 -0.59,6.42 -1.28,7.8 -1.72,3.42 -5.99,3.86 -8.11,0.83 z M 675,293.5 668.56,287 h 12.72 c 7,0 12.72,0.35 12.72,0.78 0,0.84 -11.23,12.22 -12.06,12.22 -0.27,0 -3.4,-2.92 -6.94,-6.5 z M 541.07,691.88 c 0.67,-1.26 0.99,-5.33 0.77,-10 L 541.49,674 h 3.1 c 4.72,0 6.41,2.6 6.41,9.83 0,7.45 -2.02,10.17 -7.54,10.17 -3.29,0 -3.45,-0.15 -2.39,-2.12 z m -45.22,-6.4 c 0.24,-5.74 -0.04,-9.01 -0.87,-10 -1.05,-1.26 -0.64,-1.48 2.78,-1.48 5.02,0 6.68,1.83 5.82,6.41 -0.37,2 -0.21,3.7 0.39,4.07 1.58,0.98 1.22,6.18 -0.54,7.95 -0.87,0.86 -3,1.57 -4.75,1.57 H 495.5 Z M 820,221.22 c 0,-0.44 2.47,-3.23 5.5,-6.22 l 5.5,-5.43 5.5,5.43 c 3.03,2.99 5.5,5.78 5.5,6.22 0,0.43 -4.95,0.78 -11,0.78 -6.05,0 -11,-0.35 -11,-0.78 z m -298,0.01 c 0,-0.43 2.28,-3.13 5.06,-6.01 l 5.07,-5.22 5.38,4.65 c 8.29,7.15 8.17,7.35 -4.54,7.35 -6.03,0 -10.97,-0.35 -10.97,-0.77 z M 819,684.06 V 674 h 4.02 c 3.35,0 4.22,0.43 5.19,2.57 0.97,2.12 0.85,3.17 -0.69,6.02 -1.78,3.3 -1.78,3.63 -0.15,7.06 0.94,1.98 1.49,3.82 1.22,4.09 -0.27,0.28 -1.51,-1.58 -2.74,-4.12 -2.81,-5.77 -4.85,-6.06 -4.85,-0.68 0,2.17 -0.45,4.22 -1,4.56 -0.64,0.4 -1,-2.99 -1,-9.44 z M 773.03,684.25 773,674 h 3.35 c 1.97,0 4.02,0.75 5,1.83 2.04,2.25 2.04,2.55 0.04,6.77 -1.5,3.15 -1.49,3.67 0.08,6.98 2.37,5 1.13,5.52 -1.39,0.58 -1.13,-2.21 -2.56,-4.34 -3.18,-4.72 -1.46,-0.9 -2.79,1.27 -2.18,3.59 0.26,0.99 -0.01,2.63 -0.59,3.64 -0.81,1.38 -1.08,-0.68 -1.1,-8.42 z m -246.95,0 L 526,674 h 2.92 c 4.87,0 6.08,0.92 6.08,4.62 0,1.87 -0.54,4.28 -1.21,5.34 -0.98,1.57 -0.88,2.64 0.54,5.61 0.97,2.02 1.53,3.9 1.26,4.17 -0.27,0.28 -1.51,-1.58 -2.74,-4.12 -2.72,-5.6 -4.55,-5.89 -5.39,-0.87 -1.1,6.61 -1.3,5.96 -1.38,-4.5 z m 262.67,9.18 C 788.34,693.01 788,688.47 788,683.33 V 674 h 3.8 c 4.5,0 6.2,1.41 6.2,5.14 0,2.91 -3.1,5.86 -6.17,5.86 -1.33,0 -1.79,1.03 -2.03,4.59 -0.16,2.53 -0.64,4.25 -1.05,3.84 z m 22.62,-6.08 c 1.15,-5.47 -0.3,-11.71 -2.84,-12.2 -2.84,-0.55 -4.53,2.61 -4.53,8.46 0,7.1 0.69,8.56 3.88,8.19 2.19,-0.25 2.76,-0.99 3.49,-4.45 z m -47.94,4.08 c 1.07,-1.07 1.57,-3.44 1.57,-7.42 0,-7.36 -0.64,-9.01 -3.5,-9.01 -2.86,0 -3.5,1.65 -3.5,9.01 0,3.98 0.5,6.35 1.57,7.42 0.87,0.86 1.73,1.57 1.93,1.57 0.2,0 1.06,-0.71 1.93,-1.57 z m 69.57,1.74 c 0,-2.29 4.2,-17.67 5.09,-18.6 1.39,-1.48 1.93,-0.33 4.47,9.6 0.28,1.07 0.53,2.03 0.75,2.89 1.44,5.59 1.74,6.74 1.43,6.94 -0.08,0.05 -0.2,0.04 -0.36,0.02 -0.09,-0.01 -0.19,-0.02 -0.3,-0.02 -0.51,0 -1.22,-1.38 -1.59,-3.06 -0.6,-2.71 -1.03,-3.02 -3.82,-2.75 -2.23,0.22 -3.26,0.89 -3.51,2.31 -0.42,2.36 -2.16,4.52 -2.16,2.67 z M 673,69.21 c 0,-0.44 1.97,-2.72 4.37,-5.08 l 4.37,-4.29 3.67,3.21 c 2.02,1.78 4.12,4.06 4.66,5.09 0.94,1.75 0.47,1.86 -8.03,1.86 C 677.07,70 673,69.64 673,69.21 Z M 549.12,689.25 c 0.7,-1.78 0.78,-4.69 0.23,-8.25 -0.77,-4.97 -1.09,-5.5 -3.35,-5.5 -2.44,0 -2.51,0.19 -2.79,8.25 l -0.29,8.25 h 2.56 c 1.88,0 2.86,-0.74 3.64,-2.75 z m 144.95,-5 c -0.06,-8.23 0.21,-10.25 1.35,-10.25 0.78,0 1.94,1.58 2.58,3.5 1.43,4.34 2.31,4.41 3.54,0.32 0.53,-1.76 1.49,-3.36 2.13,-3.56 1.35,-0.43 2.29,13.66 1.18,17.74 -0.41,1.51 -0.71,-0.58 -0.76,-5.25 -0.05,-4.26 -0.44,-7.75 -0.87,-7.75 -0.43,0 -1.35,1.46 -2.05,3.25 l -1.27,3.25 -1.91,-3.5 -1.91,-3.5 -0.11,6 c -0.2,10.94 -1.82,10.73 -1.9,-0.25 z m -117,3.5 c -3.31,-9.86 -4.04,-10.22 -4.05,-2 -0.01,4.16 -0.45,7.25 -1.02,7.25 -0.6,0 -1,-3.83 -1,-9.5 0,-11.32 1.63,-12.71 4.43,-3.75 2.95,9.44 3.98,9.7 4.64,1.16 l 0.57,-7.41 0.18,10.25 c 0.1,5.69 -0.23,10.25 -0.74,10.25 -0.5,0 -1.86,-2.81 -3.01,-6.25 z M 895,683.92 c 0,-11.78 1.27,-12.71 4.61,-3.39 2.91,8.13 4.22,8.07 4.65,-0.21 0.28,-5.43 0.39,-4.73 0.54,3.43 0.11,5.7 -0.21,10.25 -0.72,10.25 -0.5,0 -1.86,-2.81 -3.01,-6.25 -3.35,-9.97 -4.04,-10.22 -4.05,-1.5 -0.01,4.49 -0.44,7.75 -1.02,7.75 -0.6,0 -1,-4.03 -1,-10.08 z M 680,674 l 4.75,0.17 c 4.35,0.15 4.44,0.2 1,0.56 -3.53,0.37 -3.75,0.59 -3.75,3.83 0,3 0.32,3.44 2.5,3.44 1.38,0 2.5,0.45 2.5,1 0,0.55 -1.15,1 -2.56,1 -2.39,0 -2.53,0.28 -2.25,4.25 0.29,3.99 0.52,4.29 3.81,4.87 3.29,0.58 3.22,0.62 -1.25,0.75 L 680,694 Z m -170,11.58 c 0,-11.07 0.26,-11.62 5.36,-11.41 l 4.14,0.17 -3.75,0.39 c -3.53,0.37 -3.75,0.59 -3.75,3.83 0,3 0.32,3.44 2.5,3.44 1.38,0 2.5,0.45 2.5,1 0,0.55 -1.12,1 -2.5,1 -2.25,0 -2.5,0.4 -2.5,3.98 0,3.53 0.31,4.05 2.75,4.59 4.85,1.07 4.85,1.27 0,1.35 L 510,694 Z m 109.2,7.22 c -0.66,-0.66 -1.2,-1.86 -1.2,-2.67 0,-1.07 0.68,-0.84 2.47,0.84 2.05,1.93 2.73,2.11 4,1.05 2.55,-2.11 1.74,-4.98 -2.47,-8.76 -4.52,-4.06 -4.85,-5.41 -2,-8.26 2.41,-2.41 3.37,-2.49 5.43,-0.43 2.28,2.29 1.93,4.06 -0.39,1.96 -1.08,-0.97 -2.66,-1.51 -3.5,-1.18 -2.6,0.99 -1.71,4.42 1.85,7.13 3.87,2.95 4.97,6.56 2.91,9.5 -1.57,2.24 -5.25,2.67 -7.1,0.82 z m -31.77,-1.23 c -0.34,-1.33 -0.36,-4.82 -0.06,-7.75 0.3,-2.92 0.56,-6.33 0.59,-7.57 0.04,-2.04 0.49,-2.23 4.79,-2.08 l 4.75,0.18 -4.31,0.39 c -4.17,0.37 -4.3,0.48 -4,3.57 0.26,2.64 0.78,3.24 3.06,3.51 3.71,0.42 3.51,2.18 -0.25,2.18 -2.83,0 -3,0.23 -3,3.94 0,3.82 0.13,3.97 4.25,4.89 l 4.25,0.96 -4.73,0.1 c -4.22,0.1 -4.8,-0.15 -5.34,-2.32 z m 124.06,0.42 c -2.5,-2.76 -1.17,-3.67 1.49,-1.01 1.72,1.72 2.45,1.91 3.59,0.96 2.51,-2.08 1.66,-5.53 -2.07,-8.37 -4.12,-3.15 -4.85,-7.78 -1.5,-9.57 2.24,-1.2 6,0.2 6,2.24 0,0.86 -0.31,0.85 -1.2,-0.04 -1.9,-1.9 -4.6,-1.4 -5.36,0.99 -0.56,1.75 0.13,2.89 3.45,5.75 4.42,3.8 5.22,6.8 2.54,9.49 -2.14,2.14 -4.76,1.97 -6.94,-0.44 z m -61.29,0.81 c -0.66,-0.66 -1.2,-1.78 -1.2,-2.5 0,-0.83 0.72,-0.58 2,0.7 2.39,2.39 3.35,2.49 4.99,0.51 1.89,-2.28 0.43,-5.77 -3.47,-8.27 -4.34,-2.78 -4.74,-6.39 -0.99,-8.85 2.36,-1.55 2.65,-1.54 4.5,0.14 2.26,2.04 1.81,3.41 -0.49,1.5 -2.09,-1.74 -4.54,-0.56 -4.54,2.19 0,1.41 1.34,3.35 3.5,5.07 5.19,4.14 4.58,10.71 -1,10.71 -1.16,0 -2.64,-0.54 -3.3,-1.2 z M 560,689.97 c 0,-2.22 -0.71,-5.71 -1.59,-7.75 -2.99,-7 -3.36,-8.22 -2.52,-8.22 0.46,0 1.61,2.03 2.56,4.5 0.94,2.47 2.02,4.5 2.38,4.5 0.37,-0.01 1.54,-2.12 2.6,-4.71 1.07,-2.58 2.09,-4.22 2.28,-3.65 0.2,0.58 -0.56,3.18 -1.68,5.79 -1.12,2.6 -2.03,6.72 -2.03,9.15 0,2.43 -0.45,4.42 -1,4.42 -0.55,0 -1,-1.81 -1,-4.03 z m 77,-0.29 c 0,-2.55 -1.06,-6.82 -2.49,-10.06 -1.37,-3.09 -2.1,-5.62 -1.63,-5.62 0.47,0 1.62,2.03 2.57,4.51 1.95,5.11 2.97,4.99 5.2,-0.6 0.86,-2.15 1.94,-3.91 2.4,-3.91 0.46,0 -0.26,2.49 -1.61,5.53 -1.34,3.04 -2.44,7.29 -2.44,9.44 0,2.15 -0.45,4.19 -1,4.53 -0.61,0.38 -1,-1.11 -1,-3.82 z m -172.47,1.37 C 463.69,689.43 463,685.81 463,683 c 0,-4.03 0.5,-5.59 2.39,-7.48 2.53,-2.53 6.02,-2.5 7,0.06 0.44,1.14 0.18,1.17 -1.43,0.16 -4.2,-2.62 -7.09,3.07 -6.1,12.03 0.41,3.68 3.58,6.19 5.45,4.32 1.65,-1.65 3.11,-1.3 1.69,0.41 -2.11,2.54 -5.78,1.83 -7.47,-1.45 z m 277.94,0.55 c -1.11,-1.7 -1.48,-4.24 -1.27,-8.65 0.26,-5.48 0.64,-6.5 3.07,-8.3 l 2.76,-2.06 2.24,2.31 2.23,2.32 -2.25,-1.35 c -4.53,-2.72 -8.32,3.63 -6.85,11.47 0.76,4.02 4.01,6.65 5.91,4.75 1.65,-1.65 3.11,-1.3 1.69,0.41 -1.9,2.29 -5.74,1.83 -7.53,-0.9 z m -239.62,-1.35 c 1.46,-2.79 -0.38,-6.25 -3.32,-6.25 -2.29,0 -2.53,0.39 -2.53,4 0,3.58 0.26,4 2.46,4 1.36,0 2.88,-0.79 3.39,-1.75 z m 364.4,2.36 c 1.41,-1.07 1.75,-2.89 1.75,-9.39 0,-5.51 -0.4,-8.21 -1.25,-8.56 -0.69,-0.28 0.24,-0.54 2.07,-0.58 3.02,-0.07 3.18,0.06 1.75,1.49 -2.14,2.15 -2.15,13.15 -0.01,16.21 1.52,2.18 1.48,2.22 -2.25,2.19 -3.38,-0.03 -3.61,-0.18 -2.06,-1.36 z m -86.42,-12.42 c 0.39,-2.78 -1.41,-5.19 -3.89,-5.19 -2.48,0 -3.05,1.22 -2.3,4.95 0.54,2.69 1.02,3.11 3.25,2.85 1.85,-0.21 2.71,-0.97 2.94,-2.61 z m -297.71,10.09 c -0.06,-2.32 -1.25,-6.78 -2.63,-9.91 -3.12,-7.04 -2.51,-8.3 0.83,-1.74 l 2.45,4.83 2.31,-4.9 c 1.27,-2.7 2.47,-4.41 2.67,-3.81 0.2,0.61 -0.62,3.04 -1.83,5.4 -1.21,2.37 -2.53,6.57 -2.93,9.33 l -0.74,5.02 z M 668,684.57 c 0,-8.13 -0.24,-9.49 -1.75,-9.88 -0.96,-0.25 0.5,-0.45 3.25,-0.44 2.75,0.01 3.99,0.22 2.75,0.46 -2.14,0.41 -2.25,0.87 -2.25,9.86 0,5.62 -0.4,9.43 -1,9.43 -0.6,0 -1,-3.81 -1,-9.43 z m 185,0 c 0,-8.13 -0.24,-9.49 -1.75,-9.88 -0.96,-0.25 0.28,-0.46 2.75,-0.46 2.47,0 3.71,0.21 2.75,0.46 -1.51,0.39 -1.75,1.75 -1.75,9.88 0,5.62 -0.4,9.43 -1,9.43 -0.6,0 -1,-3.81 -1,-9.43 z m -57.17,-4.96 c 0.34,-3.01 -1.04,-4.57 -4.08,-4.59 -1.38,-0.02 -1.75,0.83 -1.75,4.05 0,3.84 0.15,4.05 2.75,3.75 2.2,-0.26 2.82,-0.9 3.08,-3.21 z m 31,0 c 0.34,-3.01 -1.04,-4.57 -4.08,-4.59 -1.38,-0.02 -1.75,0.83 -1.75,4.05 0,3.84 0.15,4.05 2.75,3.75 2.2,-0.26 2.82,-0.9 3.08,-3.21 z m -293,0.58 c 0.4,-2.81 -1.42,-5.19 -3.95,-5.19 -1.53,0 -1.88,0.76 -1.88,4.07 0,3.84 0.15,4.05 2.75,3.75 1.99,-0.23 2.84,-0.96 3.08,-2.63 z M 501.5,678.5 c 0,-2.33 -0.44,-3 -2,-3 -1.54,0 -2.07,0.77 -2.32,3.33 -0.29,2.98 -0.08,3.29 2,3 1.84,-0.26 2.32,-0.95 2.32,-3.33 z m 339.11,4.28 c -0.98,-4.87 -2.35,-5.54 -3.4,-1.67 -1.1,4.05 -0.76,4.89 1.97,4.89 1.8,0 1.99,-0.42 1.43,-3.22 z"
       fill="#a40304"
       id="path2" />
    <path
       d="m 224,635.5 c 0,-13.91 0.08,-14.5 2.03,-14.5 1.48,0 3.98,2.98 9.25,11.02 l 7.22,11.03 0.28,-11.03 c 0.26,-10.2 0.43,-11.02 2.25,-11.02 1.87,0 1.97,0.75 1.97,14.57 0,14.49 -0.01,14.57 -2.23,14.25 -1.57,-0.23 -4.35,-3.54 -9.49,-11.32 l -7.26,-11 -0.01,11.25 C 228,649.33 227.88,650 226,650 c -1.91,0 -2,-0.67 -2,-14.5 z m 29,0.03 V 621 h 10.5 c 8.67,0 10.5,0.26 10.5,1.5 0,1.22 -1.61,1.5 -8.5,1.5 H 257 v 4.5 4.5 h 8 c 7.33,0 8,0.17 8,2 0,1.83 -0.67,2 -8.05,2 h -8.06 l 0.31,4.75 0.3,4.75 8.82,0.29 c 6.35,0.21 8.71,0.63 8.42,1.5 -0.27,0.82 -3.83,1.3 -11.07,1.49 L 253,650.07 Z m 31.23,13.8 c -3.01,-1.21 -4.23,-6.18 -4.23,-17.28 0,-8.85 0.28,-11.05 1.41,-11.05 1.11,0 1.49,2.37 1.75,11.09 0.31,10.24 0.52,11.24 2.7,13 3.06,2.48 7.61,2.44 10.14,-0.09 1.76,-1.76 2,-3.33 2,-13 0,-10.33 0.12,-11 2,-11 1.88,0 2,0.67 2,11.58 0,11.46 -0.03,11.6 -2.92,14.5 -2.53,2.53 -3.64,2.91 -8.25,2.84 -2.93,-0.04 -5.9,-0.31 -6.6,-0.59 z M 309,635.5 V 621 h 9.05 c 8.27,0 9.25,0.21 11.5,2.45 1.35,1.35 2.45,3.54 2.45,4.87 0,3.18 -3.62,7.68 -6.18,7.68 -1.85,0 -1.77,0.3 0.97,3.41 1.64,1.87 3.81,4.8 4.82,6.5 1,1.7 2.13,3.09 2.52,3.09 0.38,0 2.1,-3.71 3.82,-8.25 7.68,-20.27 7.43,-19.75 9.69,-19.75 1.83,0 2.98,2.07 7.76,14 3.08,7.71 5.6,14.23 5.6,14.5 0,0.28 -0.86,0.5 -1.92,0.5 -1.35,0 -2.42,-1.34 -3.65,-4.54 l -1.74,-4.55 -6.09,0.3 -6.1,0.29 -1.47,4.25 c -1.45,4.2 -1.53,4.25 -6.22,4.25 -4.27,0 -4.92,-0.31 -6.3,-2.99 -0.85,-1.64 -2.94,-4.56 -4.63,-6.5 -2.39,-2.72 -3.85,-3.51 -6.48,-3.51 H 313 v 6.5 c 0,5.83 -0.21,6.5 -2,6.5 -1.91,0 -2,-0.67 -2,-14.5 z m 43,1.85 c 0,-0.35 -0.97,-3.32 -2.16,-6.58 l -2.17,-5.93 -1.84,4.83 c -3.38,8.86 -3.48,8.33 1.6,8.33 2.51,0 4.57,-0.29 4.57,-0.65 z m -26.22,-4.91 c 1.22,-0.85 2.22,-2.4 2.22,-3.43 0,-3.48 -2.76,-5.01 -9.07,-5.01 H 313 v 5 5 h 5.28 c 3.16,0 6.17,-0.63 7.5,-1.56 z M 364,635.5 c 0,-13.76 0.1,-14.5 1.97,-14.5 1.84,0 1.99,0.83 2.25,12.75 l 0.28,12.75 6.75,0.3 c 5.1,0.22 6.75,0.65 6.75,1.75 0,1.16 -1.79,1.45 -9,1.45 h -9 z m 32,0 c 0,-14.37 0.02,-14.5 2.25,-14.5 1.77,0.01 3.8,2.41 9.5,11.22 l 7.25,11.22 v -11.22 c 0,-10.55 0.12,-11.22 2,-11.22 1.91,0 2,0.67 2,14.5 0,13.9 -0.08,14.5 -2.03,14.5 -1.48,0 -3.95,-2.99 -9.25,-11.23 l -7.22,-11.23 -0.28,11.23 C 399.96,649.18 399.79,650 397.97,650 396.1,650 396,649.25 396,635.5 Z m 29,0 V 621 h 10.5 c 8.67,0 10.5,0.26 10.5,1.5 0,1.22 -1.61,1.5 -8.5,1.5 H 429 v 4.5 4.5 h 8 c 7.33,0 8,0.17 8,2 0,1.83 -0.67,2 -8.05,2 h -8.06 l 0.31,4.75 0.3,4.75 8.75,0.29 c 6.88,0.23 8.75,0.6 8.75,1.75 0,1.19 -2.02,1.46 -11,1.46 h -11 z m 34,1.5 v -13 h -4.5 c -3.33,0 -4.5,-0.39 -4.5,-1.5 0,-1.25 1.94,-1.5 11.5,-1.5 9.56,0 11.5,0.25 11.5,1.5 0,1.13 -1.22,1.5 -5,1.5 h -5 v 13 c 0,12.33 -0.1,13 -2,13 -1.9,0 -2,-0.67 -2,-13 z m 29,-1.4 V 621 h 7.55 c 6.67,0 7.82,0.28 10,2.45 2.93,2.94 3.11,5.52 0.58,8.64 -1.85,2.29 -1.85,2.34 0.5,4.19 2.96,2.33 3.18,7.5 0.46,10.86 -1.69,2.09 -2.91,2.4 -10.5,2.71 l -8.59,0.36 z m 16.09,9.29 c 1.26,-1.98 1.11,-5.29 -0.29,-6.69 -0.66,-0.66 -3.59,-1.2 -6.5,-1.2 H 492 v 4.33 c 0,2.39 0.34,4.68 0.75,5.1 1.2,1.23 10.38,-0.02 11.34,-1.54 z M 502.8,631.8 c 1.84,-1.84 1.43,-5.61 -0.73,-6.76 -1.07,-0.57 -3.77,-1.04 -6,-1.04 H 492 v 4.5 4.5 h 4.8 c 2.64,0 5.34,-0.54 6,-1.2 z m 9.2,17.5 c 0,-0.39 2.36,-6.92 5.25,-14.5 7.1,-18.67 7.6,-18.66 15.15,0.2 3.08,7.71 5.6,14.23 5.6,14.5 0,0.28 -0.86,0.5 -1.92,0.5 -1.35,0 -2.42,-1.34 -3.65,-4.54 l -1.74,-4.55 -6,0.3 -6.01,0.29 -1.55,4.25 c -1.03,2.85 -2.14,4.25 -3.34,4.25 -0.98,0 -1.79,-0.32 -1.79,-0.7 z m 17,-11.95 c 0,-0.35 -0.97,-3.32 -2.16,-6.58 l -2.17,-5.93 -1.84,4.83 c -3.38,8.86 -3.48,8.33 1.6,8.33 2.51,0 4.57,-0.29 4.57,-0.65 z m 13.92,9.73 c -3.2,-3.2 -3.73,-5.56 -1.45,-6.43 0.93,-0.36 1.93,0.42 2.76,2.14 2.39,5.01 12.6,5.42 14.46,0.58 1.08,-2.82 -1.09,-4.67 -8.22,-6.98 -7.17,-2.33 -9.47,-4.26 -9.47,-7.97 0,-5.36 7.59,-9.2 14.44,-7.31 3.66,1.01 4.96,2.23 6.01,5.64 0.97,3.19 -2.07,3 -4.67,-0.3 -3.8,-4.83 -14.33,-1.72 -11.17,3.3 0.61,0.97 3.95,2.5 7.47,3.42 9.99,2.61 12.77,8.14 7,13.91 -2.54,2.54 -3.66,2.92 -8.58,2.92 -4.92,0 -6.04,-0.38 -8.58,-2.92 z M 568,635.5 V 621 h 10.5 c 8.67,0 10.5,0.26 10.5,1.5 0,1.22 -1.61,1.5 -8.5,1.5 H 572 v 4.5 4.5 h 8 c 7.33,0 8,0.17 8,2 0,1.83 -0.67,2 -8.05,2 h -8.06 l 0.31,4.75 0.3,4.75 8.25,0.29 c 6.43,0.23 8.25,0.61 8.25,1.75 0,1.19 -1.96,1.46 -10.5,1.46 H 568 Z m 27,0 V 621 h 7.78 c 11.45,0 15.22,3.59 15.22,14.5 0,10.63 -4.4,14.5 -16.47,14.5 H 595 Z m 16.72,8.04 c 1.81,-2.11 2.28,-3.85 2.28,-8.49 0,-8.32 -1.95,-10.48 -9.51,-10.52 l -5.73,-0.03 0.18,10.44 c 0.1,5.75 0.44,10.86 0.75,11.37 0.31,0.51 2.63,0.69 5.16,0.4 3.32,-0.37 5.21,-1.24 6.87,-3.17 z M 630,649.3 c 0,-0.39 2.36,-6.92 5.25,-14.5 7.1,-18.67 7.6,-18.66 15.15,0.2 3.08,7.71 5.6,14.23 5.6,14.5 0,0.28 -0.86,0.5 -1.92,0.5 -1.35,0 -2.42,-1.34 -3.65,-4.54 l -1.74,-4.55 -6,0.3 -6.01,0.29 -1.55,4.25 c -1.03,2.85 -2.14,4.25 -3.34,4.25 -0.98,0 -1.79,-0.32 -1.79,-0.7 z m 17,-11.95 c 0,-0.35 -0.98,-3.32 -2.17,-6.59 l -2.17,-5.95 -2.31,6.35 c -1.27,3.49 -2.32,6.45 -2.33,6.59 -0.01,0.14 2.01,0.25 4.48,0.25 2.47,0 4.5,-0.29 4.5,-0.65 z m 12,-1.85 V 621 h 9.33 c 8.45,0 9.52,0.22 11.5,2.31 3.9,4.16 1.66,12.69 -3.33,12.69 -0.83,0 -1.5,0.45 -1.5,1 0,0.55 0.46,1 1.01,1 0.92,0 7.99,10.14 7.99,11.45 0,0.3 -0.89,0.55 -1.99,0.55 -1.24,0 -2.99,-1.59 -4.69,-4.25 C 672.58,638.32 671,637 666.83,637 H 663 v 6.5 c 0,5.83 -0.21,6.5 -2,6.5 -1.91,0 -2,-0.67 -2,-14.5 z m 16.43,-2.48 c 1.97,-0.74 2.57,-1.67 2.57,-3.96 0,-3.84 -2.28,-5.06 -9.43,-5.06 H 663 v 5 5 h 4.93 c 2.72,0 6.09,-0.44 7.5,-0.98 z M 695,637 v -13 h -5 c -3.78,0 -5,-0.37 -5,-1.5 0,-1.25 1.94,-1.5 11.5,-1.5 9.56,0 11.5,0.25 11.5,1.5 0,1.11 -1.17,1.5 -4.5,1.5 H 699 v 13 c 0,12.33 -0.1,13 -2,13 -1.9,0 -2,-0.67 -2,-13 z m 18,-1.5 c 0,-12.22 0.24,-14.5 1.5,-14.5 1.26,0 1.5,2.28 1.5,14.5 0,12.22 -0.24,14.5 -1.5,14.5 -1.26,0 -1.5,-2.28 -1.5,-14.5 z m 10,0 V 621 h 10 c 8.22,0 10,0.27 10,1.5 0,1.21 -1.56,1.5 -8,1.5 h -8 v 4.5 4.5 h 7 c 6.33,0 7,0.19 7,2 0,1.81 -0.67,2 -7,2 h -7 v 6.5 c 0,5.83 -0.21,6.5 -2,6.5 -1.91,0 -2,-0.67 -2,-14.5 z m 25,0 c 0,-13.83 0.09,-14.5 2,-14.5 1.91,0 2,0.67 2,14.5 0,13.83 -0.09,14.5 -2,14.5 -1.91,0 -2,-0.67 -2,-14.5 z m 15.51,12.33 c -7.69,-6.05 -7.19,-20.06 0.9,-25.37 2.97,-1.94 10.23,-2.26 13.36,-0.59 1.21,0.66 2.9,2.53 3.75,4.16 1.4,2.72 1.39,2.97 -0.13,2.97 -0.91,0 -2.7,-1.12 -3.98,-2.5 -3.54,-3.82 -9.38,-3.51 -12.93,0.7 -2.41,2.87 -2.65,3.82 -2.26,9.15 0.36,4.95 0.89,6.35 3.16,8.3 3.6,3.1 8.55,3.11 11.45,0.04 1.19,-1.28 2.17,-2.85 2.17,-3.5 0,-0.66 0.9,-1.19 2,-1.19 2.31,0 2.47,0.88 0.81,4.53 -2.54,5.55 -13.03,7.45 -18.3,3.3 z M 788,635.5 c 0,-13.83 0.09,-14.5 2,-14.5 1.91,0 2,0.67 2,14.5 0,13.83 -0.09,14.5 -2,14.5 -1.91,0 -2,-0.67 -2,-14.5 z m 8,14.24 c 0,-0.14 2.42,-6.55 5.38,-14.25 4.69,-12.19 5.66,-13.99 7.61,-13.99 1.93,0 3.01,1.92 8.05,14.25 5.57,13.64 5.72,14.25 3.59,14.25 -1.7,0 -2.58,-0.99 -3.76,-4.25 l -1.55,-4.25 -6.01,-0.29 -6,-0.3 -1.74,4.55 c -1.23,3.2 -2.3,4.54 -3.65,4.54 -1.06,0 -1.92,-0.12 -1.92,-0.26 z m 15.86,-17.49 c -1.16,-3.16 -2.39,-6.05 -2.73,-6.41 -0.35,-0.37 -1.59,2.22 -2.77,5.75 l -2.14,6.41 h 4.88 4.87 z m 13.77,15.5 c -0.33,-1.24 -0.61,-7.76 -0.62,-14.5 -0.01,-11.53 0.11,-12.25 1.96,-12.25 1.84,0 1.99,0.83 2.25,12.75 l 0.28,12.75 7.2,0.29 c 5.82,0.24 7.1,0.57 6.65,1.75 -0.43,1.12 -2.51,1.46 -8.84,1.46 -7.74,0 -8.32,-0.15 -8.88,-2.25 z M 858,635.5 c 0,-13.83 0.09,-14.5 2,-14.5 1.91,0 2,0.67 2,14.5 0,13.83 -0.09,14.5 -2,14.5 -1.91,0 -2,-0.67 -2,-14.5 z m 11,0 c 0,-13.81 0.09,-14.5 1.99,-14.5 1.44,0 4,3.12 9.25,11.24 l 7.26,11.24 0.28,-11.24 c 0.23,-8.86 0.58,-11.24 1.69,-11.24 1.86,0 2.57,5.83 2.27,18.5 -0.22,9.15 -0.41,10.02 -2.24,10.27 -1.56,0.21 -3.55,-2.11 -9,-10.5 l -7,-10.77 -0.28,10.75 c -0.27,9.93 -0.44,10.75 -2.25,10.75 -1.87,0 -1.97,-0.75 -1.97,-14.5 z m 36,1.5 v -13 h -4.5 c -3.33,0 -4.5,-0.39 -4.5,-1.5 0,-1.24 1.89,-1.5 11,-1.5 9.11,0 11,0.26 11,1.5 0,1.11 -1.17,1.5 -4.5,1.5 H 909 v 13 c 0,12.33 -0.1,13 -2,13 -1.9,0 -2,-0.67 -2,-13 z m 17,-1.5 V 621 h 10.5 c 8.67,0 10.5,0.26 10.5,1.5 0,1.22 -1.61,1.5 -8.5,1.5 H 926 v 4.5 4.5 h 8 c 7.33,0 8,0.17 8,2 0,1.83 -0.67,2 -8.05,2 h -8.06 l 0.31,4.75 0.3,4.75 8.75,0.29 c 6.88,0.23 8.75,0.6 8.75,1.75 0,1.19 -2.02,1.46 -11,1.46 h -11 z m 27,0 c 0,-13.76 0.1,-14.5 1.97,-14.5 1.84,0 1.99,0.83 2.25,12.75 l 0.28,12.75 6.75,0.3 c 5.1,0.22 6.75,0.65 6.75,1.75 0,1.16 -1.79,1.45 -9,1.45 h -9 z m 22,0 c 0,-13.76 0.1,-14.5 1.97,-14.5 1.84,0 1.99,0.83 2.25,12.75 l 0.28,12.75 6.75,0.3 c 5.1,0.22 6.75,0.65 6.75,1.75 0,1.16 -1.79,1.45 -9,1.45 h -9 z m 23,0 c 0,-13.83 0.09,-14.5 2,-14.5 1.91,0 2,0.67 2,14.5 0,13.83 -0.09,14.5 -2,14.5 -1.91,0 -2,-0.67 -2,-14.5 z m 16.3,12.54 c -8.5,-5.18 -8.46,-19.96 0.06,-25.54 2.95,-1.93 11.28,-2.3 14.4,-0.63 1.23,0.66 2.99,2.35 3.91,3.75 1.42,2.16 1.46,2.68 0.26,3.42 -0.99,0.62 -2.22,-0.01 -4.12,-2.08 -3.8,-4.17 -9.74,-4.18 -13.89,-0.04 -2.36,2.37 -2.92,3.78 -2.92,7.44 0,6.17 1.37,9.26 4.91,11.09 5.85,3.03 14.09,0.74 14.09,-3.92 0,-2.13 -0.51,-2.45 -4.24,-2.72 -3.1,-0.23 -4.33,-0.78 -4.57,-2.06 -0.29,-1.51 0.49,-1.75 5.74,-1.75 h 6.07 v 5.51 c 0,5.15 -0.22,5.65 -3.25,7.5 -4.32,2.64 -12.15,2.65 -16.45,0.03 z M 1036,635.5 V 621 h 10.5 c 8.67,0 10.5,0.26 10.5,1.5 0,1.22 -1.61,1.5 -8.5,1.5 h -8.5 v 4.5 4.5 h 8 c 7.33,0 8,0.17 8,2 0,1.83 -0.67,2 -8.05,2 h -8.06 l 0.31,4.75 0.3,4.75 8.7,0.29 c 7.15,0.24 8.61,0.55 8.15,1.75 -0.45,1.15 -2.76,1.46 -10.96,1.46 H 1036 Z m 27,0 c 0,-18.87 0.78,-19.09 11.14,-3.25 l 7.36,11.25 0.28,-11.25 c 0.23,-9.09 0.57,-11.25 1.75,-11.25 1.23,0 1.47,2.42 1.47,14.5 0,18.64 -0.64,18.83 -11.01,3.25 l -7.49,-11.25 -0.28,11.25 c -0.23,9.09 -0.57,11.25 -1.75,11.25 -1.23,0 -1.47,-2.42 -1.47,-14.5 z m 34.18,13.25 c -5.38,-2.59 -8.08,-15.18 -4.66,-21.78 1.95,-3.78 6.84,-6.29 12.25,-6.3 3.34,0 4.92,0.62 7.25,2.85 3.24,3.1 3.76,4.97 1.61,5.79 -0.78,0.3 -2.31,-0.74 -3.53,-2.39 -1.65,-2.23 -2.96,-2.92 -5.55,-2.92 -1.86,0 -4.11,0.28 -5.01,0.62 -2.59,1 -4.54,5.88 -4.54,11.41 0,4.33 0.45,5.58 2.92,8.05 3.67,3.66 8.19,3.9 11.48,0.61 1.27,-1.27 2.51,-2.92 2.76,-3.68 0.27,-0.79 1.14,-1.11 2.07,-0.75 2.29,0.88 1.16,4.23 -2.43,7.25 -3.26,2.74 -10.26,3.34 -14.62,1.24 z M 1121,635.5 V 621 h 10.5 c 8.67,0 10.5,0.26 10.5,1.5 0,1.22 -1.61,1.5 -8.5,1.5 h -8.5 v 4.46 4.46 l 7.75,0.29 c 6.09,0.23 7.75,0.61 7.75,1.79 0,1.18 -1.66,1.56 -7.8,1.79 l -7.81,0.3 0.31,4.7 0.3,4.71 8.25,0.29 c 6.43,0.23 8.25,0.61 8.25,1.75 0,1.19 -1.96,1.46 -10.5,1.46 H 1121 Z m -648,4 c 0,-1.13 1.22,-1.5 5,-1.5 3.78,0 5,0.37 5,1.5 0,1.13 -1.22,1.5 -5,1.5 -3.78,0 -5,-0.37 -5,-1.5 z m 324.99,-42.39 c -8.76,-2.82 -15.1,-8.22 -49.99,-42.56 l -28.5,-28.05 -0.26,35.28 -0.27,35.28 -11.53,-0.28 -11.53,-0.28 0.07,-39.34 c 0.07,-42.79 -0.01,-42.15 5.88,-48.5 3.72,-4.01 9.08,-6.52 15.57,-7.28 10.25,-1.2 13.47,1.17 51.07,37.56 l 33,31.94 0.26,-34.44 0.27,-34.44 H 814.01 826 l -0.01,36.75 c 0,21.93 -0.41,38.23 -1.02,40.43 -1.71,6.13 -7.01,13.01 -11.97,15.5 -5.15,2.6 -11.36,3.6 -15.01,2.43 z M 259,585.05 V 573 h 54.5 c 53.17,0 54.55,-0.05 56.5,-2 1.24,-1.24 2,-3.33 2,-5.5 V 562 h -45.82 c -47.1,0 -54.27,-0.47 -61.27,-4.05 -8.65,-4.41 -11.41,-10.93 -11.41,-26.95 0,-10.27 0.27,-12.04 2.5,-16.5 2.11,-4.22 3.43,-5.47 8.5,-8 l 6,-3 59.75,-0.28 59.75,-0.28 V 514.97 527 H 334.5 279 v 3.31 c 0,1.82 0.64,4.18 1.42,5.25 1.36,1.86 3.36,1.96 49.25,2.44 l 47.83,0.5 6,3 c 10.14,5.07 12.95,11.57 12.31,28.49 -0.57,14.87 -3.55,20.13 -13.72,24.25 -5.55,2.23 -6.03,2.25 -64.34,2.56 L 259,597.1 Z M 408,550 v -47 h 13 13 l 0.05,19.75 c 0.05,18.79 0.14,19.63 1.72,17.25 3.6,-5.38 8.87,-9.17 31.73,-22.83 L 491.21,503 h 24.12 24.11 l -38.28,22.48 c -21.06,12.37 -38.97,22.88 -39.82,23.35 -1.16,0.65 1.26,2.47 9.81,7.41 52.26,30.19 67.48,39.07 68.3,39.85 0.57,0.55 -8.57,0.91 -22.9,0.91 h -23.84 l -24.05,-13.75 c -22.33,-12.77 -30.11,-18.3 -33.35,-23.75 -0.95,-1.6 -1.2,2 -1.25,17.75 L 434,597 h -13 -13 z m 174,34.56 V 572 h 37.3 c 27.68,0 37.61,-0.31 38.5,-1.2 0.66,-0.66 1.2,-3.79 1.2,-6.95 v -5.75 l -42.75,-0.3 c -42.19,-0.3 -42.82,-0.33 -47.75,-2.6 -5.99,-2.76 -10.9,-7.26 -13.84,-12.7 -1.94,-3.6 -2.19,-5.82 -2.49,-22.25 L 551.84,502 H 563.92 576 v 13.93 c 0,11.33 0.29,14.22 1.57,15.5 1.38,1.37 6.43,1.57 40.38,1.57 30.88,0 39.03,-0.27 39.9,-1.32 0.64,-0.77 1.21,-7.06 1.37,-15.25 l 0.28,-13.93 12.31,-0.28 12.3,-0.28 -0.3,36.78 c -0.3,35.99 -0.36,36.89 -2.63,41.9 -2.85,6.31 -7.15,10.57 -13.68,13.58 -4.91,2.26 -5.69,2.31 -45.25,2.61 L 582,597.12 Z m 279.5,11.41 c -9.82,-2.01 -16.14,-6.47 -20.3,-14.35 -2.69,-5.09 -2.7,-5.24 -3.01,-29.28 -0.19,-14.61 0.09,-25.68 0.72,-28.01 2.5,-9.29 11.11,-17.98 20.07,-20.28 1.94,-0.49 27.48,-1.06 56.77,-1.25 L 969,502.46 V 514.73 527 h -52.46 c -51.84,0 -52.48,0.02 -53.56,2.05 -0.61,1.12 -0.96,3.48 -0.79,5.25 l 0.31,3.2 53.25,0.26 53.25,0.26 V 550.01 562 H 915.5 862 v 2.78 c 0,1.53 0.7,3.78 1.56,5 l 1.55,2.22 H 917.06 969 v 12.5 12.5 l -51.75,-0.11 c -28.46,-0.06 -53.55,-0.48 -55.75,-0.92 z M 1035,562.03 V 527 H 1007.5 980 v -12 -12 h 66.5 66.5 v 12 12 h -26.99 -26.98 l -0.27,34.75 -0.26,34.75 -11.75,0.28 -11.75,0.28 z"
       fill="#c9c9c9"
       id="path3" />
  </g>
  <g
     inkscape:groupmode="layer"
     id="layer5"
     inkscape:label="Drawing"
     style="display:inline">
    <g
       inkscape:groupmode="layer"
       id="layer4"
       inkscape:label="Blackbox"
       style="display:inline"
       sodipodi:insensitive="true">
      <rect
         style="display:inline;fill:#000000;fill-opacity:1;stroke-width:5.76;stroke-linecap:round;stroke-linejoin:round"
         id="rect34"
         width="1268.421"
         height="664.47369"
         x="71.052635"
         y="59.210526" />
      <path
         style="display:none;fill:#3d63fb;fill-opacity:0.432859;stroke-width:5.76;stroke-linecap:round;stroke-linejoin:round"
         d="M 530.61226,208.48994 661.5,342.38477 v 123.48564 l 40.5,0.37726 V 342.38477 L 833.97147,204.43605 804.79094,173.80409 682.87712,296.48973 563.04127,177.45485 Z"
         id="path29-2"
         sodipodi:nodetypes="cccccccccc" />
    </g>
    <path
       id="rect26"
       style="display:inline;fill:#a40304;stroke-width:19.9209;stroke-linecap:round;stroke-linejoin:round"
       d="m 688.29883,58.003906 -11.83594,11.611328 h 23.13867 z m -15.44727,15.154297 -11.83398,11.609375 h 53.33398 L 703.05078,73.158203 Z M 657.4043,88.3125 645.56836,99.921875 h 83.53516 L 717.80273,88.3125 Z m -15.44727,15.15234 -11.83594,11.61133 h 113.73438 l -11.30274,-11.61133 z m -15.44726,15.1543 -11.83594,11.61133 h 143.93359 l -11.30273,-11.61133 z m -15.44727,15.1543 -11.83594,11.61133 h 174.13282 l -11.30274,-11.61133 z m -15.44727,15.15429 -11.83593,11.60938 h 204.33008 l -11.30274,-11.60938 z m -15.44921,15.1543 -11.83399,11.60938 h 234.52735 l -11.30079,-11.60938 z m -15.44532,15.15235 11.33985,11.61132 h 218.44726 l 11.80078,-11.61132 z M 579.51953,194.38867 590.85938,206 h 188.24804 l 11.80078,-11.61133 z m -45.69336,15.1543 -11.83398,11.60937 h 30.56836 l -11.58789,-11.60937 z m 60.49219,0 11.33789,11.60937 h 158.05273 l 11.79883,-11.60937 z m 234.4082,0 -11.91797,11.60937 h 30.30469 L 835.8125,209.54297 Z m -310.34961,15.1543 -11.83398,11.60937 h 61.14062 l -11.58593,-11.60937 z m 90.74024,0 11.33789,11.60937 h 127.85351 l 11.79883,-11.60937 z m 204.05078,0 -11.91797,11.60937 h 60.61523 l -11.30078,-11.60937 z m -310.23633,15.15234 -11.83594,11.61133 h 91.71289 l -11.58984,-11.61133 z m 120.98242,0 11.33985,11.61133 h 97.65429 l 11.79883,-11.61133 z m 173.69922,0 -11.92187,11.61133 h 90.92578 l -11.30274,-11.61133 z m -310.1289,15.1543 -4.72657,4.63671 -7.05469,6.97461 h 122.22852 l -11.58789,-11.61132 z m 151.22851,0 11.33984,11.61132 h 67.45508 l 11.79883,-11.61132 z m 143.3418,0 -11.91992,11.61132 h 121.28711 l -4.56641,-4.63671 -6.78906,-6.97461 z M 472.11914,270.1582 460.375,281.76758 H 613.05469 L 601.4668,270.1582 Z m 181.39258,0 11.33789,11.60938 h 37.25977 l 11.79687,-11.60938 z m 112.98633,0 -11.91797,11.60938 H 906.3418 L 894.91016,270.1582 Z m -309.70899,15.1543 -11.74414,11.60938 H 628.17773 L 616.5918,285.3125 Z m 211.52149,0 11.33789,11.60938 h 7.05859 l 11.79883,-11.60938 z m 82.6289,0 -11.91797,11.60938 H 921.26562 L 909.83398,285.3125 Z m -309.47851,15.15234 -11.7461,11.61133 h 213.58789 l -11.58984,-11.61133 z m 293.92383,0 -11.92188,11.61133 H 936.1875 l -11.43359,-11.61133 z m -309.25391,15.1543 -11.74414,11.61133 h 244.03906 l -11.58789,-11.61133 z m 293.69531,0 -11.91992,11.61133 h 243.20508 l -11.43555,-11.61133 z m -309.02344,15.1543 -11.74609,11.61133 H 661.5 v -11.61133 z m 293.93165,0 -0.23829,11.61133 H 966.0332 l -11.43359,-11.61133 z m -309.26172,15.15429 -11.74414,11.60938 H 661.5 v -11.60938 z m 308.94922,0 -0.23829,11.60938 h 276.77149 l -11.4336,-11.60938 z m -324.2793,15.1543 -11.74414,11.60938 H 661.5 v -11.60938 z m 323.9668,0 -0.23829,11.60938 H 995.87695 L 984.44531,361.08203 Z M 364.81445,376.23438 353.07031,387.8457 H 661.5 v -11.61132 z m 338.98438,0 -0.24024,11.61132 H 1010.8008 L 999.36523,376.23438 Z M 349.48633,391.38867 337.74023,403 H 661.5 v -11.61133 z m 354,0 L 703.24609,403 h 322.47661 l -11.4336,-11.61133 z m -369.33008,15.1543 -11.74414,11.60937 H 661.5 v -11.60937 z m 369.01758,0 -0.24024,11.60937 h 337.71091 l -11.4336,-11.60937 z m -384.34766,15.1543 -11.74414,11.60937 H 661.5 v -11.60937 z m 384.03516,0 -0.23828,11.60937 h 352.94335 l -11.4316,-11.60937 z M 303.5,436.84961 291.75391,448.46094 H 661.5 v -11.61133 z m 399.04883,0 -0.23828,11.61133 h 368.17965 l -11.4355,-11.61133 z m -414.37891,15.1543 -11.74609,11.61132 h 808.98827 l -11.4336,-11.61132 H 702.23633 L 702,463.5 h -40.5 v -11.49609 z" />
    <text
       xml:space="preserve"
       style="font-style:normal;font-variant:normal;font-weight:500;font-stretch:normal;font-size:25.4683px;font-family:'Helvetica Neue LT Std';-inkscape-font-specification:'Helvetica Neue LT Std, Medium';font-variant-ligatures:normal;font-variant-caps:normal;font-variant-numeric:normal;font-variant-east-asian:normal;text-align:start;letter-spacing:2.79357px;word-spacing:3.16365px;writing-mode:lr-tb;direction:ltr;text-anchor:start;fill:#a40304;fill-opacity:1;stroke-width:6.87646;stroke-linecap:round;stroke-linejoin:round"
       x="539.87152"
       y="577.50281"
       id="text34"
       transform="scale(0.83138831,1.2028074)"
       inkscape:label="Cyberdyne"><tspan
         sodipodi:role="line"
         id="tspan34"
         x="539.87152"
         y="577.50281"
         style="font-size:25.4683px;stroke-width:6.87646">CYBERDYNE SYSTEMS CORPORATION</tspan></text>
    <text
       xml:space="preserve"
       style="font-style:normal;font-variant:normal;font-weight:500;font-stretch:normal;font-size:39.164px;font-family:'Helvetica Neue LT Std';-inkscape-font-specification:'Helvetica Neue LT Std, Medium';font-variant-ligatures:normal;font-variant-caps:normal;font-variant-numeric:normal;font-variant-east-asian:normal;text-align:start;letter-spacing:2.45475px;word-spacing:2.77995px;writing-mode:lr-tb;direction:ltr;text-anchor:start;display:inline;fill:#ffffff;fill-opacity:1;stroke-width:6.04246;stroke-linecap:round;stroke-linejoin:round"
       x="236.37395"
       y="599.14551"
       id="text32"
       inkscape:label="Neural"
       transform="scale(0.92373829,1.0825577)"><tspan
         sodipodi:role="line"
         id="tspan32"
         x="236.37395"
         y="599.14551"
         style="font-size:39.164px;stroke-width:6.04246">NEURAL NET-BASED ARTIFICIAL INTELLIGENCE</tspan></text>
    <path
       id="path78"
       style="display:inline;fill:#ffffff"
       d="m 795.69561,597.04307 c -8.76,-2.82 -15.1,-8.22 -49.99,-42.56 l -28.5,-28.05 -0.26,35.28 -0.27,35.28 -11.53,-0.28 -11.53,-0.28 0.07,-39.34 c 0.07,-42.79 -0.01,-42.15 5.88,-48.5 3.72,-4.01 9.08,-6.52 15.57,-7.28 10.25,-1.2 13.47,1.17 51.07,37.56 l 33,31.94 0.26,-34.44 0.27,-34.44 h 11.98 11.99 l -0.01,36.75 c 0,21.93 -0.41,38.23 -1.02,40.43 -1.71,6.13 -7.01,13.01 -11.97,15.5 -5.15,2.6 -11.36,3.6 -15.01,2.43 z m -538.99,-12.06 v -12.05 h 54.5 c 53.17,0 54.55,-0.05 56.5,-2 1.24,-1.24 2,-3.33 2,-5.5 v -3.5 h -45.82 c -47.1,0 -54.27,-0.47 -61.27,-4.05 -8.65,-4.41 -11.41,-10.93 -11.41,-26.95 -0.95059,-18.70984 7.23411,-25.68341 17,-27.5 l 59.75,-0.28 59.75,-0.28 v 12.03 12.03 h -55.5 -55.5 v 3.31 c 0,1.82 0.64,4.18 1.42,5.25 1.36,1.86 3.36,1.96 49.25,2.44 0,0 31.95644,0 47.83,0.5 12.98235,2.48682 18.129,17.02561 18.12238,28.30051 -0.57,14.87 -3.36238,23.31949 -13.53238,27.43949 -5.55,2.23 -6.03,2.25 -64.34,2.56 l -58.75,0.3 z m 149,-35.05 v -47 h 13 13 l 0.05,19.75 c 0.05,18.79 0.14,19.63 1.72,17.25 3.6,-5.38 8.87,-9.17 31.73,-22.83 l 23.71,-14.17 h 24.12 24.11 l -38.28,22.48 c -21.06,12.37 -38.97,22.88 -39.82,23.35 -1.16,0.65 1.26,2.47 9.81,7.41 52.26,30.19 67.48,39.07 68.3,39.85 0.57,0.55 -8.57,0.91 -22.9,0.91 h -23.84 l -24.05,-13.75 c -22.33,-12.77 -30.11,-18.3 -33.35,-23.75 -0.95,-1.6 -1.2,2 -1.25,17.75 l -0.06,19.75 h -13 -13 z m 174,34.56 v -12.56 h 37.3 c 27.68,0 37.61,-0.31 38.5,-1.2 0.66,-0.66 1.2,-3.79 1.2,-6.95 v -5.75 l -42.75,-0.3 c -42.19,-0.3 -42.82,-0.33 -47.75,-2.6 -5.99,-2.76 -10.9,-7.26 -13.84,-12.7 -1.94,-3.6 -2.19,-5.82 -2.49,-22.25 l -0.33,-18.25 h 12.08 12.08 v 13.93 c 0,11.33 0.29,14.22 1.57,15.5 1.38,1.37 6.43,1.57 40.38,1.57 30.88,0 39.03,-0.27 39.9,-1.32 0.64,-0.77 1.21,-7.06 1.37,-15.25 l 0.28,-13.93 12.31,-0.28 12.3,-0.28 -0.3,36.78 c -0.3,35.99 -0.36,36.89 -2.63,41.9 -2.85,6.31 -7.15,10.57 -13.68,13.58 -4.91,2.26 -5.69,2.31 -45.25,2.61 l -40.25,0.31 z m 452.99999,-22.53 v -35.03 h -27.5 -27.49999 v -12 -12 h 66.49999 66.5 v 12 12 h -26.99 -26.98 l -0.27,34.75 -0.26,34.75 -11.75,0.28 -11.75,0.28 z m -173.49999,33.94 c -9.82,-2.01 -16.14,-6.47 -20.3,-14.35 -2.69,-5.09 -2.7,-5.24 -3.01,-29.28 -0.19,-14.61 0.09,-25.68 0.72,-28.01 2.5,-9.29 11.11,-17.98 20.07,-20.28 1.94,-0.49 27.48,-1.06 56.77,-1.25 l 53.25,-0.34 v 12.27 12.27 h -52.46 c -51.84,0 -52.48,0.02 -53.56,2.05 -1.23541,2.6811 -0.75372,5.62446 -0.48,8.45 l 53.25,0.26 53.25,0.26 v 11.99 11.99 h -53.5 -53.5 c 0.16691,2.53852 -0.92258,9.39433 2.12285,9.56236 21.82855,1.20442 52.93715,0.43764 52.93715,0.43764 h 51.94 v 12.5 12.5 l -51.75,-0.11 c -28.46,-0.06 -53.55,-0.48 -55.75,-0.92 z"
       inkscape:label="Skynet"
       sodipodi:nodetypes="ccccccccccccccccccccccssscscscccccccsccscccccccccccccccccccsccccccccccsssccccccccscscccccccccccccccccccccccccccccccccccccsccccccccscccccc" />
  </g>
</svg>
